<svg id="Ebene_1" data-name="Ebene 1" xmlns="http://www.w3.org/2000/svg" xmlns:xlink="http://www.w3.org/1999/xlink" viewBox="0 0 500 383.45"><defs><style>.cls-1,.cls-2,.cls-3{fill:none;}.cls-1,.cls-2,.cls-3,.cls-5{stroke:#eaeaea;stroke-miterlimit:10;}.cls-1,.cls-5{stroke-width:8.69px;}.cls-2{stroke-width:8.69px;}.cls-3{stroke-width:9px;}.cls-4,.cls-5{fill:#eaeaea;}.cls-6{clip-path:url(#clip-path);}</style><clipPath id="clip-path"><rect class="cls-1" x="126.95" y="264.71" width="246.01" height="72.41" rx="36.21" ry="36.21"/></clipPath></defs><title>taskomat-logo</title><rect class="cls-2" x="17.99" y="142.61" width="27.11" height="97.27" rx="4.08" ry="4.08"/><rect class="cls-2" x="454.81" y="142.61" width="27.11" height="97.27" rx="4.08" ry="4.08"/><rect class="cls-2" x="481.92" y="165.87" width="13.56" height="46.59" rx="2" ry="2"/><rect class="cls-2" x="4.44" y="165.87" width="13.56" height="46.59" rx="2" ry="2"/><rect class="cls-1" x="45.11" y="50.04" width="409.7" height="328.98" rx="42.47" ry="42.47"/><path class="cls-3" d="M323.41,49.95C309.83,23.95,282.05,4.77,250,4.77s-59.88,19.18-73.45,45.18h146.9Z"/><path class="cls-4" d="M150.81,119.06A48.93,48.93,0,1,1,101.88,168a48.93,48.93,0,0,1,48.93-48.93m0-8.69A57.61,57.61,0,1,0,208.42,168a57.68,57.68,0,0,0-57.61-57.61h0Z"/><circle class="cls-5" cx="150.81" cy="167.99" r="16.51"/><path class="cls-4" d="M352.08,119.06A48.93,48.93,0,1,1,303.15,168a48.93,48.93,0,0,1,48.93-48.93m0-8.69A57.61,57.61,0,1,0,409.69,168a57.68,57.68,0,0,0-57.61-57.61h0Z"/><circle class="cls-5" cx="352.08" cy="167.99" r="16.51"/><g class="cls-6"><line class="cls-1" x1="347.29" y1="386.9" x2="347.29" y2="195.42"/><line class="cls-1" x1="319.32" y1="386.9" x2="319.32" y2="195.42"/><line class="cls-1" x1="291.35" y1="386.9" x2="291.35" y2="195.42"/><line class="cls-1" x1="263.38" y1="386.9" x2="263.38" y2="195.42"/><line class="cls-1" x1="235.42" y1="386.9" x2="235.42" y2="195.42"/><line class="cls-1" x1="207.45" y1="386.9" x2="207.45" y2="195.42"/><line class="cls-1" x1="179.48" y1="386.9" x2="179.48" y2="195.42"/><line class="cls-1" x1="151.51" y1="386.9" x2="151.51" y2="195.42"/><line class="cls-1" x1="55.87" y1="300.92" x2="421.67" y2="300.92"/></g><rect class="cls-1" x="126.95" y="264.71" width="246.01" height="72.41" rx="36.21" ry="36.21"/></svg>