<?xml version="1.0" encoding="utf-8"?>
<!-- Generator: Adobe Illustrator 16.0.0, SVG Export Plug-In . SVG Version: 6.00 Build 0)  -->
<!DOCTYPE svg PUBLIC "-//W3C//DTD SVG 1.1//EN" "http://www.w3.org/Graphics/SVG/1.1/DTD/svg11.dtd">
<svg version="1.1" id="Layer_1" xmlns="http://www.w3.org/2000/svg" xmlns:xlink="http://www.w3.org/1999/xlink" x="0px" y="0px"
	 width="250px" height="250px" viewBox="0 0 250 250" enable-background="new 0 0 250 250" xml:space="preserve">
<g>
	<path fill-rule="evenodd" clip-rule="evenodd" stroke="#FFFFFF" stroke-width="2" stroke-miterlimit="10" d="M156.684,83.292
		c1.261,0.459,2.507,0.927,3.401,2.022c0.953,1.167,1.398,2.496,1.399,3.986c0.004,1.791,0.001,3.581,0.001,5.521
		c0.597,0,1.157-0.009,1.717,0.001c3.485,0.061,5.93,2.462,5.96,5.937c0.035,4.128,0.034,8.257-0.001,12.386
		c-0.025,2.959-1.775,5.155-4.697,5.71c-5.966,1.133-11.95,2.166-17.93,3.23c-6.545,1.165-13.093,2.316-19.639,3.48
		c-1.319,0.234-1.883,0.9-1.909,2.225c-0.015,0.696-0.003,1.394-0.003,2.189c1.93,0,3.776-0.021,5.622,0.006
		c2.538,0.038,4.654,1.46,5.49,3.646c1.297,3.385-0.681,6.99-4.243,7.741c-0.246,0.052-0.49,0.111-0.826,0.188
		c0.326,2.562,0.647,5.091,0.971,7.619c0.841,6.599,1.749,13.188,2.507,19.796c0.692,6.043-3.578,11.535-9.558,12.512
		c-0.185,0.029-0.359,0.114-0.539,0.173c-0.896,0-1.793,0-2.689,0c-2.009-0.439-3.954-1.033-5.598-2.345
		c-3.359-2.679-4.986-6.176-4.482-10.441c1.021-8.64,2.19-17.261,3.296-25.891c0.057-0.443,0.089-0.889,0.142-1.421
		c-0.464-0.109-0.927-0.194-1.374-0.331c-2.647-0.81-4.363-3.422-4.041-6.13c0.335-2.82,2.613-4.982,5.489-5.094
		c1.947-0.075,3.899-0.015,5.99-0.015c0-0.713-0.002-1.37,0.001-2.028c0.016-3.461,1.862-5.624,5.285-6.229
		c12.278-2.174,24.555-4.355,36.832-6.535c1.554-0.276,2.066-0.88,2.069-2.471c0.004-3.778,0.001-7.555,0.001-11.333
		c0-2.146-0.592-2.734-2.744-2.734c-0.318,0-0.637,0-1.042,0c-0.021,0.307-0.055,0.581-0.056,0.855
		c-0.006,1.825,0.034,3.65-0.015,5.474c-0.087,3.283-2.461,5.645-5.738,5.769c-0.287,0.011-0.576,0.005-0.863,0.005
		c-21.194,0-42.387,0-63.579,0c-4.399,0-6.654-2.269-6.654-6.695c0-1.757,0-3.515,0-5.41c-0.608,0-1.171,0.018-1.732-0.004
		c-1.246-0.048-2.099-0.841-2.094-1.921c0.004-1.081,0.858-1.863,2.106-1.91c0.537-0.02,1.076-0.003,1.72-0.003
		c0-1.473,0-2.871,0-4.269c0-4.34,0.857-5.635,4.802-7.26C111.855,83.292,134.27,83.292,156.684,83.292z M122.966,106.924
		c10.693,0,21.389,0,32.083-0.001c1.952,0,2.595-0.643,2.596-2.593c0.002-4.867,0.002-9.734,0-14.601
		c-0.001-1.952-0.644-2.595-2.594-2.595c-21.325-0.001-42.649-0.001-63.975,0c-1.952,0-2.595,0.643-2.596,2.593
		c-0.002,4.835-0.001,9.669,0,14.504c0,2.081,0.61,2.691,2.691,2.691C101.769,106.924,112.368,106.924,122.966,106.924z
		 M127.129,141.551c-2.783,0-5.43,0-8.104,0c-0.061,0.32-0.128,0.6-0.164,0.884c-1.083,8.404-2.195,16.806-3.213,25.218
		c-0.181,1.495-0.259,3.111,0.113,4.543c1.047,4.021,4.991,6.296,8.97,5.424c3.914-0.858,6.466-4.663,5.929-8.732
		c-0.898-6.816-1.749-13.639-2.625-20.458C127.741,146.148,127.435,143.868,127.129,141.551z M123.011,137.663
		c1.152,0,2.306,0.001,3.458,0c1.408-0.001,2.818,0.029,4.226-0.017c1.128-0.036,1.93-0.843,1.96-1.854
		c0.031-1.046-0.789-1.873-1.954-1.966c-0.19-0.016-0.384-0.008-0.575-0.008c-4.706,0-9.412-0.003-14.118,0.005
		c-0.381,0-0.777,0.009-1.139,0.111c-0.866,0.245-1.326,0.874-1.39,1.755c-0.06,0.826,0.539,1.625,1.384,1.853
		c0.364,0.097,0.758,0.114,1.138,0.115C118.338,137.668,120.674,137.663,123.011,137.663z"/>
	<path fill-rule="evenodd" clip-rule="evenodd" stroke="#FFFFFF" stroke-width="2" stroke-miterlimit="10" d="M119.223,94.818
		c-7.908,0-15.816,0-23.724,0c-0.192,0-0.384,0-0.577,0c-1.646-0.004-2.581-0.699-2.583-1.918c-0.002-1.22,0.934-1.922,2.578-1.922
		c16.2-0.001,32.4,0,48.6,0c0.287,0,0.58-0.01,0.862,0.032c1.004,0.149,1.72,0.944,1.721,1.885c0.002,0.939-0.713,1.742-1.716,1.887
		c-0.346,0.051-0.703,0.034-1.055,0.034C135.295,94.819,127.259,94.818,119.223,94.818z"/>
	<path fill-rule="evenodd" clip-rule="evenodd" stroke="#FFFFFF" stroke-width="2" stroke-miterlimit="10" d="M151.892,94.803
		c-1.004,0.005-1.909-0.89-1.916-1.895c-0.006-1.001,0.889-1.907,1.896-1.915c1-0.009,1.907,0.889,1.915,1.894
		C153.793,93.89,152.895,94.798,151.892,94.803z"/>
	<path fill-rule="evenodd" clip-rule="evenodd" stroke="#FFFFFF" stroke-width="2" stroke-miterlimit="10" d="M123.066,170.147
		c1.003,0.002,1.903,0.906,1.901,1.91c-0.002,1.002-0.908,1.903-1.909,1.9c-1.005-0.004-1.905-0.908-1.901-1.909
		C121.162,171.045,122.064,170.146,123.066,170.147z"/>
</g>
</svg>
