<?xml version="1.0" encoding="utf-8"?>
<!-- Generator: Adobe Illustrator 16.0.0, SVG Export Plug-In . SVG Version: 6.00 Build 0)  -->
<!DOCTYPE svg PUBLIC "-//W3C//DTD SVG 1.1//EN" "http://www.w3.org/Graphics/SVG/1.1/DTD/svg11.dtd">
<svg version="1.1" id="Layer_1" xmlns="http://www.w3.org/2000/svg" xmlns:xlink="http://www.w3.org/1999/xlink" x="0px" y="0px"
	 width="250px" height="250px" viewBox="0 0 250 250" enable-background="new 0 0 250 250" xml:space="preserve">
<g>
	<path fill-rule="evenodd" clip-rule="evenodd" d="M130.098,224.711c-3.536,0-7.073,0-10.609,0c-0.777-0.121-1.558-0.221-2.33-0.363
		c-6.271-1.162-12.671-1.867-18.784-3.59c-16.69-4.707-30.824-13.77-42.511-26.553c-12.26-13.41-20.03-29.088-23.097-47.032
		c-0.602-3.521-0.966-7.083-1.44-10.625c0-3.78,0-7.561,0-11.341c0.116-0.653,0.254-1.304,0.344-1.961
		c0.442-3.258,0.718-6.546,1.33-9.771c3.212-16.917,10.709-31.749,22.049-44.657c1.767-2.012,3.679-3.906,5.622-5.751
		c1.182-1.122,2.788-1.04,3.771,0.058c1.037,1.158,1.047,2.432,0.085,3.647c-0.489,0.618-1.115,1.125-1.635,1.721
		c-2.886,3.301-5.795,6.583-8.596,9.954c-0.449,0.541-0.725,1.606-0.521,2.251c2.973,9.398,6.023,18.772,9.128,28.129
		c0.205,0.617,0.912,1.3,1.536,1.512c8.87,3.022,17.758,5.986,26.667,8.892c0.622,0.203,1.602,0.079,2.125-0.297
		c9.599-6.9,19.165-13.848,28.69-20.849c0.563-0.415,1.034-1.364,1.039-2.068c0.069-9.205,0.077-18.412-0.008-27.617
		c-0.008-0.799-0.577-1.864-1.226-2.344c-7.99-5.901-16.054-11.701-24.065-17.574c-0.886-0.649-1.636-0.858-2.634-0.365
		c-5.723,2.821-11.468,5.594-17.184,8.43c-1.855,0.92-3.309,0.753-4.174-0.657c-0.844-1.378-0.354-2.96,1.322-4.009
		c10.497-6.567,21.815-11.019,34.043-13.062c3.348-0.56,6.725-0.945,10.089-1.41c3.536,0,7.073,0,10.609,0
		c0.532,0.097,1.06,0.25,1.595,0.284c12.305,0.783,24.103,3.707,35.033,9.364c27.502,14.234,44.563,36.529,50.645,67.002
		c2.944,14.751,1.89,29.381-2.325,43.725c-5.937,20.202-17.685,36.456-34.579,48.94c-11.181,8.26-23.674,13.682-37.365,16.193
		C138.553,223.686,134.312,224.123,130.098,224.711z M96.387,123.468c0.846,2.609,1.637,5.036,2.418,7.466
		c0.803,2.492,0.311,4.04-1.439,4.559c-1.77,0.523-2.98-0.408-3.804-2.949c-0.657-2.026-1.196-4.098-1.999-6.063
		c-0.313-0.765-1.096-1.62-1.855-1.879c-8.863-3.031-17.772-5.927-26.642-8.942c-1.212-0.412-2.018-0.177-2.981,0.532
		c-5.988,4.404-12.018,8.75-18.025,13.124c-1.721,1.252-4.148,2.205-4.922,3.901c-0.81,1.774-0.018,4.279,0.075,6.465
		c0.005,0.122,0.012,0.244,0.025,0.364c1.782,15.885,7.22,30.359,16.768,43.225c0.396,0.533,1.246,1.027,1.888,1.031
		c9.629,0.066,19.259,0.064,28.889,0.002c0.647-0.004,1.531-0.473,1.9-1.004c5.099-7.359,10.143-14.758,15.136-22.191
		c0.37-0.551,0.485-1.506,0.302-2.156c-0.743-2.632-1.667-5.213-2.49-7.823c-0.68-2.155-0.067-3.667,1.639-4.172
		c1.554-0.461,2.872,0.464,3.566,2.544c0.75,2.251,1.533,4.494,2.179,6.775c0.347,1.224,0.863,1.74,2.246,1.732
		c10.971-0.064,21.941-0.063,32.912-0.003c1.362,0.008,1.861-0.485,2.254-1.714c3.274-10.258,6.581-20.505,9.983-30.721
		c0.549-1.646,0.177-2.51-1.178-3.479c-8.075-5.779-16.088-11.644-24.124-17.478c-1.124-0.816-2.255-1.621-3.41-2.451
		C115.9,109.285,106.199,116.335,96.387,123.468z M128.473,82.229c0,4.571-0.052,9.142,0.051,13.71
		c0.017,0.761,0.504,1.774,1.107,2.218c9.367,6.899,18.781,13.735,28.225,20.529c0.523,0.377,1.493,0.525,2.108,0.325
		c8.506-2.759,16.992-5.579,25.459-8.456c0.623-0.211,1.33-0.89,1.534-1.505c3.127-9.409,6.193-18.836,9.201-28.284
		c0.195-0.618,0.034-1.6-0.354-2.119c-10.396-13.917-23.669-24.059-39.96-30.163c-0.681-0.255-1.814-0.088-2.41,0.339
		c-7.978,5.704-15.911,11.47-23.798,17.295c-0.604,0.446-1.097,1.457-1.113,2.217C128.422,72.965,128.473,77.598,128.473,82.229z
		 M180.343,184.348c4.325,0,8.652-0.051,12.977,0.029c1.353,0.023,2.183-0.361,3.003-1.5c10.397-14.433,15.885-30.545,16.773-48.277
		c0.057-1.122-0.291-1.758-1.174-2.393c-7.412-5.338-14.778-10.742-22.213-16.049c-0.604-0.432-1.718-0.598-2.427-0.369
		c-8.507,2.748-16.993,5.564-25.448,8.465c-0.753,0.258-1.573,1.135-1.827,1.902c-3.604,10.85-7.136,21.725-10.606,32.618
		c-0.232,0.729-0.098,1.844,0.323,2.474c4.904,7.34,9.874,14.639,14.91,21.891c0.424,0.613,1.433,1.139,2.183,1.156
		C171.322,184.4,175.833,184.348,180.343,184.348z M125.727,163.436c-5.728,0-11.456,0.026-17.183-0.022
		c-1.146-0.011-1.885,0.29-2.557,1.289c-4.789,7.128-9.67,14.192-14.436,21.333c-0.45,0.676-0.628,1.848-0.386,2.617
		c2.683,8.529,5.486,17.02,8.221,25.531c0.328,1.021,0.83,1.531,1.937,1.83c16.401,4.463,32.735,4.213,49.042-0.477
		c1.048-0.303,1.586-0.818,1.921-1.869c2.665-8.342,5.42-16.656,8.058-25.008c0.229-0.725,0.077-1.828-0.343-2.455
		c-4.807-7.188-9.721-14.305-14.548-21.479c-0.665-0.987-1.384-1.325-2.542-1.314C137.184,163.464,131.455,163.436,125.727,163.436z
		 M103.145,45.732c7.54,5.481,14.61,10.65,21.742,15.732c0.416,0.297,1.5,0.127,1.99-0.222c6.687-4.773,13.323-9.618,19.976-14.439
		c0.318-0.23,0.675-0.406,1.377-0.823C132.947,42.106,118.313,41.836,103.145,45.732z M36.929,126.262
		c7.012-5.086,13.623-9.852,20.17-14.702c0.36-0.267,0.422-1.301,0.249-1.864c-1.288-4.186-2.671-8.342-4.023-12.508
		c-1.233-3.8-2.466-7.601-3.794-11.697C41.868,98.084,37.943,111.462,36.929,126.262z M212.793,126.1
		c0.672-10.179-6.987-34.79-12.479-40.276c-2.653,8.142-5.305,16.231-7.888,24.343c-0.131,0.411,0.167,1.22,0.528,1.486
		C199.476,116.451,206.036,121.195,212.793,126.1z M93.149,213.217c-0.029-0.459-0.004-0.648-0.058-0.813
		c-2.307-7.111-4.649-14.211-6.907-21.338c-0.365-1.15-1.03-1.268-2.026-1.266c-7.672,0.025-15.345,0.012-23.018,0.021
		c-0.495,0-0.989,0.092-1.758,0.168C69.019,200.398,79.993,208.221,93.149,213.217z M158.339,212.66
		c12.64-5.188,23.086-12.713,32.042-22.564c-0.297-0.127-0.447-0.25-0.599-0.25c-7.676-0.016-15.353-0.039-23.026,0.02
		c-0.462,0.004-1.139,0.6-1.335,1.076c-0.602,1.457-1.02,2.99-1.506,4.494C162.101,201.037,160.287,206.641,158.339,212.66z"/>
	<path fill-rule="evenodd" clip-rule="evenodd" fill="#FFFFFF" d="M96.387,123.468c9.813-7.132,19.513-14.183,29.312-21.306
		c1.155,0.83,2.286,1.635,3.41,2.451c8.036,5.834,16.049,11.699,24.124,17.478c1.354,0.97,1.727,1.834,1.178,3.479
		c-3.402,10.216-6.709,20.463-9.983,30.721c-0.393,1.229-0.892,1.722-2.254,1.714c-10.971-0.06-21.941-0.062-32.912,0.003
		c-1.383,0.008-1.899-0.509-2.246-1.732c-0.646-2.281-1.429-4.524-2.179-6.775c-0.694-2.08-2.012-3.005-3.566-2.544
		c-1.706,0.505-2.319,2.017-1.639,4.172c0.823,2.61,1.747,5.191,2.49,7.823c0.184,0.65,0.068,1.605-0.302,2.156
		c-4.993,7.434-10.037,14.832-15.136,22.191c-0.369,0.531-1.253,1-1.9,1.004c-9.63,0.063-19.26,0.064-28.889-0.002
		c-0.642-0.004-1.492-0.498-1.888-1.031c-9.548-12.865-14.986-27.34-16.768-43.225c-0.013-0.12-0.021-0.242-0.025-0.364
		c-0.092-2.186-0.884-4.69-0.075-6.465c0.774-1.696,3.202-2.649,4.922-3.901c6.008-4.375,12.038-8.72,18.025-13.124
		c0.963-0.708,1.769-0.943,2.981-0.532c8.869,3.015,17.778,5.911,26.642,8.942c0.759,0.259,1.542,1.114,1.855,1.879
		c0.803,1.966,1.342,4.037,1.999,6.063c0.824,2.541,2.034,3.473,3.804,2.949c1.75-0.519,2.243-2.066,1.439-4.559
		C98.023,128.504,97.233,126.077,96.387,123.468z"/>
	<path fill-rule="evenodd" clip-rule="evenodd" fill="#FFFFFF" d="M128.473,82.229c0-4.631-0.051-9.264,0.051-13.893
		c0.017-0.76,0.509-1.771,1.113-2.217c7.887-5.826,15.82-11.591,23.798-17.295c0.596-0.427,1.729-0.594,2.41-0.339
		c16.291,6.104,29.563,16.247,39.96,30.163c0.388,0.519,0.549,1.501,0.354,2.119c-3.008,9.447-6.074,18.875-9.201,28.284
		c-0.204,0.615-0.911,1.293-1.534,1.505c-8.467,2.877-16.953,5.697-25.459,8.456c-0.615,0.2-1.585,0.052-2.108-0.325
		c-9.443-6.794-18.857-13.63-28.225-20.529c-0.604-0.444-1.091-1.458-1.107-2.218C128.421,91.371,128.473,86.799,128.473,82.229z"/>
	<path fill-rule="evenodd" clip-rule="evenodd" fill="#FFFFFF" d="M180.343,184.348c-4.51,0-9.021,0.053-13.526-0.053
		c-0.75-0.018-1.759-0.543-2.183-1.156c-5.036-7.252-10.006-14.551-14.91-21.891c-0.421-0.63-0.556-1.744-0.323-2.474
		c3.471-10.894,7.002-21.769,10.606-32.618c0.254-0.767,1.074-1.644,1.827-1.902c8.455-2.901,16.941-5.717,25.448-8.465
		c0.709-0.229,1.822-0.063,2.427,0.369c7.435,5.307,14.801,10.711,22.213,16.049c0.883,0.635,1.23,1.271,1.174,2.393
		c-0.889,17.732-6.376,33.845-16.773,48.277c-0.82,1.139-1.65,1.523-3.003,1.5C188.995,184.297,184.668,184.348,180.343,184.348z"/>
	<path fill-rule="evenodd" clip-rule="evenodd" fill="#FFFFFF" d="M125.727,163.436c5.728,0,11.457,0.028,17.184-0.024
		c1.158-0.011,1.877,0.327,2.542,1.314c4.827,7.175,9.741,14.292,14.548,21.479c0.42,0.627,0.571,1.73,0.343,2.455
		c-2.638,8.352-5.393,16.666-8.058,25.008c-0.335,1.051-0.873,1.566-1.921,1.869c-16.308,4.689-32.642,4.939-49.042,0.477
		c-1.107-0.299-1.609-0.809-1.937-1.83c-2.735-8.512-5.538-17.002-8.221-25.531c-0.242-0.77-0.064-1.941,0.386-2.617
		c4.766-7.141,9.647-14.205,14.436-21.333c0.672-0.999,1.412-1.3,2.557-1.289C114.271,163.462,119.999,163.436,125.727,163.436z"/>
	<path fill-rule="evenodd" clip-rule="evenodd" fill="#FFFFFF" d="M103.145,45.732c15.167-3.896,29.802-3.626,45.084,0.248
		c-0.702,0.417-1.059,0.592-1.377,0.823c-6.652,4.821-13.289,9.666-19.976,14.439c-0.49,0.35-1.574,0.519-1.99,0.222
		C117.755,56.382,110.685,51.213,103.145,45.732z"/>
	<path fill-rule="evenodd" clip-rule="evenodd" fill="#FFFFFF" d="M36.929,126.262c1.014-14.8,4.939-28.177,12.601-40.771
		c1.329,4.097,2.561,7.897,3.794,11.697c1.352,4.166,2.735,8.322,4.023,12.508c0.173,0.563,0.112,1.597-0.249,1.864
		C50.551,116.41,43.941,121.176,36.929,126.262z"/>
	<path fill-rule="evenodd" clip-rule="evenodd" fill="#FFFFFF" d="M212.793,126.1c-6.757-4.905-13.317-9.649-19.838-14.448
		c-0.361-0.266-0.659-1.075-0.528-1.486c2.583-8.111,5.234-16.201,7.888-24.343C205.806,91.31,213.465,115.921,212.793,126.1z"/>
	<path fill-rule="evenodd" clip-rule="evenodd" fill="#FFFFFF" d="M93.149,213.217c-13.156-4.996-24.131-12.818-33.767-23.227
		c0.77-0.076,1.264-0.168,1.758-0.168c7.673-0.01,15.345,0.004,23.018-0.021c0.996-0.002,1.662,0.115,2.026,1.266
		c2.257,7.127,4.6,14.227,6.907,21.338C93.146,212.568,93.12,212.758,93.149,213.217z"/>
	<path fill-rule="evenodd" clip-rule="evenodd" fill="#FFFFFF" d="M158.339,212.66c1.948-6.02,3.762-11.623,5.576-17.225
		c0.486-1.504,0.904-3.037,1.506-4.494c0.196-0.477,0.873-1.072,1.335-1.076c7.674-0.059,15.351-0.035,23.026-0.02
		c0.151,0,0.302,0.123,0.599,0.25C181.425,199.947,170.979,207.473,158.339,212.66z"/>
</g>
</svg>
