<?xml version="1.0" encoding="utf-8"?>
<!-- Generator: Adobe Illustrator 16.0.0, SVG Export Plug-In . SVG Version: 6.00 Build 0)  -->
<!DOCTYPE svg PUBLIC "-//W3C//DTD SVG 1.1//EN" "http://www.w3.org/Graphics/SVG/1.1/DTD/svg11.dtd">
<svg version="1.1" id="Layer_1" xmlns="http://www.w3.org/2000/svg" xmlns:xlink="http://www.w3.org/1999/xlink" x="0px" y="0px"
	 width="250px" height="250px" viewBox="0 0 250 250" enable-background="new 0 0 250 250" xml:space="preserve">
<g>
	<path fill-rule="evenodd" clip-rule="evenodd" stroke="#FFFFFF" stroke-width="2" stroke-miterlimit="10" d="M164.787,36.054
		c1.584,0.498,3.198,0.914,4.747,1.505c9.635,3.678,14.648,15,10.586,24.467c-11.264,26.249-22.652,52.443-34.039,78.639
		c-0.547,1.26-0.518,2.234,0.02,3.473c7.834,18.1,15.64,36.212,23.396,54.345c2.542,5.944,3.011,11.857-0.152,17.872
		c-5.688,10.813-20.499,13.408-29.216,4.801c-2.06-2.034-3.785-4.616-5.002-7.252c-3.577-7.74-6.821-15.635-10.344-23.813
		c-0.396,0.83-0.686,1.39-0.936,1.967c-3.327,7.655-6.593,15.337-9.984,22.962c-4.745,10.668-17.609,14.563-27.513,8.401
		c-7.721-4.804-11.126-14.487-7.582-22.857c7.546-17.818,15.227-35.582,23.103-53.257c1.568-3.521,1.554-6.323-0.007-9.824
		c-7.604-17.051-14.94-34.221-22.344-51.361c-3.26-7.547-6.49-15.108-9.674-22.688c-4.049-9.637-1.142-19.75,7.245-24.479
		c2.255-1.271,4.977-1.719,7.488-2.533c0.461-0.15,0.94-0.247,1.41-0.368c0.991,0,1.982,0,2.974,0
		c0.35,0.109,0.692,0.256,1.049,0.32c5.521,0.992,10.129,3.614,12.869,8.529c2.426,4.352,4.263,9.039,6.268,13.618
		c4.96,11.33,9.866,22.682,14.802,34.023c0.21,0.483,0.486,0.939,0.828,1.592c0.406-0.918,0.714-1.592,1.006-2.271
		c6.309-14.649,12.643-29.289,18.904-43.958c1.51-3.539,3.711-6.505,7.013-8.398c2.474-1.419,5.244-2.322,7.882-3.455
		C161.317,36.054,163.053,36.054,164.787,36.054z M136.716,82.515c-0.408,0.866-0.682,1.409-0.924,1.966
		c-8.799,20.3-17.596,40.602-26.394,60.903c-4.916,11.342-9.85,22.676-14.746,34.026c-3.451,8.001-6.953,15.982-10.23,24.055
		c-1.583,3.898-0.717,7.728,1.726,11.069c5.88,8.046,18.131,6.478,22.25-2.962c13.765-31.553,27.417-63.153,41.08-94.752
		c0.26-0.6,0.324-1.476,0.09-2.069C145.37,104.119,141.112,93.509,136.716,82.515z M141.946,150.571
		c-0.277,0.513-0.475,0.822-0.619,1.154c-4.207,9.696-8.432,19.386-12.568,29.111c-0.309,0.728-0.229,1.828,0.086,2.581
		c2.527,6.045,5.129,12.059,7.757,18.061c1.784,4.074,3.357,8.277,5.535,12.135c4.292,7.604,15.196,8.256,20.619,1.42
		c3.476-4.381,3.655-9.124,1.44-14.117c-4.762-10.736-9.498-21.484-14.244-32.227C147.31,162.708,144.666,156.728,141.946,150.571z
		 M112.541,82.281c-0.298,0.61-0.477,0.924-0.611,1.256c-4.154,10.244-8.318,20.483-12.417,30.749
		c-0.257,0.644-0.209,1.586,0.063,2.236c2.262,5.413,4.608,10.791,6.938,16.175c0.203,0.469,0.477,0.906,0.823,1.555
		c4.581-10.509,9.055-20.751,13.483-31.012c0.213-0.491,0.193-1.234-0.018-1.732C118.129,95.198,115.401,88.912,112.541,82.281z
		 M81.276,74.308c0.159-0.003,0.318-0.006,0.477-0.01c4-9.928,8-19.855,11.986-29.752c-4.986-2.895-10.625-2.6-14.606,0.634
		c-4.367,3.547-6.093,8.849-4.141,14.124C76.873,64.385,79.165,69.313,81.276,74.308z M156.112,44.33
		c3.939,9.881,7.84,19.667,11.939,29.95c2.388-5.806,4.857-11.077,6.715-16.555c1.563-4.61-0.73-9.953-4.811-12.92
		C166.152,42.038,160.085,41.773,156.112,44.33z M88.613,91.159c4.463-11.042,8.721-21.564,12.956-32.097
		c0.147-0.366,0.199-0.88,0.06-1.232c-0.983-2.485-2.028-4.946-3.135-7.611c-0.281,0.468-0.438,0.665-0.528,0.887
		c-4.157,10.301-8.313,20.603-12.443,30.915c-0.192,0.479-0.342,1.139-0.167,1.577C86.311,85.981,87.375,88.321,88.613,91.159z
		 M151.062,49.312c-1.09,2.483-1.899,4.479-2.836,6.412c-0.553,1.142-0.567,2.136-0.084,3.332
		c3.906,9.672,7.746,19.372,11.612,29.061c0.208,0.521,0.471,1.021,0.819,1.77c1.059-2.481,2.071-4.665,2.901-6.916
		c0.265-0.717,0.282-1.705,0.009-2.413c-2.287-5.932-4.664-11.829-7.02-17.734C154.733,58.484,152.995,54.148,151.062,49.312z
		 M143.741,66.004c-0.973,2.482-1.883,4.453-2.494,6.512c-0.303,1.017-0.373,2.317-0.008,3.285
		c2.439,6.474,5.023,12.894,7.563,19.33c1.525,3.87,3.057,7.739,4.734,11.988c1.107-2.578,2.121-4.751,2.955-6.992
		c0.268-0.719,0.289-1.699,0.029-2.417c-1.011-2.786-2.18-5.515-3.291-8.264C150.126,81.778,147.021,74.109,143.741,66.004z
		 M95.457,107.06c0.272-0.338,0.427-0.46,0.491-0.62c4.185-10.444,8.365-20.891,12.528-31.343c0.153-0.383,0.307-0.899,0.173-1.241
		c-0.93-2.366-1.936-4.703-3.065-7.402c-4.482,10.917-8.789,21.376-13.045,31.856c-0.225,0.555-0.21,1.355,0.009,1.917
		C93.423,102.471,94.423,104.665,95.457,107.06z"/>
	<path fill-rule="evenodd" clip-rule="evenodd" stroke="#FFFFFF" stroke-width="2" stroke-miterlimit="10" d="M49.935,36.054
		c1.32,0.491,2.734,0.817,3.941,1.506c3.128,1.787,4.547,4.694,4.554,8.198c0.042,19.885,0.034,39.771,0.01,59.656
		c-0.003,2.546-1.079,3.52-3.677,3.608c-0.794,0.027-1.59,0.004-2.51,0.004c0,10.611,0,21.048,0,31.64
		c1.627,0.395,2.972,1.209,2.949,3.27c-0.021,1.961-1.17,2.884-2.994,3.205c0,8.451,0,16.794,0,25.226
		c1.768,0.413,3.052,1.286,2.994,3.365c-0.055,1.967-1.283,2.81-3.019,3.139c0,8.406,0,16.693,0,25.254
		c3.059-0.055,6.164-0.158,8.209,2.703c1.626,2.275,1.262,4.859,1.103,7.363c-0.255,4.025-2.568,5.473-9.382,5.94
		c0,0.927,0.05,1.89-0.01,2.845c-0.134,2.146-1.333,3.375-3.2,3.357c-1.906-0.02-3.019-1.232-3.096-3.412
		c-0.03-0.861-0.005-1.725-0.005-2.875c-3.142,0.024-6.344,0.217-8.395-2.755c-1.492-2.161-1.284-4.618-1.128-7.011
		c0.271-4.139,2.405-5.534,9.378-6.291c0-8.315,0-16.648,0-25.093c-1.742-0.327-3.051-1.29-3.027-3.276
		c0.022-1.873,1.146-2.938,3.071-3.188c0-8.415,0-16.754,0-25.216c-1.827-0.396-3.182-1.377-3.058-3.488
		c0.107-1.803,1.233-2.755,3.062-2.996c0-10.494,0-20.947,0-31.592c-1.112-0.053-2.207-0.069-3.295-0.166
		c-1.86-0.166-2.776-1.103-2.917-2.954c-0.051-0.678-0.036-1.361-0.036-2.043c-0.001-18.708-0.001-37.417-0.001-56.125
		c0-7.383,1.714-9.729,8.62-11.8C48.695,36.054,49.315,36.054,49.935,36.054z M45.793,72.297c0.152,0.082,0.305,0.163,0.458,0.244
		c1.804-1.848,3.629-3.677,5.393-5.563c0.296-0.316,0.457-0.88,0.458-1.33c0.027-6.558,0.052-13.116-0.005-19.674
		c-0.02-2.27-1.312-3.521-3.263-3.458c-1.897,0.062-2.998,1.267-3.027,3.464c-0.042,3.155-0.014,6.311-0.015,9.466
		C45.792,61.063,45.793,66.68,45.793,72.297z M45.977,102.559c2.069,0,4.02,0,6.041,0c0-3.665,0-7.204,0-10.743
		c-0.135-0.103-0.27-0.207-0.405-0.31c-1.111,1.208-2.067,2.628-3.367,3.578C45.571,97.039,45.443,99.602,45.977,102.559z
		 M45.794,88.477c4.101-3.422,8.092-6.549,5.932-12.673c-1.876,1.887-3.752,3.741-5.574,5.646c-0.254,0.266-0.334,0.783-0.342,1.187
		C45.775,84.483,45.794,86.332,45.794,88.477z M55.147,210.592c-4.186,0-8.283,0-12.462,0c0,1.056,0,2,0,2.979
		c4.226,0,8.326,0,12.462,0C55.147,212.532,55.147,211.621,55.147,210.592z"/>
	<path fill-rule="evenodd" clip-rule="evenodd" stroke="#FFFFFF" stroke-width="2" stroke-miterlimit="10" d="M201.956,36.054
		c1.058,0.324,2.173,0.526,3.162,0.996c3.745,1.777,5.456,4.853,5.456,8.945c0,19.76,0.008,39.52-0.008,59.28
		c-0.002,2.73-0.967,3.667-3.678,3.75c-0.793,0.024-1.586,0.003-2.515,0.003c0,10.62,0,21.054,0,31.646
		c1.727,0.301,3.004,1.254,3.03,3.231c0.027,2.026-1.338,2.914-3.117,3.341c0,8.379,0,16.671,0,25.073
		c1.811,0.436,3.212,1.363,3.109,3.471c-0.094,1.891-1.309,2.836-3.086,3.071c0,8.419,0,16.704,0,25.208
		c3.051,0.064,6.186-0.136,8.246,2.73c1.5,2.086,1.29,4.463,1.226,6.805c-0.063,2.311-0.923,4.434-3.063,5.361
		c-1.916,0.829-4.115,1.005-6.435,1.523c-0.37,2.092,0.947,5.875-3.315,5.751c-3.896-0.112-2.806-3.61-3.186-6.212
		c-2.9,0.062-5.863,0.211-7.957-2.404c-1.68-2.098-1.42-4.546-1.351-6.938c0.13-4.512,2.149-5.943,9.303-6.691
		c0-8.32,0-16.654,0-25.116c-1.727-0.364-2.979-1.259-2.95-3.319c0.025-1.996,1.318-2.78,3.021-3.197c0-8.369,0-16.661,0-25.081
		c-1.782-0.554-3.226-1.451-3-3.715c0.18-1.796,1.344-2.515,2.976-2.861c0-10.479,0-20.934,0-31.708
		c-1.064,0-2.095,0.058-3.117-0.013c-1.965-0.135-2.893-1.059-3.096-3.021c-0.064-0.614-0.034-1.237-0.034-1.856
		c-0.001-18.707-0.001-37.414-0.001-56.121c0-7.357,1.708-9.748,8.521-11.933C200.717,36.054,201.336,36.054,201.956,36.054z
		 M197.908,72.388c0.165,0.091,0.329,0.182,0.494,0.273c1.793-1.862,3.613-3.699,5.355-5.608c0.322-0.354,0.459-0.997,0.461-1.508
		c0.029-6.495,0.037-12.989,0.008-19.484c-0.01-2.299-1.174-3.556-3.131-3.555c-1.932,0.002-3.106,1.273-3.172,3.569
		c-0.059,2.04-0.015,4.082-0.016,6.124C197.908,58.929,197.908,65.658,197.908,72.388z M204.179,91.364
		c-1.536,1.548-2.604,2.953-3.974,3.935c-2.682,1.921-2.517,4.483-2.143,7.239c2.078,0,4.069,0,6.116,0
		C204.179,98.887,204.179,95.384,204.179,91.364z M197.91,88.419c5.542-3.758,7.135-7.089,6.012-12.846
		c-1.984,2.072-3.822,3.949-5.596,5.887c-0.288,0.314-0.387,0.891-0.398,1.351C197.883,84.597,197.91,86.384,197.91,88.419z
		 M194.879,213.6c4.283,0,8.332,0,12.47,0c0-1.043,0-1.986,0-2.986c-4.216,0-8.309,0-12.47,0
		C194.879,211.66,194.879,212.566,194.879,213.6z"/>
	<path fill-rule="evenodd" clip-rule="evenodd" fill="#FFFFFF" stroke="#FFFFFF" stroke-width="2" stroke-miterlimit="10" d="
		M159.583,36.054c-2.638,1.133-5.408,2.036-7.882,3.455c-3.302,1.893-5.503,4.86-7.013,8.398
		c-6.262,14.669-12.596,29.309-18.904,43.958c-0.292,0.679-0.6,1.353-1.006,2.271c-0.342-0.653-0.618-1.109-0.828-1.592
		c-4.936-11.341-9.841-22.693-14.802-34.023c-2.005-4.579-3.842-9.266-6.268-13.618c-2.74-4.915-7.348-7.537-12.869-8.529
		c-0.357-0.064-0.7-0.211-1.049-0.32C112.502,36.054,136.043,36.054,159.583,36.054z"/>
	<path fill-rule="evenodd" clip-rule="evenodd" fill="#FFFFFF" stroke="#FFFFFF" stroke-width="2" stroke-miterlimit="10" d="
		M136.716,82.515c4.396,10.995,8.654,21.604,12.852,32.236c0.234,0.594,0.17,1.47-0.09,2.069
		c-13.662,31.599-27.314,63.199-41.08,94.752c-4.118,9.439-16.37,11.008-22.25,2.962c-2.442-3.342-3.309-7.171-1.726-11.069
		c3.277-8.072,6.779-16.054,10.23-24.055c4.896-11.351,9.83-22.685,14.746-34.026c8.798-20.301,17.595-40.603,26.394-60.903
		C136.034,83.924,136.308,83.381,136.716,82.515z M126.462,127.435c-2.938,0.082-5.868,1.801-7.45,5.215
		c-3.191,6.893-6.233,13.857-9.181,20.858c-1.325,3.146,0.085,6.459,3.14,7.987c1.987,0.994,4.025,1.897,6.084,2.731
		c3.029,1.227,6.17,0.096,7.777-2.769c0.572-1.02,1.01-2.117,1.48-3.191c2.551-5.829,5.177-11.627,7.615-17.502
		C138.67,134.159,134.249,127.396,126.462,127.435z M96.348,216.875c4.019,0,7.234-2.061,8.9-5.883
		c3.209-7.364,6.381-14.743,9.559-22.121c0.218-0.507,0.436-1.039,0.51-1.58c0.22-1.588-0.337-2.82-1.907-3.395
		c-1.54-0.563-2.811-0.107-3.689,1.266c-0.396,0.62-0.678,1.316-0.972,1.996c-3.02,6.975-6.021,13.956-9.05,20.926
		c-1.047,2.41-1.976,2.877-4.485,2.406c-0.364-0.068-0.733-0.136-1.102-0.146c-1.677-0.054-2.878,0.902-3.176,2.5
		c-0.28,1.504,0.602,3.019,2.138,3.441C94.139,216.578,95.255,216.686,96.348,216.875z"/>
	<path fill-rule="evenodd" clip-rule="evenodd" fill="#FFFFFF" stroke="#FFFFFF" stroke-width="2" stroke-miterlimit="10" d="
		M141.946,150.571c2.72,6.156,5.363,12.137,8.006,18.118c4.746,10.742,9.482,21.49,14.244,32.227
		c2.215,4.993,2.035,9.736-1.44,14.117c-5.423,6.836-16.327,6.184-20.619-1.42c-2.178-3.857-3.751-8.061-5.535-12.135
		c-2.628-6.002-5.229-12.016-7.757-18.061c-0.314-0.753-0.395-1.854-0.086-2.581c4.137-9.726,8.361-19.415,12.568-29.111
		C141.472,151.394,141.669,151.084,141.946,150.571z M153.304,216.845c0.648-0.204,1.929-0.458,3.072-0.999
		c1.605-0.76,2.177-2.338,1.639-3.896c-0.479-1.385-1.938-2.141-3.631-1.879c-3.406,0.523-3.889,0.264-5.234-2.846
		c-3.093-7.148-6.17-14.304-9.28-21.443c-0.921-2.115-2.483-2.885-4.247-2.209c-1.664,0.637-2.43,2.398-1.605,4.33
		c3.373,7.902,6.736,15.81,10.298,23.627C145.876,214.96,148.882,216.611,153.304,216.845z"/>
	<path fill-rule="evenodd" clip-rule="evenodd" fill="#FFFFFF" stroke="#FFFFFF" stroke-width="2" stroke-miterlimit="10" d="
		M112.541,82.281c2.86,6.63,5.588,12.917,8.261,19.227c0.211,0.499,0.23,1.241,0.018,1.732
		c-4.428,10.261-8.902,20.503-13.483,31.012c-0.346-0.648-0.62-1.086-0.823-1.555c-2.331-5.385-4.676-10.763-6.938-16.175
		c-0.272-0.65-0.319-1.593-0.063-2.236c4.099-10.266,8.263-20.505,12.417-30.749C112.064,83.206,112.243,82.891,112.541,82.281z"/>
	<path fill-rule="evenodd" clip-rule="evenodd" fill="#FFFFFF" stroke="#FFFFFF" stroke-width="2" stroke-miterlimit="10" d="
		M81.276,74.308c-2.111-4.995-4.403-9.923-6.284-15.004c-1.952-5.275-0.226-10.577,4.141-14.124c3.98-3.233,9.62-3.528,14.606-0.634
		c-3.987,9.896-7.986,19.824-11.986,29.752C81.594,74.302,81.435,74.305,81.276,74.308z"/>
	<path fill-rule="evenodd" clip-rule="evenodd" fill="#FFFFFF" stroke="#FFFFFF" stroke-width="2" stroke-miterlimit="10" d="
		M156.112,44.33c3.973-2.556,10.04-2.292,13.844,0.474c4.08,2.968,6.373,8.31,4.811,12.92c-1.857,5.479-4.327,10.749-6.715,16.555
		C163.952,63.997,160.052,54.21,156.112,44.33z"/>
	<path fill-rule="evenodd" clip-rule="evenodd" fill="#FFFFFF" stroke="#FFFFFF" stroke-width="2" stroke-miterlimit="10" d="
		M88.613,91.159c-1.238-2.838-2.302-5.178-3.258-7.561c-0.175-0.438-0.025-1.097,0.167-1.577
		c4.13-10.313,8.286-20.614,12.443-30.915c0.09-0.223,0.247-0.419,0.528-0.887c1.107,2.665,2.152,5.125,3.135,7.611
		c0.139,0.352,0.087,0.867-0.06,1.232C97.334,69.595,93.076,80.118,88.613,91.159z"/>
	<path fill-rule="evenodd" clip-rule="evenodd" fill="#FFFFFF" stroke="#FFFFFF" stroke-width="2" stroke-miterlimit="10" d="
		M151.062,49.312c1.934,4.836,3.672,9.172,5.402,13.512c2.355,5.905,4.732,11.802,7.02,17.734c0.273,0.708,0.256,1.696-0.009,2.413
		c-0.83,2.251-1.843,4.434-2.901,6.916c-0.349-0.749-0.611-1.249-0.819-1.77c-3.866-9.689-7.706-19.388-11.612-29.061
		c-0.483-1.196-0.469-2.19,0.084-3.332C149.162,53.791,149.972,51.795,151.062,49.312z"/>
	<path fill-rule="evenodd" clip-rule="evenodd" fill="#FFFFFF" stroke="#FFFFFF" stroke-width="2" stroke-miterlimit="10" d="
		M143.741,66.004c3.28,8.105,6.385,15.774,9.488,23.443c1.111,2.749,2.28,5.478,3.291,8.264c0.26,0.717,0.238,1.697-0.029,2.417
		c-0.834,2.241-1.848,4.415-2.955,6.992c-1.678-4.25-3.209-8.119-4.734-11.988c-2.539-6.437-5.123-12.856-7.563-19.33
		c-0.365-0.968-0.295-2.268,0.008-3.285C141.858,70.458,142.769,68.487,143.741,66.004z"/>
	<path fill-rule="evenodd" clip-rule="evenodd" fill="#FFFFFF" stroke="#FFFFFF" stroke-width="2" stroke-miterlimit="10" d="
		M95.457,107.06c-1.034-2.395-2.034-4.589-2.91-6.832c-0.219-0.563-0.234-1.362-0.009-1.917
		c4.256-10.479,8.563-20.939,13.045-31.856c1.129,2.699,2.136,5.036,3.065,7.402c0.134,0.341-0.02,0.857-0.173,1.241
		c-4.163,10.452-8.343,20.898-12.528,31.343C95.884,106.599,95.729,106.721,95.457,107.06z"/>
	<path fill-rule="evenodd" clip-rule="evenodd" fill="#FFFFFF" stroke="#FFFFFF" stroke-width="2" stroke-miterlimit="10" d="
		M45.793,72.297c0-5.617,0-11.234,0-16.851c0-3.156-0.027-6.311,0.015-9.466c0.029-2.197,1.129-3.402,3.027-3.464
		c1.951-0.063,3.244,1.188,3.263,3.458c0.057,6.558,0.032,13.116,0.005,19.674c-0.002,0.45-0.163,1.014-0.458,1.33
		c-1.764,1.886-3.589,3.715-5.393,5.563C46.098,72.46,45.945,72.378,45.793,72.297z"/>
	<path fill-rule="evenodd" clip-rule="evenodd" fill="#FFFFFF" stroke="#FFFFFF" stroke-width="2" stroke-miterlimit="10" d="
		M45.977,102.559c-0.534-2.958-0.406-5.521,2.268-7.474c1.3-0.95,2.256-2.371,3.367-3.578c0.135,0.103,0.271,0.207,0.405,0.31
		c0,3.539,0,7.078,0,10.743C49.997,102.559,48.046,102.559,45.977,102.559z"/>
	<path fill-rule="evenodd" clip-rule="evenodd" fill="#FFFFFF" stroke="#FFFFFF" stroke-width="2" stroke-miterlimit="10" d="
		M45.794,88.477c0-2.145-0.02-3.994,0.015-5.841c0.008-0.404,0.088-0.92,0.342-1.187c1.822-1.905,3.698-3.759,5.574-5.646
		C53.887,81.928,49.895,85.055,45.794,88.477z"/>
	<path fill-rule="evenodd" clip-rule="evenodd" fill="#FFFFFF" stroke="#FFFFFF" stroke-width="2" stroke-miterlimit="10" d="
		M55.147,210.592c0,1.029,0,1.94,0,2.979c-4.136,0-8.236,0-12.462,0c0-0.979,0-1.923,0-2.979
		C46.865,210.592,50.962,210.592,55.147,210.592z"/>
	<path fill-rule="evenodd" clip-rule="evenodd" fill="#FFFFFF" stroke="#FFFFFF" stroke-width="2" stroke-miterlimit="10" d="
		M197.908,72.388c0-6.729,0-13.459,0-20.188c0.001-2.042-0.043-4.084,0.016-6.124c0.065-2.296,1.24-3.567,3.172-3.569
		c1.957-0.001,3.121,1.255,3.131,3.555c0.029,6.495,0.021,12.989-0.008,19.484c-0.002,0.511-0.139,1.154-0.461,1.508
		c-1.742,1.909-3.563,3.746-5.355,5.608C198.237,72.57,198.073,72.479,197.908,72.388z"/>
	<path fill-rule="evenodd" clip-rule="evenodd" fill="#FFFFFF" stroke="#FFFFFF" stroke-width="2" stroke-miterlimit="10" d="
		M204.179,91.364c0,4.021,0,7.523,0,11.174c-2.047,0-4.038,0-6.116,0c-0.374-2.755-0.539-5.318,2.143-7.239
		C201.575,94.317,202.643,92.912,204.179,91.364z"/>
	<path fill-rule="evenodd" clip-rule="evenodd" fill="#FFFFFF" stroke="#FFFFFF" stroke-width="2" stroke-miterlimit="10" d="
		M197.91,88.419c0-2.035-0.027-3.822,0.018-5.608c0.012-0.46,0.11-1.037,0.398-1.351c1.773-1.938,3.611-3.815,5.596-5.887
		C205.045,81.33,203.452,84.661,197.91,88.419z"/>
	<path fill-rule="evenodd" clip-rule="evenodd" fill="#FFFFFF" stroke="#FFFFFF" stroke-width="2" stroke-miterlimit="10" d="
		M194.879,213.6c0-1.033,0-1.939,0-2.986c4.161,0,8.254,0,12.47,0c0,1,0,1.943,0,2.986C203.211,213.6,199.162,213.6,194.879,213.6z"
		/>
	<path fill-rule="evenodd" clip-rule="evenodd" stroke="#FFFFFF" stroke-width="2" stroke-miterlimit="10" d="M126.462,127.435
		c7.787-0.039,12.208,6.725,9.467,13.33c-2.438,5.875-5.064,11.673-7.615,17.502c-0.471,1.074-0.908,2.172-1.48,3.191
		c-1.607,2.864-4.748,3.995-7.777,2.769c-2.06-0.834-4.098-1.737-6.084-2.731c-3.055-1.528-4.465-4.842-3.14-7.987
		c2.948-7.001,5.99-13.966,9.181-20.858C120.594,129.235,123.524,127.517,126.462,127.435z M121.554,158.194
		c3.012-6.938,6-13.697,8.863-20.511c0.699-1.665-0.225-3.288-1.836-3.911c-1.785-0.689-3.111-0.101-3.979,1.861
		c-2.695,6.092-5.365,12.193-8.037,18.295c-0.237,0.541-0.412,1.111-0.654,1.771C117.822,156.544,119.606,157.333,121.554,158.194z"
		/>
	<path fill-rule="evenodd" clip-rule="evenodd" stroke="#FFFFFF" stroke-width="2" stroke-miterlimit="10" d="M96.348,216.875
		c-1.093-0.189-2.209-0.297-3.274-0.59c-1.536-0.423-2.418-1.938-2.138-3.441c0.297-1.598,1.499-2.554,3.176-2.5
		c0.369,0.011,0.738,0.078,1.102,0.146c2.509,0.471,3.438,0.004,4.485-2.406c3.029-6.97,6.03-13.951,9.05-20.926
		c0.294-0.68,0.576-1.376,0.972-1.996c0.878-1.373,2.15-1.829,3.689-1.266c1.57,0.574,2.127,1.807,1.907,3.395
		c-0.075,0.541-0.292,1.073-0.51,1.58c-3.178,7.378-6.35,14.757-9.559,22.121C103.583,214.814,100.367,216.875,96.348,216.875z"/>
	<path fill-rule="evenodd" clip-rule="evenodd" stroke="#FFFFFF" stroke-width="2" stroke-miterlimit="10" d="M153.304,216.845
		c-4.422-0.233-7.428-1.885-8.989-5.315c-3.562-7.817-6.925-15.725-10.298-23.627c-0.824-1.932-0.059-3.693,1.605-4.33
		c1.764-0.676,3.326,0.094,4.247,2.209c3.11,7.14,6.188,14.295,9.28,21.443c1.346,3.109,1.828,3.369,5.234,2.846
		c1.693-0.262,3.152,0.494,3.631,1.879c0.538,1.559-0.033,3.137-1.639,3.896C155.232,216.387,153.952,216.641,153.304,216.845z"/>
	<path fill-rule="evenodd" clip-rule="evenodd" fill="#FFFFFF" stroke="#FFFFFF" stroke-width="2" stroke-miterlimit="10" d="
		M121.554,158.194c-1.947-0.861-3.732-1.65-5.642-2.494c0.242-0.66,0.417-1.23,0.654-1.771c2.671-6.102,5.341-12.203,8.037-18.295
		c0.867-1.962,2.193-2.551,3.979-1.861c1.611,0.623,2.535,2.246,1.836,3.911C127.554,144.497,124.565,151.257,121.554,158.194z"/>
</g>
</svg>
