<?xml version="1.0" encoding="utf-8"?>
<!-- Generator: Adobe Illustrator 16.0.0, SVG Export Plug-In . SVG Version: 6.00 Build 0)  -->
<!DOCTYPE svg PUBLIC "-//W3C//DTD SVG 1.1//EN" "http://www.w3.org/Graphics/SVG/1.1/DTD/svg11.dtd">
<svg version="1.1" id="Layer_1" xmlns="http://www.w3.org/2000/svg" xmlns:xlink="http://www.w3.org/1999/xlink" x="0px" y="0px"
	 width="250px" height="250px" viewBox="0 0 250 250" enable-background="new 0 0 250 250" xml:space="preserve">
<g>
	<path fill-rule="evenodd" clip-rule="evenodd" stroke="#FFFFFF" stroke-width="3" stroke-miterlimit="10" d="M8.937,226.021
		c2.202-2.726,4.29-5.556,6.649-8.138c1.401-1.533,3.616-1.38,4.85,0.024c1.342,1.526,1.315,3.198,0.008,4.716
		c-1.133,1.314-2.404,2.514-3.645,3.732c-1.021,1.003-0.986,1.914,0.025,2.914c2.96,2.924,5.91,5.86,8.824,8.829
		c1.114,1.136,2.023,0.961,3.074-0.093c13.201-13.227,26.411-26.444,39.646-39.637c1.219-1.216,1.013-2.128-0.12-3.229
		c-2.712-2.637-5.356-5.343-8.034-8.015c-2.064-2.06-2.107-2.065-4.13-0.045c-7.601,7.593-15.193,15.194-22.795,22.786
		c-0.587,0.586-1.182,1.178-1.842,1.673c-1.574,1.181-3.171,1.036-4.495-0.335c-1.334-1.383-1.292-2.991-0.173-4.534
		c0.352-0.485,0.806-0.9,1.232-1.328c7.808-7.813,15.643-15.6,23.415-23.448c2.208-2.23,4.651-3.506,7.885-3.157
		c0.671,0.072,1.588-0.399,2.107-0.909c5.071-4.985,10.151-9.966,15.09-15.081c4.508-4.668,6.217-10.759,7.21-16.852
		c1.42-8.708,2.19-17.526,3.056-26.315c0.188-1.907-0.396-3.892-0.625-5.841c-0.931-7.96-0.247-15.845,1.262-23.998
		c-11.598,1.587-21.522-1.449-29.395-10.143c-4.51-4.981-7.05-10.908-7.695-17.559c-1.375-14.178,6.911-27.441,19.972-32.286
		c7.723-2.864,15.425-2.788,23.015,0.314c7.512,3.07,12.952,8.462,16.392,15.579c4.737-4.188,9.186-8.523,14.042-12.341
		c14.304-11.243,30.456-18.046,48.72-19.483c0.442-0.035,0.873-0.206,1.309-0.313c3.027,0,6.055,0,9.082,0
		c5.396,1.053,10.952,1.601,16.158,3.251c17.297,5.483,29.833,16.588,37.021,33.326c7.263,16.91,6.8,34.177,1.354,51.439
		c-6.502,20.61-19.094,36.866-36.255,49.75c-2.133,1.602-4.086,1.564-5.426-0.069c-1.374-1.677-0.984-3.774,1.245-5.444
		c7.742-5.797,14.618-12.457,20.371-20.243c10.566-14.306,16.921-30.221,17.078-48.115c0.154-17.642-5.734-32.93-19.627-44.484
		c-7.803-6.489-16.858-10.278-26.887-11.67c-18.722-2.597-35.828,2.13-51.75,11.782c-8.602,5.215-16.117,11.769-22.557,19.504
		c-0.68,0.816-1.147,2.14-1.085,3.191c0.773,13.325-4.396,23.484-15.848,30.428c-0.707,0.429-1.506,1.184-1.687,1.927
		c-3.631,14.895-3.421,29.581,3.273,43.649c7.683,16.148,20.681,25.703,38.046,29.286c14.373,2.966,28.269,0.753,41.758-4.65
		c1.332-0.533,2.621-1.177,3.971-1.658c2.023-0.721,3.765-0.004,4.531,1.76c0.759,1.745,0.121,3.64-1.842,4.523
		c-3.026,1.363-6.1,2.657-9.242,3.717c-12.07,4.072-24.36,5.322-37.109,3.847c-5.991-0.693-12.256-0.051-18.278,0.817
		c-6.769,0.976-13.522,2.506-20.043,4.558c-3.302,1.039-6.377,3.418-9.022,5.786c-4.728,4.233-9.094,8.877-13.502,13.455
		c-0.72,0.747-1.234,2.039-1.226,3.074c0.021,2.684-0.88,4.879-2.727,6.728c-13.475,13.49-26.94,26.992-40.477,40.423
		c-1.132,1.122-2.756,1.748-4.152,2.604c-1.211,0-2.422,0-3.632,0c-6.687-4.211-12.135-9.661-16.347-16.347
		C8.937,228.442,8.937,227.231,8.937,226.021z M105.158,63.094c-15.875-2.876-25.065-12.236-27.954-27.877
		c-9.405,0.906-18.623,10.125-19.508,19.561c15.765,2.809,25.042,12.18,27.875,27.891C95.279,81.443,103.764,72.968,105.158,63.094z
		 M71.596,188.466c11.502-11.5,23.026-23.023,34.245-34.241c-1.623-1.729-3.407-3.629-5.117-5.449
		c-11.435,11.458-22.907,22.953-34.395,34.464C68.078,184.975,69.946,186.829,71.596,188.466z M78.23,82.913
		c-0.869-11.531-12.19-20.755-20.618-20.618C57.912,70.888,66.338,81.613,78.23,82.913z M84.552,34.959
		c0.986,12.19,13.147,21.096,20.7,20.506C104.406,45.291,95.747,36.648,84.552,34.959z M90.562,148.023
		c1.862-1.785,3.779-3.621,5.722-5.483c-1.156-1.903-2.331-3.837-3.679-6.057C91.864,140.664,91.198,144.426,90.562,148.023z
		 M112.585,158.806c-2.113,1.991-4,3.769-5.986,5.64c3.884-0.699,7.674-1.382,11.849-2.134
		C116.145,160.935,114.216,159.78,112.585,158.806z"/>
	<path fill-rule="evenodd" clip-rule="evenodd" stroke="#FFFFFF" stroke-width="3" stroke-miterlimit="10" d="M102.623,105.688
		c0.258-15.563,5.492-29.457,14.624-41.889c9.231-12.566,20.925-22.202,35.449-28.109c13.155-5.351,26.632-7.039,40.577-3.164
		c15.521,4.312,28.191,18.838,30.475,34.736c2.776,19.325-2.797,36.362-13.98,51.793c-9.154,12.628-20.926,22.208-35.466,28.073
		c-14.009,5.65-28.386,7.532-42.916,2.223c-15.959-5.832-24.984-17.632-28.001-34.186c-0.405-2.224-0.542-4.5-0.749-6.758
		C102.554,107.508,102.623,106.595,102.623,105.688z M163.646,59.443c-4.434,4.459-8.943,8.993-13.313,13.388
		c4.315,4.317,8.796,8.799,13.127,13.134c4.413-4.42,8.927-8.938,13.33-13.349C172.494,68.312,168.019,63.826,163.646,59.443z
		 M145.014,78.205c-4.48,4.46-9,8.96-13.124,13.066c4.331,4.379,8.817,8.916,13.071,13.215c4.33-4.319,8.813-8.79,13.193-13.16
		C153.801,86.979,149.316,82.501,145.014,78.205z M182.268,78.06c-4.488,4.485-8.969,8.962-13.256,13.246
		c4.407,4.403,8.925,8.917,13.201,13.189c4.395-4.315,8.949-8.789,13.369-13.131C191.162,86.947,186.682,82.47,182.268,78.06z
		 M150.221,110.014c4.434,4.438,8.963,8.971,13.321,13.332c4.375-4.387,8.901-8.925,13.143-13.177
		c-4.382-4.386-8.896-8.903-13.309-13.317C159.062,101.168,154.583,105.648,150.221,110.014z M195.379,54.223
		c-4.346-4.453-8.846-9.064-13.113-13.438c-4.424,4.416-8.902,8.886-13.178,13.154c4.375,4.387,8.875,8.899,13.27,13.307
		C186.682,62.922,191.159,58.443,195.379,54.223z M214.067,72.775c-4.389-4.393-8.908-8.916-13.048-13.061
		c-4.337,4.349-8.838,8.862-13.121,13.156c4.243,4.229,8.718,8.689,13.063,13.022C205.277,81.574,209.748,77.099,214.067,72.775z
		 M126.143,96.717c-4.496,4.488-8.974,8.957-13.334,13.31c4.46,4.431,9.002,8.942,13.315,13.226
		c4.383-4.396,8.89-8.917,13.278-13.319C135.088,105.634,130.605,101.165,126.143,96.717z M145.065,115.429
		c-4.533,4.553-9.029,9.069-13.271,13.329c4.345,4.345,8.859,8.859,12.924,12.924c4.344-4.332,8.858-8.835,13.33-13.295
		C153.846,124.192,149.412,119.767,145.065,115.429z M182.366,115.681c-4.373,4.369-8.884,8.874-13.313,13.299
		c2.79,2.773,5.776,5.741,9.175,9.119c5.075-3.593,10.379-7.349,15.528-10.994C189.582,122.918,185.819,119.143,182.366,115.681z
		 M148.838,44.677c-5.12,3.636-10.367,7.363-15.52,11.022c4.149,4.161,7.911,7.934,11.46,11.493
		c4.38-4.394,8.878-8.905,13.271-13.312C155.252,51.086,152.274,48.111,148.838,44.677z M199.267,121.65
		c3.736-5.309,7.444-10.576,10.804-15.35c-3.478-3.479-6.491-6.494-9.319-9.323c-4.28,4.266-8.758,8.729-13.106,13.063
		C191.309,113.7,195.078,117.466,199.267,121.65z M126.17,86.063c4.488-4.486,8.96-8.958,13.16-13.158
		c-3.719-3.685-7.537-7.468-11.65-11.544c-3.568,5.063-7.281,10.331-10.815,15.347C120.245,80.107,123.213,83.091,126.17,86.063z
		 M163.78,134.349c-3.563,3.604-7.226,7.309-10.808,10.932c5.887-0.504,11.893-1.741,17.689-4.202
		C168.134,138.605,165.778,136.302,163.78,134.349z M217.395,80.628c-3.691,3.694-7.375,7.381-10.934,10.941
		c2.063,2.08,4.383,4.42,6.829,6.888C215.619,92.67,217.052,86.707,217.395,80.628z M109.209,102.151
		c0.232,0.029,0.465,0.057,0.697,0.086c3.653-3.659,7.306-7.318,10.708-10.725c-2.174-2.2-4.513-4.568-7.284-7.373
		C111.931,90.254,110.57,96.203,109.209,102.151z M174.366,37.648c-0.033-0.203-0.067-0.407-0.101-0.611
		c-5.948,1.377-11.897,2.752-17.929,4.146c2.767,2.787,5.114,5.152,7.19,7.244C167.05,44.924,170.708,41.286,174.366,37.648z
		 M191.955,39.001c-0.007,0.097-0.013,0.192-0.02,0.289c3.1,3.116,6.198,6.233,9.312,9.362c0.795-0.743,1.773-1.657,3.255-3.041
		C200.074,43.278,196.015,41.139,191.955,39.001z M206.172,53.856c3.164,3.153,6.247,6.226,9.331,9.298
		c0.146-0.057,0.292-0.113,0.438-0.17c-2.137-4.059-4.273-8.117-6.607-12.551C207.954,51.926,207.046,52.91,206.172,53.856z
		 M120.884,129.159c-3.294-3.285-6.344-6.327-9.393-9.369c-0.107,0.028-0.214,0.057-0.321,0.085
		c2.152,4.038,4.304,8.076,6.523,12.239C119.167,130.749,120.152,129.837,120.884,129.159z M122.532,137.138
		c4.491,2.364,8.552,4.502,12.613,6.64c0.005-0.097,0.01-0.192,0.015-0.288c-3.109-3.111-6.218-6.222-9.205-9.211
		C125.141,134.958,124.11,135.819,122.532,137.138z"/>
	<path fill-rule="evenodd" clip-rule="evenodd" fill="#FFFFFF" stroke="#FFFFFF" stroke-width="3" stroke-miterlimit="10" d="
		M163.646,59.443c4.372,4.383,8.848,8.868,13.144,13.173c-4.403,4.41-8.917,8.929-13.33,13.349
		c-4.331-4.335-8.812-8.816-13.127-13.134C154.703,68.437,159.213,63.902,163.646,59.443z"/>
	<path fill-rule="evenodd" clip-rule="evenodd" fill="#FFFFFF" stroke="#FFFFFF" stroke-width="3" stroke-miterlimit="10" d="
		M182.268,78.06c4.414,4.41,8.895,8.888,13.314,13.305c-4.42,4.342-8.975,8.815-13.369,13.131
		c-4.276-4.272-8.794-8.786-13.201-13.189C173.299,87.021,177.779,82.545,182.268,78.06z"/>
</g>
</svg>
