<?xml version="1.0" encoding="utf-8"?>
<!-- Generator: Adobe Illustrator 16.0.0, SVG Export Plug-In . SVG Version: 6.00 Build 0)  -->
<!DOCTYPE svg PUBLIC "-//W3C//DTD SVG 1.1//EN" "http://www.w3.org/Graphics/SVG/1.1/DTD/svg11.dtd">
<svg version="1.1" id="Layer_1" xmlns="http://www.w3.org/2000/svg" xmlns:xlink="http://www.w3.org/1999/xlink" x="0px" y="0px"
	 width="250px" height="250px" viewBox="0 0 250 250" enable-background="new 0 0 250 250" xml:space="preserve">
<g>
	<path fill-rule="evenodd" clip-rule="evenodd" stroke="#FFFFFF" stroke-width="3" stroke-miterlimit="10" d="M24,61.394
		c0.732-1.67,2.069-2.192,3.809-2.15c2.51,0.062,5.022,0.016,7.576,0.016c0.088-1.996,0.028-3.8,0.271-5.562
		c0.888-6.448,6.795-10.162,12.994-8.257c0.366,0.112,0.748,0.169,1.129,0.253c0.133-2.083,0.033-4.137,0.433-6.088
		c1.145-5.585,6.416-9.572,11.712-9.074c6.312,0.594,10.727,4.997,10.901,11.147c0.147,5.162,0.041,10.33,0.047,15.496
		c0.001,0.613,0,1.226,0,1.961c3.833,0,7.562,0,11.473,0c-0.169-3.92,0.317-7.593,3.932-9.955c3.169-2.071,6.713-1.842,10.459,0.719
		c3.775-2.834,7.657-2.906,11.535,0c3.827-2.853,7.655-2.862,11.493,0.004c3.353-2.494,6.893-2.988,10.488-0.714
		c3.631,2.295,4.154,6.005,3.907,9.979c3.896,0,7.577,0,11.423,0c0.027-0.641,0.076-1.233,0.077-1.826
		c0.007-5.053-0.047-10.107,0.019-15.159c0.082-6.292,4.212-10.82,10.435-11.573c6.125-0.742,11.976,4.086,12.432,10.319
		c0.113,1.556,0.016,3.126,0.016,4.918c4.352-1.667,8.172-1.154,11.441,1.922c3.291,3.098,3.164,7.223,3.037,11.49
		c2.666,0,5.179,0.046,7.688-0.016c1.739-0.042,3.075,0.48,3.808,2.15c0,6.291,0,12.581,0,18.871
		c-0.935,1.558-2.324,2.084-4.106,2.019c-2.396-0.087-4.8-0.021-7.466-0.021c0,1.827,0.164,3.513-0.029,5.157
		c-0.798,6.813-6.74,10.571-13.34,8.531c-0.256-0.078-0.528-0.106-0.992-0.198c0,1.444,0.048,2.779-0.01,4.11
		c-0.271,6.309-5.24,11.101-11.463,11.089c-6.207-0.012-11.231-4.807-11.416-11.142c-0.152-5.161-0.042-10.331-0.05-15.496
		c0-0.608,0-1.217,0-1.938c-2.892,0-5.665,0-8.664,0c0,2.359-0.16,4.713,0.031,7.038c0.465,5.639-1.054,10.598-4.942,14.685
		c-3.024,3.179-3.845,6.777-3.76,11.12c0.256,13.19,0.093,26.389,0.093,39.584c0,0.663,0,1.327,0,2.105c-1.921,0-3.686,0-5.647,0
		c-0.033-0.576-0.097-1.165-0.097-1.755c-0.006-15.273,0.009-30.545-0.025-45.818c-0.003-1.543,0.386-2.811,1.357-4.019
		c1.654-2.053,3.133-4.247,4.784-6.303c1.771-2.205,2.583-4.64,2.481-7.475c-0.107-3.019-0.024-6.043-0.024-9.277
		c-0.731,0-1.329,0-1.926,0c-7.243,0-14.487-0.033-21.729,0.042c-0.905,0.01-1.933,0.416-2.68,0.951
		c-1.872,1.34-3.91,1.88-6.164,1.846c-1.596-0.024-3.191-0.005-4.793,0.346c2.95,1.521,6.041,2.824,8.811,4.623
		c2.88,1.871,4.616,4.853,6.016,7.956c1.415,3.138,2.338,6.398,2.239,10.104c-1.705,0-3.323,0.073-4.923-0.063
		c-0.313-0.026-0.749-0.841-0.803-1.328c-0.429-3.898-1.859-7.362-4.276-10.438c-1.432-1.822-3.26-3.046-5.454-3.761
		c-1.704-0.556-3.394-1.159-5.101-1.707c-1.534-0.492-2.303-1.546-2.336-3.123c-0.035-1.684-0.064-3.371,0.003-5.053
		c0.087-2.2,1.154-3.244,3.41-3.297c2.581-0.062,5.166,0.009,7.748-0.03c1.907-0.028,3.145-1.135,3.201-2.753
		c0.05-1.457-1.166-2.878-2.92-2.908c-5.658-0.095-11.318-0.035-17.214-0.035c0,0.703,0,1.297,0,1.892
		c0,5.054,0.046,10.108-0.017,15.16c-0.04,3.225,1.02,5.887,3.384,8.109c2.331,2.19,4.623,4.437,6.766,6.808
		c0.719,0.795,1.309,2.047,1.314,3.095c0.083,15.721,0.058,31.444,0.052,47.166c0,0.324-0.073,0.648-0.124,1.065
		c-1.827,0-3.595,0-5.618,0c0-0.693,0-1.343,0-1.992c0-14.656-0.015-29.311,0.026-43.966c0.003-1.229-0.33-2.099-1.226-2.935
		c-1.889-1.761-3.655-3.65-5.507-5.451c-3.281-3.189-4.825-7.077-4.796-11.628c0.018-2.806,0.003-5.611,0.003-8.556
		c-1.874,0-3.689,0-5.744,0c0,0.557,0,1.15,0,1.744c-0.003,5.166,0.111,10.335-0.038,15.497c-0.259,8.99-9.646,14.195-17.339,9.654
		c-3.364-1.985-5.213-5.028-5.513-8.932c-0.115-1.493-0.019-3.001-0.019-4.531c-10.716,1.612-13.867-1.317-14.557-13.572
		c-2.416,0-4.861-0.065-7.3,0.022c-1.782,0.063-3.171-0.463-4.107-2.02C24,73.975,24,67.685,24,61.394z M55.652,70.654
		c0,2.301,0,4.603,0,6.904c0,7.241-0.025,14.483,0.014,21.724c0.019,3.604,2.655,6.109,6.093,5.922
		c3.19-0.175,5.369-2.712,5.372-6.336c0.01-16.054,0.005-32.108,0.004-48.163c0-2.919,0.042-5.839-0.021-8.756
		c-0.06-2.738-1.833-4.913-4.353-5.512c-3.739-0.888-7.079,1.765-7.095,5.757C55.627,51.68,55.654,61.167,55.652,70.654z
		 M164.884,70.843c0-1.909,0-3.817,0-5.726c-0.001-7.635,0.016-15.269-0.012-22.903c-0.01-2.958-1.771-5.203-4.413-5.792
		c-3.876-0.864-7.05,1.888-7.054,6.18c-0.013,15.438-0.005,30.874-0.005,46.311c0,3.48-0.021,6.961,0.011,10.441
		c0.023,2.549,1.221,4.423,3.557,5.427c3.818,1.639,7.878-1.157,7.898-5.478C164.911,89.815,164.88,80.33,164.884,70.843z
		 M41.225,70.806c0,5.103-0.032,10.206,0.011,15.309c0.027,3.146,2.395,5.186,5.236,4.623c2.095-0.414,3.43-2.297,3.434-4.929
		c0.012-8.805,0.005-17.608,0.004-26.414c0-1.514,0.057-3.031-0.034-4.541c-0.114-1.906-1.135-3.243-2.903-3.963
		c-1.577-0.642-2.996-0.205-4.215,0.845c-1.179,1.016-1.553,2.388-1.544,3.928C41.241,60.711,41.224,65.758,41.225,70.806z
		 M179.311,70.803c0-5.158,0.005-10.318-0.003-15.478c-0.004-2.05-0.93-3.55-2.808-4.386c-1.618-0.72-3.281-0.421-4.308,0.86
		c-0.838,1.046-1.463,2.568-1.498,3.898c-0.161,5.715-0.07,11.438-0.068,17.159c0,4.43-0.033,8.86,0.013,13.29
		c0.029,2.937,2.087,4.891,4.767,4.651c2.259-0.201,3.877-2.088,3.895-4.685C179.334,81.01,179.311,75.906,179.311,70.803z
		 M110.458,76.382c12.377,0,24.751,0,37.11,0c0-3.828,0-7.516,0-11.37c-1.931,0-3.771,0-5.61,0c-1.898,0-3.795,0-5.753,0
		c-0.366,3.661-1.929,6.391-5.229,7.832c-3.342,1.46-6.451,0.71-9.229-1.36c-3.595,2.57-7.125,2.849-10.781,0.473
		c-0.314-0.204-0.93-0.198-1.265-0.022c-0.206,0.108-0.265,0.751-0.184,1.106C109.766,74.127,110.114,75.191,110.458,76.382z
		 M72.938,76.381c1.987,0,3.794,0,5.68,0c0-1.816-0.038-3.494,0.009-5.169c0.062-2.202,1.133-3.268,3.333-3.367
		c0.883-0.04,1.769-0.007,2.812-0.007c-0.179-1.034-0.326-1.88-0.468-2.705c-3.871,0-7.586,0-11.365,0
		C72.938,68.93,72.938,72.604,72.938,76.381z M95.844,60.751c0.004,0,0.007,0,0.011,0c0-1.403,0.047-2.809-0.011-4.21
		c-0.077-1.844-1.135-2.944-2.757-2.98c-1.55-0.036-2.808,0.955-2.883,2.669c-0.132,2.968-0.132,5.949,0.005,8.917
		c0.079,1.712,1.358,2.71,2.9,2.66c1.555-0.05,2.631-1.117,2.721-2.846C95.902,63.562,95.844,62.154,95.844,60.751z M124.687,60.651
		c0.003,0.001,0.007,0.001,0.01,0.001c0,1.458-0.063,2.922,0.016,4.376c0.089,1.642,1.132,2.68,2.614,2.775
		c1.546,0.101,2.891-0.869,2.976-2.56c0.152-3.021,0.154-6.06,0.016-9.082c-0.077-1.701-1.375-2.667-2.938-2.598
		c-1.557,0.068-2.597,1.131-2.68,2.877C124.634,57.842,124.687,59.248,124.687,60.651z M107.337,60.694c0.002,0,0.004,0,0.006,0
		c0-1.46,0.078-2.924-0.02-4.376c-0.116-1.725-1.234-2.753-2.793-2.76c-1.5-0.005-2.714,0.928-2.787,2.563
		c-0.135,3.021-0.138,6.058-0.005,9.078c0.075,1.688,1.39,2.684,2.928,2.607c1.481-0.073,2.536-1.078,2.65-2.738
		C107.416,63.617,107.337,62.152,107.337,60.694z M113.188,60.731c-0.01,0-0.02,0-0.03,0c0,1.291,0,2.582,0.001,3.873
		c0,0.112,0.011,0.225,0.022,0.336c0.181,1.756,1.183,2.81,2.725,2.866c1.585,0.059,2.874-1.02,2.941-2.808
		c0.11-2.912,0.105-5.837-0.026-8.749c-0.079-1.733-1.292-2.715-2.854-2.69c-1.553,0.025-2.647,1.06-2.759,2.796
		C113.114,57.809,113.188,59.272,113.188,60.731z M35.375,76.474c0-3.881,0-7.603,0-11.325c-1.917,0-3.725,0-5.495,0
		c0,3.854,0,7.571,0,11.325C31.747,76.474,33.475,76.474,35.375,76.474z M185.149,65.095c0,3.804,0,7.524,0,11.313
		c1.896,0,3.705,0,5.53,0c0-3.838,0-7.562,0-11.313C188.79,65.095,187.017,65.095,185.149,65.095z"/>
	
		<rect x="124.662" y="115.444" fill-rule="evenodd" clip-rule="evenodd" fill="#FFFFFF" stroke="#FFFFFF" stroke-width="3" stroke-miterlimit="10" width="8.001" height="39.551"/>
</g>
<path fill-rule="evenodd" clip-rule="evenodd" stroke="#FFFFFF" stroke-miterlimit="10" d="M89.065,171.039c0-2.325,0-4.651,0-6.976
	c0.071-0.402,0.157-0.802,0.211-1.206c0.272-2.004,0.442-4.027,0.819-6.011c1.976-10.406,6.587-19.53,13.563-27.47
	c1.087-1.237,2.263-2.403,3.458-3.538c0.728-0.69,1.715-0.64,2.32,0.036c0.638,0.713,0.644,1.495,0.052,2.243
	c-0.3,0.38-0.685,0.692-1.006,1.059c-1.774,2.031-3.564,4.05-5.287,6.124c-0.276,0.332-0.447,0.987-0.32,1.385
	c1.828,5.78,3.705,11.547,5.615,17.303c0.125,0.379,0.562,0.8,0.945,0.93c5.456,1.858,10.923,3.682,16.402,5.47
	c0.383,0.125,0.986,0.05,1.308-0.183c5.904-4.244,11.788-8.518,17.648-12.824c0.347-0.255,0.636-0.84,0.639-1.272
	c0.043-5.663,0.048-11.326-0.005-16.988c-0.005-0.491-0.355-1.147-0.754-1.442c-4.916-3.63-9.875-7.198-14.803-10.811
	c-0.545-0.398-1.006-0.527-1.622-0.224c-3.52,1.735-7.054,3.44-10.569,5.185c-1.141,0.566-2.036,0.464-2.568-0.403
	c-0.519-0.848-0.218-1.821,0.813-2.467c6.458-4.039,13.419-6.777,20.941-8.034c2.06-0.344,4.137-0.581,6.206-0.867
	c2.175,0,4.351,0,6.525,0c0.364,0.062,0.727,0.155,1.094,0.18c6.48,0.443,12.712,1.918,18.684,4.48
	c9.772,4.195,17.749,10.662,23.99,19.233c4.961,6.811,8.271,14.382,9.796,22.69c0.451,2.46,0.75,4.948,1.118,7.423
	c0,2.025,0,4.051,0,6.075c-0.071,0.476-0.172,0.95-0.206,1.428c-0.299,4.233-0.949,8.407-2.175,12.473
	c-3.747,12.433-10.909,22.484-21.332,30.179c-6.876,5.075-14.556,8.408-22.975,9.951c-2.57,0.472-5.179,0.74-7.77,1.102
	c-2.175,0-4.35,0-6.525,0c-0.478-0.074-0.958-0.136-1.434-0.224c-3.857-0.714-7.794-1.147-11.555-2.208
	c-10.266-2.896-18.96-8.47-26.149-16.333c-7.542-8.249-12.322-17.894-14.207-28.931C89.581,175.409,89.357,173.219,89.065,171.039z
	 M147.129,149.88c-5.885,4.276-11.68,8.477-17.447,12.713c-0.252,0.185-0.426,0.756-0.342,1.064c0.402,1.479,0.93,2.924,1.371,4.393
	c0.339,1.13-0.045,2.004-0.947,2.318c-0.977,0.339-1.828-0.13-2.232-1.298c-0.479-1.379-0.939-2.766-1.343-4.167
	c-0.196-0.679-0.542-1.046-1.228-1.27c-5.478-1.788-10.947-3.603-16.405-5.45c-0.693-0.234-1.166-0.135-1.738,0.286
	c-3.924,2.887-7.798,5.852-11.849,8.551c-1.933,1.287-2.999,2.62-2.332,4.973c0.11,0.387,0.026,0.823,0.072,1.232
	c1.095,9.73,4.418,18.604,10.267,26.487c0.276,0.372,0.891,0.694,1.35,0.698c5.811,0.047,11.622,0.016,17.433,0.049
	c0.741,0.004,1.146-0.271,1.539-0.855c2.997-4.44,6.039-8.852,9.016-13.307c0.277-0.416,0.367-1.122,0.238-1.612
	c-0.418-1.591-0.988-3.139-1.48-4.711c-0.4-1.281-0.055-2.159,0.947-2.506c0.975-0.338,1.819,0.196,2.245,1.464
	c0.487,1.454,0.973,2.91,1.399,4.383c0.2,0.686,0.537,0.922,1.266,0.919c6.785-0.028,13.572-0.029,20.358,0.002
	c0.776,0.003,1.098-0.243,1.332-0.977c1.889-5.919,3.84-11.816,5.734-17.732c0.973-3.032,1.186-2.256-1.343-4.107
	C157.751,157.57,152.467,153.756,147.129,149.88z M148.822,137.601c0,2.773,0.028,5.548-0.018,8.321
	c-0.012,0.765,0.253,1.222,0.861,1.66c5.714,4.12,11.398,8.279,17.122,12.386c0.374,0.269,1.057,0.396,1.488,0.256
	c5.199-1.678,10.383-3.404,15.553-5.17c0.408-0.139,0.863-0.6,1-1.01c1.912-5.753,3.785-11.517,5.616-17.295
	c0.128-0.403-0.001-1.046-0.26-1.392c-6.353-8.495-14.464-14.676-24.38-18.48c-0.668-0.256-1.134-0.224-1.726,0.211
	c-4.8,3.529-9.62,7.031-14.454,10.512c-0.579,0.415-0.83,0.843-0.819,1.566C148.848,131.977,148.822,134.789,148.822,137.601z
	 M180.648,200.442c2.774,0,5.547-0.021,8.32,0.013c0.675,0.01,1.075-0.219,1.472-0.765c6.482-8.916,9.896-18.892,10.436-29.881
	c0.03-0.63-0.134-1.016-0.656-1.392c-4.591-3.304-9.152-6.649-13.753-9.941c-0.349-0.249-0.985-0.36-1.39-0.23
	c-5.268,1.705-10.523,3.449-15.763,5.24c-0.437,0.148-0.92,0.645-1.065,1.085c-2.229,6.709-4.416,13.433-6.563,20.169
	c-0.142,0.444-0.035,1.128,0.227,1.519c2.997,4.484,6.06,8.925,9.07,13.399c0.41,0.607,0.857,0.809,1.57,0.8
	C175.251,200.419,177.95,200.442,180.648,200.442z M147.145,187.578c-3.523,0-7.047,0.022-10.57-0.018
	c-0.77-0.009-1.215,0.256-1.637,0.883c-2.929,4.353-5.908,8.667-8.82,13.029c-0.277,0.416-0.395,1.138-0.247,1.609
	c1.651,5.245,3.376,10.468,5.06,15.703c0.201,0.625,0.499,0.948,1.184,1.135c10.088,2.744,20.136,2.595,30.168-0.29
	c0.64-0.186,0.98-0.49,1.188-1.144c1.638-5.133,3.308-10.255,4.996-15.369c0.211-0.639,0.104-1.099-0.271-1.642
	c-2.996-4.349-5.973-8.712-8.921-13.096c-0.405-0.603-0.842-0.824-1.56-0.817C154.191,187.597,150.667,187.578,147.145,187.578z
	 M160.824,115.296c-9.229-2.357-18.246-2.518-27.359-0.019c0.071,0.197,0.229,0.23,0.346,0.316c4.243,3.078,8.49,6.149,12.711,9.256
	c0.571,0.422,0.913,0.206,1.365-0.126c3.476-2.54,6.965-5.063,10.447-7.595C159.113,116.563,159.887,115.986,160.824,115.296z
	 M92.53,164.539c0.257-0.098,0.368-0.114,0.448-0.174c3.944-2.856,7.877-5.73,11.839-8.564c0.595-0.428,0.433-0.828,0.263-1.349
	c-1.503-4.587-2.988-9.18-4.482-13.77c-0.094-0.288-0.222-0.565-0.385-0.975C95.545,147.422,93.122,155.633,92.53,164.539z
	 M200.817,164.697c-0.551-9.103-3.08-17.299-7.664-24.974c-0.129,0.225-0.203,0.314-0.236,0.419
	c-1.576,4.839-3.134,9.686-4.738,14.516c-0.227,0.68,0.08,0.939,0.533,1.267c3.373,2.436,6.737,4.883,10.104,7.325
	C199.411,163.683,200.009,164.112,200.817,164.697z M106.229,203.805c6.016,6.514,12.773,11.323,20.799,14.366
	c0.034-0.18,0.077-0.259,0.058-0.319c-1.447-4.482-2.885-8.968-4.382-13.434c-0.095-0.282-0.643-0.577-0.986-0.586
	c-2.171-0.053-4.345-0.027-6.517-0.027C112.321,203.805,109.441,203.805,106.229,203.805z M167.22,217.854
	c7.748-3.201,14.197-7.811,19.743-13.954c-0.322-0.049-0.465-0.09-0.608-0.09c-4.608-0.003-9.218,0.016-13.827-0.024
	c-0.774-0.007-0.917,0.425-1.097,0.98c-1.212,3.774-2.437,7.546-3.655,11.318C167.607,216.605,167.447,217.129,167.22,217.854z"/>
</svg>
