<?xml version="1.0" encoding="utf-8"?>
<!-- Generator: Adobe Illustrator 16.0.0, SVG Export Plug-In . SVG Version: 6.00 Build 0)  -->
<!DOCTYPE svg PUBLIC "-//W3C//DTD SVG 1.1//EN" "http://www.w3.org/Graphics/SVG/1.1/DTD/svg11.dtd">
<svg version="1.1" id="Layer_1" xmlns="http://www.w3.org/2000/svg" xmlns:xlink="http://www.w3.org/1999/xlink" x="0px" y="0px"
	 width="250px" height="250px" viewBox="0 0 250 250" enable-background="new 0 0 250 250" xml:space="preserve">
<g>
	<path fill-rule="evenodd" clip-rule="evenodd" stroke="#FFFFFF" stroke-width="2" stroke-miterlimit="10" d="M77.297,168.232
		c5.647-16.558,11.294-33.116,16.941-49.674c0.044-0.13,0.089-0.26,0.137-0.389c0.478-1.282,1.315-1.79,2.322-1.409
		c0.948,0.359,1.282,1.28,0.857,2.513c-2.915,8.451-5.836,16.9-8.759,25.349c-2.44,7.051-4.883,14.102-7.329,21.15
		c-0.653,1.881-1.056,3.787-0.563,5.772c0.689,2.769,3.014,4.742,6.068,5.146c0.784,0.104,1.579,0.162,2.369,0.163
		c11.265,0.011,22.53,0.038,33.795-0.029c1.549-0.011,3.191-0.271,4.622-0.84c3.267-1.3,4.793-4.684,3.729-8.42
		c-1.053-3.698-2.404-7.313-3.661-10.953c-4.273-12.384-8.568-24.761-12.83-37.148c-0.218-0.634-0.289-1.346-0.29-2.022
		c-0.018-10.576-0.012-21.152-0.012-31.728c0-0.373,0-0.746,0-1.131c-0.366-0.047-0.642-0.054-0.902-0.123
		c-0.877-0.232-1.381-0.819-1.322-1.723c0.058-0.893,0.59-1.478,1.514-1.538c0.927-0.06,1.859-0.023,2.789-0.042
		c0.342-0.007,0.688-0.028,1.024-0.088c0.875-0.156,1.339-0.749,1.35-1.583c0.012-0.886-0.472-1.497-1.39-1.652
		c-0.371-0.063-0.751-0.084-1.128-0.084c-6.924-0.005-13.849-0.004-20.773-0.003c-1.714,0-2.562,0.581-2.543,1.731
		c0.018,1.147,0.838,1.682,2.59,1.683c3.445,0.001,6.89,0,10.335,0c0.242,0,0.483-0.003,0.724,0.001
		c1.303,0.028,2.054,0.635,2.059,1.66c0.006,1.035-0.756,1.685-2.038,1.69c-2.653,0.012-5.305,0.004-7.958,0.004
		c-0.372,0-0.744,0-1.246,0c0,0.485,0,0.886,0,1.287c0,8.268,0.001,16.536,0,24.804c0,0.379,0.022,0.763-0.031,1.135
		c-0.133,0.911-0.718,1.398-1.603,1.473c-0.828,0.07-1.573-0.615-1.682-1.497c-0.046-0.374-0.03-0.757-0.03-1.135
		c-0.001-8.268-0.001-16.536-0.001-24.804c0-0.378,0-0.755,0-1.176c-0.203-0.085-0.379-0.182-0.568-0.235
		c-2.391-0.676-3.902-2.52-3.943-4.82c-0.04-2.266,1.369-4.165,3.665-4.947c0.158-0.054,0.305-0.142,0.457-0.214
		c8.131,0,16.261,0,24.392,0c0.885,0.506,1.917,0.859,2.628,1.544c2.743,2.648,1.529,7.31-2.148,8.347
		c-0.72,0.204-0.887,0.488-0.885,1.185c0.022,10.574,0.01,21.148,0.028,31.722c0.001,0.569,0.131,1.161,0.317,1.702
		c5.278,15.308,10.57,30.611,15.865,45.914c0.848,2.45,1.297,4.945,0.62,7.499c-1.178,4.442-4.237,6.833-8.632,7.703
		c-0.259,0.052-0.51,0.147-0.765,0.222c-12.816,0-25.633,0-38.449,0c-0.254-0.074-0.505-0.172-0.765-0.221
		c-2.843-0.536-5.372-1.722-6.961-4.192c-0.905-1.405-1.341-3.112-1.989-4.683C77.297,170.162,77.297,169.197,77.297,168.232z"/>
	<path fill-rule="evenodd" clip-rule="evenodd" stroke="#FFFFFF" stroke-width="2" stroke-miterlimit="10" d="M148.407,180.223
		c-1.961-0.342-3.935-0.617-5.876-1.048c-1.369-0.305-2.705-0.787-4.031-1.255c-1.126-0.396-1.568-1.303-1.207-2.267
		c0.331-0.885,1.213-1.194,2.337-0.897c2.355,0.62,4.688,1.413,7.085,1.764c6.405,0.932,12.492-0.258,18.103-3.477
		c7.57-4.342,12.442-10.817,14.242-19.352c1.973-9.367-0.239-17.823-6.391-25.181c-3.224-3.856-7.272-6.587-11.969-8.372
		c-1.585-0.602-1.76-0.891-1.76-2.603c-0.002-8.302-0.001-16.604-0.001-24.907c0-0.41,0-0.821,0-1.243
		c-0.197-0.041-0.327-0.069-0.459-0.096c-1.199-0.239-1.827-0.86-1.786-1.768c0.043-0.97,0.79-1.59,2.022-1.632
		c0.86-0.028,1.722,0.003,2.583-0.01c1.361-0.021,2.146-0.669,2.109-1.721c-0.036-1.017-0.809-1.636-2.104-1.64
		c-3.238-0.01-6.477-0.003-9.716-0.003c-3.892,0-7.784-0.003-11.677,0.004c-0.377,0-0.769,0.001-1.124,0.103
		c-0.834,0.238-1.263,0.842-1.2,1.7c0.062,0.852,0.553,1.392,1.422,1.512c0.373,0.051,0.756,0.047,1.135,0.047
		c3.549,0.003,7.096-0.003,10.645,0.008c0.443,0.001,1.01-0.069,1.302,0.164c0.488,0.39,1.098,0.994,1.104,1.515
		s-0.58,1.158-1.067,1.539c-0.318,0.25-0.923,0.178-1.4,0.181c-2.854,0.013-5.708,0.006-8.699,0.006c0,0.488,0,0.889,0,1.29
		c0,8.336,0,16.673-0.002,25.01c0,1.664-0.18,1.942-1.716,2.524c-4.593,1.743-8.531,4.434-11.784,8.12
		c-0.183,0.207-0.367,0.414-0.574,0.593c-0.779,0.674-1.655,0.688-2.324,0.053c-0.698-0.664-0.786-1.614-0.03-2.4
		c1.453-1.511,2.924-3.021,4.517-4.379c2.532-2.158,5.438-3.733,8.563-4.984c0-0.339,0-0.647,0-0.955
		c0-7.958-0.006-15.916,0.012-23.873c0.001-0.694-0.092-1.057-0.903-1.275c-2.376-0.642-3.88-3.004-3.582-5.366
		c0.316-2.503,2.262-4.43,4.778-4.449c7.646-0.057,15.294-0.057,22.941-0.006c2.534,0.017,4.516,1.923,4.839,4.388
		c0.316,2.422-1.19,4.787-3.61,5.45c-0.747,0.204-0.875,0.52-0.874,1.197c0.021,7.992,0.022,15.985-0.005,23.977
		c-0.003,0.698,0.223,1.008,0.848,1.288c11.212,5.031,17.753,13.651,19.715,25.767c0.099,0.606,0.2,1.212,0.3,1.818
		c0,1.516,0,3.031,0,4.547c-0.053,0.231-0.133,0.461-0.152,0.693c-0.446,5.389-2.119,10.37-5.075,14.886
		c-4.513,6.896-10.729,11.563-18.692,13.755c-2.239,0.616-4.585,0.851-6.88,1.261C151.025,180.223,149.716,180.223,148.407,180.223z
		"/>
	<path fill-rule="evenodd" clip-rule="evenodd" fill="#FFFFFF" stroke="#FFFFFF" stroke-width="2" stroke-miterlimit="10" d="
		M152.335,180.223c2.295-0.41,4.641-0.645,6.88-1.261c7.964-2.192,14.18-6.859,18.692-13.755c2.956-4.516,4.629-9.497,5.075-14.886
		c0.02-0.232,0.1-0.462,0.152-0.693c0,10.198,0,20.397,0,30.595C172.868,180.223,162.601,180.223,152.335,180.223z"/>
	<path fill-rule="evenodd" clip-rule="evenodd" fill="#FFFFFF" stroke="#FFFFFF" stroke-width="2" stroke-miterlimit="10" d="
		M77.297,171.127c0.648,1.57,1.084,3.277,1.989,4.683c1.589,2.471,4.119,3.656,6.961,4.192c0.26,0.049,0.51,0.146,0.765,0.221
		c-3.238,0-6.477,0-9.715,0C77.297,177.19,77.297,174.158,77.297,171.127z"/>
	<path fill-rule="evenodd" clip-rule="evenodd" stroke="#FFFFFF" stroke-width="2" stroke-miterlimit="10" d="M170.466,137.257
		c-1.25,0.858-2.463,1.615-3.591,2.482c-2.521,1.937-5.386,2.422-8.302,1.521c-1.608-0.495-3.057-1.659-4.435-2.71
		c-1.845-1.407-3.77-1.807-5.88-0.884c-0.739,0.323-1.42,0.862-2.009,1.427c-3.694,3.546-9.387,3.176-12.628,0.294
		c-1.281-1.141-2.732-2.057-4.546-2.258c-0.864-0.097-1.385-1.045-1.235-1.87c0.174-0.96,0.943-1.583,1.939-1.444
		c2.065,0.289,3.788,1.324,5.475,2.501c1.077,0.751,2.262,1.494,3.508,1.821c1.901,0.498,3.649-0.129,5.137-1.479
		c1.571-1.43,3.288-2.587,5.507-2.812c2.416-0.246,4.571,0.322,6.479,1.823c0.46,0.362,0.901,0.747,1.356,1.116
		c2.425,1.974,5.294,2.036,7.752,0.11c1.558-1.219,3.177-2.291,5.091-2.872c1.661-0.504,2.375-0.233,3.199,1.29
		c8.063,14.906-0.132,33.204-16.822,37.411c-5.732,1.445-11.342,0.781-16.739-1.618c-1.016-0.452-1.401-1.38-1.016-2.275
		c0.364-0.841,1.269-1.231,2.258-0.823c2.563,1.056,5.188,1.786,7.966,2.011c13.494,1.092,25.171-10.672,23.977-24.157
		C172.644,142.921,171.919,140.128,170.466,137.257z"/>
	<path fill-rule="evenodd" clip-rule="evenodd" stroke="#FFFFFF" stroke-width="2" stroke-miterlimit="10" d="M156.355,161.929
		c-0.885,0.021-1.672-0.715-1.714-1.6c-0.044-0.911,0.764-1.744,1.682-1.739c0.896,0.007,1.631,0.748,1.64,1.656
		C157.971,161.154,157.252,161.906,156.355,161.929z"/>
	<path fill-rule="evenodd" clip-rule="evenodd" stroke="#FFFFFF" stroke-width="2" stroke-miterlimit="10" d="M161.418,153.469
		c0.02-0.914,0.744-1.611,1.668-1.603c0.918,0.008,1.643,0.726,1.647,1.633c0.005,0.922-0.821,1.727-1.729,1.684
		C162.113,155.14,161.399,154.369,161.418,153.469z"/>
	<path fill-rule="evenodd" clip-rule="evenodd" stroke="#FFFFFF" stroke-width="2" stroke-miterlimit="10" d="M106.177,173.446
		c-5.509,0-11.018,0.002-16.527-0.002c-0.619-0.001-1.241-0.004-1.857-0.06c-2.8-0.255-4.339-2.269-3.533-4.966
		c1.101-3.685,2.422-7.304,3.656-10.949c0.375-1.106,0.759-2.21,1.156-3.31c0.583-1.615,1.606-1.965,3.033-1.053
		c2.504,1.602,5.108,1.454,7.422-0.468c1.601-1.329,3.214-2.571,5.383-2.856c2.528-0.333,4.776,0.249,6.77,1.827
		c0.54,0.427,1.059,0.881,1.601,1.306c2.033,1.59,4.751,1.702,6.934,0.295c1.626-1.049,2.594-0.737,3.223,1.066
		c1.482,4.25,2.955,8.505,4.425,12.761c0.146,0.421,0.253,0.857,0.359,1.291c0.702,2.833-0.755,4.874-3.661,5.057
		c-1.304,0.081-2.614,0.057-3.923,0.059C115.817,173.449,110.998,173.446,106.177,173.446z M91.655,157.008
		c-1.28,3.705-2.602,7.496-3.898,11.298c-0.562,1.646-0.454,1.781,1.345,1.782c11.428,0.005,22.856,0.005,34.285-0.006
		c0.532,0,1.065-0.106,1.865-0.192c-1.532-4.465-3.004-8.752-4.473-13.033c-3.283,1-6.319,1.095-9.11-0.94
		c-0.722-0.527-1.386-1.133-2.096-1.675c-2.081-1.588-4.594-1.586-6.675,0.003c-0.574,0.438-1.117,0.916-1.68,1.37
		c-1.674,1.348-3.579,2.054-5.735,1.9C94.261,157.428,93.048,157.197,91.655,157.008z"/>
	<path fill-rule="evenodd" clip-rule="evenodd" fill="#FFFFFF" stroke="#FFFFFF" stroke-width="2" stroke-miterlimit="10" d="
		M91.655,157.008c1.393,0.189,2.605,0.42,3.827,0.507c2.156,0.153,4.061-0.553,5.735-1.9c0.563-0.454,1.106-0.933,1.68-1.37
		c2.081-1.589,4.594-1.591,6.675-0.003c0.71,0.542,1.375,1.147,2.096,1.675c2.791,2.035,5.827,1.94,9.11,0.94
		c1.469,4.281,2.941,8.568,4.473,13.033c-0.8,0.086-1.333,0.192-1.865,0.192c-11.428,0.011-22.857,0.011-34.285,0.006
		c-1.799-0.001-1.907-0.136-1.345-1.782C89.053,164.504,90.375,160.713,91.655,157.008z"/>
</g>
</svg>
