<?xml version="1.0" encoding="utf-8"?>
<!-- Generator: Adobe Illustrator 16.0.0, SVG Export Plug-In . SVG Version: 6.00 Build 0)  -->
<!DOCTYPE svg PUBLIC "-//W3C//DTD SVG 1.1//EN" "http://www.w3.org/Graphics/SVG/1.1/DTD/svg11.dtd">
<svg version="1.1" id="Layer_1" xmlns="http://www.w3.org/2000/svg" xmlns:xlink="http://www.w3.org/1999/xlink" x="0px" y="0px"
	 width="250px" height="250px" viewBox="0 0 250 250" enable-background="new 0 0 250 250" xml:space="preserve">
<path fill-rule="evenodd" clip-rule="evenodd" stroke="#FFFFFF" stroke-width="2" stroke-miterlimit="10" d="M172.984,91.912
	c-0.479,1.69-0.755,3.474-1.475,5.054c-2.462,5.406-6.679,8.675-12.549,9.759c-0.321,0.059-0.643,0.121-1.093,0.206
	c0,0.357,0,0.737,0,1.115c0,14.018-0.006,28.035,0.004,42.052c0.002,3.51-1.397,6.205-4.517,7.902
	c-4.904,2.668-11.245-0.424-12.056-5.955c-0.264-1.799-0.146-3.656-0.173-5.488c-0.024-1.637,0.014-3.275-0.01-4.912
	c-0.053-3.52-2.521-6.094-5.838-6.115c-3.36-0.021-5.899,2.566-5.919,6.129c-0.03,5.6-0.033,11.201,0.001,16.801
	c0.019,3.021-0.624,5.854-2.24,8.412c-2.476,3.926-6.014,6.291-10.614,7.033c-0.185,0.029-0.358,0.123-0.537,0.186
	c-1.114,0-2.228,0-3.342,0c-0.246-0.066-0.489-0.162-0.74-0.197c-6.803-0.965-12.441-7.039-12.623-13.895
	c-0.163-6.148-0.071-12.305-0.091-18.457c-0.001-0.344,0-0.688,0-0.992c-1.396-0.205-2.678-0.297-3.913-0.588
	c-11.371-2.678-18.769-9.584-21.976-20.854c-0.478-1.681-0.647-3.449-0.959-5.177c0-8.978,0-17.957,0-26.935
	c0.058-0.11,0.146-0.216,0.168-0.333c1.011-5.341,4.72-8.948,10.091-9.75c1.017-0.151,2.058-0.141,3.109-0.206
	c0-1.132,0-2.204,0-3.276c2.032,0,4.063,0,6.095,0c1.373,0.563,2.638,1.229,3.392,2.628c1.747,3.241-0.45,7.24-4.13,7.391
	c-1.727,0.071-3.46,0.013-5.281,0.013c0-1.104,0-2.141,0-3.159c-3.501-0.654-7.027,0.913-8.835,3.869
	c-0.88,1.439-1.254,3.017-1.256,4.68c-0.011,7.699-0.151,15.404,0.031,23.1c0.254,10.762,5.283,18.762,15.143,23.065
	c9.493,4.141,18.574,2.637,26.509-4.1c5.907-5.014,8.631-11.625,8.642-19.354c0.009-7.569,0.015-15.138-0.004-22.708
	c-0.012-4.188-2.366-7.344-6.337-8.4c-1.144-0.305-2.373-0.288-3.667-0.43c0,1.216,0,2.251,0,3.581
	c-2.322-0.144-4.591-0.061-6.762-0.482c-1.999-0.389-3.263-2.436-3.321-4.497c-0.059-2.124,1.158-4.014,3.093-4.81
	c0.293-0.12,0.58-0.257,0.87-0.386c2.032,0,4.063,0,6.095,0c0,1.075,0,2.15,0,3.191c1.543,0.183,3.06,0.216,4.499,0.562
	c5.172,1.239,8.822,5.8,8.861,11.122c0.058,7.962,0.199,15.93-0.026,23.886c-0.345,12.137-6.216,20.815-17.181,25.995
	c-2.981,1.408-6.201,2.045-9.555,2.303c-0.012,0.264-0.034,0.512-0.034,0.76c0.012,6.16-0.079,12.322,0.069,18.48
	c0.14,5.861,5.131,10.701,11.051,10.992c5.961,0.293,11.283-3.979,12.16-9.779c0.121-0.807,0.179-1.629,0.181-2.443
	c0.016-5.537,0.004-11.074,0.01-16.613c0.004-3.236,1.129-5.969,3.794-7.91c2.792-2.033,5.888-2.389,9.028-1.057
	c3.101,1.316,5.151,3.73,5.435,7.137c0.284,3.418,0.158,6.871,0.209,10.307c0.037,2.576,1.441,4.467,3.794,5.098
	c2.924,0.787,5.974-1.352,6.224-4.369c0.028-0.324,0.028-0.654,0.028-0.982c0.002-14.188,0.002-28.375,0.002-42.563
	c0-0.192,0-0.385,0-0.644c-3.147-0.366-5.966-1.477-8.48-3.366c-5.332-4.008-7.75-11.019-6.044-17.613
	c1.66-6.416,7.229-11.392,13.76-12.297c0.253-0.035,0.5-0.128,0.749-0.194c1.181,0,2.36,0,3.54,0
	c0.179,0.063,0.353,0.155,0.536,0.186c5.839,0.958,10.144,4.062,12.708,9.382c0.808,1.675,1.145,3.576,1.697,5.374
	C172.984,89.551,172.984,90.731,172.984,91.912z M156.072,103.625c7.197,0.187,13.354-5.771,13.554-13.116
	c0.2-7.314-5.688-13.509-13.037-13.719c-7.475-0.214-13.569,5.641-13.8,13.255C142.569,97.298,148.568,103.432,156.072,103.625z
	 M89.134,80.122c1.179-0.067,2.444,0.395,3.05-0.899c0.217-0.463,0.165-1.28-0.115-1.703c-0.707-1.068-1.861-0.721-2.935-0.69
	C89.134,77.951,89.134,78.978,89.134,80.122z M112.535,80.122c0-1.174,0-2.229,0-3.346c-1.112,0.072-2.327-0.342-2.974,0.825
	c-0.249,0.448-0.251,1.259-0.008,1.712C110.193,80.505,111.418,80.053,112.535,80.122z"/>
<path fill-rule="evenodd" clip-rule="evenodd" stroke="#FFFFFF" stroke-width="2" stroke-miterlimit="10" d="M156.183,96.891
	c-3.686-0.017-6.66-3.005-6.658-6.686c0.003-3.664,3.002-6.688,6.658-6.715c3.652-0.026,6.796,3.13,6.739,6.766
	C162.864,93.933,159.843,96.909,156.183,96.891z M156.232,93.535c1.833-0.013,3.316-1.483,3.332-3.304
	c0.018-1.833-1.547-3.397-3.38-3.381c-1.859,0.016-3.337,1.549-3.305,3.43C152.912,92.122,154.381,93.547,156.232,93.535z"/>
</svg>
