<?xml version="1.0" encoding="utf-8"?>
<!-- Generator: Adobe Illustrator 16.0.0, SVG Export Plug-In . SVG Version: 6.00 Build 0)  -->
<!DOCTYPE svg PUBLIC "-//W3C//DTD SVG 1.1//EN" "http://www.w3.org/Graphics/SVG/1.1/DTD/svg11.dtd">
<svg version="1.1" id="Layer_1" xmlns="http://www.w3.org/2000/svg" xmlns:xlink="http://www.w3.org/1999/xlink" x="0px" y="0px"
	 width="250px" height="250px" viewBox="0 0 250 250" enable-background="new 0 0 250 250" xml:space="preserve">
<path fill-rule="evenodd" clip-rule="evenodd" stroke="#FFFFFF" stroke-width="6" stroke-miterlimit="10" d="M70.446,114.13
	c0.763-1.605,2.214-2.407,3.729-3.072c2.562-1.127,5.156-2.177,7.739-3.254c1.442-0.602,2.027-2.065,1.42-3.472
	c-1.209-2.802-2.425-5.602-3.581-8.425c-0.829-2.026-0.432-3.739,1.274-5.254c2.031-1.804,3.984-3.709,5.826-5.705
	c1.122-1.216,2.385-1.453,3.769-0.983c3.208,1.09,6.381,2.288,9.552,3.486c1.847,0.698,3.226,0.101,3.994-1.75
	c1.169-2.818,2.347-5.634,3.593-8.418c0.787-1.76,2.144-2.57,4.167-2.477c2.755,0.126,5.523,0.098,8.282,0.008
	c1.795-0.059,3.07,0.644,3.814,2.201c1.387,2.906,2.708,5.845,4.02,8.785c0.756,1.692,2.243,2.285,3.968,1.568
	c2.817-1.171,5.642-2.332,8.481-3.445c1.996-0.783,3.686-0.512,5.217,1.238c1.672,1.912,3.57,3.639,5.463,5.345
	c1.479,1.333,1.95,2.86,1.264,4.687c-1.134,3.015-2.329,6.005-3.52,8.999c-0.588,1.479,0.048,2.935,1.545,3.53
	c2.952,1.176,5.903,2.354,8.838,3.573c1.854,0.77,2.681,2.157,2.602,4.216c-0.102,2.63-0.098,5.271-0.001,7.9
	c0.073,2.004-0.747,3.364-2.517,4.155c-2.939,1.314-5.9,2.585-8.861,3.851c-1.604,0.685-2.172,2.074-1.495,3.648
	c1.239,2.881,2.478,5.762,3.655,8.668c0.736,1.814,0.296,3.346-1.185,4.694c-2.039,1.86-4.065,3.752-5.911,5.8
	c-1.23,1.366-2.613,1.541-4.107,1.032c-3.209-1.09-6.369-2.322-9.54-3.522c-1.465-0.555-3.062,0.13-3.673,1.585
	c-1.213,2.891-2.425,5.783-3.695,8.65c-0.784,1.769-2.136,2.59-4.154,2.506c-2.714-0.113-5.439-0.106-8.155-0.003
	c-1.956,0.075-3.292-0.716-4.092-2.414c-1.354-2.875-2.652-5.777-3.95-8.679c-0.689-1.54-2.249-2.166-3.797-1.534
	c-3.021,1.231-6.041,2.471-9.093,3.623c-1.676,0.633-3.138,0.348-4.454-1.091c-1.861-2.034-3.87-3.94-5.896-5.814
	c-1.361-1.259-1.739-2.7-1.118-4.37c1.123-3.018,2.311-6.011,3.5-9.003c0.647-1.63,0.076-3-1.542-3.639
	c-2.799-1.104-5.643-2.12-8.357-3.405c-1.15-0.545-2.022-1.679-3.021-2.545C70.446,121.78,70.446,117.955,70.446,114.13z
	 M90.743,91.532c-0.204,0.149-0.483,0.313-0.712,0.529c-0.711,0.671-1.364,1.408-2.113,2.032c-0.665,0.555-0.762,1.056-0.381,1.855
	c1.293,2.719,2.542,5.463,3.717,8.236c0.231,0.545,0.252,1.331,0.044,1.884c-0.792,2.102-1.685,4.169-2.617,6.214
	c-0.201,0.441-0.658,0.88-1.105,1.075c-2.137,0.934-4.313,1.777-6.472,2.663c-3.491,1.435-3.471,1.438-3.392,5.239
	c0.015,0.701,0.229,1.06,0.896,1.304c2.949,1.075,5.894,2.165,8.804,3.337c0.545,0.221,1.104,0.762,1.355,1.297
	c0.918,1.958,1.757,3.957,2.516,5.981c0.211,0.562,0.226,1.334,0.016,1.893c-0.757,2.025-1.661,3.994-2.483,5.996
	c-0.481,1.17-1.462,2.492-1.218,3.506c0.264,1.095,1.725,1.88,2.599,2.857c0.49,0.549,0.923,0.546,1.549,0.269
	c2.907-1.294,5.821-2.571,8.761-3.787c0.481-0.199,1.163-0.231,1.644-0.053c2.146,0.798,4.27,1.663,6.363,2.592
	c0.475,0.21,0.947,0.698,1.164,1.175c0.895,1.968,1.67,3.991,2.529,5.976c0.521,1.202,0.823,2.828,1.758,3.427
	c0.942,0.603,2.55,0.119,3.86,0.209c0.829,0.057,1.185-0.27,1.467-1.016c1.08-2.856,2.195-5.7,3.375-8.517
	c0.216-0.515,0.71-1.057,1.212-1.282c2.089-0.937,4.218-1.788,6.361-2.594c0.452-0.171,1.082-0.16,1.535,0.014
	c2.1,0.801,4.158,1.708,6.247,2.539c1.215,0.484,2.57,1.424,3.656,1.192c1.098-0.232,1.912-1.692,2.906-2.549
	c0.559-0.479,0.574-0.896,0.277-1.53c-1.329-2.844-2.632-5.7-3.883-8.58c-0.189-0.437-0.213-1.077-0.041-1.517
	c0.835-2.132,1.729-4.243,2.686-6.324c0.219-0.476,0.697-0.956,1.174-1.167c2.096-0.926,4.232-1.751,6.354-2.615
	c3.548-1.445,3.522-1.445,3.475-5.289c-0.009-0.726-0.254-1.04-0.904-1.277c-2.946-1.079-5.892-2.168-8.803-3.342
	c-0.544-0.22-1.099-0.763-1.349-1.296c-0.953-2.035-1.816-4.114-2.633-6.208c-0.174-0.446-0.159-1.078,0.016-1.528
	c0.801-2.054,1.699-4.07,2.543-6.108c0.485-1.172,1.482-2.487,1.246-3.505c-0.254-1.094-1.709-1.889-2.585-2.865
	c-0.478-0.532-0.897-0.59-1.544-0.301c-2.905,1.297-5.82,2.572-8.764,3.779c-0.513,0.21-1.238,0.225-1.758,0.036
	c-2.072-0.753-4.123-1.576-6.133-2.479c-0.546-0.245-1.095-0.787-1.346-1.329c-0.907-1.962-1.668-3.992-2.526-5.978
	c-0.502-1.164-0.801-2.755-1.708-3.312c-0.969-0.594-2.549-0.152-3.856-0.248c-0.826-0.061-1.205,0.279-1.485,1.016
	c-1.071,2.815-2.157,5.625-3.332,8.397c-0.246,0.582-0.801,1.189-1.368,1.45c-2.001,0.922-4.054,1.743-6.123,2.501
	c-0.523,0.192-1.245,0.175-1.77-0.023c-2.934-1.115-5.835-2.314-8.748-3.483C91.422,91.788,91.143,91.685,90.743,91.532z"/>
<path fill-rule="evenodd" clip-rule="evenodd" stroke="#FFFFFF" stroke-width="4" stroke-miterlimit="10" d="M197.82,147.089
	c-0.506,1.438-1.053,2.864-1.504,4.319c-0.422,1.361-1.24,2.174-2.682,2.348c-1.514,0.182-3.021,0.398-4.701,0.623
	c0.021,0.432,0.049,0.916,0.068,1.401c0.043,1.187,0.123,2.375,0.113,3.561c-0.012,1.144-0.521,2.041-1.566,2.585
	c-1.391,0.726-2.77,1.483-4.186,2.16c-1.104,0.528-2.184,0.241-3.115-0.451c-1.223-0.908-2.387-1.896-3.656-2.912
	c-0.955,1.072-1.896,2.139-2.85,3.198c-1.111,1.238-2.431,1.604-4.021,1.004c-1.19-0.448-2.405-0.83-3.61-1.236
	c-1.152-0.387-1.866-1.154-2.027-2.374c-0.216-1.632-0.408-3.268-0.625-5.014c-1.254,0.085-2.512,0.155-3.768,0.261
	c-1.914,0.16-3.287-0.527-4.041-2.373c-0.416-1.02-0.931-2.001-1.439-2.979c-0.654-1.262-0.582-2.448,0.283-3.576
	c0.955-1.246,1.917-2.485,2.918-3.781c-1.074-1.007-2.177-2.046-3.286-3.076c-1.122-1.043-1.388-2.262-0.854-3.701
	c0.457-1.232,0.84-2.491,1.266-3.736c0.404-1.183,1.189-1.938,2.457-2.122c1.588-0.229,3.18-0.447,4.915-0.69
	c-0.181-3.348-1.491-7.216,3.341-8.589c3.948-3.172,6.295,0.181,8.91,2.307c1.008-1.13,1.939-2.173,2.871-3.217
	c1.146-1.284,2.498-1.639,4.131-1.005c1.066,0.414,2.162,0.757,3.258,1.085c1.426,0.428,2.203,1.381,2.381,2.831
	c0.182,1.508,0.33,3.021,0.506,4.669c1.168-0.082,2.301-0.135,3.426-0.248c2.348-0.237,3.42,0.345,4.459,2.489
	c0.5,1.03,0.975,2.075,1.496,3.095c0.584,1.146,0.473,2.214-0.291,3.222c-0.992,1.312-2.002,2.61-2.875,3.746
	c1.469,1.677,2.883,3.29,4.299,4.904C197.82,146.239,197.82,146.664,197.82,147.089z M181.586,124.661
	c-0.176-0.05-0.354-0.099-0.529-0.147c-0.742,0.899-1.572,1.741-2.203,2.714c-0.836,1.288-1.914,1.668-3.428,1.9
	c-2.586,0.396-4.619-0.073-6.313-2.114c-0.442-0.535-1.191-0.816-1.8-1.214c-0.052,0.712-0.134,1.425-0.147,2.138
	c-0.012,0.55-0.031,1.128,0.115,1.648c0.402,1.435-0.26,2.388-1.06,3.531c-1.553,2.221-3.429,3.341-6.165,3.073
	c-0.645-0.063-1.33,0.303-1.997,0.471c0.412,0.53,0.812,1.072,1.244,1.586c0.189,0.223,0.427,0.428,0.683,0.569
	c1.877,1.045,2.299,2.683,2.45,4.74c0.157,2.154-0.394,3.741-1.936,5.167c-0.646,0.599-1.052,1.454-1.567,2.192
	c0.929,0.031,1.896,0.243,2.779,0.055c1.988-0.424,3.438,0.103,4.991,1.484c1.628,1.447,2.576,2.873,2.355,5.077
	c-0.091,0.912,0.134,1.857,0.216,2.788c0.205,0.089,0.411,0.179,0.615,0.269c0.151-0.304,0.296-0.611,0.455-0.909
	c1.679-3.143,4.326-4.407,7.818-4.032c0.041,0.005,0.09-0.023,0.125-0.012c0.455,0.154,0.99,0.208,1.342,0.491
	c1.027,0.821,1.969,1.749,2.971,2.602c0.23,0.196,0.574,0.257,0.867,0.38c0.105-0.328,0.299-0.656,0.299-0.984
	c-0.004-0.634-0.045-1.284-0.193-1.897c-0.498-2.036,0.191-3.548,1.572-5.112c1.326-1.505,2.586-2.563,4.688-2.322
	c0.703,0.08,1.439-0.078,2.154-0.176c0.256-0.035,0.676-0.187,0.695-0.331c0.039-0.271-0.074-0.668-0.273-0.85
	c-0.877-0.802-1.773-1.589-2.727-2.298c-0.738-0.547-0.938-1.207-1.131-2.098c-0.699-3.224,0.197-5.782,2.67-7.896
	c0.322-0.275,0.408-0.826,0.604-1.249c-0.43-0.051-0.869-0.189-1.287-0.139c-4.246,0.51-4.209,0.478-7.426-2.266
	c-0.939-0.803-1.305-1.666-1.316-2.837C181.785,127.322,181.662,125.991,181.586,124.661z"/>
<path fill-rule="evenodd" clip-rule="evenodd" stroke="#FFFFFF" stroke-width="6" stroke-miterlimit="10" d="M115.998,136.477
	c-9.578-0.224-17.148-7.852-16.962-17.09c0.188-9.339,8.046-16.771,17.475-16.531c9.508,0.244,16.973,7.878,16.729,17.109
	C132.995,129.238,125.21,136.692,115.998,136.477z M106.333,119.615c-0.021,5.227,4.345,9.52,9.735,9.572
	c5.41,0.053,9.922-4.265,9.949-9.518c0.027-5.206-4.536-9.631-9.894-9.596C110.752,110.108,106.354,114.395,106.333,119.615z"/>
<path fill-rule="evenodd" clip-rule="evenodd" stroke="#FFFFFF" stroke-width="5" stroke-miterlimit="10" d="M175.552,133.046
	c4.997,0.03,9.185,4.231,9.151,9.178c-0.037,5.416-4.18,9.691-9.392,9.688c-4.962-0.004-9.21-4.23-9.2-9.152
	C166.124,137.247,170.238,133.013,175.552,133.046z M178.678,142.471c0.014-1.823-1.361-3.317-3.094-3.358
	c-1.832-0.045-3.456,1.514-3.467,3.329c-0.012,1.817,1.414,3.376,3.091,3.382C177.039,145.83,178.664,144.26,178.678,142.471z"/>
</svg>
