<?xml version="1.0" encoding="utf-8"?>
<!-- Generator: Adobe Illustrator 16.0.0, SVG Export Plug-In . SVG Version: 6.00 Build 0)  -->
<!DOCTYPE svg PUBLIC "-//W3C//DTD SVG 1.1//EN" "http://www.w3.org/Graphics/SVG/1.1/DTD/svg11.dtd">
<svg version="1.1" id="Layer_1" xmlns="http://www.w3.org/2000/svg" xmlns:xlink="http://www.w3.org/1999/xlink" x="0px" y="0px"
	 width="250px" height="250px" viewBox="0 0 250 250" enable-background="new 0 0 250 250" xml:space="preserve">
<g>
	<path fill-rule="evenodd" clip-rule="evenodd" stroke="#FFFFFF" stroke-width="7" stroke-miterlimit="10" d="M45.656,93.483
		c1.024-3.54,1.74-7.204,3.132-10.593c3.519-8.568,9.014-15.898,15.071-22.828c4.041-4.624,8.39-8.906,13.775-11.955
		c6.146-3.479,12.696-5.337,19.557-2.688c2.723,1.051,4.411,0.554,6.685-0.858c7.872-4.889,16.652-6.515,25.813-6.482
		c8.872,0.032,17.426,1.544,25.03,6.31c2.622,1.644,4.598,1.927,7.598,0.847c6.643-2.394,13.011-0.528,18.948,2.829
		c5.385,3.045,9.742,7.319,13.789,11.939c6.102,6.966,11.513,14.391,15.217,22.94c1.768,4.078,3.056,8.314,2.995,12.801
		c-0.127,9.307-7.147,17.646-16.441,19.678c-1.325,0.29-2.666,0.513-4.021,0.771c0.565,3.39,1.284,6.735,1.657,10.12
		c1.063,9.631,0.863,19.166-2.71,28.369c-4.042,10.41-11.422,17.629-21.396,22.332c-9.158,4.318-18.925,6.168-28.945,6.827
		c-10.196,0.669-20.398,0.7-30.547-0.669c-11.422-1.54-22.328-4.558-31.55-11.936c-8.419-6.737-13.046-15.643-14.648-26.186
		c-1.428-9.395-0.711-18.703,1.443-27.926c0.062-0.261,0.104-0.527,0.13-0.661c-2.753-0.812-5.57-1.32-8.109-2.454
		c-6.411-2.861-10.455-7.837-12.114-14.699c-0.102-0.42-0.237-0.831-0.358-1.246C45.656,96.539,45.656,95.011,45.656,93.483z
		 M134.634,173.928c1.767-0.081,3.238-0.122,4.706-0.222c8.023-0.546,15.938-1.669,23.496-4.588
		c12.685-4.899,20.199-13.911,21.607-27.597c0.875-8.5,0.237-16.952-2.448-25.069c-3.522-10.647-7.467-21.155-11.184-31.739
		c-2.318-6.599-5.017-13.015-8.748-18.952c-4.708-7.488-10.9-13.167-19.572-15.699c-6.047-1.766-12.225-2.057-18.477-1.459
		c-10.025,0.958-18.215,5.248-24.394,13.257c-3.658,4.742-6.545,9.956-8.633,15.527c-4.663,12.441-9.252,24.915-13.55,37.486
		c-3.162,9.252-4.043,18.84-2.62,28.569c1.492,10.211,6.618,17.92,15.693,23c6.193,3.468,12.888,5.287,19.83,6.257
		c4.564,0.637,9.174,0.944,13.793,1.401c0.104-0.521,0.18-0.728,0.18-0.935c0.009-6.438,0.04-12.878-0.045-19.315
		c-0.007-0.529-0.709-1.262-1.268-1.54c-5.56-2.779-9.739-6.976-12.62-12.417c-4.403-8.315-1.143-16.649,7.657-18.827
		c7.545-1.866,15.316-1.847,22.869-0.006c8.202,2,11.708,9.403,8.408,17.181c-2.649,6.246-7.135,10.903-13.228,13.925
		c-1.068,0.528-1.505,1.089-1.488,2.323c0.075,5.619,0.033,11.24,0.033,16.86C134.634,172.156,134.634,172.96,134.634,173.928z
		 M166.792,54.563c0.255,0.434,0.361,0.671,0.517,0.871c5.854,7.476,9.656,16.017,12.869,24.854
		c2.957,8.136,5.851,16.295,8.82,24.425c0.178,0.49,0.772,1.173,1.187,1.182c8.036,0.175,15.071-5.482,12.096-14.927
		c-1.764-5.594-4.622-10.563-7.939-15.307c-4.264-6.098-8.954-11.843-14.838-16.469C175.891,56.353,171.915,54.265,166.792,54.563z
		 M92.232,54.563c-5.247-0.291-9.282,1.809-12.898,4.737c-7.55,6.113-13.432,13.688-18.295,22.023
		c-1.821,3.121-3.25,6.543-4.369,9.987c-1.75,5.389-0.297,9.496,3.869,12.397c2.229,1.552,4.781,1.998,7.422,2.228
		c1.155,0.1,1.721-0.195,2.127-1.353c2.288-6.524,4.729-12.995,7.004-19.523c3.182-9.122,6.613-18.117,12.066-26.185
		C90.092,57.492,91.094,56.156,92.232,54.563z M129.849,129.93c-3.165,0.318-5.952,0.445-8.678,0.92
		c-2.612,0.455-3.018,1.359-1.913,3.758c1.798,3.905,4.709,6.781,8.6,8.594c0.734,0.34,1.815,0.541,2.514,0.257
		c4.599-1.87,7.921-5.083,9.657-9.808c0.525-1.43,0.042-2.395-1.485-2.612C135.533,130.609,132.512,130.265,129.849,129.93z"/>
	<path fill-rule="evenodd" clip-rule="evenodd" stroke="#FFFFFF" stroke-width="7" stroke-miterlimit="10" d="M146.562,106.255
		c-3.742,0.028-6.866-3.108-6.849-6.874c0.018-3.694,3.083-6.808,6.736-6.846c3.711-0.038,6.866,3.144,6.842,6.897
		C153.265,103.164,150.242,106.229,146.562,106.255z"/>
	<path fill-rule="evenodd" clip-rule="evenodd" stroke="#FFFFFF" stroke-width="7" stroke-miterlimit="10" d="M119.093,99.334
		c0.033,3.762-2.923,6.842-6.613,6.892c-3.648,0.049-6.74-3.015-6.808-6.746c-0.068-3.664,2.998-6.839,6.661-6.9
		C115.983,92.519,119.06,95.593,119.093,99.334z"/>
</g>
</svg>
