<?xml version="1.0" encoding="utf-8"?>
<!-- Generator: Adobe Illustrator 16.0.0, SVG Export Plug-In . SVG Version: 6.00 Build 0)  -->
<!DOCTYPE svg PUBLIC "-//W3C//DTD SVG 1.1//EN" "http://www.w3.org/Graphics/SVG/1.1/DTD/svg11.dtd">
<svg version="1.1" id="Layer_1" xmlns="http://www.w3.org/2000/svg" xmlns:xlink="http://www.w3.org/1999/xlink" x="0px" y="0px"
	 width="250px" height="250px" viewBox="0 0 250 250" enable-background="new 0 0 250 250" xml:space="preserve">
<g>
	<path fill-rule="evenodd" clip-rule="evenodd" stroke="#FFFFFF" stroke-width="4" stroke-miterlimit="10" d="M12.822,129.764
		c0.507-2.73,0.665-5.588,1.596-8.167c1.758-4.866,3.512-9.829,6.065-14.295c6.113-10.693,12.651-21.146,19.134-31.624
		c0.698-1.128,2.062-2.248,3.299-2.508c0.995-0.21,2.523,0.631,3.353,1.465c1.196,1.207,0.941,2.846,0.093,4.295
		c-1.661,2.835-3.341,5.661-5.07,8.586c26.992-10.524,49.057-4.226,66.61,18.758c0.047-0.57,0.131-1.109,0.132-1.647
		c0.007-11.452,0.069-22.905-0.012-34.357c-0.109-15.537-12.605-27.43-27.654-26.301c-9.137,0.687-16.048,5.147-20.825,12.928
		c-2.034,3.312-3.925,6.713-6.015,9.989c-1.613,2.532-4.778,2.873-6.178,0.563c-0.643-1.06-0.906-3.061-0.328-4.031
		c3.259-5.469,6.313-11.188,10.401-16.003c7.093-8.357,16.628-11.705,27.554-10.857c1.408,0.109,2.239-0.168,3.133-1.313
		c4.107-5.27,10.505-7.105,16.965-5.033c5.889,1.891,10.212,7.298,10.376,13.647c0.217,8.363,0.101,16.734,0.128,25.104
		c0.003,0.86,0,1.72,0,2.67c6.784,0,13.28,0,20.037,0c0-0.923,0-1.71,0-2.497c0.002-7.929-0.071-15.857,0.023-23.785
		c0.104-8.712,5.635-15.01,13.959-15.882c5.621-0.589,10.128,1.613,13.738,5.914c0.537,0.638,1.668,1.175,2.481,1.121
		c14.068-0.926,24.946,4.575,32.263,16.512c11.651,19.009,23.219,38.074,34.406,57.358c5.495,9.471,7.165,20.093,5.245,30.881
		c-4.009,22.522-17.185,37.323-39.461,42.537c-20.547,4.81-37.978-1.845-51.456-18.052c-7.84-9.428-11.293-20.582-11.201-32.834
		c0.021-2.919,0.004-5.837,0.004-8.896c-6.751,0-13.247,0-20.14,0c0,4.166,0.101,8.258-0.016,12.343
		c-0.849,29.958-29.688,53.401-59.265,48.214c-21.555-3.78-37.459-18.888-42.267-40.194c-0.464-2.058-0.743-4.157-1.108-6.237
		C12.822,135.344,12.822,132.554,12.822,129.764z M143.167,133.792c-0.07,24.105,19.587,43.856,43.73,43.939
		c24.022,0.081,43.854-19.677,43.946-43.786c0.093-24.054-19.631-43.816-43.795-43.882
		C162.903,89.998,143.237,109.595,143.167,133.792z M143.273,106.252c17.603-22.943,39.639-29.282,66.665-18.71
		c-2.015-3.377-3.913-6.587-5.839-9.781c-4.657-7.72-9.061-15.611-14.061-23.104c-6.079-9.11-17.885-12.865-28.444-9.646
		c-10.594,3.229-18.211,12.907-18.365,23.813c-0.172,12.18-0.061,24.364-0.066,36.547
		C143.163,105.641,143.229,105.91,143.273,106.252z M64.311,90.065c-24.106-0.08-43.857,19.561-43.959,43.714
		c-0.101,24.009,19.651,43.84,43.777,43.953c24.043,0.111,43.824-19.612,43.899-43.772C108.104,109.817,88.51,90.146,64.311,90.065z
		 M115.878,79.473c-0.113,0.309-0.252,0.51-0.253,0.711c-0.022,6.736-0.011,13.473-0.059,20.209
		c-0.011,1.479,0.918,1.398,1.899,1.398c5.419-0.003,10.838-0.055,16.256,0.03c1.627,0.026,1.942-0.637,1.92-2.081
		c-0.071-4.539-0.026-9.08-0.026-13.621c0-2.177,0-4.354,0-6.646C128.842,79.473,122.355,79.473,115.878,79.473z M135.5,109.536
		c-6.748,0-13.223,0-19.727,0c0,2.29,0,4.424,0,6.564c6.67,0,13.143,0,19.727,0C135.5,113.855,135.5,111.769,135.5,109.536z
		 M95.521,38.562c4.207,3.103,8.336,6.149,12.336,9.102c0.749-4.474-0.516-7.852-3.831-9.733
		C101.098,36.268,97.928,36.573,95.521,38.562z M143.229,47.725c4.183-3.073,8.354-6.138,12.472-9.163
		c-2.611-1.98-5.577-2.292-8.426-0.69C143.238,40.145,142.826,43.887,143.229,47.725z"/>
	<path fill-rule="evenodd" clip-rule="evenodd" stroke="#FFFFFF" stroke-width="4" stroke-miterlimit="10" d="M151.859,134.967
		c0.089-15.448,8.699-28.289,21.731-33.592c13.255-5.394,28.42-2.281,38.396,7.852c1.467,1.489,2.326,3.088,1.167,5.1
		c-0.97,1.679-2.565,2.27-4.338,1.651c-0.982-0.343-1.851-1.163-2.631-1.913c-12.953-12.424-33.772-9.601-43.006,5.852
		c-5.563,9.31-4.928,21.522,1.575,30.277c6.753,9.09,17.998,13.158,28.85,10.436c10.831-2.717,19.166-11.594,20.489-22.5
		c0.447-3.697-0.278-7.541-0.535-11.314c-0.053-0.788-0.444-1.547-0.608-2.334c-0.476-2.279,0.525-4.203,2.448-4.779
		c2.059-0.618,4.11,0.408,4.778,2.751c0.779,2.737,1.533,5.54,1.79,8.359c1.654,18.126-11.666,35.045-29.128,37.748
		c-18.771,2.906-36.359-9.098-40.263-27.571C152.079,138.635,151.998,136.193,151.859,134.967z"/>
	<path fill-rule="evenodd" clip-rule="evenodd" stroke="#FFFFFF" stroke-width="4" stroke-miterlimit="10" d="M99.328,133.792
		c0.091,19.25-15.542,35.056-34.813,35.195c-19.487,0.143-35.357-15.561-35.415-35.042c-0.058-19.361,15.595-35.086,35.042-35.205
		C83.443,98.622,99.235,114.354,99.328,133.792z M91.778,133.965c0.064-15.255-12.188-27.589-27.468-27.648
		c-15.226-0.061-27.646,12.255-27.695,27.461c-0.049,15.174,12.335,27.645,27.509,27.701
		C79.321,161.534,91.714,149.206,91.778,133.965z"/>
</g>
</svg>
