<?xml version="1.0" encoding="utf-8"?>
<!-- Generator: Adobe Illustrator 16.0.0, SVG Export Plug-In . SVG Version: 6.00 Build 0)  -->
<!DOCTYPE svg PUBLIC "-//W3C//DTD SVG 1.1//EN" "http://www.w3.org/Graphics/SVG/1.1/DTD/svg11.dtd">
<svg version="1.1" id="Layer_1" xmlns="http://www.w3.org/2000/svg" xmlns:xlink="http://www.w3.org/1999/xlink" x="0px" y="0px"
	 width="250px" height="250px" viewBox="0 0 250 250" enable-background="new 0 0 250 250" xml:space="preserve">
<g>
	<path stroke="#FFFFFF" stroke-miterlimit="10" d="M197.328,173.642c-0.139,0.289-0.295,0.57-0.413,0.868
		c-0.875,2.216-2.075,4.232-3.723,5.945c-5.114,5.322-11.292,7.119-18.378,5.504c-13.628-3.104-27.239-6.281-40.856-9.429
		c-0.394-0.091-0.788-0.182-1.224-0.282c-0.114,0.501-0.2,0.85-0.275,1.199c-0.998,4.579-1.974,9.164-2.996,13.74
		c-1.765,7.882-8.015,13.852-15.543,14.885c-11.443,1.57-21.082-6.775-21.323-18.465c-0.017-0.807,0.011-1.615,0.018-2.424
		c1.831-7.925,3.662-15.848,5.493-23.77c0.122-0.226,0.269-0.438,0.361-0.673c1.102-2.826,2.744-5.282,5.021-7.265
		c4.974-4.328,10.674-5.717,17.034-4.249c19.828,4.578,39.65,9.176,59.487,13.72c1.591,0.363,3.264,0.52,4.898,0.496
		c2.756-0.039,5.303-0.935,7.671-2.507c-1.455-1.51-3.205-2.212-5.089-2.648c-10.559-2.442-21.118-4.883-31.677-7.321
		c-0.394-0.092-0.784-0.182-1.17-0.271c1.673-7.239,3.309-14.316,4.968-21.494c0.386,0.09,0.724,0.169,1.063,0.246
		c6.43,1.485,12.859,2.972,19.29,4.457c4.319,0.999,8.645,1.971,12.953,3.002c5.417,1.296,9.153,5.571,9.676,11.02
		c0.08,0.835,0.066,1.68,0.096,2.521C200.901,158.178,199.114,165.91,197.328,173.642z M187.111,175.727
		c0.745-3.223,1.486-6.434,2.271-9.821c-1.081,0.203-2.02,0.347-2.933,0.582c-0.175,0.045-0.309,0.45-0.374,0.71
		c-0.384,1.591-0.745,3.188-1.128,4.848c-0.988-0.229-1.917-0.443-2.969-0.687c0.367-1.58,0.724-3.124,1.096-4.732
		c-1.114-0.163-2.096-0.308-3.209-0.472c-0.576,2.492-1.148,4.964-1.729,7.481c-1.036-0.239-1.94-0.449-2.94-0.68
		c0.566-2.448,1.13-4.892,1.714-7.421c-1.105-0.257-2.118-0.489-3.229-0.747c-0.339,1.465-0.675,2.92-1.021,4.419
		c-1.026-0.236-1.953-0.45-2.96-0.684c0.344-1.486,0.674-2.913,1.021-4.423c-0.999-0.231-1.921-0.443-2.973-0.688
		c-0.94,4.067-1.878,8.134-2.831,12.252c-1.034-0.239-1.94-0.451-2.958-0.684c0.94-4.072,1.881-8.144,2.837-12.273
		c-0.977-0.226-1.84-0.426-2.812-0.649c-0.343,1.484-0.678,2.937-1.027,4.449c-1.006-0.234-1.905-0.44-2.931-0.679
		c0.342-1.476,0.677-2.926,1.025-4.441c-1.236-0.285-2.349-0.543-3.569-0.823c-0.568,2.453-1.133,4.895-1.714,7.411
		c-1.028-0.238-1.956-0.454-2.971-0.687c0.561-2.432,1.125-4.878,1.709-7.4c-0.949-0.219-1.812-0.419-2.788-0.646
		c-0.331,1.43-0.666,2.877-1.019,4.407c-1.033-0.238-1.953-0.453-2.994-0.691c0.343-1.478,0.679-2.933,1.025-4.436
		c-1.147-0.265-2.178-0.503-3.336-0.77c-0.938,4.06-1.878,8.124-2.833,12.261c-1.055-0.244-1.981-0.459-3.016-0.696
		c0.943-4.079,1.883-8.149,2.832-12.256c-0.971-0.225-1.834-0.424-2.782-0.642c-0.343,1.481-0.673,2.907-1.022,4.422
		c-1-0.231-1.92-0.443-2.957-0.683c0.34-1.468,0.675-2.921,1.023-4.426c-1.019-0.235-1.923-0.443-2.954-0.682
		c-0.565,2.451-1.138,4.918-1.72,7.442c-1.052-0.242-1.98-0.458-3.004-0.695c0.572-2.472,1.137-4.915,1.717-7.429
		c-1.207-0.278-2.326-0.537-3.556-0.821c-0.336,1.45-0.67,2.899-1.023,4.426c-1.035-0.24-1.959-0.453-2.997-0.693
		c0.345-1.495,0.682-2.953,1.028-4.448c-0.956-0.222-1.798-0.416-2.753-0.637c-0.944,4.085-1.885,8.153-2.838,12.28
		c-1.041-0.24-1.968-0.455-2.988-0.691c0.923-3.992,1.834-7.938,2.791-12.074c-1.03,0.081-1.922,0.102-2.793,0.255
		c-0.229,0.041-0.494,0.459-0.568,0.749c-0.356,1.36-0.652,2.736-0.982,4.167c-1-0.231-1.927-0.445-2.961-0.685
		c0.23-0.999,0.454-1.967,0.71-3.067c-1.183,0.423-2.009,0.804-2.233,2.137c-0.378,2.253-0.993,4.466-1.525,6.763
		c-0.984-0.229-1.882-0.436-2.876-0.666c0.267-1.151,0.536-2.317,0.806-3.486c-0.073-0.042-0.146-0.084-0.22-0.127
		c-0.33,0.441-0.751,0.839-0.972,1.328c-0.722,1.604-1.542,3.193-2.011,4.874c-0.836,2.999-1.444,6.059-2.143,9.094
		c-0.035,0.15-0.044,0.305-0.092,0.651c0.756-0.595,1.358-1.112,2.003-1.564c4.756-3.342,9.953-4.235,15.545-2.941
		c19.865,4.595,39.729,9.191,59.596,13.77c5.943,1.371,11.088-0.177,15.354-4.614c1.744-1.817,2.968-3.988,3.567-6.454
		c0.825-3.398,1.585-6.813,2.392-10.306c-1.382,0.951-2.696,1.819-3.959,2.758c-0.239,0.178-0.325,0.622-0.404,0.959
		c-0.778,3.32-1.542,6.645-2.312,9.967c-0.079,0.345-0.158,0.688-0.259,1.125C188.96,176.155,188.083,175.953,187.111,175.727z
		 M96.056,183.951c-1.965,8.509,3.269,16.97,11.677,18.872c8.356,1.891,16.718-3.456,18.646-11.925
		c1.93-8.469-3.293-16.896-11.652-18.807C106.349,170.176,98.014,175.472,96.056,183.951z M187.814,138.979
		c-1.016-0.234-1.945-0.447-2.988-0.689c-0.343,1.484-0.686,2.966-1.04,4.499c-1.013-0.235-1.916-0.444-2.937-0.68
		c0.34-1.472,0.681-2.949,1.038-4.494c-1.106-0.255-2.097-0.484-3.18-0.734c-0.932,4.027-1.857,8.036-2.802,12.118
		c-1.017-0.235-1.941-0.447-2.984-0.688c0.928-4.016,1.86-8.051,2.804-12.133c-1.552-0.359-2.99-0.692-4.506-1.042
		c-1.175,5.075-2.351,10.167-3.563,15.415c0.34,0.079,0.703,0.162,1.065,0.247c5.549,1.281,11.093,2.58,16.645,3.841
		c3.506,0.795,7.066,1.439,9.615,4.328c4.854-4.804,6.505-12.15,1.632-16.567c-0.251,1.082-0.488,2.11-0.736,3.186
		c-1.012-0.233-1.915-0.442-2.987-0.69c0.259-1.124,0.459-2.273,0.802-3.382c0.28-0.899-0.024-1.264-0.853-1.414
		c-0.633-0.118-1.257-0.285-2.019-0.46c-0.596,2.579-1.188,5.139-1.792,7.757c-1.062-0.245-1.985-0.459-2.999-0.693
		C186.625,144.12,187.212,141.58,187.814,138.979z M160.001,148.724c0.163-0.573,0.313-1.1,0.479-1.686
		c0.957,0.222,1.884,0.436,2.894,0.669c-0.09,0.564-0.179,1.126-0.275,1.729c0.504,0.115,0.958,0.219,1.457,0.337
		c1.186-5.129,2.354-10.192,3.542-15.333c-0.454-0.105-0.907-0.21-1.448-0.335c-0.116,0.348-0.245,0.736-0.402,1.2
		c-0.946-0.219-1.898-0.438-2.902-0.671c0.068-0.405,0.134-0.785,0.212-1.241c-0.538-0.125-1.079-0.251-1.673-0.388
		c-1.181,5.105-2.357,10.191-3.545,15.334C158.914,148.473,159.434,148.593,160.001,148.724z M129.695,175.599
		c-1.6-0.37-3.129-0.724-3.934-0.91c0.873,1.482,2.009,3.409,2.977,5.052C128.974,178.719,129.328,177.184,129.695,175.599z"/>
	<path fill="#FFFFFF" stroke="#FFFFFF" stroke-miterlimit="10" d="M190.004,176.396c-1.044-0.24-1.921-0.442-2.893-0.669
		c0.745-3.223,1.486-6.434,2.271-9.821c-1.081,0.203-2.02,0.347-2.933,0.582c-0.175,0.045-0.309,0.45-0.374,0.71
		c-0.384,1.591-0.745,3.188-1.128,4.848c-0.988-0.229-1.917-0.443-2.969-0.687c0.367-1.58,0.724-3.124,1.096-4.732
		c-1.114-0.163-2.096-0.308-3.209-0.472c-0.576,2.492-1.148,4.964-1.729,7.481c-1.036-0.239-1.94-0.449-2.94-0.68
		c0.566-2.448,1.13-4.892,1.714-7.421c-1.105-0.257-2.118-0.489-3.229-0.747c-0.339,1.465-0.675,2.92-1.021,4.419
		c-1.026-0.236-1.953-0.45-2.96-0.684c0.344-1.486,0.674-2.913,1.021-4.423c-0.999-0.231-1.921-0.443-2.973-0.688
		c-0.94,4.067-1.878,8.134-2.831,12.252c-1.034-0.239-1.94-0.451-2.958-0.684c0.94-4.072,1.881-8.144,2.837-12.273
		c-0.977-0.226-1.84-0.426-2.812-0.649c-0.343,1.484-0.678,2.937-1.027,4.449c-1.006-0.234-1.905-0.44-2.931-0.679
		c0.342-1.476,0.677-2.926,1.025-4.441c-1.236-0.285-2.349-0.543-3.569-0.823c-0.568,2.453-1.133,4.895-1.714,7.411
		c-1.028-0.238-1.956-0.454-2.971-0.687c0.561-2.432,1.125-4.878,1.709-7.4c-0.949-0.219-1.812-0.419-2.788-0.646
		c-0.331,1.43-0.666,2.877-1.019,4.407c-1.033-0.238-1.953-0.453-2.994-0.691c0.343-1.478,0.679-2.933,1.025-4.436
		c-1.147-0.265-2.178-0.503-3.336-0.77c-0.938,4.06-1.878,8.124-2.833,12.261c-1.055-0.244-1.981-0.459-3.016-0.696
		c0.943-4.079,1.883-8.149,2.832-12.256c-0.971-0.225-1.834-0.424-2.782-0.642c-0.343,1.481-0.673,2.907-1.022,4.422
		c-1-0.231-1.92-0.443-2.957-0.683c0.34-1.468,0.675-2.921,1.023-4.426c-1.019-0.235-1.923-0.443-2.954-0.682
		c-0.565,2.451-1.138,4.918-1.72,7.442c-1.052-0.242-1.98-0.458-3.004-0.695c0.572-2.472,1.137-4.915,1.717-7.429
		c-1.207-0.278-2.326-0.537-3.556-0.821c-0.336,1.45-0.67,2.899-1.023,4.426c-1.035-0.24-1.959-0.453-2.997-0.693
		c0.345-1.495,0.682-2.953,1.028-4.448c-0.956-0.222-1.798-0.416-2.753-0.637c-0.944,4.085-1.885,8.153-2.838,12.28
		c-1.041-0.24-1.968-0.455-2.988-0.691c0.923-3.992,1.834-7.938,2.791-12.074c-1.03,0.081-1.922,0.102-2.793,0.255
		c-0.229,0.041-0.494,0.459-0.568,0.749c-0.356,1.36-0.652,2.736-0.982,4.167c-1-0.231-1.927-0.445-2.961-0.685
		c0.23-0.999,0.454-1.967,0.71-3.067c-1.183,0.423-2.009,0.804-2.233,2.137c-0.378,2.253-0.993,4.466-1.525,6.763
		c-0.984-0.229-1.882-0.436-2.876-0.666c0.267-1.151,0.536-2.317,0.806-3.486c-0.073-0.042-0.146-0.084-0.22-0.127
		c-0.33,0.441-0.751,0.839-0.972,1.328c-0.722,1.604-1.542,3.193-2.011,4.874c-0.836,2.999-1.444,6.059-2.143,9.094
		c-0.035,0.15-0.044,0.305-0.092,0.651c0.756-0.595,1.358-1.112,2.003-1.564c4.756-3.342,9.953-4.235,15.545-2.941
		c19.865,4.595,39.729,9.191,59.596,13.77c5.943,1.371,11.088-0.177,15.354-4.614c1.744-1.817,2.968-3.988,3.567-6.454
		c0.825-3.398,1.585-6.813,2.392-10.306c-1.382,0.951-2.696,1.819-3.959,2.758c-0.239,0.178-0.325,0.622-0.404,0.959
		c-0.778,3.32-1.542,6.645-2.312,9.967C190.183,175.615,190.104,175.959,190.004,176.396z"/>
	<path fill="#FFFFFF" stroke="#FFFFFF" stroke-miterlimit="10" d="M126.379,190.898c-1.928,8.468-10.29,13.814-18.646,11.924
		c-8.409-1.901-13.643-10.362-11.677-18.871c1.958-8.479,10.292-13.775,18.671-11.86
		C123.085,174.002,128.309,182.428,126.379,190.898z M97.703,184.39c-2.002,6.899,2.692,15.259,10.292,16.744
		c0.217-0.938,0.435-1.879,0.655-2.833c-6.271-2.164-9.04-6.536-8.167-13.271C99.56,184.817,98.63,184.604,97.703,184.39z
		 M121.9,189.86c0.926,0.213,1.855,0.43,2.785,0.643c1.978-6.227-2.07-14.988-10.234-16.762c-0.217,0.94-0.434,1.88-0.668,2.888
		C120.262,178.517,122.981,184.218,121.9,189.86z M106.693,186.415c-0.569,2.485,1.016,5.055,3.465,5.613s5.006-1.068,5.569-3.545
		c0.564-2.486-1.023-5.051-3.473-5.609C109.799,182.314,107.261,183.929,106.693,186.415z M102.247,185.434
		c-1.387,4.582,2.015,10.224,6.816,11.095c0.217-0.939,0.436-1.884,0.669-2.897c-1.591-0.501-2.931-1.361-3.814-2.807
		c-0.867-1.42-1.125-2.97-0.801-4.728C104.108,185.864,103.177,185.648,102.247,185.434z M112.689,181.284
		c1.636,0.479,2.948,1.376,3.831,2.821c0.868,1.419,1.09,2.981,0.791,4.687c0.974,0.227,1.928,0.446,2.881,0.667
		c1.239-4.408-1.658-9.925-6.817-11.138C113.139,179.338,112.92,180.282,112.689,181.284z"/>
	<path fill="#FFFFFF" stroke="#FFFFFF" stroke-miterlimit="10" d="M186.027,146.702c0.597-2.582,1.185-5.122,1.787-7.723
		c-1.016-0.234-1.945-0.447-2.988-0.689c-0.343,1.484-0.686,2.966-1.04,4.499c-1.013-0.235-1.916-0.444-2.937-0.68
		c0.34-1.472,0.681-2.949,1.038-4.494c-1.106-0.255-2.097-0.484-3.18-0.734c-0.932,4.027-1.857,8.036-2.802,12.118
		c-1.017-0.235-1.941-0.447-2.984-0.688c0.928-4.016,1.86-8.051,2.804-12.133c-1.552-0.359-2.99-0.692-4.506-1.042
		c-1.175,5.075-2.351,10.167-3.563,15.415c0.34,0.079,0.703,0.162,1.065,0.247c5.549,1.281,11.093,2.58,16.645,3.841
		c3.506,0.795,7.066,1.439,9.615,4.328c4.854-4.804,6.505-12.15,1.632-16.567c-0.251,1.082-0.488,2.11-0.736,3.186
		c-1.012-0.233-1.915-0.442-2.987-0.69c0.259-1.124,0.459-2.273,0.802-3.382c0.28-0.899-0.024-1.264-0.853-1.414
		c-0.633-0.118-1.257-0.285-2.019-0.46c-0.596,2.579-1.188,5.139-1.792,7.757C187.967,147.15,187.041,146.937,186.027,146.702z"/>
	<path fill="#FFFFFF" stroke="#FFFFFF" stroke-miterlimit="10" d="M161.883,133.005c0.594,0.137,1.135,0.264,1.673,0.388
		c-0.078,0.457-0.144,0.837-0.212,1.241c1.006,0.232,1.956,0.452,2.902,0.672c0.157-0.464,0.287-0.853,0.402-1.201
		c0.541,0.125,0.994,0.23,1.448,0.335c-1.188,5.142-2.356,10.205-3.542,15.332c-0.499-0.116-0.954-0.222-1.457-0.337
		c0.097-0.602,0.186-1.163,0.275-1.728c-1.01-0.235-1.936-0.448-2.894-0.669c-0.166,0.586-0.315,1.111-0.479,1.686
		c-0.569-0.131-1.087-0.253-1.663-0.386C159.525,143.196,160.702,138.11,161.883,133.005z M161.154,144.074
		c0.973,0.224,1.917,0.442,2.913,0.674c0.471-2.034,0.931-4.027,1.404-6.076c-0.964-0.224-1.893-0.437-2.914-0.674
		C162.083,140.049,161.629,142.019,161.154,144.074z"/>
	<path fill="#FFFFFF" stroke="#FFFFFF" stroke-miterlimit="10" d="M128.738,179.738c0.235-1.02,0.59-2.555,0.957-4.14
		c-1.6-0.37-3.129-0.724-3.934-0.911C126.635,176.17,127.77,178.098,128.738,179.738z"/>
	<path stroke="#FFFFFF" stroke-miterlimit="10" d="M100.482,185.031c-0.923-0.212-1.853-0.428-2.78-0.642
		c-2.002,6.899,2.692,15.259,10.292,16.744c0.217-0.938,0.435-1.879,0.655-2.833C102.379,196.137,99.609,191.765,100.482,185.031z"
		/>
	<path stroke="#FFFFFF" stroke-miterlimit="10" d="M113.783,176.629c6.479,1.888,9.198,7.589,8.117,13.23
		c0.926,0.214,1.855,0.43,2.785,0.644c1.978-6.227-2.071-14.988-10.234-16.764C114.234,174.682,114.017,175.621,113.783,176.629z"/>
	<path stroke="#FFFFFF" stroke-miterlimit="10" d="M115.728,188.482c-0.563,2.478-3.12,4.104-5.569,3.545
		c-2.45-0.56-4.035-3.127-3.465-5.613c0.568-2.485,3.107-4.102,5.562-3.541C114.704,183.431,116.292,185.996,115.728,188.482z
		 M111.597,185.926c-0.829-0.211-1.663,0.283-1.886,1.115c-0.232,0.865,0.296,1.76,1.152,1.95c0.804,0.18,1.669-0.367,1.864-1.179
		C112.926,186.986,112.414,186.134,111.597,185.926z"/>
	<path stroke="#FFFFFF" stroke-miterlimit="10" d="M105.117,186.098c-1.008-0.233-1.939-0.449-2.87-0.664
		c-1.387,4.582,2.015,10.224,6.816,11.095c0.217-0.939,0.436-1.884,0.669-2.897c-1.591-0.501-2.931-1.361-3.814-2.807
		C105.051,189.405,104.792,187.854,105.117,186.098z"/>
	<path stroke="#FFFFFF" stroke-miterlimit="10" d="M113.374,178.321c-0.234,1.016-0.453,1.96-0.684,2.961
		c1.636,0.48,2.948,1.378,3.831,2.822c0.868,1.42,1.09,2.98,0.791,4.688c0.974,0.226,1.928,0.445,2.881,0.666
		C121.43,185.051,118.533,179.534,113.374,178.321z"/>
	<path stroke="#FFFFFF" stroke-miterlimit="10" d="M162.558,137.998c-0.475,2.051-0.929,4.021-1.403,6.076
		c0.973,0.224,1.917,0.442,2.913,0.674c0.471-2.034,0.931-4.027,1.404-6.076C164.508,138.448,163.579,138.233,162.558,137.998z"/>
	<path fill="#FFFFFF" stroke="#FFFFFF" stroke-miterlimit="10" d="M112.728,187.811c0.198-0.824-0.313-1.678-1.13-1.885
		c-0.829-0.211-1.663,0.283-1.886,1.115c-0.232,0.865,0.296,1.76,1.152,1.95C111.667,189.17,112.532,188.624,112.728,187.811z"/>
</g>
<g>
	<path stroke="#FFFFFF" stroke-width="3" stroke-miterlimit="10" d="M201.717,102.595c-0.598,0.711-1.145,1.473-1.796,2.129
		c-8.064,8.085-16.143,16.157-24.219,24.232c-2.053,2.052-2.997,2.054-5.036,0.015c-2.879-2.879-5.771-5.747-8.63-8.645
		c-1.404-1.423-1.394-2.597-0.06-4.03c3.973-4.271,3.82-8.772-0.502-12.806c-2.312-2.158-4.979-3.545-8.26-2.875
		c-0.916,0.186-1.816,0.709-2.592,1.262c-1.617,1.15-2.675,1.132-4.057-0.263c-0.823-0.831-1.651-1.657-2.482-2.48
		c-0.064-0.064-0.155-0.1-0.063-0.042c-7.559,7.559-15.085,15.084-22.989,22.989c0.213,0.129,0.819,0.35,1.228,0.764
		c1.322,1.347,1.304,2.558,0.051,3.929c-0.157,0.172-0.329,0.334-0.495,0.498c-13.203,13.206-26.4,26.416-39.613,39.611
		c-4.081,4.076-8.938,5.58-14.505,3.846c-5.396-1.68-8.522-5.495-9.563-11.037c-0.042-0.221-0.15-0.429-0.227-0.643
		c0-1.029,0-2.06,0-3.09c0.694-4.49,3.382-7.712,6.506-10.802c12.277-12.146,24.45-24.396,36.662-36.607
		c3.238-3.239,3.24-3.239,6.563-0.448c7.543-7.542,15.075-15.074,22.891-22.889c-0.578-0.482-1.369-1.058-2.061-1.736
		c-2.453-2.411-2.445-3.111-0.066-5.52c0.291-0.293,0.561-0.607,0.883-0.958c-2.969-5.2-6.666-9.751-11.03-13.764
		c-5.106-4.695-10.819-8.459-17.247-11.102c-1.154-0.474-2.09-1.093-2.093-2.496c-0.004-1.408,0.97-2.033,2.091-2.516
		c8.813-3.792,17.833-4.231,27.013-1.585c7.85,2.263,14.526,6.551,20.966,12.532c0.342-0.574,0.578-1.235,1.028-1.683
		c1.286-1.276,2.48-1.265,3.811-0.04c0.791,0.73,1.53,1.514,2.292,2.274c5.6,5.586,11.199,11.172,16.799,16.76
		c1.186,1.182,1.347,2.249,0.528,3.489c-2.356,3.576-2.384,6.284,0.004,9.807c1.571,2.319,3.684,3.948,6.437,4.672
		c2.67,0.702,4.945,0.113,6.932-1.867c2.386-2.379,3.099-2.325,5.505,0.082c2.417,2.416,4.841,4.823,7.243,7.253
		c0.75,0.758,1.437,1.58,2.151,2.372C201.717,101.659,201.717,102.126,201.717,102.595z M104.512,111.986
		c-0.318,0.287-0.601,0.521-0.861,0.781c-12.582,12.575-25.162,25.15-37.736,37.733c-0.496,0.494-0.961,1.024-1.388,1.58
		c-3.247,4.225-1.94,10.652,2.69,13.279c3.979,2.257,8.185,1.558,11.729-1.984c12.582-12.574,25.155-25.156,37.73-37.736
		c0.252-0.253,0.487-0.523,0.717-0.773C113.083,120.556,108.852,116.325,104.512,111.986z M151.983,61.45
		c-6.448,6.427-12.896,12.852-19.075,19.012c5.313,5.376,10.644,10.77,15.737,15.924c6.334-6.323,12.767-12.746,19.158-19.129
		C162.608,72.066,157.289,66.751,151.983,61.45z M144.918,61.007c-7.14-9.182-28.668-15.687-37.04-11.023
		c10.398,5.573,18.662,13.383,24.787,23.296C136.789,69.15,140.848,65.087,144.918,61.007z M173.089,124.373
		c7.529-7.54,15.05-15.073,22.501-22.534c-1.963-1.968-4.04-4.048-5.891-5.9c-7.511,7.501-15.068,15.049-22.529,22.501
		C169.09,120.362,171.131,122.409,173.089,124.373z M133.895,89.263c-7.494,7.493-15.004,15.002-22.365,22.366
		c2.053,2.05,4.159,4.149,6.168,6.155c7.41-7.411,14.915-14.916,22.364-22.366C138.055,93.416,135.973,91.339,133.895,89.263z
		 M179.765,98.219c-3.303-0.579-6.016-2.161-8.304-4.442c-2.28-2.275-3.779-5.021-4.368-8.079
		c-3.408,3.404-6.793,6.785-10.146,10.134c6.646,1.674,10.889,5.962,12.562,12.637C172.918,105.062,176.279,101.702,179.765,98.219z
		"/>
	<path fill="#FFFFFF" stroke="#FFFFFF" stroke-width="3" stroke-miterlimit="10" d="M104.512,111.986
		c4.341,4.338,8.571,8.57,12.882,12.879c-0.231,0.25-0.465,0.52-0.717,0.773c-12.575,12.58-25.149,25.162-37.731,37.736
		c-3.544,3.542-7.75,4.241-11.729,1.984c-4.63-2.627-5.937-9.055-2.69-13.279c0.427-0.556,0.893-1.086,1.388-1.58
		c12.574-12.583,25.154-25.158,37.736-37.733C103.91,112.508,104.194,112.273,104.512,111.986z M70.65,158.22
		c0.309-0.187,1.03-0.458,1.529-0.952c5.813-5.763,11.593-11.557,17.374-17.352c0.292-0.295,0.573-0.636,0.746-1.006
		c0.461-0.988,0.317-1.938-0.471-2.698c-0.782-0.755-1.721-0.923-2.708-0.407c-0.326,0.17-0.623,0.419-0.885,0.682
		c-5.826,5.814-11.647,11.635-17.462,17.463c-0.261,0.261-0.506,0.566-0.666,0.894C67.348,156.412,68.5,158.227,70.65,158.22z
		 M107.219,121.342c-0.63-0.703-1.082-1.486-1.761-1.9c-1.075-0.66-2.074-0.113-2.886,0.695c-3.077,3.061-6.152,6.123-9.203,9.208
		c-1.226,1.24-1.305,2.722-0.279,3.708c1.04,1,2.365,0.934,3.601-0.286c3.123-3.081,6.229-6.179,9.295-9.315
		C106.474,122.953,106.719,122.22,107.219,121.342z"/>
	<path fill="#FFFFFF" stroke="#FFFFFF" stroke-width="3" stroke-miterlimit="10" d="M151.983,61.45
		c5.306,5.301,10.625,10.616,15.82,15.807c-6.392,6.383-12.825,12.805-19.158,19.129c-5.093-5.154-10.425-10.547-15.737-15.924
		C139.088,74.301,145.536,67.876,151.983,61.45z M148.992,85.169c1.445,0,2.891,0.022,4.337-0.005
		c1.736-0.033,2.858-1.019,2.826-2.437c-0.029-1.385-1.101-2.319-2.773-2.333c-2.938-0.024-5.875-0.025-8.812,0.001
		c-1.707,0.015-2.705,0.913-2.721,2.348c-0.016,1.427,0.994,2.372,2.667,2.417C146.007,85.2,147.5,85.168,148.992,85.169z
		 M151.418,70.838c0,0.003,0,0.006,0,0.009c-0.889,0-1.784-0.067-2.664,0.016c-1.222,0.116-1.947,0.85-2.094,2.075
		c-0.146,1.217,0.514,2.352,1.758,2.466c1.938,0.179,3.913,0.174,5.856,0.024c1.202-0.092,2.016-1.312,1.855-2.417
		c-0.179-1.238-0.873-2.068-2.189-2.162C153.104,70.79,152.257,70.838,151.418,70.838z"/>
	<path fill="#FFFFFF" stroke="#FFFFFF" stroke-width="3" stroke-miterlimit="10" d="M144.918,61.007
		c-4.07,4.08-8.129,8.143-12.253,12.273c-6.124-9.913-14.389-17.722-24.787-23.296C116.25,45.32,137.778,51.825,144.918,61.007z"/>
	<path fill="#FFFFFF" stroke="#FFFFFF" stroke-width="3" stroke-miterlimit="10" d="M173.089,124.373
		c-1.958-1.963-4.001-4.01-5.919-5.933c7.461-7.452,15.019-15,22.529-22.501c1.85,1.852,3.927,3.932,5.891,5.9
		C188.139,109.3,180.618,116.833,173.089,124.373z"/>
	<path fill="#FFFFFF" stroke="#FFFFFF" stroke-width="3" stroke-miterlimit="10" d="M133.895,89.263
		c2.078,2.075,4.16,4.151,6.167,6.155c-7.449,7.45-14.955,14.955-22.364,22.366c-2.009-2.005-4.115-4.105-6.168-6.155
		C118.891,104.266,126.4,96.756,133.895,89.263z"/>
	<path fill="#FFFFFF" stroke="#FFFFFF" stroke-width="3" stroke-miterlimit="10" d="M179.765,98.219
		c-3.485,3.482-6.847,6.842-10.255,10.251c-1.675-6.675-5.916-10.964-12.562-12.637c3.352-3.348,6.738-6.729,10.146-10.134
		c0.589,3.058,2.087,5.804,4.367,8.079C173.749,96.059,176.462,97.641,179.765,98.219z"/>
	<path stroke="#FFFFFF" stroke-width="3" stroke-miterlimit="10" d="M107.219,121.342c-0.5,0.876-0.746,1.611-1.232,2.109
		c-3.066,3.137-6.173,6.234-9.295,9.315c-1.236,1.22-2.561,1.286-3.601,0.286c-1.026-0.986-0.947-2.468,0.279-3.708
		c3.051-3.085,6.126-6.147,9.204-9.208c0.812-0.809,1.811-1.355,2.886-0.695C106.137,119.856,106.589,120.64,107.219,121.342z"/>
	<path stroke="#FFFFFF" stroke-width="3" stroke-miterlimit="10" d="M148.992,85.169c-1.492,0-2.985,0.031-4.477-0.009
		c-1.673-0.044-2.682-0.989-2.666-2.417c0.015-1.435,1.012-2.333,2.72-2.348c2.936-0.027,5.874-0.026,8.812-0.001
		c1.672,0.014,2.744,0.948,2.773,2.333c0.031,1.418-1.09,2.404-2.827,2.437C151.883,85.191,150.438,85.169,148.992,85.169z"/>
	<path stroke="#FFFFFF" stroke-width="3" stroke-miterlimit="10" d="M151.418,70.838c0.841,0,1.686-0.048,2.522,0.012
		c1.317,0.094,2.012,0.924,2.189,2.162c0.16,1.104-0.653,2.323-1.855,2.416c-1.943,0.15-3.918,0.155-5.856-0.023
		c-1.243-0.115-1.904-1.25-1.758-2.466c0.146-1.226,0.872-1.96,2.094-2.076c0.88-0.083,1.775-0.015,2.664-0.015
		C151.418,70.844,151.418,70.841,151.418,70.838z"/>
</g>
</svg>
