<?xml version="1.0" encoding="utf-8"?>
<!-- Generator: Adobe Illustrator 16.0.0, SVG Export Plug-In . SVG Version: 6.00 Build 0)  -->
<!DOCTYPE svg PUBLIC "-//W3C//DTD SVG 1.1//EN" "http://www.w3.org/Graphics/SVG/1.1/DTD/svg11.dtd">
<svg version="1.1" id="Layer_1" xmlns="http://www.w3.org/2000/svg" xmlns:xlink="http://www.w3.org/1999/xlink" x="0px" y="0px"
	 width="250px" height="250px" viewBox="0 0 250 250" enable-background="new 0 0 250 250" xml:space="preserve">
<path stroke="#FFFFFF" stroke-width="8" stroke-miterlimit="10" d="M123.77,190.064c-1.188,0-2.376,0-3.563,0
	c-0.234-0.061-0.467-0.143-0.704-0.178c-8.813-1.289-14.761-6.143-17.843-14.465c-0.572-1.547-0.779-3.229-1.154-4.848
	c0-1.328,0-2.656,0-3.982c0.075-0.336,0.174-0.666,0.223-1.004c1.968-13.582,15.798-21.822,28.698-17.082
	c1.097,0.404,2.155,0.914,3.318,1.41c0-8.029,0-15.953,0-23.877c-0.001-7.437-0.109-14.875,0.03-22.309
	c0.106-5.77,4.815-10.989,10.493-11.966c4.402-0.756,8.813-1.455,13.218-2.176c11.36-1.863,22.721-3.719,34.081-5.592
	c2.33-0.384,4.653-0.826,6.979-1.242c0.908,0,1.816,0,2.724,0c0.19,0.071,0.375,0.164,0.568,0.21c3.685,0.88,5.91,3.194,6.766,6.863
	c0.054,0.23,0.14,0.455,0.211,0.682c0,23.125,0,46.25,0,69.375c-0.37,1.59-0.597,3.23-1.134,4.764
	c-3.579,10.225-13.174,15.957-23.885,14.342c-11.823-1.787-20.052-13.82-17.453-25.525c2.887-13.002,16.112-20.234,28.614-15.637
	c1.03,0.379,2.021,0.863,3.092,1.326c0-7.592,0-15.083,0-22.684c-17.872,2.554-35.679,5.098-53.536,7.651
	c-0.019,0.406-0.048,0.747-0.048,1.087c-0.001,13.762,0.004,27.522-0.007,41.282c-0.001,1.326-0.003,2.662-0.155,3.975
	c-1.017,8.754-5.604,14.861-13.782,18.143C127.701,189.338,125.692,189.592,123.77,190.064z M197.061,93.832
	c-0.426,0.061-0.733,0.101-1.038,0.151c-7.473,1.219-14.942,2.438-22.414,3.66c-9.398,1.537-18.797,3.075-28.194,4.618
	c-1.005,0.165-1.92,0.996-1.936,1.925c-0.047,2.997-0.018,5.995-0.018,9.107c17.944-2.563,35.775-5.11,53.602-7.656
	C197.061,101.642,197.061,97.808,197.061,93.832z M132.647,168.305c0.016-5.834-5.283-10.736-11.077-10.428
	c-6.026,0.322-10.685,5.414-10.329,11.215c0.363,5.926,5.513,10.615,11.223,10.223C128.38,178.904,133,173.91,132.647,168.305z
	 M186.22,168.578c5.722,0.121,10.741-4.672,10.865-10.373c0.131-5.949-4.593-10.936-10.491-11.078
	c-5.878-0.143-10.828,4.639-10.971,10.596C175.485,163.518,180.304,168.453,186.22,168.578z"/>
<g>
	
		<rect x="130.794" y="89.974" fill="#FFFFFF" stroke="#FFFFFF" stroke-width="3" stroke-miterlimit="10" width="10.106" height="30.805"/>
	
		<rect x="146.274" y="79.851" transform="matrix(0.0147 0.9999 -0.9999 0.0147 244.3476 -57.4565)" fill="#FFFFFF" stroke="#FFFFFF" stroke-width="3" stroke-miterlimit="10" width="10.106" height="30.804"/>
	<path stroke="#FFFFFF" stroke-width="3" stroke-miterlimit="10" d="M168.532,91.868c-0.302,1.082-0.542,2.185-0.917,3.241
		c-0.863,2.439-2.281,4.515-4.233,6.229c-20.185,17.729-40.369,35.457-60.52,53.222c-0.485,0.428-0.843,1.291-0.833,1.941
		c0.097,5.334-0.232,10.604-1.866,15.73c-2.948,9.252-9.299,14.664-18.725,16.572c-7.159,1.449-14.277,0.805-21.344-0.652
		c-10.08-2.078-19.708-5.516-28.957-10.004c-0.797-0.387-1.382-1.217-2.065-1.842c0-0.453,0-0.908,0-1.361
		c0.592-1.219,1.58-1.865,2.866-2.281c2.758-0.891,5.474-1.908,8.206-2.883c4.766-1.697,7.914-5.064,9.625-9.721
		c1.328-3.609,2.39-7.316,3.545-10.986c2.257-7.166,7.822-11.602,15.336-12.328c5.703-0.553,11.222,0.291,16.627,2.021
		c1.032,0.33,1.617,0.137,2.334-0.635c18.019-19.322,36.07-38.612,54.091-57.93c2.665-2.856,5.781-4.757,9.697-5.289
		c7.901-1.075,15.421,4.378,16.866,12.254c0.055,0.301,0.176,0.591,0.268,0.886C168.532,89.326,168.532,90.597,168.532,91.868z
		 M46.286,178.848c2.424,0.781,4.611,1.582,6.849,2.189c8.265,2.246,16.608,3.842,25.25,2.914
		c8.524-0.916,14.435-5.73,16.967-13.922c1.383-4.48,1.661-9.086,1.484-13.73c-0.024-0.639-0.344-1.41-0.787-1.867
		c-3.101-3.191-6.265-6.318-9.421-9.453c-0.313-0.311-0.678-0.639-1.082-0.781c-4.966-1.75-10.065-2.76-15.351-2.4
		c-6.264,0.426-10.151,3.563-11.981,9.521c-0.904,2.943-1.68,5.934-2.709,8.83c-1.648,4.646-4.037,8.826-8.207,11.73
		c-0.617,0.43-1.255,0.83-2.141,1.414c5.333-0.365,10.182-1.402,14.894-3.105c4.331-1.564,8.354-3.715,12.195-6.246
		c1.541-1.014,3.126-0.707,3.94,0.588c0.806,1.281,0.441,2.805-0.972,3.785c-5.676,3.941-11.828,6.893-18.551,8.523
		C53.349,177.643,49.96,178.148,46.286,178.848z M137.404,92.423c-11.785,12.646-23.653,25.379-35.27,37.843
		c3.218,3.264,6.318,6.408,9.456,9.592c12.971-11.402,26.039-22.89,38.977-34.263C146.122,101.145,141.802,96.822,137.404,92.423z
		 M154.808,101.836c1.655-1.447,3.302-2.866,4.924-4.312c3.832-3.415,4.603-8.942,1.835-13.042
		c-2.789-4.13-8.356-5.526-12.913-3.177c-3.156,1.626-4.941,4.7-7.384,6.922C145.829,92.812,150.267,97.272,154.808,101.836z
		 M98.072,134.602c-2.313,2.482-4.654,4.996-6.877,7.381c2.845,2.863,5.604,5.637,8.404,8.453c2.516-2.236,5.086-4.516,7.582-6.734
		C104.139,140.662,101.167,137.691,98.072,134.602z"/>
	
		<rect x="138.119" y="88.122" transform="matrix(-0.6608 0.7506 -0.7506 -0.6608 307.9448 46.3789)" fill="#FFFFFF" stroke="#FFFFFF" stroke-width="3" stroke-miterlimit="10" width="10.746" height="9.307"/>
	
		<rect x="97.75" y="130.947" transform="matrix(-0.6886 0.7251 -0.7251 -0.6886 271.9052 152.9137)" fill="#FFFFFF" stroke="#FFFFFF" stroke-width="3" stroke-miterlimit="10" width="10.745" height="7.774"/>
	
		<rect x="101.647" y="134.922" transform="matrix(-0.7416 0.6709 -0.6709 -0.7416 279.5072 169.9523)" fill="#FFFFFF" stroke="#FFFFFF" stroke-width="3" stroke-miterlimit="10" width="10.746" height="7.776"/>
	
		<rect x="144.476" y="95.202" transform="matrix(-0.7546 0.6562 -0.6562 -0.7546 328.4468 76.8717)" fill="#FFFFFF" stroke="#FFFFFF" stroke-width="3" stroke-miterlimit="10" width="10.746" height="9.306"/>
</g>
</svg>
