<?xml version="1.0" encoding="utf-8"?>
<!-- Generator: Adobe Illustrator 16.0.0, SVG Export Plug-In . SVG Version: 6.00 Build 0)  -->
<!DOCTYPE svg PUBLIC "-//W3C//DTD SVG 1.1//EN" "http://www.w3.org/Graphics/SVG/1.1/DTD/svg11.dtd">
<svg version="1.1" id="Layer_1" xmlns="http://www.w3.org/2000/svg" xmlns:xlink="http://www.w3.org/1999/xlink" x="0px" y="0px"
	 width="250px" height="250px" viewBox="0 0 250 250" enable-background="new 0 0 250 250" xml:space="preserve">
<g>
	<path fill-rule="evenodd" clip-rule="evenodd" stroke="#FFFFFF" stroke-width="2" stroke-miterlimit="10" d="M73.002,98.598
		c0.561-2.183,1.562-4.069,3.568-5.271c3.316-1.986,7.27-1.268,9.818,1.789c0.256,0.307,0.519,0.62,0.711,0.967
		c2.291,4.143,6.09,6.002,10.5,6.875c4.375,0.867,8.708,0.471,12.963-0.752c6.712-1.93,13.388-3.99,20.122-5.839
		c2.434-0.668,4.991-0.887,7.593-1.327c0-2.043,0-4.243,0-6.582c-1.754,0-3.457,0.024-5.158-0.007
		c-1.457-0.026-2.135-0.592-2.198-1.736c-0.062-1.108,0.495-1.804,1.606-1.936c0.642-0.076,1.293-0.078,2.08-0.121
		c0-2.34,0.015-4.622-0.029-6.903c-0.003-0.176-0.392-0.447-0.637-0.496c-0.458-0.091-0.945-0.02-1.415-0.073
		c-1.018-0.114-1.589-0.729-1.606-1.719c-0.018-0.997,0.398-1.686,1.441-1.868c0.321-0.056,0.65-0.094,0.976-0.095
		c4.592-0.006,9.184-0.008,13.775-0.001c1.026,0.001,1.989,0.145,2.322,1.359c0.314,1.145-0.314,2.164-1.485,2.312
		c-0.645,0.082-1.301,0.069-2.039,0.104c0,2.453,0,4.87,0,7.378c0.662,0.041,1.347,0.046,2.021,0.131
		c0.989,0.125,1.577,0.806,1.595,1.761c0.017,0.941-0.555,1.725-1.533,1.804c-1.411,0.115-2.836,0.082-4.255,0.106
		c-0.503,0.008-1.007,0.001-1.647,0.001c0,2.232-0.02,4.37,0.032,6.506c0.005,0.194,0.451,0.512,0.722,0.547
		c5.367,0.699,10.344,2.495,14.775,5.582c7.956,5.543,12.95,13.04,14.021,22.783c0.424,3.856,0.205,7.783,0.276,11.679
		c0.008,0.428,0.001,0.855,0.001,1.351c0.657,0,1.188,0,1.852,0c0.018-0.393,0.048-0.775,0.049-1.158
		c0.009-2.77-0.028-5.54,0.028-8.309c0.05-2.448,1.523-4.369,3.766-5.082c2.364-0.751,4.84-0.039,6.243,1.912
		c0.498,0.692,0.771,1.547,1.146,2.328c0,8.167,0,16.334,0,24.5c-0.058,0.093-0.144,0.179-0.167,0.279
		c-0.766,3.29-3.976,4.608-6.369,4.173c-2.905-0.527-4.624-2.67-4.642-5.937c-0.013-2.294-0.003-4.588-0.003-6.883
		c0-0.64,0-1.28,0-1.949c-0.697,0-1.231,0-1.834,0c0,6.812,0,13.564,0,20.455c1.646,0,3.248-0.113,4.826,0.033
		c1.387,0.129,2.839,0.337,4.101,0.883c2.372,1.027,3.512,3.134,4.088,5.57c0,0.729,0,1.458,0,2.188
		c-0.477,1.049-0.813,2.194-1.457,3.128c-1.599,2.321-3.971,3.164-6.718,3.161c-9.328-0.009-18.656-0.003-27.984-0.003
		c-22.482,0-44.964-0.004-67.447,0.005c-2.262,0.002-4.316-0.492-6.034-2.071c-1.256-1.156-1.828-2.671-2.36-4.22
		c0-0.729,0-1.458,0-2.188c0.239-0.716,0.397-1.471,0.73-2.141c1.55-3.117,4.184-4.357,7.571-4.354
		c15.631,0.017,31.263-0.003,46.894,0.03c0.957,0.002,1.281-0.304,1.498-1.204c1.296-5.375,2.634-10.74,4.014-16.094
		c0.703-2.729,0.777-5.412-0.407-8.008c-2.024-4.433-5.648-6.401-10.39-6.443c-5.283-0.048-10.567-0.03-15.85-0.006
		c-3.678,0.018-7.359,0.005-11.031,0.168c-3.276,0.146-6.677,2.79-7.451,5.999c-0.521,2.157-0.554,4.451-0.641,6.69
		c-0.135,3.46-1.705,5.872-4.901,7.184c-0.538,0.221-0.708,0.487-0.697,1.038c0.029,1.566,0.034,3.134,0.001,4.7
		c-0.031,1.479-0.659,2.185-1.864,2.189c-1.217,0.005-1.832-0.688-1.855-2.172c-0.025-1.53-0.033-3.062,0.005-4.591
		c0.016-0.633-0.224-0.886-0.784-1.204c-1.12-0.637-2.296-1.335-3.116-2.293c-0.793-0.925-1.167-2.208-1.726-3.334
		C73.002,128.785,73.002,113.692,73.002,98.598z M168.184,161.184c0-0.371,0-0.654,0-0.938c0-11.299,0.063-22.598-0.031-33.896
		c-0.038-4.594-1.441-8.894-3.765-12.858c-3.303-5.636-8.094-9.614-14.065-12.131c-5.832-2.459-11.909-3.135-18.07-1.537
		c-5.596,1.452-11.131,3.146-16.674,4.797c-4.438,1.322-8.855,2.631-13.57,2.518c-4.419-0.106-8.573-1.079-12.413-3.302
		c-2.332-1.35-4.039-3.307-5.446-5.564c-0.713-1.145-1.592-2.105-3.025-2.292c-2.374-0.31-4.188,1.421-4.191,4.025
		c-0.01,10.424-0.005,20.848-0.004,31.272c0,3.754-0.023,7.508,0.014,11.262c0.021,2.169,1.652,3.761,3.73,3.754
		c2.071-0.007,3.655-1.612,3.706-3.784c0.025-1.093,0.003-2.187,0.008-3.28c0.035-7.778,5.575-13.407,13.342-13.451
		c8.492-0.047,16.984-0.055,25.476,0.006c5.122,0.037,9.357,1.994,12.297,6.317c2.67,3.928,3.073,8.238,1.937,12.757
		c-1.18,4.693-2.381,9.381-3.567,14.072c-0.183,0.723-0.336,1.453-0.521,2.254C144.992,161.184,156.501,161.184,168.184,161.184z
		 M128.996,164.975c-15.784,0-31.568-0.001-47.352,0.004c-0.618,0-1.245,0.005-1.852,0.103c-2.12,0.342-3.484,2.514-2.91,4.58
		c0.533,1.917,1.944,2.8,4.5,2.8c31.75,0.001,63.501,0.001,95.252-0.005c0.58,0,1.173-0.022,1.738-0.139
		c2.055-0.421,3.321-2.581,2.735-4.601c-0.535-1.842-1.933-2.74-4.32-2.74C160.856,164.973,144.927,164.975,128.996,164.975z
		 M142.005,84.643c0-2.485,0-4.891,0-7.349c-1.225,0-2.369,0-3.584,0c0,2.471,0,4.882,0,7.349
		C139.635,84.643,140.811,84.643,142.005,84.643z M177.598,136.884c1.268,0,2.437,0,3.624,0c0-1.234,0-2.377,0-3.582
		c-1.228,0-2.401,0-3.624,0C177.598,134.515,177.598,135.659,177.598,136.884z M177.601,144.395c1.227,0,2.399,0,3.604,0
		c0-1.241,0-2.414,0-3.586c-1.243,0-2.412,0-3.604,0C177.601,142.042,177.601,143.187,177.601,144.395z M177.569,129.438
		c1.302,0,2.449,0,3.73,0c-0.142-1.207,0.407-2.562-0.885-3.295c-0.522-0.296-1.484-0.297-2.012-0.007
		C177.084,126.861,177.654,128.221,177.569,129.438z M177.549,148.25c0.118,1.237-0.466,2.607,0.869,3.32
		c0.532,0.283,1.498,0.275,2.012-0.03c1.259-0.748,0.762-2.084,0.84-3.29C180.004,148.25,178.856,148.25,177.549,148.25z"/>
	<path fill-rule="evenodd" clip-rule="evenodd" stroke="#FFFFFF" stroke-width="2" stroke-miterlimit="10" d="M147.673,129.482
		c-5.199,0.002-9.282-4.069-9.305-9.275c-0.022-5.212,4.17-9.403,9.356-9.352c5.163,0.05,9.293,4.215,9.27,9.349
		C156.972,125.381,152.853,129.481,147.673,129.482z M147.644,125.754c3.175,0.012,5.627-2.418,5.626-5.575
		c-0.001-3.125-2.507-5.617-5.63-5.597c-3.116,0.019-5.521,2.426-5.544,5.547C142.072,123.324,144.457,125.742,147.644,125.754z"/>
	<path fill-rule="evenodd" clip-rule="evenodd" stroke="#FFFFFF" stroke-width="2" stroke-miterlimit="10" d="M108.45,122.028
		c-2.839,0-5.678,0.001-8.517-0.001c-0.364,0-0.731,0.013-1.09-0.036c-0.974-0.133-1.484-0.749-1.537-1.693
		c-0.052-0.935,0.353-1.633,1.313-1.873c0.382-0.095,0.791-0.118,1.188-0.118c5.787-0.007,11.574-0.005,17.361-0.004
		c0.219,0,0.438-0.009,0.655,0.014c1.195,0.129,1.824,0.799,1.804,1.91c-0.02,1.108-0.674,1.776-1.896,1.787
		c-3.094,0.028-6.188,0.009-9.281,0.009C108.45,122.024,108.45,122.026,108.45,122.028z"/>
	<path fill-rule="evenodd" clip-rule="evenodd" stroke="#FFFFFF" stroke-width="2" stroke-miterlimit="10" d="M104.621,114.572
		c-1.749,0-3.498,0.017-5.246-0.005c-1.348-0.017-2.088-0.7-2.085-1.857c0.002-1.151,0.747-1.846,2.097-1.853
		c3.57-0.02,7.14-0.021,10.71,0c1.364,0.008,2.077,0.69,2.073,1.864c-0.004,1.177-0.715,1.829-2.085,1.846
		C108.264,114.588,106.442,114.572,104.621,114.572z"/>
	<path fill-rule="evenodd" clip-rule="evenodd" stroke="#FFFFFF" stroke-width="2" stroke-miterlimit="10" d="M156.986,151.931
		c-0.011,1.087-0.791,1.834-1.895,1.813c-1.095-0.02-1.838-0.806-1.8-1.902c0.036-1.021,0.818-1.784,1.834-1.791
		C156.173,150.045,156.997,150.877,156.986,151.931z"/>
	<path fill-rule="evenodd" clip-rule="evenodd" stroke="#FFFFFF" stroke-width="2" stroke-miterlimit="10" d="M147.668,153.745
		c-1.106-0.001-1.845-0.752-1.832-1.862c0.013-1.081,0.822-1.864,1.89-1.829c1.011,0.033,1.79,0.826,1.805,1.834
		C149.545,152.964,148.761,153.747,147.668,153.745z"/>
	<path fill-rule="evenodd" clip-rule="evenodd" stroke="#FFFFFF" stroke-width="2" stroke-miterlimit="10" d="M149.526,120.223
		c-0.027,1.082-0.824,1.821-1.926,1.789c-1.098-0.033-1.807-0.809-1.762-1.928c0.042-1.037,0.813-1.772,1.846-1.764
		C148.732,118.328,149.553,119.176,149.526,120.223z"/>
</g>
</svg>
