<?xml version="1.0" encoding="utf-8"?>
<!-- Generator: Adobe Illustrator 16.0.0, SVG Export Plug-In . SVG Version: 6.00 Build 0)  -->
<!DOCTYPE svg PUBLIC "-//W3C//DTD SVG 1.1//EN" "http://www.w3.org/Graphics/SVG/1.1/DTD/svg11.dtd">
<svg version="1.1" id="Layer_1" xmlns="http://www.w3.org/2000/svg" xmlns:xlink="http://www.w3.org/1999/xlink" x="0px" y="0px"
	 width="250px" height="250px" viewBox="0 0 250 250" enable-background="new 0 0 250 250" xml:space="preserve">
<path stroke="#FFFFFF" stroke-width="4" stroke-miterlimit="10" d="M49.326,109.021c10.88-8.71,22.657-14.826,36.893-14.005
	c12.331,0.711,22.627,5.688,29.717,16.146c3.428,5.057,4.871,10.672,3.165,16.766c-0.329,1.175-0.986,2.254-1.389,3.412
	c-0.149,0.428-0.177,1.06,0.037,1.426c1.613,2.762,3.299,5.481,4.977,8.238c0.073-0.105,0.283-0.353,0.425-0.635
	c1.489-2.951,2.997-5.893,4.416-8.878c0.21-0.442,0.21-1.313-0.077-1.617c-6.383-6.727-7.19-14.601-4.546-23.018
	c3.234-10.294,10.07-17.805,19.203-23.21c13.751-8.139,28.41-8.949,43.464-4.52c5.127,1.509,10.049,3.723,15.064,5.615
	c-0.018,0.156-0.036,0.314-0.052,0.471c-0.303,0.188-0.587,0.417-0.909,0.559c-10.878,4.773-18.758,12.928-25.444,22.457
	c-4.169,5.942-8.313,11.909-12.662,17.719c-2.856,3.813-6.261,7.154-10.65,9.243c-5.277,2.51-10.543,2.001-15.751-0.284
	c-0.669-0.294-1.321-0.625-2.135-1.011c-3.761,7.421-8.012,14.454-7.833,23.193c0.232,11.461,0.057,22.932,0.057,34.398
	c0,0.581,0,1.162,0,1.817c-2.047,0-3.946,0-6.004,0c0-0.652,0-1.231,0-1.811c0-11.762-0.019-23.525,0.007-35.288
	c0.016-7.076-1.855-13.542-6.087-19.437c-1.101,0.758-2.142,1.562-3.262,2.23c-5.713,3.42-11.438,3.062-16.921-0.395
	c-2.864-1.808-5.539-3.971-8.085-6.217c-4.742-4.183-9.248-8.633-13.997-12.808c-5.582-4.91-12.036-8.227-19.33-9.837
	c-0.577-0.127-1.142-0.309-1.71-0.474C49.766,109.23,49.635,109.156,49.326,109.021z M187.196,85.888
	c-8.457-2.866-16.82-4.122-25.466-2.862c-11.565,1.685-21.139,6.893-28.236,16.262c-3.976,5.247-6.468,11.096-5.778,17.884
	c0.307,2.989,1.421,5.659,3.513,7.801c4.36-6.212,8.633-12.299,12.974-18.483c1.754,1.402,3.242,2.591,4.674,3.737
	c-4.307,6.168-8.53,12.22-12.757,18.273c4.593,3.062,10.035,3.233,14.083,0.102c2.703-2.093,5.262-4.525,7.352-7.222
	c3.898-5.03,7.405-10.363,11.078-15.569c4.281-6.071,8.873-11.874,14.56-16.72C184.423,88.041,185.719,87.066,187.196,85.888z
	 M109.262,132.082c-5.014-5.461-11.205-9.186-17.335-13.175c1.193-1.678,2.296-3.229,3.442-4.842
	c6.331,3.861,12.349,7.926,17.633,13.179c1.065-2.807,0.968-5.396,0.181-7.946c-1.846-5.987-5.928-10.212-11.14-13.342
	c-10.298-6.186-21.124-6.43-32.191-2.349c-2.407,0.887-4.688,2.118-7.022,3.188c3.357,2.188,6.72,3.949,9.567,6.326
	c5.377,4.495,10.426,9.381,15.674,14.032c2.287,2.028,4.617,4.042,7.124,5.779C100.286,136.458,104.472,136.135,109.262,132.082z"/>
</svg>
