<?xml version="1.0" encoding="utf-8"?>
<!-- Generator: Adobe Illustrator 16.0.0, SVG Export Plug-In . SVG Version: 6.00 Build 0)  -->
<!DOCTYPE svg PUBLIC "-//W3C//DTD SVG 1.1//EN" "http://www.w3.org/Graphics/SVG/1.1/DTD/svg11.dtd">
<svg version="1.1" id="Layer_1" xmlns="http://www.w3.org/2000/svg" xmlns:xlink="http://www.w3.org/1999/xlink" x="0px" y="0px"
	 width="250px" height="250px" viewBox="0 0 250 250" enable-background="new 0 0 250 250" xml:space="preserve">
<g>
	<path fill-rule="evenodd" clip-rule="evenodd" stroke="#FFFFFF" stroke-width="3" stroke-miterlimit="10" d="M126.293,192.051
		c-8.17-2.362-12.169-8.871-15.39-15.921c-1.928-4.218-3.187-8.738-4.74-13.126c-0.179-0.505-0.324-1.021-0.511-1.616
		c-3.337,0.76-6.579,1.556-9.846,2.225c-6.613,1.355-13.236,1.543-19.763-0.422c-4.797-1.445-8.395-4.249-9.47-9.463
		c-0.64-3.1-0.161-6.123,0.857-9.083c2.054-5.971,5.611-11.031,9.668-15.766c1.885-2.199,3.925-4.266,6.035-6.543
		c-1.164-1.18-2.332-2.418-3.574-3.575c-0.212-0.196-0.769-0.139-1.127-0.047c-4.589,1.186-8.818-0.279-11.381-3.977
		c-2.509-3.615-2.331-8.271,0.375-12.057c0.295-0.413,0.317-1.146,0.224-1.689c-0.417-2.441-1.291-4.862-1.322-7.299
		c-0.076-5.724,3.292-9.909,9.034-11.844c5.184-1.746,10.523-1.877,15.854-1.164c4.789,0.642,9.528,1.656,14.48,2.54
		c0.106-0.317,0.308-0.85,0.462-1.396c1.775-6.288,3.89-12.441,7.301-18.063c2.303-3.794,4.976-7.271,8.986-9.422
		c1.213-0.65,2.562-1.048,3.849-1.56c1.178,0,2.357,0,3.535,0c0.767,0.253,1.542,0.479,2.295,0.764
		c4.135,1.559,6.963,4.646,9.381,8.16c4.083,5.932,6.453,12.618,8.427,19.47c0.22,0.764,0.448,1.524,0.677,2.289
		c1.96-0.473,3.749-0.968,5.565-1.316c0.981-0.188,1.409-0.646,1.649-1.604c0.96-3.819,4.302-6.846,8.039-7.372
		c4.437-0.625,8.191,0.823,10.28,4.718c1.24,2.313,2.767,3.268,5.071,4.056c6.271,2.143,9.223,6.907,8.715,13.527
		c-0.231,3.024-1.327,5.812-2.644,8.503c-2.856,5.843-6.915,10.817-11.347,15.513c-0.92,0.977-1.874,1.924-2.794,2.865
		c2.141,2.322,4.233,4.461,6.173,6.729c3.993,4.666,7.501,9.646,9.573,15.511c1.03,2.915,1.53,5.9,0.905,8.943
		c-1.148,5.566-5.016,8.505-10.188,9.962c-6.352,1.788-12.757,1.213-19.126,0.092c-3.283-0.579-6.523-1.406-9.851-2.134
		c-0.142,0.448-0.264,0.876-0.413,1.296c-1.625,4.553-2.938,9.252-4.955,13.625c-3.226,6.995-7.213,13.486-15.435,15.672
		C128.65,192.051,127.471,192.051,126.293,192.051z M150.662,122.428c-0.143-3.85-0.26-7.791-0.471-11.727
		c-0.029-0.518-0.418-1.226-0.854-1.482c-6.749-3.965-13.524-7.884-20.329-11.757c-0.443-0.252-1.281-0.252-1.725,0
		c-6.807,3.868-13.584,7.785-20.339,11.741c-0.416,0.243-0.808,0.883-0.844,1.366c-0.584,7.877-0.605,15.76-0.013,23.638
		c0.037,0.49,0.397,1.15,0.807,1.39c6.794,3.979,13.614,7.915,20.456,11.809c0.413,0.233,1.191,0.226,1.604-0.01
		c6.845-3.893,13.663-7.827,20.458-11.805c0.4-0.236,0.755-0.9,0.779-1.386C150.395,130.314,150.514,126.419,150.662,122.428z
		 M110.032,160.332c1.353,5.448,3.171,10.89,5.821,16.011c1.771,3.423,3.792,6.704,6.926,9.126
		c3.535,2.729,7.367,2.775,10.795-0.088c1.375-1.15,2.655-2.488,3.717-3.933c3.524-4.794,5.697-10.259,7.496-15.88
		c0.575-1.796,1.039-3.625,1.493-5.228c-5.991-2.486-11.829-4.914-17.679-7.315c-0.287-0.118-0.716-0.077-1.015,0.045
		C121.779,155.455,115.981,157.865,110.032,160.332z M146.318,84.698c-1.541-5.99-3.456-11.812-6.44-17.236
		c-1.646-2.99-3.511-5.812-6.216-7.983c-3.537-2.838-7.373-2.896-10.91-0.068c-0.983,0.786-1.928,1.666-2.717,2.645
		c-5.355,6.64-7.891,14.538-10.076,22.597c0.194,0.113,0.302,0.193,0.423,0.242c5.71,2.272,11.417,4.554,17.143,6.785
		c0.432,0.168,1.061,0.113,1.502-0.069c2.424-1.001,4.791-2.141,7.226-3.11C139.564,87.183,142.918,85.976,146.318,84.698z
		 M151.749,156.957c5.362,1.528,10.661,2.661,16.108,2.987c3.583,0.215,7.142,0.126,10.649-0.812
		c4.595-1.225,7.43-4.496,7.005-8.544c-0.211-1.997-0.699-4.022-1.421-5.897c-1.861-4.833-4.931-8.942-8.279-12.832
		c-1.881-2.185-3.905-4.244-5.897-6.396c-0.475,0.377-0.788,0.627-1.102,0.876c-4.366,3.456-8.71,6.94-13.119,10.342
		c-0.865,0.669-1.291,1.34-1.391,2.433c-0.268,2.929-0.608,5.854-1.029,8.764C152.841,150.869,152.277,153.841,151.749,156.957z
		 M86.433,125.627c-3.633,3.188-9.41,9.915-11.643,13.996c-1.4,2.563-2.652,5.258-3.546,8.03c-1.441,4.471-0.108,8.289,3.453,10.127
		c1.775,0.914,3.784,1.527,5.758,1.87c4.643,0.808,9.311,0.421,13.921-0.397c3.409-0.606,6.78-1.421,10.132-2.137
		c0-0.46,0.022-0.641-0.003-0.813c-0.839-5.685-1.721-11.36-2.492-17.052c-0.166-1.218-0.554-2.055-1.622-2.72
		c-1.417-0.884-2.751-1.914-4.063-2.955C93.032,130.964,89.768,128.312,86.433,125.627z M169.887,119.262
		c4.288-4.158,8.306-8.482,11.311-13.577c1.612-2.735,3.013-5.701,3.896-8.741c1.837-6.323-1.752-10.268-7.454-11.285
		c-1.52,4.797-4.738,7.717-9.847,7.834c-4.884,0.113-8.108-2.592-9.998-7.161c-2.028,0.51-4.023,1.012-6.041,1.52
		c0.032,0.333,0.041,0.508,0.065,0.681c0.857,5.952,1.7,11.907,2.604,17.851c0.076,0.505,0.454,1.075,0.862,1.398
		c1.562,1.234,3.23,2.334,4.791,3.569C163.334,113.933,166.55,116.566,169.887,119.262z M86.653,119.099
		c-0.066,0.031,0.071-0.005,0.174-0.085c4.798-3.787,9.603-7.565,14.373-11.388c0.358-0.287,0.591-0.876,0.658-1.356
		c0.637-4.481,1.203-8.972,1.837-13.454c0.237-1.673,0.596-3.329,0.928-5.146c-3.566-0.749-6.916-1.505-10.288-2.14
		c-1.73-0.325-3.497-0.519-5.255-0.62c-3.803-0.217-7.606-0.3-11.328,0.788c-6.137,1.794-8.784,6.353-5.779,13.593
		c4.975-1.419,9.232-0.265,12.098,4.144c2.735,4.21,2.115,8.431-0.93,12.347C84.301,116.876,85.446,117.959,86.653,119.099z
		 M122.885,94.431c-4.732-1.837-9.27-3.598-14.06-5.456c-0.783,5.092-1.524,9.914-2.29,14.899
		C112.109,100.654,117.383,97.609,122.885,94.431z M133.434,94.423c5.527,3.189,10.842,6.256,16.34,9.43
		c-0.773-4.969-1.521-9.77-2.309-14.826C142.667,90.874,138.129,92.618,133.434,94.423z M149.763,140.966
		c-5.484,3.164-10.78,6.22-16.31,9.408c4.713,1.816,9.268,3.57,14.029,5.405C148.27,150.669,149.009,145.868,149.763,140.966z
		 M106.515,140.967c0.791,5.045,1.541,9.839,2.325,14.843c4.829-1.867,9.358-3.619,14.014-5.419
		C117.362,147.225,112.088,144.183,106.515,140.967z M101.275,131.828c0-6.406,0-12.473,0-18.83
		c-3.966,3.205-7.713,6.233-11.654,9.419C93.582,125.615,97.331,128.643,101.275,131.828z M155.108,131.741
		c3.82-3.088,7.566-6.114,11.544-9.327c-3.986-3.216-7.754-6.253-11.544-9.31c0,3.262,0,6.283,0,9.303
		C155.108,125.433,155.108,128.456,155.108,131.741z M69.729,108.873c-0.034,3.14,2.612,5.823,5.764,5.844
		c3.105,0.021,5.697-2.521,5.779-5.668c0.082-3.158-2.513-5.86-5.674-5.907C72.442,103.095,69.763,105.712,69.729,108.873z
		 M167.659,77.517c-3.199-0.027-5.786,2.531-5.802,5.736c-0.016,3.165,2.47,5.709,5.623,5.76c3.226,0.051,5.839-2.463,5.878-5.654
		C173.398,80.149,170.855,77.543,167.659,77.517z"/>
	<path fill-rule="evenodd" clip-rule="evenodd" fill="#FFFFFF" stroke="#FFFFFF" stroke-width="3" stroke-miterlimit="10" d="
		M155.108,131.741c0-3.285,0-6.309,0-9.334c0-3.02,0-6.041,0-9.303c3.79,3.057,7.558,6.094,11.544,9.31
		C162.675,125.627,158.929,128.653,155.108,131.741z"/>
	<path fill-rule="evenodd" clip-rule="evenodd" stroke="#FFFFFF" stroke-width="3" stroke-miterlimit="10" d="M112.423,122.339
		c0.035-8.65,7.19-15.73,15.833-15.665c8.563,0.064,15.623,7.178,15.641,15.76c0.02,8.605-7.168,15.759-15.796,15.727
		C119.445,138.126,112.387,131.005,112.423,122.339z M116.942,122.417c0,6.184,5.052,11.219,11.237,11.196
		c6.18-0.022,11.225-5.106,11.184-11.269c-0.041-6.126-5.043-11.101-11.184-11.125C121.996,111.196,116.943,116.23,116.942,122.417z
		"/>
</g>
</svg>
