<?xml version="1.0" encoding="utf-8"?>
<!-- Generator: Adobe Illustrator 16.0.0, SVG Export Plug-In . SVG Version: 6.00 Build 0)  -->
<!DOCTYPE svg PUBLIC "-//W3C//DTD SVG 1.1//EN" "http://www.w3.org/Graphics/SVG/1.1/DTD/svg11.dtd">
<svg version="1.1" id="Layer_1" xmlns="http://www.w3.org/2000/svg" xmlns:xlink="http://www.w3.org/1999/xlink" x="0px" y="0px"
	 width="250px" height="250px" viewBox="0 0 250 250" enable-background="new 0 0 250 250" xml:space="preserve">
<path fill-rule="evenodd" clip-rule="evenodd" stroke="#FFFFFF" stroke-width="5" stroke-miterlimit="10" d="M235.992,146.675
	c-0.404,1.744-0.775,3.497-1.217,5.23c-7.264,28.563-40.092,40.535-63.912,23.191c-9.297-6.771-14.588-16.118-16.246-27.506
	c-0.063-0.426-0.121-0.853-0.225-1.581c-2.455,0-4.898-0.076-7.33,0.067c-0.461,0.026-1.033,0.852-1.277,1.427
	c-2.475,5.808-6.793,9.24-13.107,9.544c-6.395,0.307-11.166-2.657-14.082-8.367c-1.604-3.142-1.874-6.49-1.067-9.958
	c0.157-0.673-0.045-1.767-0.513-2.199c-12.897-11.912-25.85-23.764-38.798-35.622c-0.204-0.187-0.456-0.321-0.914-0.637
	c-0.833,2.104-1.733,4.054-2.317,6.093c-0.134,0.469,0.681,1.448,1.287,1.854c6.226,4.172,10.977,9.589,14.322,16.306
	c8.372,16.813,3.617,38.014-11.204,49.658c-25.034,19.668-61.296,5.219-65.963-26.278c-0.083-0.561-0.283-1.104-0.428-1.657
	c0-2.759,0-5.517,0-8.275c0.444-1.958,0.846-3.926,1.338-5.871c4.723-18.712,22.565-31.832,41.81-30.552
	c3.87,0.258,7.69,1.264,11.84,1.977c0.157-0.362,0.487-1.061,0.767-1.78c5.098-13.099,10.21-26.192,15.253-39.311
	c0.544-1.414,1.189-2.009,2.798-1.98c6.095,0.109,12.193,0.012,18.29,0.059c3.027,0.024,4.896,1.931,4.425,4.348
	c-0.38,1.945-1.773,3.034-4.138,3.058c-4.281,0.043-8.571,0.156-12.844-0.044c-2.141-0.101-3.075,0.687-3.703,2.604
	c-0.919,2.805-2.092,5.528-3.257,8.545c0.979,0.048,1.733,0.117,2.488,0.117c23.444,0.005,46.888-0.015,70.332,0.046
	c1.682,0.004,2.666-0.427,3.369-1.976c0.801-1.762,1.859-3.406,3.023-5.492c-4.361,0-8.375,0.016-12.389-0.011
	c-0.936-0.006-1.893-0.048-2.799-0.257c-1.898-0.441-2.754-1.831-2.748-3.675c0.006-1.791,1.461-3.259,3.334-3.408
	c1.516-0.12,3.047-0.067,4.57-0.069c7.33-0.005,14.662,0.05,21.99-0.061c1.082-0.016,2.182-0.749,3.213-1.271
	c0.492-0.25,0.818-0.812,1.256-1.191c1.785-1.544,3.799-1.595,5.281-0.155c1.48,1.44,1.516,3.501,0.031,5.293
	c-2.584,3.118-5.439,5.652-9.975,4.836c-1.123-0.202-2.311-0.03-3.26-0.03c-2.068,3.694-4.076,7.204-5.986,10.765
	c-0.33,0.614-0.596,1.635-0.314,2.151c3.723,6.787,7.547,13.518,11.16,19.931c4.436-1.002,8.535-2.327,12.732-2.809
	c21.527-2.475,41.393,12.93,44.625,34.374c0.094,0.624,0.316,1.228,0.479,1.841C235.992,140.868,235.992,143.771,235.992,146.675z
	 M65.185,111.119c-12.671-5.536-32.364-1.095-41.009,15.939c-8.479,16.706-1.876,36.813,14.567,45.007
	c16.72,8.33,36.708,1.728,44.987-14.731c8.3-16.502,1.071-35.522-11.959-42.951c-1.033,2.64-2.191,5.216-3.059,7.885
	c-2.557,7.871-6.527,14.971-11.41,21.604c-1.487,2.021-3.713,2.647-5.43,1.468c-1.81-1.243-2.129-3.38-0.757-5.571
	c1-1.598,2.002-3.204,3.147-4.696C59.762,127.904,61.514,119.09,65.185,111.119z M182.219,111.692
	c0.371,0.702,0.725,1.411,1.115,2.102c4.762,8.465,9.533,16.925,14.293,25.392c2.398,4.269,0.896,6.799-4.051,6.805
	c-9.723,0.012-19.447,0.004-29.17,0.004c-0.768,0-1.537,0-2.318,0c0.678,11.396,9.703,24.869,24.621,28.625
	c15.002,3.776,30.145-2.739,37.674-16.191c7.246-12.949,4.852-29.375-5.771-39.896C207.879,107.901,192.152,106.695,182.219,111.692
	z M156.451,86.556c-1.268,0-2.131,0-2.994,0c-22.136,0-44.271,0-66.406,0c-4.474,0-4.4,0.03-6.093,4.104
	c-0.638,1.536-0.351,2.417,0.863,3.511c7.33,6.608,14.577,13.309,21.853,19.977c6.146,5.631,12.294,11.26,18.506,16.949
	c2.86-2.167,5.906-3.704,9.453-3.559c1.526,0.063,2.148-0.602,2.797-1.763c5.973-10.696,11.99-21.369,17.992-32.048
	C153.693,91.465,154.965,89.201,156.451,86.556z M140.557,129.982c1.143,1.232,2.305,2.245,3.156,3.475
	c0.896,1.292,1.459,2.812,2.244,4.188c0.217,0.377,0.703,0.836,1.078,0.848c2.439,0.076,4.883,0.04,7.375,0.04
	c1.52-12.684,7.396-22.541,17.508-29.901c-3.232-5.731-6.387-11.322-9.689-17.174C154.873,104.534,147.703,117.28,140.557,129.982z
	 M188.652,138.408c-4.41-7.841-8.682-15.436-13.051-23.205c-7.846,5.937-12.371,13.521-13.664,23.205
	C170.904,138.408,179.617,138.408,188.652,138.408z M139.319,142.19c-0.044-4.048-3.325-7.286-7.385-7.29
	c-4.13-0.003-7.479,3.378-7.424,7.493c0.054,4.013,3.397,7.313,7.411,7.315C136.033,149.712,139.365,146.326,139.319,142.19z"/>
</svg>
