<?xml version="1.0" encoding="utf-8"?>
<!-- Generator: Adobe Illustrator 16.0.0, SVG Export Plug-In . SVG Version: 6.00 Build 0)  -->
<!DOCTYPE svg PUBLIC "-//W3C//DTD SVG 1.1//EN" "http://www.w3.org/Graphics/SVG/1.1/DTD/svg11.dtd">
<svg version="1.1" id="Layer_1" xmlns="http://www.w3.org/2000/svg" xmlns:xlink="http://www.w3.org/1999/xlink" x="0px" y="0px"
	 width="250px" height="250px" viewBox="0 0 250 250" enable-background="new 0 0 250 250" xml:space="preserve">
<path fill-rule="evenodd" clip-rule="evenodd" stroke="#FFFFFF" stroke-width="2" stroke-miterlimit="10" d="M76.391,77.728
	c1.058-1.344,2.121-2.684,3.171-4.034c2.426-3.12,4.968-3.443,8.069-1.037c19.477,15.113,38.959,30.221,58.426,45.348
	c0.619,0.481,1.072,0.624,1.85,0.265c1.801-0.832,3.484-0.372,5.011,0.813c4.054,3.149,8.111,6.293,12.168,9.439
	c4.109,3.187,8.202,6.396,12.337,9.55c1.301,0.992,2.363,2.099,2.773,3.723c0,0.541,0,1.081,0,1.622
	c-0.993,1.55-1.934,3.138-3,4.637c-0.585,0.822-1.354,0.832-2.222,0.183c-1.404-1.053-2.801-2.12-4.159-3.231
	c-0.6-0.491-0.955-0.387-1.398,0.189c-2.764,3.583-5.542,7.156-8.342,10.711c-0.483,0.611-0.368,0.974,0.209,1.403
	c1.325,0.989,2.628,2.012,3.926,3.038c1.145,0.905,1.216,1.566,0.325,2.741c-0.469,0.62-0.945,1.233-1.428,1.842
	c-1.991,2.518-4.716,2.881-7.28,0.915c-5.199-3.985-10.379-7.998-15.566-12c-3.154-2.435-6.305-4.875-9.467-7.3
	c-1.844-1.412-2.61-3.189-2.047-5.507c0.072-0.301-0.112-0.783-0.344-1.02c-0.815-0.835-0.883-1.674-0.278-2.648
	c0.386-0.624,0.694-1.296,1.156-2.172c-1.17,0.096-2.152,0.164-3.132,0.257c-1.986,0.189-2.533-0.351-2.313-2.32
	c0.083-0.738,0.177-1.475,0.274-2.211c0.096-0.734,0.202-1.468,0.304-2.209c-1.441,0-2.85-0.042-4.255,0.01
	c-1.966,0.073-2.559-0.629-2.022-2.5c0.298-1.037,0.597-2.074,0.894-3.112c0.027-0.096,0.045-0.195,0.129-0.559
	c-1.214,0-2.374,0.01-3.533-0.001c-2.768-0.028-2.965-0.265-2.538-3.017c0.16-1.03,0.327-2.059,0.514-3.235
	c-1.364,0.09-2.629,0.148-3.89,0.261c-1.938,0.174-2.566-0.482-2.24-2.396c0.225-1.322,0.449-2.644,0.695-4.098
	c-1.398,0.078-2.669,0.134-3.937,0.221c-1.677,0.115-2.328-0.591-2.029-2.244c0.222-1.225,0.455-2.448,0.714-3.836
	c-1.367,0.115-2.629,0.226-3.891,0.326c-1.725,0.136-2.357-0.627-1.917-2.318c0.279-1.072,0.576-2.14,0.906-3.361
	c-1.314,0.077-2.507,0.141-3.699,0.218c-1.761,0.115-2.389-0.638-1.914-2.313c0.267-0.939,0.535-1.878,0.8-2.818
	c0.009-0.03-0.003-0.067-0.015-0.229c-0.758,0.105-1.51,0.209-2.262,0.316c-0.367,0.052-0.732,0.131-1.102,0.161
	c-1.46,0.118-2.114-0.698-1.712-2.146c0.278-1.005,0.586-2.002,0.939-3.197c-1.019,0.192-1.919,0.353-2.815,0.533
	c-1.751,0.353-2.516-0.398-2.158-2.142c0.223-1.088,0.458-2.174,0.722-3.429c-1.147,0.172-2.193,0.319-3.235,0.488
	c-1.679,0.272-2.437-0.56-2.001-2.214c0.231-0.88,0.473-1.758,0.705-2.638c0.016-0.061-0.005-0.131-0.018-0.342
	c-0.859,0.167-1.72,0.266-2.539,0.509c-1.033,0.307-1.767,0.011-2.319-0.868C76.391,78.404,76.391,78.066,76.391,77.728z
	 M111.598,113.425c0.189,0.075,0.25,0.123,0.309,0.119c1.145-0.074,2.292-0.13,3.435-0.238c2.094-0.196,2.685,0.433,2.317,2.476
	c-0.229,1.273-0.42,2.553-0.647,3.954c1.543,0,2.927,0.048,4.306-0.013c1.599-0.071,2.747,0.677,2.003,2.66
	c-0.399,1.063-0.644,2.184-0.994,3.403c1.409-0.063,2.684-0.131,3.96-0.176c1.924-0.068,2.418,0.485,2.182,2.418
	c-0.024,0.201-0.073,0.398-0.1,0.6c-0.158,1.249-0.313,2.5-0.476,3.8c1.578-0.128,2.988-0.271,4.402-0.35
	c1.768-0.098,2.427,0.926,1.646,2.49c-0.128,0.256-0.238,0.52-0.357,0.778c0.045,0.026,0.089,0.051,0.134,0.075
	c3.753-4.839,7.507-9.679,11.273-14.537c-0.246-0.205-0.397-0.337-0.557-0.46c-19.56-15.172-39.119-30.345-58.68-45.515
	c-1.769-1.372-2.874-1.11-4.072,1.028c0.358-0.08,0.645-0.143,0.931-0.207c1.811-0.401,2.611,0.424,2.132,2.195
	c-0.269,0.994-0.537,1.988-0.804,2.98c0.151,0.045,0.217,0.088,0.275,0.08c0.935-0.133,1.867-0.287,2.803-0.406
	c1.811-0.229,2.457,0.505,2.042,2.292c-0.249,1.068-0.492,2.137-0.766,3.326c0.618-0.122,1.073-0.214,1.528-0.302
	c0.497-0.096,0.994-0.193,1.492-0.281c1.755-0.308,2.481,0.515,1.994,2.26c-0.273,0.98-0.554,1.959-0.858,3.033
	c1.125-0.166,2.091-0.302,3.054-0.45c1.953-0.301,2.627,0.49,2.064,2.421c-0.294,1.011-0.583,2.023-0.908,3.155
	c1.344-0.085,2.52-0.172,3.697-0.23c1.796-0.089,2.4,0.676,1.928,2.425c-0.283,1.05-0.577,2.098-0.899,3.268
	c1.355-0.131,2.529-0.232,3.699-0.361c1.585-0.175,2.308,0.58,2.019,2.124c-0.246,1.314-0.481,2.629-0.737,4.031
	c1.526-0.075,2.936-0.173,4.346-0.204c1.13-0.025,1.68,0.588,1.608,1.712c-0.023,0.369-0.104,0.735-0.162,1.101
	C111.973,111.084,111.783,112.269,111.598,113.425z M175.763,145.085c0.194-0.237,0.346-0.411,0.483-0.593
	c1.438-1.902,1.356-2.559-0.506-4.002c-8.111-6.289-16.223-12.577-24.334-18.864c-1.561-1.209-2.423-1.096-3.648,0.484
	c-4.78,6.162-9.561,12.324-14.341,18.486c-1.311,1.689-1.218,2.5,0.45,3.793c3.573,2.775,7.148,5.547,10.724,8.319
	c4.642,3.601,9.281,7.203,13.927,10.799c1.089,0.843,1.957,0.949,2.737,0.245c0.531-0.479,0.947-1.09,1.386-1.607
	c-0.113-0.16-0.128-0.194-0.153-0.214c-1.063-0.833-2.135-1.653-3.188-2.497c-1.716-1.374-1.974-3.347-0.632-5.09
	c2.843-3.691,5.695-7.375,8.568-11.043c1.521-1.941,3.428-2.15,5.38-0.649C173.655,143.45,174.689,144.255,175.763,145.085z"/>
<path fill-rule="evenodd" clip-rule="evenodd" stroke="#FFFFFF" stroke-width="2" stroke-miterlimit="10" d="M159.612,133.72
	c-0.35,0.76-0.508,1.365-0.858,1.823c-3.197,4.181-6.414,8.347-9.655,12.493c-1.104,1.413-2.575,1.578-3.994,0.491
	c-2.169-1.662-4.325-3.342-6.465-5.041c-1.323-1.053-1.579-2.487-0.555-3.836c3.227-4.244,6.493-8.456,9.793-12.642
	c1.068-1.356,2.556-1.48,3.934-0.43c2.199,1.678,4.406,3.351,6.524,5.128C158.92,132.197,159.201,133.049,159.612,133.72z
	 M146.834,146.158c3.208-4.13,6.367-8.196,9.556-12.303c-2.154-1.667-4.206-3.256-6.31-4.884c-3.196,4.118-6.354,8.187-9.55,12.305
	C142.675,142.938,144.723,144.524,146.834,146.158z"/>
</svg>
