<?xml version="1.0" encoding="utf-8"?>
<!-- Generator: Adobe Illustrator 16.0.0, SVG Export Plug-In . SVG Version: 6.00 Build 0)  -->
<!DOCTYPE svg PUBLIC "-//W3C//DTD SVG 1.1//EN" "http://www.w3.org/Graphics/SVG/1.1/DTD/svg11.dtd">
<svg version="1.1" id="Layer_1" xmlns="http://www.w3.org/2000/svg" xmlns:xlink="http://www.w3.org/1999/xlink" x="0px" y="0px"
	 width="250px" height="250px" viewBox="0 0 250 250" enable-background="new 0 0 250 250" xml:space="preserve">
<g>
	<path fill="#FFFFFF" stroke="#508991" stroke-width="3" stroke-miterlimit="10" d="M61.921,78.346
		c0.528-1.205,1.492-1.581,2.747-1.55c1.811,0.044,3.623,0.011,5.464,0.011c0.063-1.439,0.021-2.741,0.196-4.011
		c0.64-4.651,4.901-7.329,9.372-5.955c0.264,0.081,0.539,0.122,0.813,0.183c0.096-1.502,0.024-2.983,0.313-4.391
		c0.825-4.028,4.627-6.903,8.446-6.544c4.553,0.428,7.736,3.604,7.862,8.039c0.106,3.723,0.029,7.45,0.034,11.176
		c0,0.442,0,0.884,0,1.415c2.764,0,5.453,0,8.274,0c-0.123-2.828,0.229-5.476,2.835-7.18c2.285-1.494,4.842-1.329,7.543,0.519
		c2.723-2.044,5.522-2.096,8.319,0c2.759-2.058,5.521-2.064,8.289,0.003c2.42-1.799,4.973-2.155,7.564-0.515
		c2.617,1.655,2.996,4.331,2.816,7.197c2.811,0,5.465,0,8.237,0c0.021-0.463,0.058-0.89,0.058-1.317
		c0.004-3.644-0.035-7.289,0.015-10.932c0.058-4.539,3.036-7.804,7.524-8.347c4.418-0.535,8.637,2.947,8.967,7.442
		c0.082,1.122,0.011,2.254,0.011,3.547c3.139-1.202,5.894-0.833,8.252,1.386c2.374,2.234,2.282,5.209,2.19,8.287
		c1.922,0,3.733,0.033,5.545-0.011c1.254-0.031,2.218,0.346,2.746,1.55c0,4.537,0,9.073,0,13.61
		c-0.676,1.123-1.676,1.503-2.961,1.456c-1.729-0.063-3.463-0.015-5.388-0.015c0,1.317,0.119,2.533-0.021,3.719
		c-0.574,4.914-4.86,7.625-9.619,6.153c-0.186-0.057-0.381-0.077-0.717-0.143c0,1.041,0.035,2.004-0.008,2.964
		c-0.195,4.55-3.777,8.006-8.268,7.998c-4.479-0.009-8.102-3.467-8.232-8.035c-0.108-3.723-0.029-7.452-0.035-11.176
		c0-0.438,0-0.878,0-1.398c-2.086,0-4.086,0-6.25,0c0,1.701-0.114,3.399,0.021,5.076c0.336,4.067-0.759,7.644-3.563,10.591
		c-2.182,2.293-2.772,4.888-2.711,8.02c0.185,9.514,0.064,19.032,0.064,28.549c0,0.479,0,0.957,0,1.52c-1.386,0-2.656,0-4.07,0
		c-0.022-0.416-0.07-0.842-0.07-1.268c-0.004-11.015,0.007-22.029-0.02-33.044c-0.002-1.113,0.279-2.028,0.979-2.898
		c1.191-1.48,2.261-3.063,3.449-4.546c1.276-1.59,1.862-3.347,1.789-5.392c-0.076-2.177-0.018-4.358-0.018-6.69
		c-0.527,0-0.959,0-1.391,0c-5.224,0-10.446-0.024-15.67,0.03c-0.653,0.007-1.394,0.3-1.933,0.686
		c-1.35,0.966-2.82,1.356-4.446,1.332c-1.151-0.017-2.301-0.004-3.457,0.249c2.128,1.097,4.357,2.037,6.354,3.334
		c2.077,1.35,3.33,3.5,4.339,5.738c1.021,2.263,1.687,4.614,1.615,7.287c-1.229,0-2.396,0.053-3.551-0.045
		c-0.225-0.019-0.54-0.607-0.579-0.958c-0.309-2.812-1.34-5.31-3.083-7.528c-1.033-1.313-2.351-2.197-3.934-2.712
		c-1.229-0.401-2.448-0.836-3.679-1.231c-1.106-0.355-1.661-1.115-1.685-2.252c-0.025-1.215-0.046-2.432,0.002-3.645
		c0.063-1.586,0.832-2.339,2.459-2.377c1.862-0.045,3.726,0.006,5.588-0.021c1.375-0.021,2.268-0.819,2.309-1.986
		c0.036-1.051-0.841-2.076-2.106-2.097c-4.081-0.069-8.163-0.025-12.416-0.025c0,0.507,0,0.936,0,1.364
		c0,3.645,0.033,7.29-0.012,10.934c-0.029,2.326,0.736,4.245,2.441,5.848c1.681,1.58,3.334,3.2,4.88,4.91
		c0.519,0.573,0.944,1.476,0.948,2.231c0.06,11.338,0.042,22.68,0.037,34.018c0,0.233-0.052,0.469-0.089,0.77
		c-1.317,0-2.592,0-4.051,0c0-0.5,0-0.969,0-1.438c0-10.568-0.011-21.14,0.019-31.708c0.002-0.887-0.238-1.514-0.884-2.116
		c-1.362-1.271-2.636-2.633-3.972-3.932c-2.367-2.3-3.48-5.104-3.459-8.386c0.013-2.024,0.003-4.047,0.003-6.171
		c-1.352,0-2.661,0-4.143,0c0,0.402,0,0.83,0,1.258c-0.002,3.726,0.08,7.454-0.028,11.177c-0.187,6.483-6.957,10.238-12.505,6.962
		c-2.426-1.431-3.76-3.626-3.976-6.441c-0.083-1.077-0.014-2.165-0.014-3.268c-7.729,1.162-10.001-0.95-10.499-9.789
		c-1.742,0-3.506-0.047-5.265,0.016c-1.285,0.045-2.287-0.334-2.962-1.457C61.921,87.419,61.921,82.883,61.921,78.346z
		 M84.748,85.024c0,1.66,0,3.32,0,4.979c0,5.222-0.018,10.445,0.01,15.667c0.014,2.6,1.915,4.406,4.395,4.271
		c2.301-0.126,3.872-1.955,3.874-4.569c0.008-11.579,0.004-23.157,0.003-34.736c0-2.105,0.03-4.211-0.015-6.315
		c-0.043-1.975-1.322-3.543-3.14-3.975c-2.696-0.641-5.105,1.273-5.117,4.151C84.73,71.34,84.75,78.182,84.748,85.024z
		 M163.527,85.161c0-1.376,0-2.753,0-4.129c-0.002-5.507,0.012-11.012-0.01-16.518c-0.008-2.133-1.275-3.752-3.184-4.177
		c-2.795-0.623-5.084,1.361-5.088,4.457c-0.01,11.134-0.003,22.266-0.003,33.4c0,2.51-0.017,5.02,0.009,7.53
		c0.018,1.838,0.88,3.19,2.563,3.914c2.754,1.183,5.684-0.834,5.697-3.95C163.547,98.844,163.523,92.003,163.527,85.161z
		 M74.344,85.134c0,3.68-0.023,7.361,0.007,11.041c0.02,2.269,1.728,3.74,3.777,3.333c1.51-0.298,2.474-1.656,2.476-3.554
		c0.009-6.351,0.004-12.699,0.003-19.05c0-1.092,0.041-2.186-0.025-3.275c-0.082-1.375-0.818-2.339-2.094-2.858
		c-1.137-0.463-2.161-0.148-3.04,0.609c-0.85,0.733-1.12,1.723-1.113,2.833C74.355,77.854,74.343,81.493,74.344,85.134z
		 M173.932,85.132c0-3.721,0.006-7.442,0-11.163c-0.004-1.479-0.672-2.561-2.027-3.163c-1.165-0.52-2.364-0.304-3.104,0.62
		c-0.604,0.755-1.056,1.853-1.079,2.812c-0.115,4.122-0.052,8.249-0.05,12.375c0,3.195-0.022,6.39,0.011,9.585
		c0.021,2.118,1.506,3.527,3.438,3.354c1.629-0.145,2.796-1.506,2.811-3.379C173.949,92.493,173.932,88.813,173.932,85.132z
		 M124.275,89.156c8.927,0,17.85,0,26.764,0c0-2.761,0-5.42,0-8.2c-1.393,0-2.721,0-4.047,0c-1.367,0-2.736,0-4.148,0
		c-0.264,2.64-1.392,4.609-3.771,5.648c-2.411,1.054-4.653,0.513-6.656-0.98c-2.593,1.854-5.14,2.055-7.776,0.341
		c-0.226-0.147-0.67-0.143-0.912-0.016c-0.148,0.078-0.192,0.542-0.132,0.797C123.776,87.529,124.027,88.297,124.275,89.156z
		 M97.215,89.155c1.434,0,2.737,0,4.097,0c0-1.31-0.028-2.52,0.006-3.728c0.045-1.588,0.817-2.357,2.404-2.428
		c0.637-0.029,1.276-0.005,2.028-0.005c-0.129-0.746-0.235-1.356-0.337-1.951c-2.792,0-5.472,0-8.197,0
		C97.215,83.781,97.215,86.431,97.215,89.155z M113.735,77.882c0.003,0,0.005,0,0.008,0c0-1.012,0.034-2.026-0.008-3.036
		c-0.056-1.33-0.819-2.123-1.989-2.149c-1.117-0.026-2.025,0.689-2.079,1.925c-0.096,2.141-0.096,4.291,0.003,6.431
		c0.057,1.235,0.979,1.955,2.092,1.919c1.122-0.037,1.897-0.806,1.962-2.053C113.777,79.91,113.735,78.894,113.735,77.882z
		 M134.537,77.811c0.002,0,0.006,0,0.007,0c0,1.052-0.045,2.108,0.011,3.156c0.065,1.185,0.818,1.933,1.887,2.002
		c1.115,0.072,2.086-0.627,2.146-1.847c0.109-2.179,0.11-4.37,0.012-6.55c-0.056-1.227-0.992-1.923-2.119-1.874
		c-1.123,0.049-1.873,0.815-1.933,2.075C134.499,75.784,134.537,76.799,134.537,77.811z M122.024,77.841c0.001,0,0.003,0,0.004,0
		c0-1.053,0.057-2.109-0.014-3.156c-0.084-1.244-0.89-1.985-2.015-1.99c-1.082-0.003-1.957,0.669-2.01,1.849
		c-0.098,2.179-0.1,4.369-0.004,6.547c0.054,1.217,1.002,1.935,2.112,1.88c1.068-0.053,1.829-0.777,1.911-1.975
		C122.081,79.949,122.024,78.893,122.024,77.841z M126.244,77.868c-0.008,0-0.016,0-0.021,0c0,0.932,0,1.863,0,2.793
		c0,0.081,0.008,0.162,0.018,0.242c0.13,1.267,0.853,2.027,1.965,2.067c1.145,0.042,2.072-0.736,2.12-2.025
		c0.079-2.1,0.077-4.209-0.019-6.31c-0.059-1.25-0.933-1.958-2.06-1.94c-1.12,0.018-1.909,0.765-1.99,2.017
		C126.189,75.761,126.244,76.816,126.244,77.868z M70.125,89.222c0-2.799,0-5.483,0-8.168c-1.382,0-2.687,0-3.963,0
		c0,2.78,0,5.46,0,8.168C67.508,89.222,68.754,89.222,70.125,89.222z M178.143,81.016c0,2.743,0,5.426,0,8.159
		c1.367,0,2.672,0,3.989,0c0-2.768,0-5.454,0-8.159C180.77,81.016,179.49,81.016,178.143,81.016z"/>
	
		<rect x="134.52" y="117.328" fill="#FFFFFF" stroke="#508991" stroke-width="3" stroke-miterlimit="10" width="5.771" height="28.523"/>
</g>
<ellipse fill="#508991" cx="139.291" cy="135.297" rx="15.316" ry="19.97"/>
<ellipse fill="#508991" cx="123.193" cy="151.447" rx="15.317" ry="19.97"/>
<path fill="#FFFFFF" stroke="#508991" stroke-miterlimit="10" d="M107.846,157.423c0-1.677,0-3.354,0-5.03
	c0.052-0.289,0.114-0.578,0.152-0.869c0.196-1.444,0.319-2.903,0.591-4.336c1.425-7.506,4.75-14.084,9.782-19.812
	c0.784-0.894,1.632-1.733,2.494-2.552c0.524-0.498,1.237-0.462,1.672,0.026c0.461,0.514,0.465,1.077,0.038,1.617
	c-0.216,0.273-0.493,0.498-0.725,0.764c-1.28,1.465-2.571,2.922-3.813,4.416c-0.199,0.239-0.322,0.713-0.23,1
	c1.318,4.168,2.672,8.328,4.049,12.479c0.09,0.272,0.405,0.577,0.682,0.67c3.937,1.34,7.878,2.656,11.829,3.946
	c0.277,0.09,0.711,0.035,0.943-0.133c4.258-3.063,8.502-6.145,12.729-9.248c0.251-0.187,0.459-0.606,0.46-0.918
	c0.032-4.086,0.035-8.168-0.003-12.252c-0.004-0.354-0.256-0.828-0.545-1.041c-3.545-2.617-7.121-5.19-10.676-7.796
	c-0.395-0.287-0.728-0.38-1.17-0.161c-2.539,1.25-5.088,2.48-7.623,3.739c-0.821,0.408-1.467,0.335-1.853-0.291
	c-0.374-0.611-0.155-1.313,0.587-1.779c4.656-2.912,9.678-4.888,15.104-5.794c1.486-0.248,2.984-0.42,4.476-0.626
	c1.569,0,3.14,0,4.707,0c0.263,0.045,0.524,0.113,0.789,0.13c4.673,0.32,9.168,1.384,13.476,3.231
	c7.047,3.026,12.801,7.689,17.301,13.871c3.578,4.912,5.968,10.373,7.064,16.364c0.326,1.774,0.542,3.567,0.807,5.354
	c0,1.461,0,2.922,0,4.381c-0.051,0.344-0.123,0.686-0.146,1.028c-0.216,3.054-0.687,6.064-1.569,8.996
	c-2.701,8.968-7.867,16.216-15.385,21.767c-4.958,3.66-10.498,6.063-16.568,7.177c-1.854,0.342-3.734,0.534-5.604,0.795
	c-1.567,0-3.138,0-4.706,0c-0.346-0.054-0.689-0.099-1.033-0.161c-2.781-0.516-5.623-0.828-8.334-1.593
	c-7.404-2.089-13.674-6.108-18.859-11.779c-5.439-5.948-8.887-12.903-10.246-20.864
	C108.218,160.575,108.057,158.995,107.846,157.423z M149.723,142.163c-4.244,3.084-8.424,6.112-12.582,9.168
	c-0.183,0.134-0.309,0.546-0.248,0.769c0.291,1.066,0.672,2.108,0.988,3.168c0.245,0.815-0.031,1.445-0.682,1.672
	c-0.706,0.244-1.319-0.094-1.61-0.936c-0.346-0.995-0.677-1.995-0.969-3.007c-0.142-0.488-0.392-0.754-0.886-0.915
	c-3.951-1.29-7.896-2.6-11.833-3.932c-0.5-0.168-0.842-0.099-1.254,0.207c-2.83,2.082-5.625,4.22-8.546,6.166
	c-1.394,0.93-2.163,1.892-1.682,3.588c0.079,0.279,0.019,0.594,0.052,0.888c0.79,7.019,3.186,13.418,7.405,19.103
	c0.199,0.271,0.643,0.502,0.974,0.504c4.191,0.035,8.379,0.014,12.572,0.035c0.535,0.004,0.827-0.195,1.11-0.617
	c2.162-3.199,4.355-6.383,6.503-9.596c0.198-0.301,0.267-0.81,0.171-1.162c-0.301-1.146-0.712-2.265-1.066-3.396
	c-0.287-0.927-0.039-1.56,0.685-1.81c0.702-0.244,1.313,0.143,1.618,1.057c0.353,1.049,0.701,2.1,1.01,3.16
	c0.145,0.494,0.388,0.664,0.914,0.662c4.893-0.02,9.787-0.021,14.681,0.002c0.56,0.002,0.792-0.176,0.962-0.705
	c1.361-4.269,2.771-8.521,4.137-12.786c0.699-2.188,0.854-1.628-0.971-2.964C157.383,147.709,153.572,144.959,149.723,142.163z
	 M150.943,133.309c0,2,0.021,4-0.014,6c-0.011,0.553,0.182,0.883,0.619,1.197c4.122,2.971,8.223,5.973,12.352,8.934
	c0.27,0.193,0.762,0.285,1.072,0.187c3.75-1.212,7.486-2.456,11.217-3.729c0.295-0.102,0.623-0.435,0.722-0.729
	c1.379-4.148,2.729-8.307,4.051-12.475c0.093-0.291,0-0.754-0.188-1.004c-4.58-6.127-10.431-10.583-17.582-13.329
	c-0.48-0.185-0.816-0.161-1.244,0.153c-3.463,2.545-6.938,5.07-10.424,7.582c-0.418,0.299-0.601,0.607-0.592,1.129
	C150.962,129.251,150.943,131.279,150.943,133.309z M173.896,178.628c2,0,4-0.014,6,0.011c0.485,0.008,0.774-0.158,1.062-0.553
	c4.676-6.431,7.138-13.624,7.526-21.55c0.021-0.453-0.096-0.731-0.474-1.004c-3.312-2.384-6.601-4.796-9.919-7.169
	c-0.252-0.182-0.71-0.26-1.003-0.168c-3.799,1.229-7.589,2.488-11.366,3.781c-0.316,0.104-0.664,0.463-0.771,0.779
	c-1.607,4.84-3.187,9.688-4.732,14.549c-0.103,0.317-0.024,0.813,0.163,1.094c2.161,3.233,4.37,6.438,6.541,9.664
	c0.296,0.438,0.618,0.584,1.133,0.576C170.004,178.611,171.951,178.628,173.896,178.628z M149.732,169.352
	c-2.541,0-5.082,0.018-7.621-0.013c-0.557-0.007-0.877,0.185-1.182,0.636c-2.113,3.142-4.264,6.252-6.361,9.397
	c-0.199,0.3-0.284,0.819-0.178,1.16c1.188,3.782,2.436,7.55,3.648,11.325c0.145,0.451,0.357,0.684,0.854,0.816
	c7.275,1.979,14.522,1.871,21.758-0.209c0.463-0.134,0.707-0.354,0.855-0.824c1.184-3.701,2.389-7.396,3.604-11.084
	c0.152-0.461,0.074-0.791-0.195-1.186c-2.16-3.137-4.309-6.283-6.434-9.445c-0.293-0.435-0.606-0.594-1.127-0.589
	C154.816,169.365,152.273,169.352,149.732,169.352z M159.6,117.221c-6.656-1.699-13.158-1.815-19.73-0.014
	c0.053,0.143,0.166,0.166,0.25,0.228c3.063,2.22,6.123,4.435,9.167,6.676c0.412,0.305,0.659,0.148,0.983-0.091
	c2.508-1.832,5.022-3.651,7.533-5.478C158.365,118.135,158.923,117.718,159.6,117.221z M110.345,152.734
	c0.186-0.069,0.266-0.082,0.324-0.125c2.844-2.061,5.681-4.133,8.538-6.176c0.429-0.311,0.312-0.6,0.19-0.975
	c-1.084-3.311-2.155-6.621-3.233-9.934c-0.068-0.207-0.16-0.405-0.277-0.701C112.52,140.391,110.772,146.313,110.345,152.734z
	 M188.441,152.85c-0.396-6.563-2.221-12.476-5.526-18.012c-0.093,0.163-0.146,0.227-0.17,0.303
	c-1.138,3.488-2.261,6.984-3.417,10.469c-0.163,0.49,0.059,0.679,0.385,0.914c2.432,1.759,4.857,3.521,7.286,5.283
	C187.43,152.118,187.859,152.427,188.441,152.85z M120.225,181.055c4.338,4.697,9.212,8.166,15,10.36
	c0.025-0.13,0.058-0.187,0.043-0.229c-1.043-3.23-2.08-6.468-3.16-9.688c-0.067-0.205-0.463-0.417-0.711-0.423
	c-1.564-0.038-3.135-0.021-4.701-0.021C124.618,181.055,122.541,181.055,120.225,181.055z M164.213,191.188
	c5.587-2.31,10.238-5.633,14.238-10.063c-0.232-0.035-0.335-0.063-0.438-0.063c-3.324-0.004-6.65,0.01-9.976-0.021
	c-0.56-0.004-0.66,0.31-0.79,0.707c-0.875,2.724-1.758,5.442-2.639,8.163C164.491,190.286,164.376,190.664,164.213,191.188z"/>
</svg>
