<?xml version="1.0" encoding="utf-8"?>
<!-- Generator: Adobe Illustrator 16.0.0, SVG Export Plug-In . SVG Version: 6.00 Build 0)  -->
<!DOCTYPE svg PUBLIC "-//W3C//DTD SVG 1.1//EN" "http://www.w3.org/Graphics/SVG/1.1/DTD/svg11.dtd">
<svg version="1.1" id="Layer_1" xmlns="http://www.w3.org/2000/svg" xmlns:xlink="http://www.w3.org/1999/xlink" x="0px" y="0px"
	 width="250px" height="250px" viewBox="0 0 250 250" enable-background="new 0 0 250 250" xml:space="preserve">
<g>
	<g>
		<path fill-rule="evenodd" clip-rule="evenodd" stroke="#FFFFFF" stroke-miterlimit="10" d="M228.425,199.577
			c-0.207,0.434-0.443,0.857-0.621,1.304c-1.313,3.327-3.117,6.357-5.59,8.929c-7.682,7.993-16.958,10.691-27.6,8.266
			c-20.467-4.661-40.909-9.433-61.36-14.16c-0.592-0.136-1.184-0.273-1.837-0.425c-0.173,0.753-0.302,1.277-0.415,1.801
			c-1.498,6.879-2.963,13.764-4.5,20.636c-2.649,11.837-12.036,20.803-23.343,22.354c-17.186,2.358-31.662-10.174-32.023-27.729
			c-0.025-1.213,0.017-2.427,0.027-3.642c2.75-11.9,5.5-23.8,8.25-35.698c0.183-0.338,0.404-0.657,0.542-1.01
			c1.654-4.244,4.12-7.934,7.54-10.911c7.47-6.5,16.03-8.586,25.583-6.381c29.778,6.875,59.548,13.781,89.339,20.604
			c2.389,0.547,4.902,0.782,7.356,0.747c4.14-0.06,7.965-1.404,11.521-3.765c-2.184-2.269-4.814-3.323-7.641-3.977
			c-15.858-3.67-31.717-7.334-47.575-10.996c-0.589-0.139-1.177-0.273-1.757-0.407c2.514-10.873,4.969-21.501,7.461-32.28
			c0.58,0.134,1.087,0.252,1.596,0.369c9.656,2.231,19.313,4.463,28.971,6.694c6.486,1.5,12.981,2.959,19.453,4.509
			c8.135,1.945,13.747,8.367,14.532,16.549c0.12,1.254,0.1,2.523,0.143,3.784C233.792,176.354,231.108,187.966,228.425,199.577z
			 M213.081,202.709c1.119-4.84,2.234-9.662,3.41-14.751c-1.623,0.305-3.033,0.521-4.404,0.874
			c-0.262,0.069-0.463,0.677-0.561,1.066c-0.577,2.39-1.119,4.788-1.695,7.281c-1.484-0.344-2.878-0.665-4.458-1.03
			c0.551-2.374,1.087-4.692,1.644-7.109c-1.672-0.245-3.146-0.461-4.818-0.708c-0.866,3.743-1.725,7.455-2.598,11.236
			c-1.555-0.358-2.914-0.674-4.416-1.02c0.85-3.678,1.698-7.348,2.576-11.146c-1.662-0.384-3.182-0.734-4.851-1.121
			c-0.508,2.2-1.013,4.384-1.534,6.637c-1.541-0.356-2.932-0.677-4.444-1.028c0.515-2.232,1.012-4.375,1.534-6.642
			c-1.502-0.348-2.886-0.666-4.465-1.032c-1.412,6.107-2.822,12.216-4.252,18.399c-1.553-0.358-2.914-0.675-4.443-1.026
			c1.413-6.117,2.826-12.23,4.26-18.432c-1.464-0.338-2.762-0.639-4.22-0.975c-0.515,2.229-1.019,4.41-1.544,6.681
			c-1.51-0.351-2.861-0.661-4.401-1.018c0.513-2.216,1.016-4.394,1.541-6.67c-1.858-0.43-3.53-0.816-5.363-1.238
			c-0.853,3.685-1.7,7.351-2.573,11.131c-1.545-0.357-2.937-0.681-4.461-1.032c0.842-3.652,1.69-7.324,2.566-11.113
			c-1.426-0.33-2.721-0.63-4.188-0.969c-0.496,2.145-0.999,4.32-1.529,6.619c-1.551-0.359-2.934-0.68-4.496-1.04
			c0.514-2.219,1.019-4.403,1.54-6.661c-1.724-0.397-3.271-0.755-5.01-1.156c-1.41,6.096-2.82,12.201-4.256,18.414
			c-1.582-0.366-2.975-0.688-4.528-1.045c1.417-6.126,2.827-12.239,4.255-18.407c-1.459-0.336-2.757-0.637-4.18-0.964
			c-0.516,2.226-1.012,4.368-1.535,6.642c-1.504-0.348-2.884-0.666-4.441-1.026c0.509-2.203,1.013-4.386,1.537-6.646
			c-1.531-0.353-2.889-0.667-4.437-1.024c-0.851,3.681-1.708,7.387-2.583,11.177c-1.58-0.365-2.975-0.689-4.511-1.044
			c0.859-3.711,1.707-7.382,2.579-11.156c-1.815-0.419-3.495-0.807-5.342-1.235c-0.504,2.179-1.006,4.356-1.536,6.647
			c-1.554-0.36-2.942-0.68-4.501-1.04c0.519-2.246,1.024-4.436,1.544-6.682c-1.435-0.333-2.7-0.624-4.135-0.956
			c-1.417,6.136-2.83,12.245-4.262,18.443c-1.563-0.361-2.956-0.683-4.488-1.038c1.385-5.995,2.755-11.923,4.19-18.133
			c-1.547,0.121-2.886,0.153-4.195,0.382c-0.344,0.062-0.741,0.69-0.854,1.126c-0.534,2.043-0.978,4.109-1.474,6.257
			c-1.502-0.347-2.894-0.668-4.448-1.028c0.347-1.5,0.683-2.954,1.066-4.606c-1.775,0.634-3.017,1.206-3.353,3.208
			c-0.568,3.384-1.491,6.707-2.29,10.157c-1.478-0.343-2.827-0.654-4.32-1c0.4-1.73,0.805-3.482,1.21-5.236
			c-0.11-0.063-0.22-0.126-0.331-0.191c-0.495,0.663-1.128,1.26-1.459,1.996c-1.084,2.407-2.315,4.794-3.02,7.319
			c-1.256,4.504-2.168,9.1-3.218,13.657c-0.052,0.225-0.067,0.459-0.139,0.979c1.136-0.893,2.04-1.672,3.009-2.351
			c7.143-5.018,14.947-6.36,23.347-4.417c29.833,6.901,59.666,13.804,89.504,20.679c8.925,2.06,16.652-0.266,23.057-6.93
			c2.621-2.728,4.457-5.988,5.359-9.693c1.24-5.104,2.38-10.232,3.592-15.476c-2.076,1.428-4.05,2.732-5.947,4.142
			c-0.359,0.267-0.487,0.933-0.607,1.44c-1.17,4.986-2.316,9.979-3.47,14.968c-0.12,0.518-0.239,1.033-0.39,1.69
			C215.857,203.352,214.54,203.048,213.081,202.709z M76.331,215.061c-2.952,12.779,4.909,25.486,17.537,28.343
			c12.55,2.838,25.107-5.191,28.003-17.91c2.897-12.719-4.945-25.374-17.5-28.244C91.79,194.373,79.272,202.325,76.331,215.061z
			 M214.136,147.522c-1.525-0.353-2.92-0.674-4.486-1.037c-0.516,2.229-1.03,4.455-1.563,6.756c-1.521-0.352-2.877-0.666-4.41-1.021
			c0.51-2.208,1.022-4.428,1.559-6.747c-1.662-0.384-3.148-0.729-4.775-1.104c-1.398,6.048-2.789,12.068-4.207,18.2
			c-1.527-0.354-2.916-0.673-4.483-1.035c1.394-6.031,2.793-12.09,4.212-18.222c-2.333-0.538-4.492-1.039-6.768-1.565
			c-1.764,7.624-3.529,15.271-5.351,23.151c0.509,0.119,1.055,0.245,1.599,0.371c8.333,1.925,16.66,3.876,24.998,5.769
			c5.266,1.194,10.611,2.162,14.439,6.5c7.291-7.215,9.77-18.248,2.451-24.882c-0.377,1.625-0.732,3.17-1.105,4.785
			c-1.519-0.351-2.876-0.665-4.486-1.037c0.389-1.688,0.688-3.415,1.204-5.079c0.42-1.35-0.036-1.898-1.28-2.125
			c-0.951-0.177-1.888-0.426-3.031-0.69c-0.896,3.873-1.785,7.719-2.693,11.65c-1.593-0.369-2.982-0.689-4.504-1.042
			C212.351,155.241,213.233,151.426,214.136,147.522z M172.366,162.155c0.245-0.862,0.469-1.651,0.718-2.531
			c1.438,0.332,2.831,0.653,4.348,1.004c-0.136,0.847-0.271,1.69-0.415,2.596c0.756,0.174,1.439,0.331,2.188,0.506
			c1.779-7.7,3.536-15.307,5.321-23.027c-0.683-0.158-1.363-0.315-2.176-0.503c-0.175,0.522-0.37,1.106-0.605,1.803
			c-1.422-0.329-2.85-0.658-4.359-1.008c0.104-0.608,0.201-1.178,0.318-1.864c-0.808-0.188-1.62-0.376-2.512-0.582
			c-1.773,7.667-3.539,15.307-5.324,23.029C170.732,161.777,171.513,161.959,172.366,162.155z M126.852,202.516
			c-2.402-0.555-4.699-1.086-5.908-1.366c1.312,2.226,3.017,5.12,4.471,7.586C125.768,207.202,126.302,204.896,126.852,202.516z"/>
		<path fill-rule="evenodd" clip-rule="evenodd" fill="#FFFFFF" stroke="#FFFFFF" stroke-miterlimit="10" d="M217.425,203.714
			c-1.567-0.362-2.885-0.666-4.344-1.005c1.119-4.84,2.234-9.662,3.41-14.751c-1.623,0.305-3.033,0.521-4.404,0.874
			c-0.262,0.069-0.463,0.677-0.561,1.066c-0.577,2.39-1.119,4.788-1.695,7.281c-1.484-0.344-2.878-0.665-4.458-1.03
			c0.551-2.374,1.087-4.692,1.644-7.109c-1.672-0.245-3.146-0.461-4.818-0.708c-0.866,3.743-1.725,7.455-2.598,11.236
			c-1.555-0.358-2.914-0.674-4.416-1.02c0.85-3.678,1.698-7.348,2.576-11.146c-1.662-0.384-3.182-0.734-4.851-1.121
			c-0.508,2.2-1.013,4.384-1.534,6.637c-1.541-0.356-2.932-0.677-4.444-1.028c0.515-2.232,1.012-4.375,1.534-6.642
			c-1.502-0.348-2.886-0.666-4.465-1.032c-1.412,6.107-2.822,12.216-4.252,18.399c-1.553-0.358-2.914-0.675-4.443-1.026
			c1.413-6.117,2.826-12.23,4.26-18.432c-1.464-0.338-2.762-0.639-4.22-0.975c-0.515,2.229-1.019,4.41-1.544,6.681
			c-1.51-0.351-2.861-0.661-4.401-1.018c0.513-2.216,1.016-4.394,1.541-6.67c-1.858-0.43-3.53-0.816-5.363-1.238
			c-0.853,3.685-1.7,7.351-2.573,11.131c-1.545-0.357-2.937-0.681-4.461-1.032c0.842-3.652,1.69-7.324,2.566-11.113
			c-1.426-0.33-2.721-0.63-4.188-0.969c-0.496,2.145-0.999,4.32-1.529,6.619c-1.551-0.359-2.934-0.68-4.496-1.04
			c0.514-2.219,1.019-4.403,1.54-6.661c-1.724-0.397-3.271-0.755-5.01-1.156c-1.41,6.096-2.82,12.201-4.256,18.414
			c-1.582-0.366-2.975-0.688-4.528-1.045c1.417-6.126,2.827-12.239,4.255-18.407c-1.459-0.336-2.757-0.637-4.18-0.964
			c-0.516,2.226-1.012,4.368-1.535,6.642c-1.504-0.348-2.884-0.666-4.441-1.026c0.509-2.203,1.013-4.386,1.537-6.646
			c-1.531-0.353-2.889-0.667-4.437-1.024c-0.851,3.681-1.708,7.387-2.583,11.177c-1.58-0.365-2.975-0.689-4.511-1.044
			c0.859-3.711,1.707-7.382,2.579-11.156c-1.815-0.419-3.495-0.807-5.342-1.235c-0.504,2.179-1.006,4.356-1.536,6.647
			c-1.554-0.36-2.942-0.68-4.501-1.04c0.519-2.246,1.024-4.436,1.544-6.682c-1.435-0.333-2.7-0.624-4.135-0.956
			c-1.417,6.136-2.83,12.245-4.262,18.443c-1.563-0.361-2.956-0.683-4.488-1.038c1.385-5.995,2.755-11.923,4.19-18.133
			c-1.547,0.121-2.886,0.153-4.195,0.382c-0.344,0.062-0.741,0.69-0.854,1.126c-0.534,2.043-0.978,4.109-1.474,6.257
			c-1.502-0.347-2.894-0.668-4.448-1.028c0.347-1.5,0.683-2.954,1.066-4.606c-1.775,0.634-3.017,1.206-3.353,3.208
			c-0.568,3.384-1.491,6.707-2.29,10.157c-1.478-0.343-2.827-0.654-4.32-1c0.4-1.73,0.805-3.482,1.21-5.236
			c-0.11-0.063-0.22-0.126-0.331-0.191c-0.495,0.663-1.128,1.26-1.459,1.996c-1.084,2.407-2.315,4.794-3.02,7.319
			c-1.256,4.504-2.168,9.1-3.218,13.657c-0.052,0.225-0.067,0.459-0.139,0.979c1.136-0.893,2.04-1.672,3.009-2.351
			c7.143-5.018,14.947-6.36,23.347-4.417c29.833,6.901,59.666,13.804,89.504,20.679c8.925,2.06,16.652-0.266,23.057-6.93
			c2.621-2.728,4.457-5.988,5.359-9.693c1.24-5.104,2.38-10.232,3.592-15.476c-2.076,1.428-4.05,2.732-5.947,4.142
			c-0.359,0.267-0.487,0.933-0.607,1.44c-1.17,4.986-2.316,9.979-3.47,14.968C217.694,202.541,217.575,203.057,217.425,203.714z"/>
		<path fill-rule="evenodd" clip-rule="evenodd" fill="#FFFFFF" stroke="#FFFFFF" stroke-miterlimit="10" d="M121.871,225.493
			c-2.896,12.719-15.453,20.748-28.003,17.91c-12.628-2.856-20.489-15.563-17.537-28.343c2.941-12.735,15.458-20.688,28.04-17.812
			C116.926,200.119,124.768,212.774,121.871,225.493z M78.804,215.719c-3.006,10.362,4.043,22.916,15.456,25.147
			c0.327-1.408,0.653-2.821,0.984-4.254c-9.417-3.25-13.576-9.818-12.265-19.93C81.593,216.362,80.197,216.04,78.804,215.719z
			 M115.144,223.935c1.391,0.321,2.787,0.644,4.183,0.966c2.972-9.351-3.109-22.51-15.369-25.175
			c-0.325,1.412-0.653,2.824-1.003,4.339C112.685,206.898,116.768,215.462,115.144,223.935z M92.307,218.761
			c-0.855,3.733,1.525,7.59,5.204,8.43c3.68,0.839,7.518-1.604,8.364-5.324c0.848-3.734-1.537-7.586-5.216-8.424
			C96.971,212.601,93.16,215.027,92.307,218.761z M85.629,217.287c-2.083,6.882,3.026,15.354,10.236,16.663
			c0.326-1.413,0.655-2.831,1.005-4.353c-2.389-0.751-4.401-2.044-5.728-4.214c-1.302-2.132-1.69-4.461-1.203-7.101
			C88.425,217.934,87.026,217.609,85.629,217.287z M101.312,211.054c2.457,0.721,4.428,2.068,5.753,4.237
			c1.303,2.133,1.636,4.478,1.188,7.04c1.461,0.34,2.894,0.67,4.326,1.001c1.861-6.62-2.49-14.905-10.238-16.727
			C101.987,208.131,101.659,209.55,101.312,211.054z"/>
		<path fill-rule="evenodd" clip-rule="evenodd" fill="#FFFFFF" stroke="#FFFFFF" stroke-miterlimit="10" d="M211.454,159.118
			c0.896-3.877,1.779-7.692,2.682-11.596c-1.525-0.353-2.92-0.674-4.486-1.037c-0.516,2.229-1.03,4.455-1.563,6.756
			c-1.521-0.352-2.877-0.666-4.41-1.021c0.51-2.208,1.022-4.428,1.559-6.747c-1.662-0.384-3.148-0.729-4.775-1.104
			c-1.398,6.048-2.789,12.068-4.207,18.2c-1.527-0.354-2.916-0.673-4.483-1.035c1.394-6.031,2.793-12.09,4.212-18.222
			c-2.333-0.538-4.492-1.039-6.768-1.565c-1.764,7.624-3.529,15.271-5.351,23.151c0.509,0.119,1.055,0.245,1.599,0.371
			c8.333,1.925,16.66,3.876,24.998,5.769c5.266,1.194,10.611,2.162,14.439,6.5c7.291-7.215,9.77-18.248,2.451-24.882
			c-0.377,1.625-0.732,3.17-1.105,4.785c-1.519-0.351-2.876-0.665-4.486-1.037c0.389-1.688,0.688-3.415,1.204-5.079
			c0.42-1.35-0.036-1.898-1.28-2.125c-0.951-0.177-1.888-0.426-3.031-0.69c-0.896,3.873-1.785,7.719-2.693,11.65
			C214.365,159.791,212.976,159.471,211.454,159.118z"/>
		<path fill-rule="evenodd" clip-rule="evenodd" fill="#FFFFFF" stroke="#FFFFFF" stroke-miterlimit="10" d="M175.192,138.548
			c0.892,0.206,1.704,0.395,2.512,0.582c-0.117,0.687-0.215,1.256-0.318,1.864c1.51,0.35,2.938,0.679,4.359,1.008
			c0.235-0.696,0.431-1.28,0.605-1.803c0.813,0.188,1.493,0.345,2.176,0.503c-1.785,7.721-3.542,15.327-5.321,23.027
			c-0.749-0.175-1.433-0.332-2.188-0.506c0.145-0.905,0.279-1.749,0.415-2.596c-1.517-0.351-2.909-0.672-4.348-1.004
			c-0.249,0.88-0.473,1.669-0.718,2.531c-0.854-0.196-1.634-0.378-2.498-0.578C171.653,153.854,173.419,146.215,175.192,138.548z
			 M174.097,155.173c1.461,0.336,2.879,0.663,4.376,1.01c0.706-3.054,1.397-6.047,2.108-9.125c-1.447-0.335-2.841-0.656-4.375-1.011
			C175.493,149.127,174.81,152.084,174.097,155.173z"/>
		<path fill-rule="evenodd" clip-rule="evenodd" fill="#FFFFFF" stroke="#FFFFFF" stroke-miterlimit="10" d="M125.414,208.735
			c0.354-1.533,0.888-3.839,1.438-6.22c-2.402-0.555-4.699-1.086-5.908-1.366C122.255,203.375,123.96,206.27,125.414,208.735z"/>
		<path fill-rule="evenodd" clip-rule="evenodd" stroke="#FFFFFF" stroke-miterlimit="10" d="M82.979,216.683
			c-1.386-0.32-2.782-0.643-4.175-0.964c-3.006,10.362,4.043,22.916,15.456,25.147c0.327-1.408,0.653-2.821,0.984-4.254
			C85.828,233.362,81.668,226.794,82.979,216.683z"/>
		<path fill-rule="evenodd" clip-rule="evenodd" stroke="#FFFFFF" stroke-miterlimit="10" d="M102.954,204.064
			c9.73,2.834,13.814,11.397,12.19,19.87c1.391,0.321,2.787,0.644,4.183,0.967c2.972-9.352-3.11-22.511-15.37-25.176
			C103.633,201.138,103.305,202.55,102.954,204.064z"/>
		<path fill-rule="evenodd" clip-rule="evenodd" stroke="#FFFFFF" stroke-miterlimit="10" d="M105.875,221.866
			c-0.846,3.721-4.684,6.163-8.364,5.324c-3.679-0.84-6.059-4.696-5.204-8.43c0.853-3.733,4.665-6.16,8.352-5.318
			C104.337,214.28,106.723,218.132,105.875,221.866z M99.671,218.026c-1.244-0.317-2.497,0.425-2.832,1.674
			c-0.349,1.3,0.444,2.644,1.731,2.93c1.207,0.27,2.505-0.551,2.799-1.771C101.667,219.619,100.898,218.339,99.671,218.026z"/>
		<path fill-rule="evenodd" clip-rule="evenodd" stroke="#FFFFFF" stroke-miterlimit="10" d="M89.939,218.283
			c-1.514-0.35-2.913-0.674-4.31-0.996c-2.083,6.882,3.026,15.354,10.236,16.663c0.326-1.413,0.655-2.831,1.005-4.353
			c-2.389-0.751-4.401-2.044-5.728-4.214C89.84,223.252,89.452,220.923,89.939,218.283z"/>
		<path fill-rule="evenodd" clip-rule="evenodd" stroke="#FFFFFF" stroke-miterlimit="10" d="M102.34,206.605
			c-0.353,1.525-0.681,2.944-1.028,4.448c2.457,0.721,4.428,2.068,5.753,4.237c1.303,2.133,1.636,4.478,1.188,7.04
			c1.461,0.34,2.894,0.67,4.326,1.001C114.439,216.712,110.088,208.427,102.34,206.605z"/>
		<path fill-rule="evenodd" clip-rule="evenodd" stroke="#FFFFFF" stroke-miterlimit="10" d="M176.206,146.047
			c-0.713,3.08-1.396,6.037-2.109,9.126c1.461,0.336,2.879,0.663,4.376,1.01c0.706-3.054,1.397-6.047,2.108-9.125
			C179.134,146.723,177.74,146.401,176.206,146.047z"/>
		<path fill-rule="evenodd" clip-rule="evenodd" fill="#FFFFFF" stroke="#FFFFFF" stroke-miterlimit="10" d="M101.369,220.858
			c0.298-1.239-0.471-2.52-1.698-2.832c-1.244-0.317-2.497,0.425-2.832,1.674c-0.349,1.3,0.444,2.644,1.731,2.93
			C99.777,222.899,101.075,222.079,101.369,220.858z"/>
	</g>
	<g>
		<path fill-rule="evenodd" clip-rule="evenodd" stroke="#FFFFFF" stroke-width="4" stroke-miterlimit="10" d="M235.015,92.877
			c-0.896,1.069-1.717,2.213-2.697,3.198c-12.11,12.143-24.242,24.265-36.371,36.392c-3.084,3.081-4.501,3.085-7.564,0.022
			c-4.325-4.323-8.665-8.631-12.96-12.983c-2.109-2.138-2.093-3.9-0.09-6.054c5.966-6.414,5.738-13.174-0.754-19.232
			c-3.472-3.241-7.478-5.325-12.405-4.319c-1.375,0.28-2.727,1.067-3.893,1.896c-2.428,1.727-4.018,1.7-6.092-0.394
			c-1.236-1.248-2.48-2.488-3.728-3.726c-0.096-0.096-0.233-0.149-0.095-0.063c-11.353,11.352-22.654,22.654-34.525,34.527
			c0.32,0.193,1.23,0.524,1.843,1.147c1.985,2.024,1.959,3.841,0.077,5.902c-0.236,0.257-0.494,0.499-0.743,0.747
			c-19.829,19.832-39.649,39.673-59.493,59.49c-6.128,6.121-13.423,8.379-21.785,5.775c-8.103-2.523-12.799-8.253-14.361-16.576
			c-0.062-0.331-0.225-0.643-0.34-0.964c0-1.547,0-3.093,0-4.641c1.043-6.743,5.079-11.581,9.771-16.222
			c18.438-18.24,36.72-36.64,55.061-54.979c4.863-4.864,4.866-4.864,9.856-0.672c11.327-11.327,22.64-22.639,34.377-34.376
			c-0.867-0.725-2.057-1.589-3.094-2.608c-3.683-3.621-3.672-4.672-0.1-8.289c0.436-0.441,0.842-0.912,1.326-1.438
			c-4.459-7.81-10.011-14.645-16.565-20.672c-7.668-7.051-16.249-12.704-25.903-16.673c-1.733-0.712-3.138-1.642-3.143-3.748
			c-0.006-2.115,1.456-3.054,3.141-3.779c13.235-5.695,26.782-6.354,40.569-2.38c11.788,3.398,21.818,9.839,31.488,18.821
			c0.513-0.863,0.869-1.856,1.545-2.528c1.931-1.917,3.725-1.899,5.722-0.059c1.188,1.096,2.299,2.274,3.442,3.416
			c8.409,8.39,16.819,16.779,25.228,25.17c1.781,1.776,2.023,3.378,0.795,5.24c-3.539,5.371-3.581,9.437,0.005,14.729
			c2.36,3.483,5.532,5.93,9.667,7.017c4.01,1.054,7.428,0.17,10.41-2.803c3.584-3.573,4.654-3.491,8.268,0.122
			c3.629,3.628,7.271,7.243,10.877,10.893c1.126,1.14,2.158,2.372,3.232,3.562C235.015,91.471,235.015,92.174,235.015,92.877z
			 M89.03,106.981c-0.477,0.431-0.902,0.783-1.292,1.173c-18.896,18.886-37.79,37.771-56.674,56.668
			c-0.744,0.743-1.444,1.54-2.084,2.373c-4.877,6.345-2.914,15.999,4.04,19.943c5.976,3.39,12.293,2.341,17.616-2.979
			c18.896-18.885,37.779-37.78,56.665-56.675c0.379-0.379,0.731-0.785,1.077-1.16C101.903,119.852,95.548,113.497,89.03,106.981z
			 M160.325,31.084c-9.684,9.652-19.366,19.301-28.647,28.553c7.979,8.074,15.984,16.174,23.634,23.915
			c9.513-9.497,19.173-19.143,28.772-28.729C176.282,47.027,168.293,39.045,160.325,31.084z M149.715,30.419
			c-10.723-13.79-43.056-23.559-55.629-16.555c15.617,8.371,28.028,20.1,37.227,34.987
			C137.506,42.648,143.599,36.546,149.715,30.419z M192.022,125.583c11.307-11.323,22.602-22.637,33.793-33.843
			c-2.948-2.954-6.068-6.079-8.846-8.86c-11.281,11.266-22.631,22.601-33.837,33.793
			C186.015,119.56,189.082,122.635,192.022,125.583z M133.157,72.855c-11.254,11.253-22.531,22.531-33.588,33.589
			c3.085,3.079,6.247,6.233,9.264,9.244c11.128-11.129,22.4-22.402,33.587-33.59C139.406,79.091,136.28,75.972,133.157,72.855z
			 M202.048,86.305c-4.96-0.869-9.035-3.245-12.471-6.671c-3.424-3.416-5.674-7.541-6.559-12.133
			c-5.119,5.112-10.204,10.19-15.238,15.219c9.98,2.515,16.352,8.955,18.865,18.979C191.765,96.581,196.813,91.535,202.048,86.305z"
			/>
		<path fill-rule="evenodd" clip-rule="evenodd" fill="#FFFFFF" stroke="#FFFFFF" stroke-width="4" stroke-miterlimit="10" d="
			M89.03,106.981c6.519,6.516,12.873,12.87,19.347,19.343c-0.346,0.375-0.698,0.781-1.077,1.16
			c-18.886,18.895-37.769,37.79-56.665,56.675c-5.323,5.32-11.64,6.369-17.616,2.979c-6.953-3.944-8.917-13.599-4.04-19.943
			c0.641-0.833,1.341-1.63,2.084-2.373c18.884-18.897,37.778-37.782,56.674-56.668C88.127,107.765,88.553,107.412,89.03,106.981z
			 M38.176,176.417c0.463-0.281,1.546-0.688,2.295-1.431c8.73-8.654,17.412-17.356,26.093-26.06c0.439-0.441,0.861-0.953,1.121-1.51
			c0.693-1.485,0.476-2.91-0.708-4.052c-1.174-1.133-2.584-1.386-4.067-0.611c-0.489,0.256-0.936,0.629-1.329,1.022
			c-8.75,8.734-17.492,17.475-26.225,26.227c-0.392,0.393-0.761,0.851-1,1.344C33.217,173.701,34.946,176.427,38.176,176.417z
			 M93.096,121.032c-0.946-1.055-1.626-2.231-2.645-2.854c-1.614-0.99-3.114-0.17-4.334,1.044
			c-4.621,4.597-9.239,9.196-13.822,13.83c-1.841,1.862-1.96,4.087-0.419,5.567c1.562,1.501,3.551,1.402,5.408-0.43
			c4.689-4.627,9.355-9.279,13.96-13.989C91.977,123.452,92.345,122.35,93.096,121.032z"/>
		<path fill-rule="evenodd" clip-rule="evenodd" fill="#FFFFFF" stroke="#FFFFFF" stroke-width="4" stroke-miterlimit="10" d="
			M160.325,31.084c7.968,7.961,15.957,15.943,23.759,23.739c-9.6,9.586-19.26,19.231-28.772,28.729
			c-7.649-7.741-15.655-15.841-23.634-23.915C140.959,50.385,150.642,40.736,160.325,31.084z M155.833,66.706
			c2.17,0,4.342,0.033,6.512-0.008c2.609-0.049,4.293-1.53,4.246-3.66c-0.045-2.079-1.654-3.482-4.166-3.503
			c-4.412-0.036-8.824-0.038-13.234,0.002c-2.563,0.023-4.062,1.371-4.085,3.526c-0.022,2.144,1.493,3.563,4.005,3.63
			C151.35,66.752,153.592,66.705,155.833,66.706z M159.474,45.184c0,0.005,0,0.009,0,0.013c-1.334,0-2.677-0.101-3.999,0.023
			c-1.834,0.174-2.925,1.276-3.145,3.117c-0.219,1.828,0.772,3.531,2.64,3.704c2.912,0.269,5.877,0.261,8.795,0.036
			c1.805-0.139,3.027-1.971,2.788-3.629c-0.269-1.859-1.312-3.106-3.289-3.247C162.007,45.111,160.737,45.184,159.474,45.184z"/>
		<path fill-rule="evenodd" clip-rule="evenodd" fill="#FFFFFF" stroke="#FFFFFF" stroke-width="4" stroke-miterlimit="10" d="
			M149.715,30.419c-6.116,6.127-12.209,12.229-18.402,18.433c-9.198-14.888-21.61-26.616-37.227-34.987
			C106.659,6.86,138.992,16.629,149.715,30.419z"/>
		<path fill-rule="evenodd" clip-rule="evenodd" fill="#FFFFFF" stroke="#FFFFFF" stroke-width="4" stroke-miterlimit="10" d="
			M192.022,125.583c-2.94-2.948-6.008-6.023-8.89-8.91c11.206-11.192,22.556-22.527,33.837-33.793
			c2.777,2.781,5.897,5.906,8.846,8.86C214.624,102.946,203.329,114.26,192.022,125.583z"/>
		<path fill-rule="evenodd" clip-rule="evenodd" fill="#FFFFFF" stroke="#FFFFFF" stroke-width="4" stroke-miterlimit="10" d="
			M133.157,72.855c3.123,3.116,6.249,6.235,9.263,9.243c-11.187,11.188-22.459,22.461-33.587,33.59
			c-3.018-3.011-6.179-6.165-9.264-9.244C110.626,95.387,121.903,84.108,133.157,72.855z"/>
		<path fill-rule="evenodd" clip-rule="evenodd" fill="#FFFFFF" stroke="#FFFFFF" stroke-width="4" stroke-miterlimit="10" d="
			M202.048,86.305c-5.234,5.23-10.283,10.276-15.402,15.395c-2.514-10.024-8.885-16.465-18.865-18.979
			c5.034-5.028,10.119-10.106,15.238-15.219c0.885,4.592,3.135,8.717,6.559,12.133C193.013,83.06,197.088,85.436,202.048,86.305z"/>
		<path fill-rule="evenodd" clip-rule="evenodd" stroke="#FFFFFF" stroke-width="4" stroke-miterlimit="10" d="M93.096,121.032
			c-0.751,1.317-1.12,2.42-1.851,3.168c-4.605,4.71-9.271,9.362-13.96,13.989c-1.857,1.832-3.846,1.931-5.408,0.43
			c-1.541-1.48-1.422-3.705,0.419-5.567c4.583-4.634,9.201-9.233,13.822-13.83c1.22-1.214,2.72-2.034,4.334-1.044
			C91.47,118.801,92.15,119.978,93.096,121.032z"/>
		<path fill-rule="evenodd" clip-rule="evenodd" stroke="#FFFFFF" stroke-width="4" stroke-miterlimit="10" d="M155.833,66.706
			c-2.241-0.001-4.483,0.046-6.723-0.013c-2.512-0.066-4.027-1.486-4.005-3.63c0.023-2.155,1.521-3.503,4.085-3.526
			c4.41-0.04,8.822-0.038,13.234-0.002c2.512,0.021,4.121,1.424,4.166,3.503c0.047,2.13-1.637,3.611-4.246,3.66
			C160.175,66.739,158.003,66.706,155.833,66.706z"/>
		<path fill-rule="evenodd" clip-rule="evenodd" stroke="#FFFFFF" stroke-width="4" stroke-miterlimit="10" d="M159.474,45.184
			c1.264,0,2.533-0.072,3.79,0.018c1.978,0.141,3.021,1.388,3.289,3.247c0.239,1.658-0.983,3.49-2.788,3.629
			c-2.918,0.225-5.883,0.232-8.795-0.036c-1.867-0.173-2.858-1.876-2.64-3.704c0.22-1.841,1.311-2.943,3.145-3.117
			c1.322-0.124,2.665-0.023,3.999-0.023C159.474,45.192,159.474,45.188,159.474,45.184z"/>
	</g>
</g>
</svg>
