<?xml version="1.0" encoding="utf-8"?>
<!-- Generator: Adobe Illustrator 16.0.0, SVG Export Plug-In . SVG Version: 6.00 Build 0)  -->
<!DOCTYPE svg PUBLIC "-//W3C//DTD SVG 1.1//EN" "http://www.w3.org/Graphics/SVG/1.1/DTD/svg11.dtd">
<svg version="1.1" id="Layer_1" xmlns="http://www.w3.org/2000/svg" xmlns:xlink="http://www.w3.org/1999/xlink" x="0px" y="0px"
	 width="250px" height="250px" viewBox="0 0 250 250" enable-background="new 0 0 250 250" xml:space="preserve">
<g>
	<path fill-rule="evenodd" clip-rule="evenodd" stroke="#FFFFFF" stroke-miterlimit="10" d="M44.285,112.455
		c0.713-3.785,3.102-6.281,6.15-8.424c6.542-4.597,12.977-9.347,19.486-13.991c0.879-0.627,1.296-1.258,1.283-2.383
		c-0.06-5.496-0.025-10.993-0.03-16.49c0-0.482-0.042-0.965-0.071-1.568c-0.591-0.078-1.123-0.134-1.649-0.219
		c-2.908-0.467-4.642-2.72-4.703-6.102c-0.082-4.565,1.354-7.029,4.494-7.602c0.742-0.136,1.519-0.105,2.279-0.106
		c8-0.007,16.006,0.172,24-0.061c6.217-0.181,7.969,3.382,7.426,8.578c-0.077,0.743-0.281,1.474-0.465,2.402
		c0.609-0.415,1.095-0.729,1.563-1.066c7.15-5.151,14.299-10.306,21.448-15.457c2.142-1.543,2.649-1.545,4.771-0.015
		c25.198,18.161,50.384,36.339,75.605,54.466c2.86,2.057,4.937,4.527,5.625,8.037c0,0.979,0,1.96,0,2.939
		c-0.084,0.136-0.206,0.262-0.246,0.409c-2.058,7.629-9.825,10.515-16.27,5.965c-6.042-4.267-12.009-8.638-18.008-12.963
		c-15.925-11.479-31.858-22.948-47.758-34.464c-1.017-0.736-1.651-0.722-2.661,0.008c-21.769,15.742-43.564,31.446-65.36,47.15
		c-4.566,3.291-9.667,3.198-13.478-0.138c-1.842-1.612-2.708-3.738-3.432-5.968C44.285,114.415,44.285,113.434,44.285,112.455z
		 M127.923,54.334c-0.334,0.223-0.563,0.364-0.78,0.521c-25.066,18.069-50.132,36.14-75.195,54.215
		c-0.44,0.317-0.874,0.657-1.248,1.047c-2.308,2.403-1.827,6.285,1.01,8.041c2.446,1.514,4.624,0.791,6.781-0.767
		c22.186-16.019,44.389-32.013,66.587-48.015c2.677-1.93,2.948-1.93,5.586-0.029c22.154,15.97,44.31,31.938,66.468,47.901
		c0.615,0.444,1.248,0.887,1.928,1.216c2.933,1.421,6.402-0.18,7.271-3.319c0.674-2.437-0.172-4.413-2.715-6.246
		c-12.794-9.229-25.592-18.455-38.391-27.681C152.825,72.281,140.425,63.344,127.923,54.334z M76.267,85.136
		c0.173,0.038,0.244,0.077,0.272,0.057c4.811-3.447,9.622-6.896,14.417-10.365c0.275-0.199,0.586-0.571,0.599-0.875
		c0.063-1.437,0.028-2.877,0.028-4.299c-5.284,0-10.3,0-15.316,0C76.267,74.922,76.267,80.043,76.267,85.136z M83.912,60.497
		c-4.183,0-8.367,0.056-12.548-0.03c-1.453-0.03-1.782,0.577-1.694,1.84c0.078,1.105-0.299,2.283,1.595,2.268
		c8.419-0.068,16.84-0.061,25.259-0.005c1.754,0.012,1.521-1.076,1.56-2.163c0.04-1.16-0.081-1.969-1.624-1.938
		C92.278,60.552,88.095,60.497,83.912,60.497z"/>
	<path fill-rule="evenodd" clip-rule="evenodd" stroke="#FFFFFF" stroke-miterlimit="10" d="M127.834,195.717
		c-16.056,0-32.11,0.002-48.166,0c-6.913-0.002-10.537-3.645-10.538-10.59c-0.001-20.465-0.002-40.928,0.007-61.392
		c0-0.7,0.015-1.43,0.206-2.094c0.343-1.195,1.247-1.773,2.48-1.664c1.23,0.11,1.987,0.846,2.165,2.07
		c0.093,0.642,0.058,1.303,0.058,1.955c0.002,20.41,0.001,40.82,0.002,61.228c0,3.986,1.552,5.561,5.487,5.561
		c32.22,0.002,64.439,0.002,96.659,0c3.97,0,5.538-1.559,5.538-5.508c0.002-20.52,0-41.037,0.002-61.555
		c0-2.624,0.793-3.818,2.497-3.772c1.662,0.044,2.42,1.205,2.421,3.729c0,20.573,0.002,41.145-0.002,61.717
		c-0.002,6.596-3.724,10.311-10.324,10.313C160.163,195.721,143.998,195.717,127.834,195.717z"/>
	<path fill-rule="evenodd" clip-rule="evenodd" stroke="#FFFFFF" stroke-miterlimit="10" d="M127.937,115.342
		c4.29-4.043,9.275-6.216,15.048-6.433c13.629-0.512,24.518,11.193,23.265,24.768c-0.83,8.984-5.145,16.133-11.258,22.377
		c-7.176,7.33-15.824,12.5-25.089,16.727c-1.25,0.57-2.437,0.707-3.749,0.109c-10.799-4.904-20.738-11.014-28.432-20.256
		c-4.97-5.969-7.969-12.746-8.334-20.613c-0.504-10.851,8.295-21.396,19.053-22.843c7.174-0.965,13.445,0.869,18.851,5.677
		C127.45,114.997,127.632,115.113,127.937,115.342z M112.181,113.798c-10.002,0.008-18.409,8.765-17.875,18.231
		c0.387,6.861,3.072,12.709,7.479,17.844c6.906,8.051,15.679,13.506,25.17,17.932c0.506,0.234,1.305,0.266,1.801,0.035
		c9.646-4.49,18.559-10.035,25.511-18.275c4.521-5.357,7.296-11.475,7.176-18.596c-0.122-7.182-4.872-13.591-11.615-16.062
		c-6.799-2.491-14.323-0.608-19.212,4.809c-2.205,2.443-3.234,2.424-5.504-0.061C121.577,115.784,117.134,113.942,112.181,113.798z"
		/>
	<path fill-rule="evenodd" clip-rule="evenodd" fill="#FFFFFF" stroke="#FFFFFF" stroke-miterlimit="10" d="M127.923,54.334
		c12.502,9.01,24.902,17.946,37.303,26.885c12.799,9.226,25.597,18.451,38.391,27.681c2.543,1.833,3.389,3.81,2.715,6.246
		c-0.869,3.14-4.339,4.74-7.271,3.319c-0.68-0.329-1.313-0.771-1.928-1.216c-22.158-15.963-44.313-31.932-66.468-47.901
		c-2.638-1.9-2.909-1.9-5.586,0.029c-22.198,16.002-44.401,31.996-66.587,48.015c-2.158,1.558-4.335,2.28-6.781,0.767
		c-2.836-1.756-3.318-5.638-1.01-8.041c0.374-0.39,0.808-0.729,1.248-1.047c25.063-18.075,50.128-36.146,75.195-54.215
		C127.36,54.699,127.589,54.557,127.923,54.334z"/>
	<path fill-rule="evenodd" clip-rule="evenodd" fill="#FFFFFF" stroke="#FFFFFF" stroke-miterlimit="10" d="M76.267,85.136
		c0-5.093,0-10.214,0-15.482c5.017,0,10.033,0,15.316,0c0,1.422,0.035,2.862-0.028,4.299c-0.013,0.304-0.323,0.676-0.599,0.875
		c-4.795,3.47-9.606,6.918-14.417,10.365C76.511,85.213,76.439,85.174,76.267,85.136z"/>
	<path fill-rule="evenodd" clip-rule="evenodd" fill="#FFFFFF" stroke="#FFFFFF" stroke-miterlimit="10" d="M83.912,60.497
		c4.183,0,8.366,0.056,12.548-0.029c1.543-0.03,1.664,0.778,1.624,1.938c-0.038,1.087,0.194,2.175-1.56,2.163
		c-8.419-0.056-16.84-0.063-25.259,0.005c-1.894,0.016-1.518-1.162-1.595-2.268c-0.088-1.263,0.242-1.87,1.694-1.84
		C75.545,60.552,79.729,60.497,83.912,60.497z"/>
	<path fill-rule="evenodd" clip-rule="evenodd" fill="#FFFFFF" stroke="#FFFFFF" stroke-miterlimit="10" d="M112.181,113.798
		c4.953,0.144,9.396,1.985,12.93,5.856c2.27,2.484,3.299,2.504,5.504,0.061c4.889-5.417,12.413-7.3,19.212-4.809
		c6.743,2.471,11.493,8.88,11.615,16.062c0.12,7.121-2.655,13.238-7.176,18.596c-6.952,8.24-15.864,13.785-25.511,18.275
		c-0.496,0.23-1.295,0.199-1.801-0.035c-9.491-4.426-18.264-9.881-25.17-17.932c-4.406-5.135-7.092-10.982-7.479-17.844
		C93.771,122.563,102.179,113.806,112.181,113.798z"/>
</g>
</svg>
