<?xml version="1.0" encoding="utf-8"?>
<!-- Generator: Adobe Illustrator 16.0.0, SVG Export Plug-In . SVG Version: 6.00 Build 0)  -->
<!DOCTYPE svg PUBLIC "-//W3C//DTD SVG 1.1//EN" "http://www.w3.org/Graphics/SVG/1.1/DTD/svg11.dtd">
<svg version="1.1" id="Layer_1" xmlns="http://www.w3.org/2000/svg" xmlns:xlink="http://www.w3.org/1999/xlink" x="0px" y="0px"
	 width="250px" height="250px" viewBox="0 0 250 250" enable-background="new 0 0 250 250" xml:space="preserve">
<g>
	<path fill-rule="evenodd" clip-rule="evenodd" stroke="#FFFFFF" stroke-width="4" stroke-miterlimit="10" d="M5.525,94.587
		c1.301-4.053,4.178-6.939,7.115-9.832c6.48-6.38,12.912-12.812,19.263-19.321c0.95-0.975,1.663-2.413,1.963-3.753
		c1.7-7.611,6.221-12.702,13.439-15.436c3.008-1.14,5.15,0.005,6.022,3.189c0.942,3.442,1.792,6.912,2.583,10.391
		c0.3,1.32,0.826,1.95,2.294,1.99c12.484,0.34,22.715,5.574,31.271,14.468c3.284,3.414,3.345,3.357,7.398,0.659
		c10.798-7.188,21.561-14.432,32.431-21.509c1.525-0.994,3.553-1.55,5.387-1.665c3.949-0.247,7.925-0.022,11.889-0.087
		c8.327-0.136,12.746,4.876,14.15,11.918c2.564,12.857,4.337,25.873,6.394,38.83c0.253,1.585,0.228,3.214,0.346,5.059
		c4.433,0,8.769-0.094,13.099,0.024c4.801,0.131,9.644,0.123,14.383,0.788c4.606,0.646,8.542,3.121,12.135,6.105
		c0.714,0.592,1.937,0.966,2.854,0.854c5.87-0.722,9.91-4.862,10.488-11.002c0.38-4.039,1.162-7.795,3.873-10.979
		c4.452-5.232,10.307-6.258,16.686-5.589c2.009,0.21,3.337,1.62,3.339,3.622c0.002,7.998,0.526,16.076-0.407,23.976
		c-1.604,13.604-12.368,23.055-25.971,23.955c-0.3,0.019-0.598,0.075-1.424,0.184c0.494,4.948,0.722,9.896,1.542,14.743
		c1.022,6.035,2.13,12.113,3.938,17.944c2.455,7.917,2.068,15.689,0.794,23.692c-2.173,13.648-3.991,27.353-5.912,41.041
		c-0.342,2.446-0.655,4.817-3.273,5.977c-6.065,0-12.131,0-18.195,0c-1.929-1.184-2.975-2.769-2.743-5.167
		c1.173-12.217,2.176-24.451,3.504-36.65c0.352-3.246-0.287-5.646-2.339-8.241c-6.444-8.144-13.771-15.652-18.522-25.062
		c-0.307-0.609-1.293-1.041-2.045-1.235c-5.522-1.432-11.059-1.487-16.552,0.173c-7.272,2.195-5.717,0.685-5.368,7.824
		c0.169,3.458,0.537,7.077-0.238,10.376c-1.481,6.304-7.631,10.463-13.918,10.22c-6.654-0.258-12.002-4.699-13.564-11.399
		c-0.679-2.918-1.144-5.886-1.622-8.382c-7.516-0.866-14.654-1.689-22.029-2.539c-1.054,4.694-2.103,9.688-3.303,14.645
		c-2.253,9.296-4.112,18.591-3.581,28.281c0.39,7.129,0.025,14.297,0.105,21.446c0.027,2.439-0.618,4.397-2.761,5.711
		c-6.065,0-12.131,0-18.197,0c-2.58-1.082-3.008-3.205-3.002-5.725c0.045-18.111,0.053-36.224-0.022-54.335
		c-0.008-1.639-0.409-3.391-1.076-4.892c-2.694-6.061-5.152-12.251-5.755-18.853c-0.734-8.028-0.74-16.121-1.183-24.179
		c-0.072-1.3-0.481-2.782-1.236-3.812c-5.834-7.958-11.791-15.825-17.715-23.718c-0.454-0.604-0.95-1.178-1.11-1.376
		c-2.834,0.568-5.235,1.369-7.665,1.472c-5.122,0.218-10.259,0.142-15.387,0.047c-4.293-0.077-7.878-1.795-10.299-5.414
		c-0.971-1.45-1.525-3.181-2.269-4.784C5.525,97.698,5.525,96.143,5.525,94.587z M120.355,168.748
		c-0.106-0.846-0.161-1.521-0.279-2.188c-0.868-4.891-1.842-9.767-2.581-14.677c-0.269-1.791-0.234-3.708,0.085-5.492
		c0.684-3.815,1.65-7.581,2.491-11.368c1.288-5.795,2.568-11.593,3.896-17.591c-7.35,0-14.417-0.042-21.481,0.025
		c-2.094,0.021-3.741-0.625-5.177-2.146c-2.081-2.203-4.314-4.261-6.392-6.467c-0.917-0.972-1.716-1.274-3.018-0.709
		c-1.915,0.833-3.892,1.585-5.913,2.1c-8.763,2.229-16.836-5.41-14.851-14.229c0.568-2.527,2.176-4.82,3.433-7.486
		c-3.648-3.643-7.594-7.599-11.561-11.535c-2.424-2.405-4.499-5.715-7.426-6.906c-3.015-1.226-6.875-0.371-10.367-0.425
		c-0.388-0.006-0.805-0.088-1.159,0.024c-0.636,0.2-1.381,0.371-1.825,0.813c-7.777,7.721-15.528,15.467-23.249,23.245
		c-1.347,1.356-1.883,3.022-1.106,4.916c0.766,1.869,2.289,2.65,4.186,2.851c0.54,0.058,1.087,0.031,1.632,0.031
		c3.575,0.002,7.15,0.001,10.726,0.001c7.335,0,8.795-1.013,11.244-7.782c2.532,0,5.05,0,8.035,0
		c-0.734,2.43-1.183,4.647-2.088,6.659c-0.609,1.355-0.492,2.186,0.366,3.317c6.525,8.605,13.051,17.212,19.402,25.945
		c1.056,1.454,1.663,3.5,1.778,5.317c0.26,4.103,0.12,8.233,0.075,12.353c-0.115,10.665,2.157,20.779,6.697,30.436
		c0.792,1.688,1.223,3.706,1.233,5.574c0.093,16.867,0.055,33.733,0.055,50.601c0,0.904,0,1.807,0,2.73c2.81,0,5.314,0,7.972,0
		c0-1.034,0-1.88,0-2.726c0-9.094-0.009-18.188,0.012-27.281c0.002-1.161,0.017-2.352,0.263-3.476
		c2.325-10.612,4.683-21.22,7.069-31.818c1.448-6.43,2.39-6.93,8.823-5.117C107.504,168.002,113.763,168.938,120.355,168.748z
		 M141.551,61.665c-0.934,0-1.878,0.096-2.797-0.018c-3.18-0.388-5.779,0.658-8.414,2.479c-8.687,6.007-17.481,11.864-26.355,17.593
		c-3.433,2.215-7.108,4.102-10.815,5.835c-5.059,2.364-10.269,4.401-15.381,6.653c-2.604,1.147-3.619,3.34-2.793,5.628
		c0.852,2.357,3.195,3.337,5.968,2.482c0.444-0.138,0.865-0.345,1.308-0.487c13.95-4.523,27.146-10.613,39.304-18.868
		c0.128-0.086,0.27-0.155,0.404-0.232c3.775-2.178,6.498-0.856,7.12,3.474c1.237,8.608,2.481,17.215,3.662,25.831
		c0.145,1.049,0.054,2.181-0.171,3.222c-1.508,6.979-3.124,13.934-4.616,20.915c-1.464,6.838-4.019,13.591-1.605,20.759
		c0.515,1.529,0.63,3.193,0.927,4.797c1.369,7.402,2.619,14.83,4.156,22.197c0.778,3.731,3.734,5.542,7.244,4.993
		c3.229-0.506,5.387-3.344,5.08-6.974c-0.855-10.141-1.866-20.269-2.623-30.416c-0.137-1.81,0.226-3.909,1.068-5.498
		c4.186-7.885,8.626-15.632,12.936-23.452c2.151-3.902,4.007-7.987,3.947-12.521c-0.055-4.008-0.405-8.041-1.006-12.006
		c-1.486-9.824-3.157-19.62-4.819-29.417c-0.933-5.508-2.73-6.969-8.231-6.97C143.881,61.665,142.716,61.665,141.551,61.665z
		 M201.012,236.877c2.258,0,4.194-0.098,6.119,0.029c1.587,0.104,2.095-0.474,2.312-2.04c1.914-13.845,3.847-27.688,5.945-41.507
		c0.793-5.22,0.862-10.242-0.675-15.397c-1.637-5.491-3.048-11.112-3.836-16.777c-1.141-8.216-1.753-16.513-2.37-24.791
		c-0.732-9.819-7.58-17.78-17.336-18.603c-8.029-0.678-16.149-0.303-24.229-0.29c-0.486,0-1.14,0.831-1.431,1.417
		c-1.509,3.055-2.789,6.23-4.4,9.228c-3.646,6.768-7.44,13.452-11.165,20.175c-0.337,0.608-0.903,1.269-0.867,1.874
		c0.238,3.989,0.611,7.97,0.96,12.188c7.237-2.799,14.322-3.541,21.796-2.496c-2.077-9.555-1.907-18.633,1.18-27.775
		c2.651,0.886,5.033,1.682,7.265,2.428c0.063,0.41,0.098,0.491,0.081,0.559c-0.143,0.604-0.289,1.208-0.444,1.809
		c-3.339,12.874-1.356,24.875,6.466,35.626c5.207,7.156,10.992,13.891,16.391,20.912c0.926,1.206,1.751,2.932,1.688,4.376
		c-0.23,5.272-0.859,10.526-1.336,15.787C202.428,221.26,201.733,228.913,201.012,236.877z M216.354,133.112
		c7.661,0.707,16.233-5.139,18.788-12.866c2.453-7.42,0.835-15.041,1.366-22.593c-4.888,0.305-7.676,3.072-7.986,7.733
		c-0.621,9.301-5.083,15.743-13.956,18.959c-0.328,0.119-0.629,0.319-0.85,0.435C214.635,127.686,215.493,130.4,216.354,133.112z
		 M124.401,109.873c-0.895-6.266-1.696-11.882-2.542-17.793c-3.644,2.192-6.916,4.161-10.386,6.25
		c3.662,3.646,6.994,7.011,10.393,10.304C122.381,109.132,123.208,109.307,124.401,109.873z M64.371,71.069
		c4.486,4.494,8.958,9.002,13.487,13.452c0.32,0.315,1.138,0.415,1.591,0.25c1.635-0.595,3.214-1.346,5.042-2.138
		C78.83,76.609,72.579,72.239,64.371,71.069z M111.334,109.184c-1.367-1.277-2.457-2.242-3.487-3.266
		c-4.138-4.114-4.131-4.122-9.568-1.508c-0.068,0.033-0.122,0.097-0.056,0.043C100.874,109.819,105.555,110.113,111.334,109.184z
		 M41.724,61.463c2.627,0,4.409,0,6.427,0c-0.541-2.057-1.014-3.859-1.489-5.663c-0.218-0.067-0.437-0.135-0.655-0.203
		C44.701,57.385,43.396,59.173,41.724,61.463z"/>
	<path fill-rule="evenodd" clip-rule="evenodd" stroke="#FFFFFF" stroke-width="4" stroke-miterlimit="10" d="M141.295,5.941
		c4.407,1.014,8.624,2.398,12.057,5.565c6.092,5.623,8.53,12.613,6.926,20.623c-1.604,8.014-6.508,13.609-14.359,16.324
		c-13.881,4.8-28.516-5.217-28.858-20.345c-0.133-5.902,0.002-11.81-0.053-17.714c-0.02-2.156,1.188-3.412,2.827-4.453
		C126.987,5.941,134.143,5.941,141.295,5.941z M125.085,25.935c-0.427,7.25,3.041,12.778,9.144,14.986
		c5.629,2.038,11.808,0.216,15.393-4.616C142.801,29.758,134.707,26.31,125.085,25.935z M152.747,28.322
		c-0.387-7.639-4.585-13.213-11.161-13.965c-5.405-0.619-10.937-0.126-16.428-0.126c0,1.161,0,2.415,0,3.719
		C135.5,18.286,144.514,21.768,152.747,28.322z"/>
	<path fill-rule="evenodd" clip-rule="evenodd" fill="#FFFFFF" stroke="#FFFFFF" stroke-width="4" stroke-miterlimit="10" d="
		M120.355,168.748c-6.593,0.19-12.851-0.746-19.001-2.481c-6.433-1.813-7.375-1.313-8.823,5.117
		c-2.386,10.599-4.744,21.206-7.069,31.818c-0.246,1.124-0.26,2.314-0.263,3.476c-0.021,9.094-0.012,18.188-0.012,27.281
		c0,0.846,0,1.691,0,2.726c-2.658,0-5.162,0-7.972,0c0-0.924,0-1.826,0-2.73c0-16.867,0.038-33.733-0.055-50.601
		c-0.01-1.868-0.441-3.887-1.233-5.574c-4.54-9.656-6.812-19.771-6.697-30.436c0.045-4.119,0.185-8.25-0.075-12.353
		c-0.115-1.817-0.722-3.863-1.778-5.317c-6.352-8.733-12.877-17.34-19.402-25.945c-0.857-1.132-0.975-1.962-0.366-3.317
		c0.905-2.012,1.354-4.229,2.088-6.659c-2.985,0-5.503,0-8.035,0c-2.448,6.77-3.908,7.782-11.244,7.782
		c-3.575,0-7.151,0.001-10.726-0.001c-0.544,0-1.092,0.026-1.632-0.031c-1.897-0.2-3.419-0.981-4.186-2.851
		c-0.777-1.894-0.241-3.56,1.106-4.916c7.721-7.777,15.472-15.524,23.249-23.245c0.444-0.441,1.189-0.612,1.825-0.813
		c0.354-0.112,0.771-0.03,1.159-0.024c3.491,0.054,7.352-0.801,10.367,0.425c2.927,1.19,5.001,4.501,7.426,6.906
		c3.967,3.936,7.913,7.892,11.561,11.535c-1.256,2.666-2.864,4.959-3.433,7.486c-1.985,8.819,6.088,16.459,14.851,14.229
		c2.021-0.515,3.998-1.267,5.913-2.1c1.301-0.565,2.101-0.263,3.018,0.709c2.078,2.206,4.311,4.264,6.392,6.467
		c1.436,1.521,3.083,2.167,5.177,2.146c7.065-0.067,14.131-0.025,21.481-0.025c-1.328,5.998-2.608,11.796-3.896,17.591
		c-0.841,3.787-1.807,7.553-2.491,11.368c-0.319,1.784-0.354,3.701-0.085,5.492c0.739,4.91,1.713,9.786,2.581,14.677
		C120.195,167.227,120.249,167.902,120.355,168.748z"/>
	<path fill-rule="evenodd" clip-rule="evenodd" fill="#FFFFFF" stroke="#FFFFFF" stroke-width="4" stroke-miterlimit="10" d="
		M141.551,61.665c1.165,0,2.33,0,3.496,0c5.501,0.001,7.299,1.462,8.231,6.97c1.662,9.797,3.333,19.593,4.819,29.417
		c0.601,3.965,0.951,7.998,1.006,12.006c0.06,4.533-1.796,8.618-3.947,12.521c-4.31,7.82-8.75,15.567-12.936,23.452
		c-0.843,1.589-1.205,3.688-1.068,5.498c0.757,10.147,1.768,20.275,2.623,30.416c0.307,3.63-1.852,6.468-5.08,6.974
		c-3.51,0.549-6.466-1.262-7.244-4.993c-1.537-7.367-2.787-14.795-4.156-22.197c-0.297-1.604-0.412-3.268-0.927-4.797
		c-2.414-7.168,0.142-13.921,1.605-20.759c1.492-6.981,3.108-13.937,4.616-20.915c0.225-1.041,0.315-2.173,0.171-3.222
		c-1.181-8.616-2.425-17.223-3.662-25.831c-0.622-4.33-3.345-5.651-7.12-3.474c-0.134,0.077-0.275,0.146-0.404,0.232
		c-12.158,8.255-25.354,14.345-39.304,18.868c-0.442,0.143-0.864,0.35-1.308,0.487c-2.772,0.854-5.116-0.125-5.968-2.482
		c-0.826-2.288,0.188-4.48,2.793-5.628c5.113-2.252,10.323-4.289,15.381-6.653c3.707-1.733,7.382-3.62,10.815-5.835
		c8.875-5.729,17.669-11.586,26.355-17.593c2.635-1.821,5.234-2.868,8.414-2.479C139.673,61.76,140.617,61.665,141.551,61.665z"/>
	<path fill-rule="evenodd" clip-rule="evenodd" fill="#FFFFFF" stroke="#FFFFFF" stroke-width="4" stroke-miterlimit="10" d="
		M201.012,236.877c0.722-7.964,1.416-15.617,2.111-23.271c0.477-5.261,1.105-10.515,1.336-15.787
		c0.063-1.444-0.762-3.17-1.688-4.376c-5.398-7.021-11.184-13.756-16.391-20.912c-7.822-10.751-9.805-22.752-6.466-35.626
		c0.155-0.601,0.302-1.204,0.444-1.809c0.017-0.067-0.018-0.148-0.081-0.559c-2.231-0.746-4.613-1.542-7.265-2.428
		c-3.087,9.143-3.257,18.221-1.18,27.775c-7.474-1.045-14.559-0.303-21.796,2.496c-0.349-4.218-0.722-8.198-0.96-12.188
		c-0.036-0.605,0.53-1.266,0.867-1.874c3.725-6.723,7.52-13.407,11.165-20.175c1.611-2.997,2.892-6.173,4.4-9.228
		c0.291-0.586,0.944-1.417,1.431-1.417c8.08-0.013,16.2-0.388,24.229,0.29c9.756,0.822,16.604,8.783,17.336,18.603
		c0.617,8.278,1.229,16.575,2.37,24.791c0.788,5.665,2.199,11.286,3.836,16.777c1.537,5.155,1.468,10.178,0.675,15.397
		c-2.099,13.818-4.031,27.662-5.945,41.507c-0.217,1.566-0.725,2.145-2.312,2.04C205.206,236.779,203.27,236.877,201.012,236.877z"
		/>
	<path fill-rule="evenodd" clip-rule="evenodd" fill="#FFFFFF" stroke="#FFFFFF" stroke-width="4" stroke-miterlimit="10" d="
		M216.354,133.113c-0.86-2.713-1.719-5.428-2.638-8.333c0.221-0.115,0.521-0.315,0.85-0.435c8.873-3.216,13.335-9.658,13.956-18.959
		c0.311-4.661,3.099-7.429,7.986-7.733c-0.531,7.552,1.087,15.173-1.366,22.593C232.587,127.974,224.015,133.819,216.354,133.113z"
		/>
	<path fill-rule="evenodd" clip-rule="evenodd" fill="#FFFFFF" stroke="#FFFFFF" stroke-width="4" stroke-miterlimit="10" d="
		M124.401,109.873c-1.193-0.566-2.02-0.741-2.534-1.239c-3.399-3.293-6.731-6.657-10.393-10.304c3.47-2.089,6.742-4.058,10.386-6.25
		C122.705,97.991,123.506,103.607,124.401,109.873z"/>
	<path fill-rule="evenodd" clip-rule="evenodd" fill="#FFFFFF" stroke="#FFFFFF" stroke-width="4" stroke-miterlimit="10" d="
		M64.371,71.069c8.208,1.169,14.458,5.54,20.121,11.564c-1.828,0.792-3.407,1.543-5.042,2.138c-0.453,0.165-1.271,0.065-1.591-0.25
		C73.329,80.071,68.857,75.563,64.371,71.069z"/>
	<path fill-rule="evenodd" clip-rule="evenodd" fill="#FFFFFF" stroke="#FFFFFF" stroke-width="4" stroke-miterlimit="10" d="
		M111.334,109.184c-5.779,0.93-10.46,0.636-13.111-4.73c-0.066,0.054-0.012-0.01,0.056-0.043c5.438-2.614,5.43-2.606,9.568,1.508
		C108.877,106.941,109.967,107.906,111.334,109.184z"/>
	<path fill-rule="evenodd" clip-rule="evenodd" fill="#FFFFFF" stroke="#FFFFFF" stroke-width="4" stroke-miterlimit="10" d="
		M41.724,61.463c1.672-2.29,2.977-4.078,4.283-5.866c0.218,0.067,0.437,0.135,0.655,0.203c0.475,1.804,0.948,3.606,1.489,5.663
		C46.133,61.463,44.351,61.463,41.724,61.463z"/>
	<path fill-rule="evenodd" clip-rule="evenodd" fill="#FFFFFF" stroke="#FFFFFF" stroke-width="4" stroke-miterlimit="10" d="
		M125.085,25.935c9.622,0.375,17.716,3.823,24.536,10.37c-3.585,4.832-9.764,6.654-15.393,4.616
		C128.126,38.712,124.658,33.185,125.085,25.935z"/>
	<path fill-rule="evenodd" clip-rule="evenodd" fill="#FFFFFF" stroke="#FFFFFF" stroke-width="4" stroke-miterlimit="10" d="
		M152.747,28.322c-8.233-6.554-17.247-10.036-27.589-10.373c0-1.305,0-2.558,0-3.719c5.491,0,11.022-0.493,16.428,0.126
		C148.162,15.109,152.36,20.683,152.747,28.322z"/>
</g>
</svg>
