<?xml version="1.0" encoding="utf-8"?>
<!-- Generator: Adobe Illustrator 16.0.0, SVG Export Plug-In . SVG Version: 6.00 Build 0)  -->
<!DOCTYPE svg PUBLIC "-//W3C//DTD SVG 1.1//EN" "http://www.w3.org/Graphics/SVG/1.1/DTD/svg11.dtd">
<svg version="1.1" id="Layer_1" xmlns="http://www.w3.org/2000/svg" xmlns:xlink="http://www.w3.org/1999/xlink" x="0px" y="0px"
	 width="250px" height="250px" viewBox="0 0 250 250" enable-background="new 0 0 250 250" xml:space="preserve">
<g>
	<path fill-rule="evenodd" clip-rule="evenodd" stroke="#FFFFFF" stroke-width="5" stroke-miterlimit="10" d="M248.933,143.37
		c-2.288,5.225-5.011,10.104-9.416,13.955c-11.285,9.866-28.804,8.668-37.397-2.21c-0.237-0.3-0.56-0.531-0.851-0.803
		c-9.764,12.713-30.318,13.613-42.412-0.996c-5.663,6.626-12.657,10.717-21.557,10.715c-8.906-0.002-15.907-4.087-21.569-10.729
		c-11.99,14.308-31.368,14.291-42.957,0.502c-3.562,2.565-6.823,5.639-10.665,7.547c-12.164,6.045-26.918,1.539-34.219-10.109
		c-1.266-2.021-2.33-4.189-3.277-6.38c-1.53-3.538-0.486-6.568,2.53-7.888c2.945-1.289,5.968,0.09,7.45,3.654
		c1.442,3.467,3.349,6.551,6.302,8.901c8.221,6.541,19.483,3.952,24.64-6.044c1.991-3.861,4.713-6.793,7.946-9.406
		c7.526-6.09,15.116-12.1,22.68-18.144c0.554-0.443,1.095-0.902,1.921-1.584c-3.668-1.984-7.102-3.922-10.63-5.671
		c-0.589-0.292-1.666,0.07-2.381,0.415c-13.607,6.555-27.16,13.226-40.824,19.659c-1.949,0.918-4.508,1.263-6.629,0.919
		c-2.716-0.439-4.223-2.779-4.674-5.503c-0.638-3.865-1.186-7.746-1.669-11.633c-0.56-4.496,1.338-7.716,5.31-9.815
		c15.194-8.031,30.388-16.064,45.563-24.129c3.585-1.905,7.104-1.978,10.801-0.282c11.112,5.1,22.328,9.978,33.351,15.261
		c2.775,1.331,5.47,3.472,7.364,5.895c9.659,12.352,19.07,24.899,28.491,37.435c1.182,1.57,2.021,3.431,2.832,5.24
		c3.722,8.295,11.876,12.547,20.106,10.4c5.135-1.339,7.963-5.028,9.865-9.676c1.586-3.875,2.939-4.799,6.498-4.841
		c2.757-0.034,4.484,1.29,5.626,3.679c0.927,1.938,1.718,4.002,2.969,5.717c5.618,7.701,17.288,7.678,23.989-0.068
		c1.491-1.725,2.668-3.795,3.651-5.865c1.146-2.41,2.267-4.632,5.298-4.902c3.004-0.266,4.616,1.604,5.943,3.902
		C248.933,141.449,248.933,142.409,248.933,143.37z M78.937,142.95c6.513,12.359,20.834,13.636,28.624,2.679
		c1.28-1.803,2.085-3.943,3.089-5.939c1.033-2.053,2.682-3.125,4.977-3.145c2.298-0.02,3.984,1.026,5.018,3.072
		c0.432,0.854,0.735,1.771,1.161,2.629c2.957,5.937,7.303,10.148,14.218,10.74c6.978,0.596,11.86-2.9,15.58-8.472
		c0.922-1.381,0.926-2.394-0.155-3.801c-8.728-11.358-17.32-22.82-26.062-34.167c-1.069-1.388-2.621-2.618-4.212-3.357
		c-10.436-4.853-20.96-9.514-31.406-14.344c-1.502-0.695-2.592-0.557-3.979,0.184c-13.258,7.08-26.553,14.095-39.835,21.129
		c-3.887,2.059-3.889,2.06-3.065,6.306c0.036,0.193,0.205,0.361,0.374,0.642c0.789-0.363,1.512-0.68,2.221-1.023
		c11.943-5.78,23.906-11.523,35.816-17.368c3.925-1.926,7.617-1.883,11.423,0.281c4.447,2.529,8.855,5.196,13.52,7.26
		c7.724,3.418,8.324,9.862,1.25,14.895C97.786,128.053,88.526,135.583,78.937,142.95z"/>
	<path fill-rule="evenodd" clip-rule="evenodd" stroke="#FFFFFF" stroke-width="5" stroke-miterlimit="10" d="M3,176.033
		c1.423-1.27,2.649-3.068,4.315-3.69c2.718-1.017,4.922,0.692,6.561,3.818c1.325,2.526,2.61,5.224,4.534,7.257
		c8.373,8.846,21.676,6.093,26.979-5.415c0.435-0.942,0.819-1.91,1.286-2.837c1.031-2.049,2.717-3.091,5.016-3.072
		c2.301,0.02,3.872,1.15,4.982,3.152c1.504,2.709,2.74,5.707,4.779,7.957c8.237,9.083,21.793,6.426,27.169-5.139
		c0.369-0.797,0.684-1.619,1.051-2.419c1.022-2.226,2.673-3.557,5.21-3.552c2.521,0.005,4.168,1.279,5.219,3.528
		c0.878,1.878,1.69,3.831,2.872,5.513c7.854,11.185,22.95,9.582,28.87-3.014c0.477-1.012,0.874-2.063,1.389-3.055
		c1.008-1.941,2.627-2.951,4.833-2.975c2.304-0.023,3.944,1.025,5.049,3.033c1.382,2.51,2.495,5.254,4.29,7.43
		c4.341,5.268,10.04,7.166,16.759,5.56c4.661-1.112,7.55-4.267,9.477-8.465c0.399-0.87,0.709-1.784,1.142-2.638
		c1.509-2.982,4.45-4.19,7.145-2.972c2.824,1.277,3.901,4.071,2.82,7.251c-7.289,21.442-31.967,23.451-44.847,9.4
		c-0.538-0.586-1.08-1.168-1.756-1.899c-5.729,6.67-12.694,10.8-21.623,10.792c-8.849-0.007-15.785-4.021-21.598-10.795
		c-5.724,6.599-12.656,10.77-21.557,10.799c-8.942,0.03-15.914-4.068-21.308-10.327c-3.598,2.616-6.801,5.634-10.563,7.555
		c-12.113,6.185-27.02,1.7-34.415-10.077c-1.559-2.483-2.729-5.209-4.079-7.823C3,177.955,3,176.994,3,176.033z"/>
	<path fill-rule="evenodd" clip-rule="evenodd" stroke="#FFFFFF" stroke-width="5" stroke-miterlimit="10" d="M177.98,127.279
		c-15.529,0.451-30.78-12.091-31.681-29.96c-0.821-16.303,12.391-31.151,28.856-32.181c17.242-1.078,32.215,11.859,33.39,28.786
		C209.72,110.807,196.844,126.841,177.98,127.279z M177.549,76.006c-10.781-0.109-20.117,8.874-20.283,19.519
		c-0.179,11.427,8.895,20.786,20.234,20.871c10.581,0.08,19.983-9.039,20.097-19.492C197.725,85.204,189.012,76.123,177.549,76.006z
		"/>
	<path fill-rule="evenodd" clip-rule="evenodd" fill="#FFFFFF" stroke="#FFFFFF" stroke-width="5" stroke-miterlimit="10" d="
		M78.937,142.95c9.59-7.367,18.85-14.897,28.556-21.801c7.074-5.033,6.474-11.477-1.25-14.895c-4.664-2.063-9.072-4.73-13.52-7.26
		c-3.806-2.164-7.498-2.207-11.423-0.281c-11.91,5.845-23.873,11.588-35.816,17.368c-0.709,0.343-1.432,0.66-2.221,1.023
		c-0.169-0.281-0.338-0.449-0.374-0.642c-0.823-4.246-0.821-4.247,3.065-6.306c13.282-7.034,26.577-14.049,39.835-21.129
		c1.387-0.74,2.477-0.878,3.979-0.184c10.446,4.83,20.971,9.491,31.406,14.344c1.591,0.74,3.143,1.969,4.212,3.357
		c8.741,11.347,17.334,22.809,26.062,34.167c1.081,1.407,1.077,2.42,0.155,3.801c-3.72,5.571-8.603,9.067-15.58,8.472
		c-6.915-0.592-11.261-4.804-14.218-10.74c-0.426-0.857-0.729-1.774-1.161-2.629c-1.033-2.046-2.72-3.092-5.018-3.072
		c-2.295,0.02-3.943,1.092-4.977,3.145c-1.004,1.996-1.809,4.137-3.089,5.939C99.771,156.586,85.449,155.31,78.937,142.95z"/>
	<path fill-rule="evenodd" clip-rule="evenodd" fill="#FFFFFF" stroke="#FFFFFF" stroke-width="5" stroke-miterlimit="10" d="
		M177.549,76.006c11.463,0.116,20.176,9.198,20.048,20.897c-0.113,10.454-9.516,19.572-20.097,19.492
		c-11.34-0.085-20.413-9.444-20.234-20.871C157.432,84.88,166.768,75.897,177.549,76.006z"/>
</g>
</svg>
