<?xml version="1.0" encoding="utf-8"?>
<!-- Generator: Adobe Illustrator 16.0.0, SVG Export Plug-In . SVG Version: 6.00 Build 0)  -->
<!DOCTYPE svg PUBLIC "-//W3C//DTD SVG 1.1//EN" "http://www.w3.org/Graphics/SVG/1.1/DTD/svg11.dtd">
<svg version="1.1" id="Layer_1" xmlns="http://www.w3.org/2000/svg" xmlns:xlink="http://www.w3.org/1999/xlink" x="0px" y="0px"
	 width="250px" height="250px" viewBox="0 0 250 250" enable-background="new 0 0 250 250" xml:space="preserve">
<g>
	<path fill-rule="evenodd" clip-rule="evenodd" stroke="#FFFFFF" stroke-width="2" stroke-miterlimit="10" d="M175.078,100.254
		c-2.088,2.884-5.024,4-8.461,3.98c-2.064-0.011-3.982-0.607-5.685-1.798c-0.427-0.299-0.749-0.316-1.074,0.112
		c-0.116,0.155-0.273,0.279-0.41,0.417c-14.406,14.406-28.81,28.811-43.22,43.211c-0.275,0.275-0.608,0.492-1.089,0.873
		c0.787,0.73,1.437,1.307,2.052,1.916c1.76,1.742,3.511,3.496,5.256,5.254c1.335,1.344,1.33,2.324-0.018,3.674
		c-4.998,5.006-10,10.008-15.001,15.008c-3.144,3.143-6.88,5.096-11.322,5.633c-0.154,0.018-0.299,0.107-0.449,0.164
		c-1.239,0-2.478,0-3.717,0c-0.182-0.061-0.359-0.146-0.545-0.176c-7.673-1.221-12.852-5.484-15.482-12.785
		c-0.469-1.303-0.668-2.703-0.992-4.059c0-1.238,0-2.479,0-3.717c0.29-1.264,0.511-2.547,0.884-3.785
		c0.928-3.088,2.637-5.715,4.912-7.986c5.003-4.998,10.002-10,15.006-14.998c1.379-1.375,2.333-1.363,3.743,0.045
		c2.328,2.322,4.648,4.654,7.291,7.301c0.198-0.371,0.303-0.754,0.547-0.998c14.484-14.503,28.976-29.001,43.486-43.479
		c0.582-0.58,0.69-0.965,0.223-1.7c-2.613-4.104-2.024-9.572,1.354-13.063c0.288-0.296,0.663-0.506,0.998-0.757
		c0.326,0,0.652,0,0.979,0c0.517,0.387,1.088,0.717,1.541,1.168c6.021,5.996,12.029,12.004,18.026,18.026
		c0.45,0.453,0.781,1.025,1.168,1.542C175.078,99.602,175.078,99.928,175.078,100.254z M97.641,135.234
		c-5.044,4.961-10.228,9.781-15.083,14.914c-4.965,5.248-4.813,13.998-0.016,19.408c5.87,6.621,15.592,6.908,21.963,0.607
		c4.588-4.535,9.129-9.117,13.689-13.682c0.132-0.131,0.245-0.279,0.256-0.291c-3.059-3.059-6.065-6.064-9.108-9.107
		c-1.917,1.924-3.906,3.941-5.924,5.93c-0.958,0.943-2.139,1.002-2.964,0.221c-0.853-0.807-0.806-2.029,0.149-3.035
		c0.695-0.73,1.42-1.436,2.139-2.146c1.312-1.295,2.627-2.588,3.883-3.824C103.527,141.129,100.54,138.137,97.641,135.234z
		 M112.526,144.096c14.93-14.93,29.855-29.856,44.72-44.72c-0.989-0.99-2.015-2.016-2.943-2.945
		c-14.881,14.881-29.822,29.823-44.72,44.721C110.522,142.09,111.528,143.096,112.526,144.096z M154.116,83.81
		c-1.145,1.526-1.22,4.955,0.603,6.943c2.617,2.853,5.373,5.594,8.234,8.203c1.887,1.719,5.272,1.722,6.854,0.563
		C164.58,94.286,159.344,89.043,154.116,83.81z"/>
	<path fill-rule="evenodd" clip-rule="evenodd" fill="#FFFFFF" stroke="#FFFFFF" stroke-width="2" stroke-miterlimit="10" d="
		M74.921,161.678c0.324,1.355,0.522,2.756,0.992,4.059c2.63,7.301,7.809,11.564,15.482,12.785c0.187,0.029,0.364,0.115,0.545,0.176
		c-5.657,0-11.313,0-17.019,0C74.921,173.023,74.921,167.352,74.921,161.678z"/>
	<path fill-rule="evenodd" clip-rule="evenodd" stroke="#FFFFFF" stroke-width="2" stroke-miterlimit="10" d="M99.816,155.879
		c-0.015,1.213-1.751,2.93-2.962,2.928c-1.499,0-2.501-1.645-1.68-2.898c0.449-0.686,1.083-1.322,1.773-1.76
		C98.209,153.348,99.835,154.379,99.816,155.879z"/>
</g>
</svg>
