<?xml version="1.0" encoding="iso-8859-1"?>
<!-- Generator: Adobe Illustrator 19.0.0, SVG Export Plug-In . SVG Version: 6.00 Build 0)  -->
<svg version="1.1" id="Capa_1" xmlns="http://www.w3.org/2000/svg" xmlns:xlink="http://www.w3.org/1999/xlink" x="0px" y="0px"
	 viewBox="0 0 512 512" style="enable-background:new 0 0 512 512;" xml:space="preserve">
<g>
	<g>
		<path d="M168.657,399.221l-55.879-55.879c-4.249-4.25-9.9-6.59-15.908-6.59c-12.26,0-22.499,10.253-22.499,22.498
			c0,6.011,2.341,11.661,6.59,15.909l55.879,55.879c4.249,4.249,9.899,6.59,15.908,6.59c12.271,0,22.499-10.239,22.499-22.499
			C175.246,409.119,172.906,403.469,168.657,399.221z M152.747,422.628c-2.003,0-3.886-0.78-5.303-2.196l-55.88-55.879
			c-1.416-1.416-2.196-3.299-2.196-5.303c0-4.09,3.418-7.499,7.5-7.499c2.003,0,3.887,0.78,5.303,2.196l55.879,55.879
			c1.416,1.416,2.197,3.3,2.197,5.302C160.247,419.226,156.842,422.628,152.747,422.628z"/>
	</g>
</g>
<g>
	<g>
		<path d="M503.888,68.275c6.196-6.863,8.989-16.137,7.872-26.31c-1.112-10.136-6.037-20.03-13.868-27.86
			c-8.963-8.963-20.672-14.104-32.127-14.104c-8.459,0-16.224,2.867-22.047,8.105l-5.728-5.729c-2.929-2.929-7.678-2.929-10.606,0
			c-2.929,2.929-2.929,7.678,0,10.606l5.698,5.698l-7.57,7.57l-5.699-5.698c-2.929-2.929-7.677-2.929-10.607,0
			c-2.929,2.929-2.929,7.678,0,10.607l5.698,5.698l-7.57,7.57l-5.698-5.698c-2.929-2.929-7.678-2.929-10.606,0
			c-2.929,2.929-2.929,7.678,0,10.607l6.144,6.144l-12.292,27.631l-88.304,88.304c-23.522-20.717-51.61-28.377-78.052-21.017
			c-32.313,8.995-57.561,38.453-67.538,78.8c-3.88,15.69-34.474,8.355-45.587,10.31c-21.445,3.772-44.394,14.547-62.962,29.561
			c-3.221,2.604-3.721,7.327-1.117,10.547c2.604,3.221,7.326,3.721,10.547,1.117c16.651-13.464,37.109-23.105,56.127-26.451
			c18.988-3.341,51.202,4.195,57.552-21.48c8.661-35.026,29.969-60.428,57-67.953c21.48-5.98,43.763,0.12,63.413,17.183
			l-48.23,48.231c-2.185-0.452-4.405-0.772-6.653-0.966c-13.523-1.188-27.417,2.678-38.391,10.662
			c-14.6,10.623-23.376,27.867-23.376,45.918c0,30.903,25.911,56.806,56.805,56.806c16.257,0,32.357-7.38,42.981-19.685
			c11.483-13.299,16.187-31.529,12.634-48.733l48.23-48.23c17.063,19.649,23.163,41.934,17.184,63.414
			c-7.525,27.031-32.928,48.339-67.957,57c-25.542,6.321-18.166,38.73-21.476,57.548c-6.598,37.51-38.814,83.087-79.356,91.316
			c-17.018,3.454-62.283,5.811-114.883-46.79c-52.6-52.6-50.244-97.864-46.789-114.883c2.27-11.184,7.476-22.204,15.472-32.756
			c2.502-3.301,1.854-8.005-1.447-10.508c-3.3-2.501-8.005-1.854-10.507,1.447c-9.369,12.36-15.497,25.425-18.218,38.833
			c-4.574,22.533-1.24,46.383,9.909,70.888c11.461,25.19,28.608,45.219,40.975,57.586c12.367,12.367,32.395,29.514,57.586,40.976
			c17.405,7.919,34.48,11.896,50.989,11.896c6.732,0,13.371-0.661,19.898-1.986c47.356-9.611,83.532-60.129,91.146-103.416
			c1.868-10.621-4.477-41.931,10.307-45.586c40.349-9.977,69.808-35.225,78.802-67.539c7.361-26.442-0.3-54.53-21.017-78.052
			l47.484-47.484c2.929-2.929,2.929-7.678,0-10.606c-2.929-2.929-7.678-2.929-10.606,0c0,0-52.609,52.609-52.614,52.614
			l-48.801,48.802c-0.972-1.783-2.049-3.514-3.22-5.199c-1.941-2.791-4.133-5.429-6.538-7.834
			c-3.848-3.848-8.255-7.152-13.032-9.757L391.171,98.037l22.789,22.789l-15.288,15.288c-2.929,2.929-2.929,7.677,0,10.606
			s7.678,2.929,10.606,0l19.608-19.608l27.63-12.291c0,0,6.141,6.141,6.143,6.144c2.896,2.897,7.707,2.899,10.607,0
			c2.929-2.929,2.929-7.678,0-10.607l-5.698-5.698l7.57-7.571c0,0,5.694,5.694,5.698,5.698c2.898,2.898,7.71,2.898,10.607,0
			c2.929-2.929,2.929-7.678,0-10.606l-5.698-5.698l7.571-7.57l5.698,5.698c2.9,2.899,7.71,2.896,10.607,0
			c2.929-2.929,2.929-7.678,0-10.606L503.888,68.275z M267.857,288.016c-1.498,32.827-42.553,52.376-68.099,30.314
			c-0.011-0.009-0.022-0.018-0.033-0.026c-9.689-7.926-15.413-19.897-15.413-32.424c0-20.82,16.066-38.951,36.712-41.489
			c0.118-0.014,0.236-0.03,0.354-0.043C246.173,241.477,268.982,263.387,267.857,288.016z M492.193,58.824l-42.711,42.711
			l-23.256,10.345l-26.109-26.108l10.345-23.256l42.713-42.711c3.969-3.969,9.038-4.803,12.592-4.803
			c7.506,0,15.35,3.539,21.52,9.71c5.426,5.426,8.822,12.135,9.564,18.891C497.523,49.742,495.869,55.148,492.193,58.824z"/>
	</g>
</g>
<g>
	<g>
		<path d="M464.744,29.134c-2.929-2.929-7.678-2.929-10.606,0l-36.353,36.353c-2.929,2.929-2.929,7.677,0,10.606
			c2.898,2.897,7.711,2.896,10.606,0l36.353-36.353C467.673,36.81,467.673,32.063,464.744,29.134z"/>
	</g>
</g>
<g>
	<g>
		<path d="M482.862,47.253c-2.929-2.929-7.677-2.929-10.606,0l-36.353,36.353c-2.928,2.928-2.928,7.676,0,10.606
			c2.803,2.803,7.664,2.941,10.606,0l36.353-36.353C485.791,54.93,485.791,50.182,482.862,47.253z"/>
	</g>
</g>
<g>
</g>
<g>
</g>
<g>
</g>
<g>
</g>
<g>
</g>
<g>
</g>
<g>
</g>
<g>
</g>
<g>
</g>
<g>
</g>
<g>
</g>
<g>
</g>
<g>
</g>
<g>
</g>
<g>
</g>
</svg>
