<?xml version="1.0" encoding="utf-8"?>
<!-- Generator: Adobe Illustrator 19.2.1, SVG Export Plug-In . SVG Version: 6.00 Build 0)  -->
<svg version="1.1" id="Ebene_1" xmlns="http://www.w3.org/2000/svg" xmlns:xlink="http://www.w3.org/1999/xlink" x="0px" y="0px"
	 viewBox="0 0 884.2 1137.7" style="enable-background:new 0 0 884.2 1137.7;" xml:space="preserve">
<style type="text/css">
	.st0{fill:#0091EA;}
</style>
<path class="st0" d="M342.6,110.1c-31.8,0-57.6,25.8-57.6,57.6s25.8,57.6,57.6,57.6s57.6-25.8,57.6-57.6S374.4,110.2,342.6,110.1z
	 M342.6,216.7c-27,0-48.9-21.9-48.9-48.9s21.9-48.9,48.9-48.9s48.9,21.9,48.9,48.9S369.6,216.7,342.6,216.7z"/>
<path class="st0" d="M342.6,146.9c-11.5,0-20.9,9.4-20.9,20.9s9.4,20.9,20.9,20.9s20.9-9.4,20.9-20.9S354.1,146.9,342.6,146.9z"/>
<g>
	<path class="st0" d="M320.8,624.9c-14,0-25.4-11.4-25.4-25.4c0-14,11.4-25.4,25.4-25.4s25.4,11.4,25.4,25.4
		C346.2,613.5,334.8,624.9,320.8,624.9z M320.8,583.1c-9,0-16.4,7.4-16.4,16.4s7.4,16.4,16.4,16.4s16.4-7.4,16.4-16.4
		S329.8,583.1,320.8,583.1z"/>
</g>
<g>
	<path class="st0" d="M440.4,623.2c-14,0-25.4-11.4-25.4-25.4c0-14,11.4-25.4,25.4-25.4c14,0,25.4,11.4,25.4,25.4
		C465.8,611.8,454.4,623.2,440.4,623.2z M440.4,581.4c-9,0-16.4,7.4-16.4,16.4s7.4,16.4,16.4,16.4s16.4-7.4,16.4-16.4
		S449.4,581.4,440.4,581.4z"/>
</g>
<g>
	<path class="st0" d="M560.6,623.2c-14,0-25.4-11.4-25.4-25.4c0-14,11.4-25.4,25.4-25.4c14,0,25.4,11.4,25.4,25.4
		C586,611.8,574.6,623.2,560.6,623.2z M560.6,581.4c-9,0-16.4,7.4-16.4,16.4s7.4,16.4,16.4,16.4s16.4-7.4,16.4-16.4
		S569.6,581.4,560.6,581.4z"/>
</g>
<path class="st0" d="M543.9,110.1c-31.8,0-57.6,25.8-57.6,57.6s25.8,57.6,57.6,57.6c31.8,0,57.6-25.8,57.6-57.6
	S575.7,110.2,543.9,110.1z M543.9,216.7c-27,0-48.9-21.9-48.9-48.9s21.9-48.9,48.9-48.9s48.9,21.9,48.9,48.9
	S570.9,216.7,543.9,216.7z"/>
<path class="st0" d="M543.9,146.9c-11.5,0-20.9,9.4-20.9,20.9s9.4,20.9,20.9,20.9s20.9-9.4,20.9-20.9S555.4,146.9,543.9,146.9z"/>
<g>
	<path class="st0" d="M528.6,259.1H355c-22.4,0-40.6,18.2-40.6,40.5s18.2,40.5,40.6,40.5h173.6c22.4,0,40.6-18.2,40.6-40.5
		S550.9,259.1,528.6,259.1z M560.2,296.3h-16.8v-24.8C552.6,276.4,559.1,285.5,560.2,296.3z M534.7,268.4v27.9h-19.3v-28.5h13.1
		C530.7,267.8,532.7,268,534.7,268.4z M459.5,267.8h19.3v28.5h-19.3V267.8z M431.6,267.8h19.2v28.5h-19.3v-28.5H431.6z M403.6,267.8
		h19.3v28.5h-19.3V267.8z M375.6,267.8h19.3v28.5h-19.3V267.8z M394.9,305v26.5h-19.3V305H394.9z M403.6,305h19.3v26.5h-19.3V305z
		 M431.6,305h19.2v26.5h-19.3V305H431.6z M459.5,305h19.3v26.5h-19.3V305z M487.5,305h19.3v26.5h-19.3V305z M487.5,296.3v-28.5h19.3
		v28.5H487.5z M366.9,267.8v28.5h-19.3v-27.7c2.3-0.6,4.8-0.9,7.3-0.9h12V267.8z M339,272.1v24.2h-15.7
		C324.4,286,330.4,277.1,339,272.1z M323.6,305H339v22.2C331,322.5,325.2,314.5,323.6,305z M347.7,330.7V305H367v26.5h-12
		C352.4,331.5,350,331.2,347.7,330.7z M515.5,331.5V305h19.3v25.9c-2,0.4-4.1,0.6-6.2,0.6H515.5z M543.4,327.8V305h16.5
		C558.3,314.9,552,323.3,543.4,327.8z"/>
</g>
<path class="st0" d="M585.2,471.7c4.5,0,8.1,3.6,8.1,8.1v50.5c0,4.5-3.6,8.1-8.1,8.1H295.5c-4.5,0-8.1-3.6-8.1-8.1v-50.5
	c0-4.5,3.6-8.1,8.1-8.1H585.2 M585.2,462.7H295.5c-9.4,0-17.1,7.7-17.1,17.1v50.5c0,9.4,7.7,17.1,17.1,17.1h289.6
	c9.4,0,17.1-7.7,17.1-17.1v-50.5C602.3,470.3,594.6,462.7,585.2,462.7L585.2,462.7z"/>
<g>
	<path class="st0" d="M883.5,301.7c0.9-7.2,0.7-14.5,0.6-21.6c-0.1-2.6-0.1-5.4-0.1-8v-3.8h-44.1v14c0,5.2,0,11-0.8,16.4
		c-1.2,7.6-8.2,13.5-15.9,13.5c-5.2,0-10.1-2.6-13.1-6.9c-3-4.4-3.7-9.3-3.7-15.2v-21.8h-42.3v3.8c0,2.3,0,4.6-0.1,6.9
		c-0.2,14.3-0.4,29,6.7,42.7c5.7,11.1,14.9,20.2,25.9,25.9h-8.8v135.9c-5.7,5.7-9.8,12.8-12,20.8l-87,48.8v-110
		c0-19.3-15.7-35-35-35h-138v-25.2h88.2c25.8,0,46.8-21,46.8-46.8V244h18.7c4.6,0,8.4-3.8,8.4-8.4v-19h7.2c3.5,0,6.3-2.8,6.3-6.3
		v-42.6c0.1-3.6-2.7-6.4-6.2-6.4h-7.2v-14.8c0-4.6-3.8-8.4-8.4-8.4H651V92.3c0-25.8-21-46.8-46.8-46.8h-86.1
		C502.6,17.8,472.9,0,441.8,0c-31.2,0-60.8,17.8-76.3,45.4h-86.1c-25.8,0-46.8,21-46.8,46.8V138h-18.7c-4.6,0-8.4,3.8-8.4,8.4v14.8
		h-7.3c-3.5,0-6.3,2.8-6.3,6.3v42.6c0,3.5,2.8,6.3,6.3,6.3h7.2v19c0,4.6,3.8,8.4,8.4,8.4h18.7v92.3c0,25.8,21,46.8,46.8,46.8h87.1
		v25.2H229.7c-19.3,0-35,15.7-35,35v109.7l-86.3-48.4c-2.1-8-6.3-15.1-12-20.8V347.8h-8.8c11.1-5.7,20.2-14.7,25.9-25.9
		c7.1-13.7,6.9-28.5,6.7-42.7c0-2.3-0.1-4.6-0.1-6.9v-3.8H77.8v21.8c0,5.9-0.6,10.8-3.7,15.2c-3,4.3-7.9,6.9-13.1,6.9
		c-7.8,0-14.8-5.9-15.9-13.5c-0.8-5.3-0.8-11.2-0.8-16.4v-14H0.2v3.8c0,2.6-0.1,5.4-0.1,8c-0.2,7.1-0.3,14.4,0.6,21.6
		c1.8,14.3,8.9,27.6,19.9,37.4c3.8,3.4,8,6.2,12.5,8.5h-9.3v144.1c-0.3,0.4-0.6,0.9-0.8,1.3c-6.2,10.8-7.9,23.3-4.7,35.3
		c3.2,12,10.9,22.1,21.7,28.3c7.2,4.1,15.1,6.3,23.2,6.3l131.4,72.8v194c0,19.3,15.7,35,35,35h49.6v205.5H257
		c-8.3,0-15.1,6.8-15.1,15.1v37.1c0,8.3,6.8,15.1,15.1,15.1h130.9c8.3,0,15.1-6.8,15.1-15.1v-37.1c0-8.3-6.8-15.1-15.1-15.1h-22.3
		V864.9h149.4v205.5h-20c-8.3,0-15.1,6.8-15.1,15.1v37.1c0,8.3,6.8,15.1,15.1,15.1H626c8.3,0,15.1-6.8,15.1-15.1v-37.1
		c0-8.3-6.8-15.1-15.1-15.1h-24.6V864.9h52.4c19.3,0,35-15.7,35-35V636.2L820.9,563c8.1,0,16-2.1,23.2-6.3
		c10.8-6.2,18.5-16.3,21.7-28.3c3.2-12,1.6-24.6-4.7-35.3c-0.3-0.5-0.5-0.9-0.8-1.3V347.6h-9.3c4.4-2.3,8.6-5.1,12.5-8.5
		C874.7,329.4,881.7,316.1,883.5,301.7z M678,170h4.9v37.9H678V170z M651,146.7h18.4v20.9v42.6v25.1H651V146.7z M205.5,207.9h-4.9
		V170h4.9V207.9z M214.1,235.3v-24.9c0-0.1,0-0.1,0-0.2v-42.6c0-0.1,0-0.1,0-0.2v-20.7h18.4v88.6H214.1z M441.8,9
		c26.1,0,51.1,14,65.6,36.2H376.2C390.6,23,415.6,9,441.8,9z M241.3,336.3v-244c0-21,17.1-38.1,38.1-38.1h324.8
		c21,0,38.1,17.1,38.1,38.1v54.1v89.1v100.8c0,21-17.1,38.1-38.1,38.1H279.4C258.4,374.4,241.3,357.3,241.3,336.3z M8.2,300.9
		c-0.8-6.6-0.7-13.7-0.5-20.5c0-1.5,0.1-2.9,0.1-4.4h29.1v6.5c0,5.2,0,11.6,0.9,17.5c1.7,11.3,11.8,19.9,23.4,19.9
		c7.7,0,14.9-3.8,19.3-10.2c4.4-6.4,5-13.1,5-19.4V276h27.3c0,1.1,0,2.2,0,3.3c0.2,13.9,0.4,27.1-5.9,39.2
		c-5.6,10.9-15,19.6-26.3,24.3c-6.3,2.7-13.4,4.1-20.3,4.1C34.2,346.9,11.4,326.7,8.2,300.9z M31.4,355.3h57.5v12.9H31.4V355.3z
		 M31.4,375.4h57.5v16.2H31.4V375.4z M31.4,398.8h57.5V415H31.4V398.8z M31.4,422.2h57.5v16.2H31.4V422.2z M31.4,445.6h57.5v16.2
		H31.4V445.6z M31.4,469h57.5v8.6c-0.7-0.5-1.4-0.9-2.2-1.4c-10.8-6.2-23.3-7.9-35.3-4.7c-7.6,2-14.4,5.9-20,11.1V469z M43.8,550.4
		c-9-5.2-15.5-13.6-18.2-23.7S24.3,506,29.6,497c5.2-9,13.6-15.5,23.7-18.2c3.4-0.9,6.8-1.3,10.2-1.3c6.8,0,13.5,1.8,19.5,5.3
		c9,5.2,15.5,13.6,18.2,23.7c2.7,10.1,1.3,20.6-3.9,29.6c-5.2,9-13.6,15.5-23.7,18.2C63.4,557,52.9,555.6,43.8,550.4z M76,561.4
		c11.8-3.3,21.6-10.9,27.7-21.5c4.6-8,6.7-16.9,6.2-25.9l10.8,6.1l-27.9,50.3L76,561.4z M99.1,573.9l27.9-50.3l14.1,7.9l-27.8,50.3
		L99.1,573.9z M119.6,585.3l27.8-50.3l14.1,7.9l-27.8,50.3L119.6,585.3z M140,596.7l27.8-50.3l14.1,7.9l-27.8,50.3L140,596.7z
		 M194.7,627.3l-13.8-7.7l13.8-24.9V627.3z M194.7,579.8l-20.1,36.3l-14.2-7.9l27.8-50.3l6.4,3.6V579.8z M506.9,391.3H375.3v-7.9
		h131.5V391.3z M375.3,400.3h131.5v7.8H375.3V400.3z M387.9,1079.5c3.3,0,6.1,2.7,6.1,6.1v37.1c0,3.3-2.7,6.1-6.1,6.1H257
		c-3.3,0-6.1-2.7-6.1-6.1v-37.1c0-3.3,2.7-6.1,6.1-6.1h22.3h86.4H387.9z M356.7,888.4v19.4h-68.4v-19.4H356.7z M288.3,879.8v-14.9
		h68.4v14.9H288.3z M356.7,916.4v19.4h-68.4v-19.4H356.7z M356.7,944.4v19.4h-68.4v-19.4H356.7z M356.7,972.4v19.4h-68.4v-19.4
		H356.7z M356.7,1000.4v19.4h-68.4v-19.4H356.7z M356.7,1028.4v19.4h-68.4v-19.4H356.7z M356.7,1056.4v14.1h-68.4v-14.1H356.7z
		 M626,1079.5c3.3,0,6.1,2.7,6.1,6.1v37.1c0,3.3-2.7,6.1-6.1,6.1H495.1c-3.3,0-6.1-2.7-6.1-6.1v-37.1c0-3.3,2.7-6.1,6.1-6.1h20h86.4
		H626z M592.5,888.4v19.4h-68.4v-19.4H592.5z M524.1,879.8v-14.9h68.4v14.9H524.1z M592.5,916.4v19.4h-68.4v-19.4H592.5z
		 M592.5,944.4v19.4h-68.4v-19.4H592.5z M592.5,972.4v19.4h-68.4v-19.4H592.5z M592.5,1000.4v19.4h-68.4v-19.4H592.5z M592.5,1028.4
		v19.4h-68.4v-19.4H592.5z M592.5,1056.4v14.1h-68.4v-14.1H592.5z M679.9,829.9c0,14.4-11.6,26-26,26H229.7c-14.4,0-26-11.6-26-26
		V443.1c0-14.4,11.6-26,26-26h136.7v0.1h149.5v-0.1h138c14.4,0,26,11.6,26,26V829.9z M795.4,375.2h57.5v16.2h-57.5V375.2z
		 M795.4,398.6h57.5v16.2h-57.5V398.6z M795.4,422h57.5v16.2h-57.5V422z M795.4,445.4h57.5v16.2h-57.5V445.4z M795.4,468.8h57.5
		v13.7c-5.6-5.3-12.4-9.1-20-11.1c-12-3.2-24.6-1.6-35.3,4.7c-0.7,0.4-1.5,0.9-2.2,1.4V468.8z M688.9,627.5v-34.3l14.5,26.2
		L688.9,627.5z M709.7,615.9l-20.8-37.6v-16.6l7.1-4l27.8,50.3L709.7,615.9z M730.1,604.5l-27.8-50.3l14.1-7.9l27.8,50.3
		L730.1,604.5z M750.5,593.1l-27.8-50.3l14.1-7.9l27.8,50.3L750.5,593.1z M771,581.7l-27.8-50.3l14.1-7.9l27.9,50.3L771,581.7z
		 M791.4,570.3l-27.9-50.3l10.8-6.1c-0.5,9,1.6,17.9,6.2,25.9c6.1,10.6,16,18.2,27.7,21.5L791.4,570.3z M858.6,526.5
		c-2.7,10.1-9.2,18.5-18.2,23.7c-9,5.2-19.6,6.6-29.6,3.9c-10.1-2.7-18.5-9.2-23.7-18.2c-5.2-9-6.6-19.6-3.9-29.6
		s9.2-18.5,18.2-23.7c6-3.5,12.7-5.3,19.5-5.3c3.4,0,6.8,0.4,10.2,1.3c10.1,2.7,18.5,9.2,23.7,18.2
		C859.9,505.9,861.3,516.4,858.6,526.5z M852.9,355.2V368h-57.5v-12.9H852.9z M824.1,346.7c-6.9,0-14-1.4-20.3-4.1
		c-11.3-4.8-20.7-13.4-26.3-24.3c-6.2-12.1-6.1-25.2-5.9-39.2c0-1.1,0-2.2,0-3.3h27.3v14.3c0,6.3,0.6,13.1,5,19.4
		c4.4,6.4,11.6,10.2,19.3,10.2c11.6,0,21.6-8.5,23.4-19.9c0.9-5.9,0.9-12.3,0.9-17.5v-6.5h29.1c0,1.5,0.1,3,0.1,4.4
		c0.1,6.8,0.3,13.9-0.5,20.5C872.8,326.6,850,346.7,824.1,346.7z"/>
	<path class="st0" d="M821.9,495.2c-11.7,0-21.2,9.5-21.2,21.2c0,11.7,9.5,21.2,21.2,21.2c11.7,0,21.2-9.5,21.2-21.2
		C843.1,504.7,833.6,495.2,821.9,495.2z M821.9,530.1c-7.6,0-13.7-6.1-13.7-13.7c0-7.6,6.1-13.7,13.7-13.7c7.6,0,13.7,6.1,13.7,13.7
		C835.6,524,829.4,530.1,821.9,530.1z"/>
	<path class="st0" d="M62.4,495.3c-11.7,0-21.2,9.5-21.2,21.2c0,11.7,9.5,21.2,21.2,21.2c11.7,0,21.2-9.5,21.2-21.2
		C83.6,504.8,74.1,495.3,62.4,495.3z M62.4,530.2c-7.6,0-13.7-6.1-13.7-13.7c0-7.6,6.1-13.7,13.7-13.7c7.6,0,13.7,6.1,13.7,13.7
		C76.1,524.1,69.9,530.2,62.4,530.2z"/>
</g>
</svg>
