<?xml version="1.0" encoding="utf-8"?>
<!-- Generator: Adobe Illustrator 19.2.1, SVG Export Plug-In . SVG Version: 6.00 Build 0)  -->
<svg version="1.1" id="Ebene_1" xmlns="http://www.w3.org/2000/svg" xmlns:xlink="http://www.w3.org/1999/xlink" x="0px" y="0px"
	 viewBox="0 0 500 383.5" style="enable-background:new 0 0 500 383.5;" xml:space="preserve">
<style type="text/css">
	.st0{fill:#0091EA;}
</style>
<title>taskomat-logo</title>
<path class="st0" d="M493.5,161.3h-7.2v-14.8c0-4.6-3.8-8.4-8.4-8.4h-18.7V92.3c0-25.8-21-46.8-46.8-46.8h-86.1
	C310.8,17.8,281.1,0,250,0c-31.2,0-60.8,17.8-76.3,45.4H87.6c-25.8,0-46.8,21-46.8,46.8V138H22.1c-4.6,0-8.4,3.8-8.4,8.4v14.8H6.4
	c-3.5,0-6.3,2.8-6.3,6.3v42.6c0,3.5,2.8,6.3,6.3,6.3h7.2v19c0,4.6,3.8,8.4,8.4,8.4h18.7v92.3c0,25.8,21,46.8,46.8,46.8h324.8
	c25.8,0,46.8-21,46.8-46.8V244h18.7c4.6,0,8.4-3.8,8.4-8.4v-19h7.2c3.5,0,6.3-2.8,6.3-6.3v-42.6C499.8,164.1,497,161.3,493.5,161.3z
	 M8.8,207.9V170h4.9v37.9H8.8z M40.8,235.3H22.3v-24.9c0-0.1,0-0.1,0-0.2v-42.6c0-0.1,0-0.1,0-0.2v-20.7h18.4V235.3z M250,9
	c26.1,0,51.1,14,65.6,36.2H184.4C198.8,23,223.8,9,250,9z M450.5,146.4v89.1v100.8c0,21-17.1,38.1-38.1,38.1H87.6
	c-21,0-38.1-17.1-38.1-38.1v-244c0-21,17.1-38.1,38.1-38.1h324.8c21,0,38.1,17.1,38.1,38.1V146.4z M477.6,167.6v42.6v25.1h-18.4
	v-88.6h18.4V167.6z M491.1,207.9h-4.9V170h4.9V207.9z"/>
<path class="st0" d="M150.8,110.1c-31.8,0-57.6,25.8-57.6,57.6s25.8,57.6,57.6,57.6s57.6-25.8,57.6-57.6
	C208.4,135.9,182.6,110.2,150.8,110.1z M150.8,216.7c-27,0-48.9-21.9-48.9-48.9s21.9-48.9,48.9-48.9s48.9,21.9,48.9,48.9
	S177.8,216.7,150.8,216.7z"/>
<path class="st0" d="M150.8,146.9c-11.5,0-20.9,9.4-20.9,20.9s9.4,20.9,20.9,20.9s20.9-9.4,20.9-20.9S162.3,146.9,150.8,146.9z"/>
<path class="st0" d="M352.1,110.1c-31.8,0-57.6,25.8-57.6,57.6s25.8,57.6,57.6,57.6s57.6-25.8,57.6-57.6
	C409.7,135.9,383.9,110.2,352.1,110.1z M352.1,216.7c-27,0-48.9-21.9-48.9-48.9s21.9-48.9,48.9-48.9c27,0,48.9,21.9,48.9,48.9
	S379.1,216.7,352.1,216.7z"/>
<path class="st0" d="M352.1,146.9c-11.5,0-20.9,9.4-20.9,20.9s9.4,20.9,20.9,20.9s20.9-9.4,20.9-20.9S363.6,146.9,352.1,146.9z"/>
<g>
	<path class="st0" d="M336.8,259.1H163.2c-22.4,0-40.6,18.2-40.6,40.5s18.2,40.5,40.6,40.5h173.6c22.4,0,40.6-18.2,40.6-40.5
		S359.1,259.1,336.8,259.1z M368.4,296.3h-16.8v-24.8C360.8,276.4,367.3,285.5,368.4,296.3z M342.9,268.4v27.9h-19.3v-28.5h13.1
		C338.9,267.8,340.9,268,342.9,268.4z M267.7,267.8H287v28.5h-19.3V267.8z M239.8,267.8H259v28.5h-19.3V267.8z M211.8,267.8h19.3
		v28.5h-19.3V267.8z M183.8,267.8h19.3v28.5h-19.3V267.8z M203.1,305v26.5h-19.3V305H203.1z M211.8,305h19.3v26.5h-19.3V305z
		 M239.8,305H259v26.5h-19.3V305z M267.7,305H287v26.5h-19.3V305z M295.7,305H315v26.5h-19.3V305z M295.7,296.3v-28.5H315v28.5
		H295.7z M175.1,267.8v28.5h-19.3v-27.7c2.3-0.6,4.8-0.9,7.3-0.9H175.1z M147.2,272.1v24.2h-15.7C132.6,286,138.6,277.1,147.2,272.1
		z M131.8,305h15.4v22.2C139.2,322.5,133.4,314.5,131.8,305z M155.9,330.7V305h19.3v26.5h-12C160.6,331.5,158.2,331.2,155.9,330.7z
		 M323.7,331.5V305h19.3v25.9c-2,0.4-4.1,0.6-6.2,0.6H323.7z M351.6,327.8V305h16.5C366.5,314.9,360.2,323.3,351.6,327.8z"/>
</g>
</svg>
