<?xml version="1.0" encoding="utf-8"?>
<!-- Generator: Adobe Illustrator 16.0.0, SVG Export Plug-In . SVG Version: 6.00 Build 0)  -->
<!DOCTYPE svg PUBLIC "-//W3C//DTD SVG 1.1//EN" "http://www.w3.org/Graphics/SVG/1.1/DTD/svg11.dtd">
<svg version="1.1" id="Layer_1" xmlns="http://www.w3.org/2000/svg" xmlns:xlink="http://www.w3.org/1999/xlink" x="0px" y="0px"
	 width="250px" height="250px" viewBox="0 0 250 250" enable-background="new 0 0 250 250" xml:space="preserve">
<path fill-rule="evenodd" clip-rule="evenodd" stroke="#FFFFFF" stroke-width="4" stroke-miterlimit="10" d="M8,213.206
	c20.901-39.018,41.803-78.035,62.706-117.052c0.326-0.609,0.633-1.231,1.005-1.812c2.532-3.946,7.627-3.941,10.025,0.085
	c1.49,2.502,2.769,5.132,4.131,7.709c4.801,9.086,9.598,18.174,14.599,27.645c1.948-3.632,3.741-6.967,5.527-10.308
	C118.997,95.146,132,70.818,144.994,46.485c1.215-2.276,3.018-3.784,5.631-3.738c2.838,0.049,4.492,1.918,5.752,4.313
	c14.59,27.735,29.209,55.455,43.822,83.178c2.004,3.801,4.035,7.589,6.014,11.402c1.309,2.523,0.875,4.601-1.078,5.551
	c-1.869,0.911-3.689,0.092-4.996-2.322c-1.895-3.506-3.75-7.033-6.354-11.168c-0.355,0.676-0.6,1.447-1.086,2.01
	c-4.512,5.238-9.082,10.426-13.602,15.658c-3.4,3.935-7.051,3.943-10.441-0.061c-8.887-10.49-17.764-20.989-26.646-31.48
	c-0.486-0.573-1.02-1.103-1.688-1.819c-3.258,3.633-6.424,7.161-9.584,10.694c-1.639,1.832-3.237,3.702-4.904,5.508
	c-3.054,3.309-6.822,3.193-9.651-0.315c-1.925-2.387-3.767-4.842-5.651-7.262c-0.035-0.045-0.141-0.034-0.477-0.102
	c-1.753,3.279-3.584,6.61-5.29,10.005c-0.234,0.465-0.002,1.326,0.28,1.866c12.88,24.608,25.781,49.207,38.742,73.773
	c0.336,0.641,1.352,1.313,2.053,1.314c29.809,0.063,59.619,0.05,89.432,0.04c0.213,0,0.426-0.083,0.895-0.181
	c-0.385-0.813-0.703-1.555-1.078-2.268c-7.984-15.134-15.977-30.263-23.965-45.396c-0.357-0.677-0.779-1.339-1.021-2.059
	c-0.605-1.811-0.24-3.396,1.521-4.346c1.768-0.953,3.271-0.396,4.43,1.155c0.365,0.487,0.637,1.049,0.924,1.59
	c8.604,16.282,17.207,32.563,25.801,48.852c0.355,0.675,0.695,1.375,0.93,2.099c0.996,3.08-0.83,6.414-3.984,7.153
	c-1.107,0.26-2.283,0.3-3.43,0.3c-73.527,0.013-147.056,0-220.583,0.046c-3.591,0.004-6.311-0.996-7.71-4.505
	C8,215.05,8,214.128,8,213.206z M76.708,99.587c-10.628,19.827-21.068,39.306-31.571,58.902c3.505,2.932,6.887,5.762,10.34,8.649
	c3.918-4.377,7.62-8.582,11.405-12.712c2.451-2.674,5.672-3.068,8.193-0.81c3.028,2.713,5.891,5.62,8.693,8.568
	c1.468,1.545,1.237,3.66-0.229,4.915c-1.509,1.291-3.241,1.231-4.935-0.447c-2.338-2.319-4.537-4.78-6.907-7.298
	c-3.726,4.174-7.102,7.94-10.459,11.725c-3.85,4.337-6.456,4.516-10.936,0.744c-2.783-2.343-5.583-4.663-8.5-7.097
	c-8.749,16.33-17.352,32.391-26.08,48.684c40.495,0,80.606,0,121.115,0c-5.42-10.255-10.695-20.24-16.074-30.417
	c-3.022,2.778-5.823,5.394-8.668,7.96c-2.621,2.362-5.707,2.891-7.912,0.902c-3.701-3.34-7.201-6.912-10.643-10.523
	c-1.258-1.318-1.084-3.027,0.195-4.378c1.277-1.349,2.826-1.494,4.373-0.447c0.691,0.469,1.299,1.079,1.878,1.688
	c2.423,2.549,4.821,5.12,7.324,7.786c3.125-2.875,5.761-5.441,8.559-7.815c1.31-1.111,1.371-1.951,0.578-3.438
	c-8.481-15.909-16.881-31.861-25.302-47.803C86.416,117.976,81.691,109.024,76.708,99.587z M121.193,128.819
	c4.723-5.298,9.281-10.387,13.814-15.499c3.707-4.18,7.119-4.204,10.779,0.075c5.541,6.477,11.021,13.005,16.527,19.51
	c3.809,4.497,7.619,8.99,11.535,13.609c0.441-0.46,0.764-0.769,1.051-1.104c4.746-5.542,9.439-11.13,14.262-16.603
	c1.135-1.288,1.283-2.195,0.459-3.746c-12.648-23.813-25.221-47.665-37.818-71.505c-0.361-0.685-0.791-1.336-1.346-2.266
	c-2.01,3.748-3.852,7.181-5.691,10.614c-9.949,18.568-19.896,37.138-29.861,55.699c-0.561,1.045-1.033,1.856-0.03,3.046
	C117.048,123.227,119.016,125.977,121.193,128.819z"/>
</svg>
