<?xml version="1.0" encoding="utf-8"?>
<!-- Generator: Adobe Illustrator 16.0.0, SVG Export Plug-In . SVG Version: 6.00 Build 0)  -->
<!DOCTYPE svg PUBLIC "-//W3C//DTD SVG 1.1//EN" "http://www.w3.org/Graphics/SVG/1.1/DTD/svg11.dtd">
<svg version="1.1" id="Layer_1" xmlns="http://www.w3.org/2000/svg" xmlns:xlink="http://www.w3.org/1999/xlink" x="0px" y="0px"
	 width="250px" height="250px" viewBox="0 0 250 250" enable-background="new 0 0 250 250" xml:space="preserve">
<path fill-rule="evenodd" clip-rule="evenodd" stroke="#FFFFFF" stroke-width="2" stroke-miterlimit="10" d="M140.277,184.49
	c0.034-0.381,0.099-0.762,0.099-1.143c0.005-17.011,0.005-34.021,0.005-51.033c0-0.383,0-0.767,0-1.279c-3.172,0-6.277,0-9.474,0
	c0-6.428,0-12.729,0-19.116c13.936,0,27.875,0,41.901,0c0,6.302,0,12.603,0,19.037c-3.11,0-6.212,0-9.396,0
	c-0.031,0.497-0.075,0.869-0.075,1.24c-0.003,17.088-0.003,34.176,0.001,51.264c0,0.344,0.057,0.687,0.087,1.03
	C155.71,184.49,147.994,184.49,140.277,184.49z M157.528,127.075c0-3.85,0-7.567,0-11.289c-3.832,0-7.584,0-11.346,0
	c0,3.809,0,7.526,0,11.289C149.99,127.075,153.718,127.075,157.528,127.075z M144.213,145.84c5.143-1.029,10.178-2.037,15.214-3.045
	c0-1.909,0-3.736,0-5.65c-4.949,0.984-9.814,1.944-14.671,2.944c-0.22,0.045-0.512,0.449-0.519,0.693
	C144.191,142.432,144.213,144.084,144.213,145.84z M134.729,127.055c2.569,0,5.015,0,7.493,0c0-3.806,0-7.544,0-11.291
	c-2.543,0-4.988,0-7.493,0C134.729,119.544,134.729,123.257,134.729,127.055z M168.967,127.07c0-3.844,0-7.556,0-11.278
	c-2.547,0-5.017,0-7.495,0c0,3.809,0,7.52,0,11.278C163.997,127.07,166.443,127.07,168.967,127.07z M144.274,168.836
	c0,1.938,0,3.769,0,5.668c5.109-1.023,10.146-2.033,15.177-3.042c0-1.928,0-3.729,0-5.647
	C154.377,166.824,149.371,167.821,144.274,168.836z M144.255,155.39c5.156-1.033,10.17-2.037,15.155-3.037c0-1.926,0-3.747,0-5.655
	c-5.115,1.024-10.129,2.029-15.155,3.036C144.255,151.633,144.255,153.437,144.255,155.39z M144.259,159.286
	c0,1.907,0,3.706,0,5.494c0.118,0.031,0.194,0.078,0.26,0.065c4.826-0.945,9.652-1.888,14.473-2.865
	c0.201-0.041,0.478-0.399,0.483-0.616c0.04-1.682,0.021-3.365,0.021-5.127C154.356,157.266,149.349,158.268,144.259,159.286z
	 M144.282,131.027c0,1.801,0,3.473,0,5.236c5.122-1.023,10.157-2.03,15.138-3.025c0-0.828,0-1.504,0-2.211
	C154.348,131.027,149.353,131.027,144.282,131.027z M159.449,175.368c-5.115,1.023-10.154,2.031-15.165,3.033
	c0,0.805,0,1.482,0,2.157c5.097,0,10.12,0,15.165,0C159.449,178.812,159.449,177.163,159.449,175.368z"/>
<path fill-rule="evenodd" clip-rule="evenodd" stroke="#FFFFFF" stroke-width="2" stroke-miterlimit="10" d="M98.612,184.49
	c-1.243-0.379-2.553-0.615-3.717-1.162c-5.301-2.489-8.034-6.752-8.016-12.577c0.017-5.706,0.294-11.411,0.476-17.117
	c0.351-11.024,0.727-22.05,1.068-33.075c0.148-4.78,0.221-9.562,0.365-14.342c0.024-0.812-0.241-1.336-0.871-1.856
	c-2.582-2.132-5.233-4.178-7.167-7.005C72.507,85.3,79.92,68.324,94.378,66.218c0.335-0.049,0.662-0.162,0.993-0.245
	c2.469,0,4.938,0,7.407,0c-1.915,5.283-3.83,10.566-5.797,15.995c1.47,0.494,2.904,0.977,4.454,1.498
	c1.794-4.774,3.55-9.446,5.334-14.193c4.038,1.213,7.09,3.563,8.907,7.338c1.826,3.796,1.521,7.697,0.108,11.631
	c1.534,0.524,2.937,1.003,4.453,1.521c-0.471,0.838-0.877,1.569-1.293,2.296c-2.218,3.881-4.461,7.748-6.634,11.654
	c-0.353,0.635-0.572,1.445-0.557,2.168c0.169,8.175,0.37,16.35,0.615,24.524c0.33,10.988,0.725,21.975,1.051,32.963
	c0.094,3.156,0.334,6.348,0.002,9.469c-0.638,6-5.11,10.438-11.041,11.455c-0.182,0.031-0.352,0.131-0.527,0.199
	C100.772,184.49,99.692,184.49,98.612,184.49z M114.62,91.901c-7.557-2.524-15.021-5.017-22.565-7.537
	c1.759-4.871,3.477-9.626,5.246-14.524c-0.836,0.045-1.496,0.013-2.129,0.125c-6.667,1.179-11.297,4.914-13.266,11.396
	c-1.949,6.417-0.33,12.118,4.568,16.763c1.647,1.563,3.438,2.979,5.214,4.4c0.661,0.529,0.954,1.063,0.929,1.935
	c-0.191,6.668-0.294,13.339-0.494,20.006c-0.327,10.908-0.722,21.814-1.053,32.723c-0.149,4.894-0.343,9.792-0.273,14.686
	c0.053,3.699,2.855,7.113,6.286,8.218c3.961,1.275,7.926,0.168,10.461-2.875c1.667-2,2.317-4.311,2.24-6.865
	c-0.286-9.56-0.586-19.118-0.863-28.677c-0.354-12.219-0.705-24.438-1.007-36.657c-0.02-0.791,0.238-1.674,0.623-2.374
	C110.497,99.074,112.542,95.55,114.62,91.901z M112.087,87.013c2.087-5.112,0.64-10.674-3.226-12.445
	c-1.251,3.339-2.501,6.676-3.787,10.107C107.454,85.468,109.773,86.242,112.087,87.013z"/>
<path fill-rule="evenodd" clip-rule="evenodd" stroke="#FFFFFF" stroke-width="2" stroke-miterlimit="10" d="M162.5,65.973
	c3.45,6.188,6.906,12.374,10.328,18.578c0.16,0.291,0.142,0.83-0.022,1.128c-3.283,5.974-6.591,11.934-9.934,17.874
	c-0.177,0.313-0.703,0.606-1.067,0.608c-6.632,0.037-13.264,0.039-19.895-0.004c-0.384-0.002-0.927-0.359-1.122-0.705
	c-3.306-5.873-6.576-11.765-9.815-17.675c-0.191-0.35-0.216-0.979-0.029-1.32c3.394-6.176,6.832-12.327,10.261-18.484
	C148.303,65.973,155.401,65.973,162.5,65.973z M151.813,100.404c2.468,0,4.936-0.024,7.403,0.015
	c0.734,0.012,1.176-0.172,1.554-0.864c2.509-4.598,5.085-9.159,7.588-13.76c0.203-0.372,0.196-1.047-0.008-1.421
	c-2.504-4.601-5.072-9.166-7.595-13.756c-0.315-0.572-0.66-0.83-1.338-0.826c-5.051,0.027-10.103-0.003-15.153,0.047
	c-0.42,0.004-1.017,0.361-1.225,0.728c-2.606,4.588-5.168,9.201-7.697,13.832c-0.192,0.353-0.223,0.983-0.036,1.325
	c2.545,4.666,5.126,9.313,7.752,13.933c0.208,0.365,0.809,0.704,1.236,0.715C146.799,100.438,149.306,100.404,151.813,100.404z"/>
<path fill-rule="evenodd" clip-rule="evenodd" stroke="#FFFFFF" stroke-width="2" stroke-miterlimit="10" d="M105.992,134.84
	c0,6.823,0.011,13.646-0.005,20.47c-0.008,3.285-1.854,5.609-4.817,6.145c-2.969,0.536-5.977-1.541-6.513-4.521
	c-0.102-0.565-0.159-1.148-0.159-1.723c-0.009-13.608-0.012-27.217-0.003-40.825c0.002-3.142,1.498-5.307,4.148-6.093
	c3.219-0.955,6.557,1.056,7.183,4.354c0.121,0.639,0.158,1.302,0.159,1.954C105.996,121.347,105.992,128.094,105.992,134.84z
	 M98.347,134.841c0,6.673,0,13.346,0.002,20.019c0,0.424-0.03,0.859,0.053,1.269c0.202,0.994,0.832,1.557,1.865,1.542
	c1.028-0.016,1.65-0.58,1.818-1.589c0.069-0.415,0.05-0.846,0.05-1.27c0.002-13.346,0.002-26.691,0-40.037
	c0-0.386,0.01-0.774-0.033-1.155c-0.114-1.013-0.88-1.737-1.826-1.756c-0.974-0.02-1.804,0.752-1.907,1.804
	c-0.038,0.382-0.022,0.771-0.022,1.156C98.347,121.496,98.347,128.168,98.347,134.841z"/>
<path fill-rule="evenodd" clip-rule="evenodd" stroke="#FFFFFF" stroke-width="2" stroke-miterlimit="10" d="M90.184,97.763
	c1.054-3.159,2.072-6.206,3.122-9.353c5.055,1.686,10.026,3.344,15.087,5.032c-1.052,3.153-2.07,6.203-3.122,9.354
	C100.225,101.112,95.254,99.455,90.184,97.763z M103.532,95.852c-2.623-0.874-5.182-1.727-7.813-2.604
	c-0.238,0.747-0.441,1.384-0.656,2.06c0.35,0.136,0.591,0.242,0.839,0.326c2.282,0.766,4.565,1.528,6.897,2.308
	c0.131-0.315,0.244-0.55,0.327-0.794C103.26,96.756,103.375,96.358,103.532,95.852z"/>
<path fill-rule="evenodd" clip-rule="evenodd" stroke="#FFFFFF" stroke-width="2" stroke-miterlimit="10" d="M100.223,165.389
	c3.132-0.017,5.763,2.603,5.755,5.729c-0.007,3.078-2.572,5.671-5.657,5.72c-3.116,0.048-5.766-2.54-5.813-5.678
	C94.46,168.05,97.079,165.405,100.223,165.389z M102.11,171.095c-0.008-1.059-0.863-1.897-1.909-1.872
	c-1.038,0.024-1.869,0.91-1.833,1.954c0.034,1.013,0.834,1.784,1.858,1.792C101.299,172.977,102.119,172.161,102.11,171.095z"/>
<path fill-rule="evenodd" clip-rule="evenodd" stroke="#FFFFFF" stroke-width="2" stroke-miterlimit="10" d="M140.402,85.261
	c-0.151-6.103,4.981-11.479,11.106-11.634c6.341-0.16,11.626,4.894,11.806,11.287c0.169,6.04-4.97,11.47-10.996,11.616
	C145.828,96.688,140.563,91.708,140.402,85.261z M159.492,85.104c0.009-4.202-3.437-7.635-7.651-7.624
	c-4.176,0.011-7.568,3.366-7.621,7.538c-0.052,4.164,3.39,7.66,7.593,7.712C155.959,92.781,159.482,89.282,159.492,85.104z"/>
</svg>
