<?xml version="1.0" encoding="iso-8859-1"?>
<!-- Generator: Adobe Illustrator 19.0.0, SVG Export Plug-In . SVG Version: 6.00 Build 0)  -->
<svg version="1.1" id="Layer_1" xmlns="http://www.w3.org/2000/svg" xmlns:xlink="http://www.w3.org/1999/xlink" x="0px" y="0px"
	 viewBox="0 0 357.308 357.308" style="enable-background:new 0 0 357.308 357.308;" xml:space="preserve">
<g>
	<g>
		<path d="M312.094,72.235c-9.289-14.965-56.077-22.276-65.107-18.921c-5.333,1.978-10.407,4.472-15.482,7.311
			c-12.643,6.794-26.49,14.363-52.98,14.363c-26.232,0-40.337-7.569-52.722-14.363c-5.075-2.838-10.149-5.333-15.482-7.311
			c-9.03-3.354-55.818,3.956-65.107,18.921c-37.757,60.291-59.173,199.02-34.919,224.392c5.677,5.935,12.643,8.773,20.298,7.913
			c13.245-1.118,27.35-12.643,39.994-32.425l3.354-5.677c22.276-36.897,24.254-39.994,104.326-39.994s82.051,2.838,104.326,39.994
			l3.354,5.935c12.385,19.696,26.748,31.048,39.994,32.425c0.86,0,1.72,0,2.494,0c6.45,0,12.643-2.494,18.577-8.171
			C371.267,271.255,349.851,132.87,312.094,72.235z M341.938,292.929c-4.472,4.816-9.891,6.794-15.826,6.192
			c-11.267-1.118-24.254-12.127-35.779-29.845l-3.354-5.677c-23.652-39.219-28.21-42.832-109.057-42.832
			c-80.933,0-85.405,3.698-109.057,42.832l-3.355,5.677c-11.267,17.718-24.512,28.726-35.779,29.845
			c-5.935,0.602-11.267-1.376-15.825-6.193c-22.792-23.652-0.258-159.801,35.521-217.598c7.311-11.869,51.346-19.179,58.313-16.599
			c5.075,1.72,9.547,4.214,14.621,7.052c12.987,7.311,27.608,15.223,55.56,15.223c27.867,0,42.574-8.171,55.56-15.223
			c4.816-2.494,9.547-5.333,14.621-7.052c7.052-2.494,51.002,4.816,58.313,16.599C342.282,133.127,364.472,269.276,341.938,292.929z
			"/>
	</g>
</g>
<g>
	<g>
		<path d="M163.817,159.101h-16.943v-16.943c0-1.72-1.118-2.838-2.838-2.838h-16.943c-1.72,0-2.838,1.118-2.838,2.838v16.943
			h-16.943c-1.72,0-2.838,1.118-2.838,2.838v16.943c0,1.72,1.118,2.838,2.838,2.838h16.943v16.943c0,1.72,1.118,2.838,2.838,2.838
			h16.943c1.72,0,2.838-1.118,2.838-2.838v-16.943h16.943c1.72,0,2.838-1.118,2.838-2.838v-16.943
			C166.656,160.22,165.538,159.101,163.817,159.101z M160.979,175.959h-16.943c-1.72,0-2.838,1.118-2.838,2.838v16.943h-11.267
			v-16.943c0-1.72-1.118-2.838-2.838-2.838H110.15v-11.267h16.943c1.72,0,2.838-1.118,2.838-2.838v-16.943h11.267v16.943
			c0,1.72,1.118,2.838,2.838,2.838h16.943V175.959z"/>
	</g>
</g>
<g>
	<g>
		<path d="M177.923,103.283c-7.913,0-14.105,6.193-14.105,14.105s6.193,14.105,14.105,14.105s14.105-6.45,14.105-14.105
			C192.028,109.476,185.749,103.283,177.923,103.283z M177.923,125.817c-4.816,0-8.429-3.698-8.429-8.429s3.698-8.429,8.429-8.429
			c4.816,0,8.429,3.698,8.429,8.429S182.653,125.817,177.923,125.817z"/>
	</g>
</g>
<g>
	<g>
		<path d="M151.948,115.324c-0.86-1.118-2.838-1.118-3.956,0c-0.602,0.602-0.86,1.118-0.86,1.978c0,0.86,0.258,1.376,0.86,1.978
			c0.602,0.602,1.118,0.86,1.978,0.86s1.376-0.258,1.978-0.86c0.602-0.602,0.86-1.118,0.86-1.978
			C152.808,116.443,152.55,115.926,151.948,115.324z"/>
	</g>
</g>
<g>
	<g>
		<path d="M208.025,115.324c-1.118-1.118-2.838-1.118-3.956,0c-0.602,0.602-0.86,1.118-0.86,1.978c0,0.86,0.258,1.376,0.86,1.978
			s1.204,0.86,1.978,0.86c0.602,0,1.376-0.258,1.978-0.86s0.86-1.118,0.86-1.978C208.885,116.701,208.627,115.926,208.025,115.324z"
			/>
	</g>
</g>
<g>
	<g>
		<path d="M107.397,110.594c-0.602-1.72-2.236-2.494-3.698-1.978c-1.72,0.602-2.494,2.236-1.978,3.698
			c0.602,1.72,0.86,3.354,0.86,5.074c0,9.289-7.569,16.943-16.943,16.943c-9.289,0-16.943-7.569-16.943-16.943
			s7.569-16.943,16.943-16.943c1.978,0,3.956,0.602,5.935,1.118c1.376,0.602,3.096-0.258,3.698-1.72
			c0.602-1.376-0.258-3.097-1.72-3.698c-2.494-0.86-5.075-1.376-7.913-1.376c-12.385,0-22.534,10.149-22.534,22.534
			c0,12.385,10.149,22.534,22.534,22.534c12.643,0,22.792-10.149,22.792-22.534C108.515,115.066,107.999,112.83,107.397,110.594z"/>
	</g>
</g>
<g>
	<g>
		<path d="M241.309,164.09c-0.515-1.634-2.235-2.494-3.612-1.892c-1.72,0.602-2.494,2.236-1.978,3.698
			c0.602,1.72,0.86,3.354,0.86,5.074c0,9.289-7.569,16.943-16.943,16.943s-16.943-7.569-16.943-16.943s7.569-16.943,16.943-16.943
			c1.978,0,3.956,0.602,5.935,1.118c1.376,0.602,3.096-0.258,3.698-1.72c0.602-1.376-0.258-3.097-1.72-3.698
			c-2.494-0.86-5.075-1.376-7.913-1.376c-12.385,0-22.534,10.149-22.534,22.534c0,12.385,10.149,22.534,22.534,22.534
			s22.534-10.149,22.792-22.534C242.427,168.648,241.826,166.412,241.309,164.09z"/>
	</g>
</g>
<g>
	<g>
		<path d="M252.921,115.41l-5.333-8.429c-0.258-0.86-1.376-1.376-2.236-1.376h-16.599c-1.72,0-2.838,1.118-2.838,2.838v16.943
			c0,1.72,1.118,2.838,2.838,2.838h16.599c0.86,0,1.72-0.602,2.236-1.118l5.333-8.429
			C253.437,117.388,253.437,116.184,252.921,115.41z M243.546,122.462h-12.127v-11.267h12.127l3.698,5.677L243.546,122.462z"/>
	</g>
</g>
<g>
	<g>
		<path d="M296.268,105.261h-17.46c-0.86,0-1.72,0.602-2.236,1.376l-5.333,8.429c-0.602,1.118-0.602,2.236,0,3.097l5.333,8.429
			c0.258,0.86,1.376,1.376,2.236,1.376h17.46c1.72,0,2.838-1.118,2.838-3.097v-16.943
			C299.106,106.38,297.989,105.261,296.268,105.261z M293.516,122.462h-13.245l-3.698-5.677l3.698-5.677h13.245V122.462z"/>
	</g>
</g>
<g>
	<g>
		<path d="M272.616,131.751l-8.429-5.333c-1.118-0.602-2.236-0.602-3.096,0l-8.429,5.333c-0.86,0.258-1.376,1.376-1.376,2.236
			v16.599c0,1.72,1.118,2.838,2.838,2.838h16.943c1.72,0,2.838-1.118,3.096-2.838v-16.599
			C273.992,133.127,273.477,132.267,272.616,131.751z M268.23,147.835h-0.087h-11.267v-12.127l5.677-3.698l5.677,3.698V147.835z"/>
	</g>
</g>
<g>
	<g>
		<path d="M270.295,80.061h-16.341c-1.72,0-2.838,1.118-2.838,2.838v17.718c0.085,0.946,0.601,1.806,1.461,2.322l8.171,5.074
			c0.258,0.258,0.86,0.602,1.376,0.602s1.118-0.258,1.72-0.602l8.171-5.677c0.602-0.602,1.118-1.376,1.118-2.236V82.899
			C273.133,81.179,272.015,80.061,270.295,80.061z M267.542,98.811l-5.333,3.698l-5.418-3.44V85.824h10.751V98.811z"/>
	</g>
</g>
<g>
</g>
<g>
</g>
<g>
</g>
<g>
</g>
<g>
</g>
<g>
</g>
<g>
</g>
<g>
</g>
<g>
</g>
<g>
</g>
<g>
</g>
<g>
</g>
<g>
</g>
<g>
</g>
<g>
</g>
</svg>
