<?xml version="1.0" encoding="utf-8"?>
<!-- Generator: Adobe Illustrator 16.0.0, SVG Export Plug-In . SVG Version: 6.00 Build 0)  -->
<!DOCTYPE svg PUBLIC "-//W3C//DTD SVG 1.1//EN" "http://www.w3.org/Graphics/SVG/1.1/DTD/svg11.dtd">
<svg version="1.1" id="Layer_1" xmlns="http://www.w3.org/2000/svg" xmlns:xlink="http://www.w3.org/1999/xlink" x="0px" y="0px"
	 width="250px" height="250px" viewBox="0 0 250 250" enable-background="new 0 0 250 250" xml:space="preserve">
<g>
	<path fill-rule="evenodd" clip-rule="evenodd" stroke="#FFFFFF" stroke-width="11" stroke-miterlimit="10" d="M132.379,190.287
		c-1.646,0-3.291,0-4.937,0c-0.325-0.084-0.646-0.197-0.976-0.246c-12.209-1.787-20.452-8.512-24.721-20.043
		c-0.793-2.143-1.08-4.473-1.6-6.717c0-1.84,0-3.68,0-5.518c0.104-0.465,0.241-0.922,0.309-1.391
		c2.726-18.818,21.889-30.234,39.763-23.668c1.52,0.561,2.986,1.266,4.597,1.955c0-11.125,0.001-22.105,0-33.084
		c-0.001-10.303-0.151-20.608,0.042-30.909c0.148-7.994,6.671-15.226,14.539-16.579c6.099-1.048,12.21-2.015,18.314-3.015
		c15.74-2.582,31.481-5.153,47.22-7.748c3.229-0.532,6.447-1.145,9.67-1.721c1.258,0,2.517,0,3.774,0
		c0.263,0.099,0.519,0.227,0.788,0.292c5.105,1.219,8.188,4.426,9.374,9.509c0.075,0.319,0.193,0.63,0.292,0.944
		c0,32.04,0,64.081,0,96.122c-0.513,2.203-0.827,4.477-1.571,6.602c-4.958,14.166-18.253,22.107-33.093,19.869
		c-16.382-2.473-27.783-19.148-24.182-35.365c4-18.014,22.324-28.035,39.646-21.665c1.427,0.525,2.8,1.197,4.284,1.837
		c0-10.519,0-20.897,0-31.429c-24.763,3.539-49.434,7.064-74.177,10.601c-0.026,0.563-0.066,1.035-0.066,1.506
		c-0.002,19.067,0.005,38.132-0.01,57.197c-0.001,1.838-0.003,3.688-0.214,5.508c-1.409,12.129-7.764,20.592-19.097,25.137
		C137.827,189.279,135.043,189.631,132.379,190.287z M233.928,56.952c-0.591,0.085-1.017,0.14-1.44,0.209
		c-10.352,1.689-20.702,3.378-31.055,5.071c-13.022,2.13-26.045,4.26-39.064,6.398c-1.393,0.229-2.66,1.38-2.681,2.667
		c-0.066,4.152-0.025,8.306-0.025,12.618c24.862-3.552,49.568-7.08,74.266-10.608C233.928,67.773,233.928,62.461,233.928,56.952z
		 M144.679,160.137c0.023-8.082-7.32-14.875-15.347-14.447c-8.35,0.445-14.804,7.502-14.311,15.539
		c0.503,8.209,7.638,14.707,15.55,14.162C138.768,174.824,145.169,167.904,144.679,160.137z M218.906,160.516
		c7.929,0.168,14.883-6.473,15.055-14.371c0.181-8.242-6.364-15.152-14.536-15.35c-8.144-0.197-15.003,6.428-15.2,14.682
		C204.033,153.504,210.71,160.344,218.906,160.516z"/>
	<g>
		
			<rect x="142.112" y="51.607" fill-rule="evenodd" clip-rule="evenodd" fill="#FFFFFF" stroke="#FFFFFF" stroke-width="3" stroke-miterlimit="10" width="14.003" height="42.681"/>
		
			<rect x="163.552" y="37.579" transform="matrix(-0.0146 -0.9999 0.9999 -0.0146 114.1385 230.3178)" fill-rule="evenodd" clip-rule="evenodd" fill="#FFFFFF" stroke="#FFFFFF" stroke-width="3" stroke-miterlimit="10" width="14.002" height="42.68"/>
		<path fill-rule="evenodd" clip-rule="evenodd" stroke="#FFFFFF" stroke-width="3" stroke-miterlimit="10" d="M194.4,54.231
			c-0.418,1.499-0.752,3.027-1.271,4.49c-1.196,3.38-3.16,6.256-5.866,8.632c-27.966,24.563-55.932,49.127-83.852,73.741
			c-0.672,0.594-1.168,1.789-1.153,2.691c0.133,7.391-0.323,14.691-2.586,21.793c-4.085,12.82-12.884,20.318-25.944,22.963
			c-9.919,2.008-19.782,1.115-29.573-0.904c-13.966-2.879-27.306-7.641-40.122-13.859c-1.105-0.537-1.915-1.688-2.861-2.553
			c0-0.629,0-1.258,0-1.887c0.819-1.689,2.188-2.584,3.97-3.16c3.821-1.234,7.585-2.646,11.37-3.994
			c6.603-2.352,10.965-7.018,13.336-13.469c1.839-5,3.311-10.137,4.912-15.223c3.126-9.929,10.837-16.075,21.248-17.081
			c7.902-0.765,15.548,0.403,23.038,2.802c1.429,0.457,2.24,0.188,3.234-0.88c24.964-26.771,49.976-53.498,74.945-80.264
			c3.692-3.957,8.01-6.591,13.435-7.328c10.947-1.489,21.368,6.067,23.37,16.979c0.076,0.417,0.244,0.819,0.37,1.228
			C194.4,50.709,194.4,52.47,194.4,54.231z M25.023,174.746c3.359,1.082,6.388,2.191,9.489,3.033
			c11.452,3.111,23.012,5.322,34.986,4.037c11.811-1.268,20-7.939,23.508-19.289c1.917-6.207,2.302-12.59,2.057-19.025
			c-0.034-0.885-0.476-1.953-1.091-2.586c-4.295-4.422-8.679-8.754-13.052-13.098c-0.435-0.432-0.94-0.885-1.5-1.082
			c-6.88-2.425-13.946-3.825-21.269-3.326c-8.679,0.59-14.065,4.935-16.6,13.191c-1.253,4.078-2.328,8.221-3.754,12.236
			c-2.284,6.436-5.593,12.229-11.37,16.252c-0.855,0.596-1.739,1.15-2.967,1.959c7.388-0.504,14.107-1.943,20.636-4.303
			c6-2.166,11.576-5.146,16.897-8.652c2.135-1.406,4.332-0.98,5.459,0.814c1.117,1.775,0.611,3.885-1.346,5.244
			c-7.864,5.461-16.388,9.549-25.703,11.809C34.809,173.076,30.113,173.775,25.023,174.746z M151.272,55
			c-16.331,17.522-32.774,35.164-48.868,52.433c4.458,4.521,8.754,8.879,13.102,13.288c17.97-15.796,36.077-31.714,54.003-47.472
			C163.35,67.084,157.364,61.095,151.272,55z M175.384,68.043c2.293-2.005,4.574-3.971,6.822-5.974
			c5.309-4.731,6.377-12.39,2.542-18.07c-3.864-5.723-11.577-7.657-17.891-4.402c-4.372,2.253-6.847,6.512-10.231,9.591
			C162.944,55.539,169.092,61.719,175.384,68.043z M96.775,113.439c-3.206,3.441-6.449,6.923-9.529,10.229
			c3.942,3.965,7.764,7.809,11.645,11.711c3.486-3.098,7.047-6.258,10.505-9.33C105.18,121.837,101.063,117.722,96.775,113.439z"/>
		
			<rect x="152.258" y="49.043" transform="matrix(0.6608 -0.7506 0.7506 0.6608 12.5236 138.6929)" fill-rule="evenodd" clip-rule="evenodd" fill="#FFFFFF" stroke="#FFFFFF" stroke-width="3" stroke-miterlimit="10" width="14.888" height="12.895"/>
		
			<rect x="96.332" y="108.38" transform="matrix(0.6886 -0.7251 0.7251 0.6886 -50.18 110.6714)" fill-rule="evenodd" clip-rule="evenodd" fill="#FFFFFF" stroke="#FFFFFF" stroke-width="3" stroke-miterlimit="10" width="14.889" height="10.772"/>
		
			<rect x="101.733" y="113.882" transform="matrix(0.7416 -0.6708 0.6708 0.7416 -51.7992 104.0581)" fill-rule="evenodd" clip-rule="evenodd" fill="#FFFFFF" stroke="#FFFFFF" stroke-width="3" stroke-miterlimit="10" width="14.889" height="10.773"/>
		
			<rect x="161.064" y="58.841" transform="matrix(0.7546 -0.6562 0.6562 0.7546 -1.485 126.6057)" fill-rule="evenodd" clip-rule="evenodd" fill="#FFFFFF" stroke="#FFFFFF" stroke-width="3" stroke-miterlimit="10" width="14.889" height="12.894"/>
	</g>
</g>
</svg>
