<?xml version="1.0" encoding="utf-8"?>
<!-- Generator: Adobe Illustrator 16.0.0, SVG Export Plug-In . SVG Version: 6.00 Build 0)  -->
<!DOCTYPE svg PUBLIC "-//W3C//DTD SVG 1.1//EN" "http://www.w3.org/Graphics/SVG/1.1/DTD/svg11.dtd">
<svg version="1.1" id="Layer_1" xmlns="http://www.w3.org/2000/svg" xmlns:xlink="http://www.w3.org/1999/xlink" x="0px" y="0px"
	 width="250px" height="250px" viewBox="0 0 250 250" enable-background="new 0 0 250 250" xml:space="preserve">
<g>
	<path fill-rule="evenodd" clip-rule="evenodd" stroke="#FFFFFF" stroke-width="2" stroke-miterlimit="10" d="M105.892,177.896
		c0-2.609,0-5.218,0-7.804c-2.432-0.515-4.821-0.874-7.124-1.535c-9.595-2.755-17.135-8.175-21.757-17.224
		c-2.559-5.009-3.817-10.389-4.135-15.967c-0.835-14.672,2.138-28.632,8.132-41.986c6.049-13.478,14.394-25.354,25.048-35.598
		c0.568-0.547,1.157-1.074,1.737-1.611c0.079,0,0.159,0,0.238,0c2.21,2.255,4.498,4.44,6.618,6.777
		c9.68,10.666,17.194,22.683,22.34,36.156c0.07,0.181,0.113,0.372,0.21,0.686c-1.202,0.442-2.366,0.871-3.605,1.327
		c-5.699-15.074-14.437-28.09-25.541-39.493c-1.153,1.066-2.323,2.003-3.323,3.096c-7.991,8.74-14.604,18.417-19.563,29.185
		c-5.815,12.622-9.023,25.828-8.492,39.799c0.246,6.45,1.643,12.63,5.094,18.204c3.529,5.698,8.525,9.598,14.752,11.976
		c2.973,1.137,6.042,1.851,9.371,2.142c0-0.429,0-0.81,0-1.189c0-5.35-0.021-10.699,0.021-16.047
		c0.007-0.863-0.291-1.342-0.981-1.819c-5.535-3.833-11.041-7.707-16.554-11.569c-0.353-0.247-0.699-0.504-1.147-0.828
		c0.718-1.043,1.405-2.037,2.198-3.188c5.438,3.804,10.832,7.576,16.359,11.442c0.044-0.434,0.1-0.723,0.1-1.012
		c0.005-10.104-0.003-20.207,0.022-30.311c0.001-0.726-0.251-1.144-0.82-1.545c-3.689-2.604-7.356-5.237-11.028-7.863
		c-0.316-0.226-0.617-0.469-0.989-0.752c0.746-1.049,1.45-2.04,2.235-3.144c3.491,2.49,6.943,4.953,10.559,7.532
		c0-11.183,0-22.139,0-33.192c1.321,0,2.558,0,3.933,0c0,4.512,0,8.966,0,13.678c3.64-2.596,7.07-5.04,10.574-7.54
		c0.764,1.063,1.474,2.052,2.258,3.142c-0.376,0.283-0.708,0.544-1.051,0.789c-3.641,2.603-7.294,5.186-10.909,7.825
		c-0.41,0.3-0.847,0.907-0.848,1.374c-0.048,10.262-0.036,20.523-0.033,30.786c0,0.153,0.033,0.306,0.081,0.71
		c1.611-1.115,3.107-2.15,4.669-3.23c0.739,1.057,1.436,2.052,2.226,3.182c-1.828,1.282-3.542,2.612-5.382,3.732
		c-1.275,0.777-1.645,1.701-1.636,3.173c0.068,11.451,0.038,22.901,0.038,34.352c0,0.468,0,0.936,0,1.788
		c3.555-0.905,6.904-1.758,10.372-2.641c0.411,0.978,0.882,2.098,1.473,3.502c-2.569,0.736-5.042,1.489-7.541,2.141
		c-1.104,0.288-2.258,0.409-3.396,0.533c-0.698,0.075-0.925,0.361-0.922,1.06c0.008,2.333-0.047,4.667-0.078,7.001
		C108.428,177.896,107.161,177.896,105.892,177.896z"/>
	<path fill-rule="evenodd" clip-rule="evenodd" stroke="#FFFFFF" stroke-width="2" stroke-miterlimit="10" d="M152.252,177.896
		c-2.827-0.535-5.717-0.854-8.47-1.645c-9.187-2.637-16.422-8.062-21.681-16.017c-5.096-7.709-7.138-16.251-6.202-25.433
		c0.835-8.185,4.008-15.419,9.443-21.614c5.836-6.649,13.104-10.92,21.782-12.618c16.858-3.3,33.638,4.607,41.896,19.627
		c7.874,14.318,5.699,32.584-5.269,44.675c-5.746,6.334-12.794,10.381-21.124,12.193c-1.847,0.402-3.746,0.561-5.621,0.831
		C155.422,177.896,153.837,177.896,152.252,177.896z M154.686,173.987c19.243,0.078,35.023-15.646,35.15-35.03
		c0.128-19.309-15.617-35.146-35.04-35.248c-19.307-0.102-35.083,15.612-35.219,35.079
		C119.442,158.026,135.283,173.907,154.686,173.987z"/>
	<path fill-rule="evenodd" clip-rule="evenodd" stroke="#FFFFFF" stroke-width="2" stroke-miterlimit="10" d="M175.806,160.884
		c-0.581,1.166-1.126,2.26-1.73,3.473c-1.017-0.502-1.967-1.044-2.976-1.435c-0.444-0.172-1.077-0.195-1.507-0.01
		c-1.412,0.612-2.75,1.397-4.16,2.021c-0.771,0.343-1.063,0.806-0.99,1.634c0.068,0.78,0.015,1.57,0.015,2.433
		c-1.314,0-2.521,0-3.884,0c0-0.946,0.063-1.889-0.03-2.815c-0.038-0.38-0.324-0.882-0.646-1.058
		c-1.489-0.819-3.015-1.578-4.563-2.278c-0.36-0.162-0.923-0.146-1.288,0.02c-1.44,0.65-2.817,1.444-4.265,2.081
		c-0.749,0.329-0.979,0.776-0.918,1.547c0.063,0.784,0.014,1.578,0.014,2.474c-1.297,0-2.534,0-3.948,0
		c0-0.919,0.063-1.86-0.029-2.787c-0.038-0.382-0.34-0.815-0.648-1.073c-0.385-0.319-0.929-0.44-1.357-0.719
		c-2.439-1.58-4.877-2.467-7.414,0.19c-0.678-1.342-1.238-2.45-1.865-3.691c0.916-0.461,1.77-0.93,2.656-1.322
		c0.619-0.273,0.89-0.632,0.877-1.348c-0.044-2.535,0.014-5.07-0.051-7.604c-0.01-0.4-0.361-0.954-0.713-1.153
		c-1.412-0.795-2.864-1.526-4.348-2.177c-0.43-0.188-1.085-0.189-1.514,0.001c-1.587,0.706-3.122,1.526-4.809,2.369
		c-0.578-1.133-1.142-2.238-1.764-3.459c1.493-0.753,2.911-1.51,4.368-2.184c0.729-0.337,1.069-0.735,1.045-1.602
		c-0.068-2.414-0.057-4.832-0.006-7.248c0.016-0.755-0.262-1.134-0.917-1.439c-1.498-0.698-2.965-1.467-4.486-2.228
		c0.596-1.188,1.143-2.275,1.742-3.47c1.643,0.813,3.206,1.639,4.818,2.353c0.425,0.189,1.069,0.202,1.493,0.017
		c1.449-0.629,2.832-1.407,4.267-2.073c0.612-0.285,0.885-0.635,0.873-1.342c-0.042-2.535,0.015-5.071-0.049-7.605
		c-0.011-0.397-0.36-0.924-0.71-1.147c-0.824-0.531-1.743-0.916-2.773-1.435c0.577-1.146,1.133-2.25,1.748-3.473
		c1.068,0.534,2.025,1.078,3.038,1.485c0.407,0.163,1,0.168,1.397-0.008c1.408-0.622,2.746-1.407,4.158-2.024
		c0.783-0.343,1.057-0.808,0.988-1.631c-0.066-0.777-0.015-1.565-0.015-2.422c1.337,0,2.546,0,3.948,0
		c0,0.863,0.052,1.72-0.016,2.567c-0.061,0.754,0.244,1.138,0.906,1.441c1.651,0.759,3.285,2.234,4.903,2.202
		c1.72-0.032,3.404-1.487,5.125-2.278c0.579-0.266,0.845-0.588,0.794-1.256c-0.065-0.859-0.017-1.728-0.017-2.673
		c1.294,0,2.497,0,3.885,0c0,0.904-0.074,1.807,0.031,2.688c0.051,0.416,0.392,0.84,0.701,1.166
		c0.229,0.243,0.619,0.333,0.938,0.493c1.308,0.655,2.587,1.749,3.933,1.839c1.262,0.085,2.593-0.895,4.058-1.47
		c0.524,1.034,1.082,2.141,1.688,3.337c-0.646,0.335-1.204,0.743-1.829,0.925c-1.489,0.433-1.829,1.389-1.74,2.839
		c0.125,2.053,0.083,4.12,0.008,6.177c-0.033,0.899,0.287,1.35,1.078,1.7c1.3,0.576,2.573,1.223,3.821,1.907
		c0.688,0.377,1.26,0.405,1.969,0.018c1.484-0.812,3.021-1.527,4.609-2.319c0.6,1.188,1.146,2.273,1.747,3.47
		c-1.576,0.79-3.076,1.572-4.605,2.297c-0.571,0.271-0.81,0.592-0.798,1.257c0.046,2.494,0.05,4.99-0.001,7.485
		c-0.016,0.762,0.277,1.118,0.932,1.422c1.467,0.681,2.896,1.439,4.468,2.232c-0.587,1.178-1.143,2.289-1.732,3.474
		c-1.606-0.797-3.144-1.515-4.635-2.317c-0.663-0.358-1.195-0.378-1.87-0.023c-1.995,1.05-4.044,1.998-6.035,3.053
		c-0.641,0.34-1.123,0.308-1.746-0.019c-2.031-1.064-4.081-2.099-6.162-3.061c-0.423-0.196-1.082-0.189-1.513-0.001
		c-1.483,0.649-2.938,1.377-4.349,2.172c-0.353,0.199-0.702,0.754-0.713,1.153c-0.063,2.573-0.063,5.149,0.002,7.723
		c0.011,0.395,0.383,0.936,0.741,1.137c1.412,0.794,2.865,1.525,4.349,2.173c0.426,0.186,1.083,0.169,1.506-0.028
		c2.115-0.984,4.171-2.094,6.287-3.076c0.417-0.193,1.073-0.183,1.496,0.007C172.672,159.26,174.204,160.08,175.806,160.884z
		 M168.295,123.258c0.034,0,0.068,0,0.103,0c0-1.266-0.031-2.534,0.013-3.799c0.022-0.632-0.15-0.998-0.761-1.277
		c-1.474-0.673-2.887-1.478-4.368-2.129c-0.425-0.186-1.067-0.188-1.493-0.004c-1.412,0.609-2.869,1.201-4.13,2.061
		c-2.047,1.396-3.869,1.341-5.927-0.012c-1.503-0.985-3.243-2.234-4.872-2.227c-1.635,0.008-3.252,1.454-4.9,2.215
		c-0.652,0.301-0.942,0.653-0.924,1.418c0.056,2.493,0.049,4.987,0.002,7.479c-0.013,0.708,0.248,1.051,0.86,1.335
		c1.434,0.664,2.815,1.442,4.263,2.073c0.423,0.184,1.07,0.19,1.486-0.001c2.009-0.926,4.001-1.896,5.94-2.959
		c0.842-0.462,1.491-0.408,2.297,0.029c1.596,0.869,3.301,1.546,4.853,2.48c1.264,0.761,2.313,0.796,3.565,0.001
		c1.263-0.802,3.202-1.072,3.844-2.164C168.815,126.637,168.295,124.795,168.295,123.258z M176.218,138.822
		c0-1.267,0.057-2.535-0.032-3.795c-0.029-0.404-0.344-0.961-0.69-1.146c-1.702-0.906-3.453-2.354-5.197-2.368
		c-1.692-0.014-3.386,1.51-5.105,2.3c-0.613,0.281-0.755,0.671-0.747,1.294c0.029,2.491,0.038,4.983-0.005,7.474
		c-0.012,0.709,0.253,1.058,0.869,1.346c1.432,0.665,2.81,1.448,4.255,2.08c0.432,0.188,1.083,0.198,1.511,0.011
		c1.482-0.646,2.937-1.369,4.34-2.17c0.379-0.216,0.73-0.794,0.767-1.232C176.284,141.357,176.218,140.087,176.218,138.822z
		 M144.805,138.789c0.041,0,0.083,0,0.123-0.001c0-1.268,0.059-2.539-0.033-3.8c-0.029-0.405-0.361-0.943-0.711-1.141
		c-1.446-0.813-2.938-1.555-4.449-2.242c-0.362-0.164-0.928-0.162-1.29,0.004c-1.511,0.687-2.964,1.5-4.474,2.192
		c-0.613,0.281-0.777,0.649-0.753,1.28c0.047,1.227,0.007,2.456,0.016,3.685c0.011,1.542-0.498,3.42,0.202,4.533
		c0.727,1.154,2.676,1.497,4.01,2.325c1.136,0.704,2.105,0.732,3.259,0.021c1.307-0.806,3.288-1.098,3.947-2.218
		C145.34,142.257,144.805,140.365,144.805,138.789z M149.004,138.784c-0.021,0-0.041,0-0.061,0.001c0,1.542-0.542,3.421,0.15,4.532
		c0.719,1.154,2.676,1.494,4.006,2.325c1.147,0.719,2.117,0.682,3.258-0.015c1.312-0.8,3.273-1.098,3.951-2.218
		c0.709-1.173,0.247-3.064,0.26-4.641c0.011-1.504,0.5-3.343-0.186-4.42c-0.716-1.125-2.631-1.44-3.934-2.251
		c-1.208-0.75-2.247-0.771-3.461-0.009c-1.267,0.796-3.194,1.086-3.836,2.181C148.483,135.411,149.004,137.251,149.004,138.784z
		 M141.181,154.412c-0.023,0.002-0.046,0.002-0.068,0.002c0,1.54-0.544,3.423,0.149,4.53c0.724,1.155,2.686,1.489,4.02,2.322
		c1.143,0.714,2.111,0.699,3.252-0.005c1.307-0.806,3.258-1.111,3.937-2.236c0.709-1.168,0.258-3.053,0.269-4.626
		c0.011-1.5,0.485-3.33-0.199-4.411c-0.713-1.127-2.615-1.457-3.91-2.271c-1.213-0.764-2.263-0.738-3.469,0.006
		c-1.273,0.784-3.191,1.083-3.83,2.177C140.662,151.042,141.181,152.879,141.181,154.412z"/>
</g>
</svg>
