<?xml version="1.0" encoding="utf-8"?>
<!-- Generator: Adobe Illustrator 16.0.0, SVG Export Plug-In . SVG Version: 6.00 Build 0)  -->
<!DOCTYPE svg PUBLIC "-//W3C//DTD SVG 1.1//EN" "http://www.w3.org/Graphics/SVG/1.1/DTD/svg11.dtd">
<svg version="1.1" id="Layer_1" xmlns="http://www.w3.org/2000/svg" xmlns:xlink="http://www.w3.org/1999/xlink" x="0px" y="0px"
	 width="250px" height="250px" viewBox="0 0 250 250" enable-background="new 0 0 250 250" xml:space="preserve">
<path stroke="#FFFFFF" stroke-width="2" stroke-miterlimit="10" d="M102.546,68.318c2.665,0.935,3.739,2.843,3.594,5.617
	c-0.1,1.912-0.015,3.833-0.021,5.75c-0.006,1.572-0.509,2.92-1.799,3.905c-0.135,0.103-0.375,0.219-0.374,0.326
	c0.034,1.825-0.005,3.661,0.196,5.469c0.115,1.039,0.916,2.031,0.923,3.049c0.077,9.115,0.045,18.231,0.045,27.347
	c0,0.46,0,0.921,0,1.344c2.354-0.417,4.595-0.913,6.863-1.196c6.081-0.756,11.976,0.093,17.619,2.45
	c1.915,0.8,3.723,1.86,5.546,2.864c0.576,0.318,0.918,0.337,1.413-0.156c5.391-5.392,10.814-10.75,16.195-16.153
	c0.272-0.275,0.396-0.908,0.302-1.304c-0.414-1.724-0.078-3.222,1.171-4.466c8.21-8.175,16.427-16.344,24.657-24.502
	c1.08-1.071,2.187-1.105,3.024-0.204c0.774,0.838,0.638,1.956-0.441,3.029c-7.881,7.842-15.771,15.673-23.659,23.509
	c-1.337,1.327-1.336,1.328-0.009,2.65c2.113,2.104,4.245,4.19,6.33,6.321c0.641,0.655,1.101,0.721,1.786,0.038
	c10.954-10.913,21.924-21.811,32.907-32.694c0.68-0.674,0.656-1.123-0.016-1.772c-2.293-2.224-4.558-4.479-6.796-6.758
	c-0.65-0.664-1.132-0.707-1.787-0.011c-1.167,1.24-2.391,2.428-3.613,3.614c-1.096,1.062-2.171,1.151-3.026,0.301
	c-0.832-0.825-0.725-1.943,0.336-3.02c1.284-1.305,2.562-2.621,3.911-3.858c0.639-0.585,1.436-0.999,2.161-1.49
	c0.683,0,1.364,0,2.046,0c1.054,0.756,2.195,1.418,3.146,2.287c1.695,1.546,3.32,3.175,4.89,4.85
	c1.143,1.218,2.146,2.567,3.213,3.857c0,0.682,0,1.364,0,2.045c-0.759,1.056-1.391,2.241-2.299,3.147
	c-10.701,10.688-21.445,21.335-32.178,31.992c-2.172,2.158-3.471,2.414-6.385,1.212c-5.602,5.723-11.229,11.474-16.918,17.286
	c0.853,1.566,1.967,3.328,2.817,5.21c6.802,15.056,2.967,31.95-9.821,42.345c-8.146,6.619-17.606,9.252-27.989,7.513
	c-14.281-2.391-23.814-10.675-28.593-24.297c-1.815-5.175-2.067-10.583-1.257-16.023c0.112-0.755,0.168-1.524,0.168-2.287
	c0.011-11.716,0-23.434,0.011-35.148c0.004-4.107,2.116-7.3,5.556-8.478c5.687-1.948,11.14,1.969,11.252,8.138
	c0.066,3.662,0.013,7.328,0.013,10.992c0,0.466,0,0.932,0,1.633c1.182-0.603,2.237-1.102,3.242-1.685
	c0.216-0.126,0.36-0.558,0.36-0.848c0.011-9.8,0-19.599-0.011-29.398c0-0.074-0.061-0.149-0.155-0.369c-0.479,0-1.02,0-1.56,0
	c-5.198,0-10.396,0-15.594-0.001c-0.383,0-0.77,0.019-1.149-0.027c-1.18-0.143-1.979-0.981-1.928-1.989
	c0.053-1.038,0.858-1.792,2.089-1.8c4.09-0.028,8.181-0.014,12.271-0.016c1.488,0,2.978,0,4.587,0c0-1.273,0-2.482,0-3.82
	c-6.988,0-14.025,0-21.257,0c0,1.676-0.015,3.36,0.005,5.044c0.011,0.931-0.083,1.777-0.968,2.35
	c-0.196,0.127-0.292,0.464-0.357,0.724c-0.059,0.241-0.014,0.509-0.014,0.764c0,29.696,0.006,59.392-0.006,89.088
	c-0.002,5.025,1.964,8.897,6.448,11.338c4.711,2.563,10.608,1.603,14.307-2.293c0.294-0.308,0.559-0.645,0.867-0.937
	c0.876-0.824,1.834-0.897,2.634-0.225c0.813,0.684,0.933,1.811,0.185,2.75c-1.619,2.032-3.605,3.637-6.021,4.609
	c-1.403,0.565-2.891,0.919-4.339,1.369c-1.363,0-2.727,0-4.091,0c-0.188-0.08-0.368-0.199-0.564-0.234
	c-7.705-1.335-13.229-7.704-13.238-15.522c-0.034-30.44-0.021-60.88,0.026-91.319c0-0.896,0.762-1.773,0.861-2.691
	c0.197-1.842,0.184-3.707,0.245-5.562c0.001-0.056-0.127-0.108-0.174-0.177c-0.663-0.955-1.323-1.913-1.982-2.87
	c0-3.068,0-6.136,0-9.204c0.698-1.518,1.806-2.626,3.324-3.324C84.649,68.318,93.598,68.318,102.546,68.318z M93.825,177.682
	c0-0.67,0-1.136,0-1.604c0-12.781-0.001-25.561,0.001-38.343c0-1.73,0.672-2.647,1.904-2.643c1.232,0.004,1.91,0.938,1.927,2.654
	c0.003,0.256,0,0.512,0,0.767c0,7.797,0,15.594,0,23.391c0,6.007-0.009,12.013,0.017,18.021c0.002,0.458,0.11,1.105,0.417,1.338
	c0.93,0.706,1.982,1.254,3.185,1.983c0-0.756,0-1.251,0-1.746c0-16.104,0-32.208,0-48.312c0-0.471-0.018-0.939,0.006-1.407
	c0.067-1.313,0.8-2.12,1.905-2.124c1.116-0.007,1.856,0.8,1.917,2.101c0.019,0.383,0.004,0.769,0.004,1.149
	c0.001,16.787,0.001,33.573,0.001,50.359c0,0.509,0,1.018,0,1.497c13.406,5.12,30.998,0.274,39.031-14.975
	c8.02-15.224,2.608-33.36-12.299-42.087c-14.3-8.373-33.318-3.928-42.49,9.939C80.145,151.562,83.93,168.814,93.825,177.682z
	 M84.674,137.476c0.232-0.121,0.334-0.139,0.368-0.196c2.186-3.712,4.996-6.881,8.296-9.636c0.253-0.212,0.463-0.636,0.465-0.961
	c0.023-5.07,0.08-10.144-0.026-15.211c-0.055-2.568-2.119-4.347-4.624-4.31c-2.463,0.034-4.443,1.911-4.459,4.496
	C84.641,120.218,84.674,128.78,84.674,137.476z M155.876,111.188c-5.612,5.715-11.125,11.328-16.387,16.686
	c1.08,1.199,2.233,2.483,3.448,3.837c5.526-5.643,11.027-11.26,16.448-16.796C158.326,113.79,157.164,112.557,155.876,111.188z
	 M91.22,80.566c1.279,0,2.394,0,3.523,0c0-2.847,0-5.581,0-8.347c-1.208,0-2.333,0-3.523,0C91.22,75.025,91.22,77.764,91.22,80.566z
	 M87.211,80.606c0-2.9,0-5.64,0-8.35c-1.233,0-2.353,0-3.437,0c0,2.846,0,5.586,0,8.35C84.973,80.606,86.063,80.606,87.211,80.606z
	 M79.771,72.153c-0.854,0-1.65,0.019-2.445-0.005c-0.825-0.025-1.135,0.368-1.121,1.164c0.025,1.444,0.006,2.888,0.006,4.332
	c0,3.237,0,3.237,3.306,2.984c0.071-0.005,0.138-0.08,0.254-0.152C79.771,77.763,79.771,75.023,79.771,72.153z M98.737,72.293
	c0,2.77,0,5.511,0,8.385c0.74,0,1.412-0.043,2.077,0.01c1.082,0.087,1.558-0.304,1.491-1.447c-0.076-1.311,0.002-2.631-0.021-3.947
	c-0.062-3.424,0.693-3.199-3.334-3.11C98.912,72.186,98.877,72.22,98.737,72.293z"/>
</svg>
