<?xml version="1.0" encoding="utf-8"?>
<!-- Generator: Adobe Illustrator 16.0.0, SVG Export Plug-In . SVG Version: 6.00 Build 0)  -->
<!DOCTYPE svg PUBLIC "-//W3C//DTD SVG 1.1//EN" "http://www.w3.org/Graphics/SVG/1.1/DTD/svg11.dtd">
<svg version="1.1" id="Layer_1" xmlns="http://www.w3.org/2000/svg" xmlns:xlink="http://www.w3.org/1999/xlink" x="0px" y="0px"
	 width="250px" height="250px" viewBox="0 0 250 250" enable-background="new 0 0 250 250" xml:space="preserve">
<g>
	<path stroke="#FFFFFF" stroke-width="2" stroke-miterlimit="10" d="M129.302,209.578c-2.983,0-5.971,0-8.957,0
		c-0.655-0.101-1.315-0.186-1.967-0.307c-5.295-0.981-10.698-1.576-15.86-3.03c-14.092-3.975-26.025-11.626-35.893-22.419
		c-10.351-11.322-16.912-24.561-19.501-39.71c-0.508-2.974-0.815-5.98-1.216-8.972c0-3.191,0-6.384,0-9.575
		c0.098-0.551,0.215-1.102,0.291-1.655c0.373-2.751,0.606-5.527,1.123-8.25c2.712-14.284,9.042-26.807,18.617-37.705
		c1.492-1.699,3.106-3.298,4.747-4.856c0.998-0.947,2.354-0.878,3.184,0.049c0.875,0.978,0.884,2.054,0.072,3.079
		c-0.413,0.522-0.941,0.95-1.38,1.454c-2.437,2.787-4.893,5.558-7.258,8.404c-0.379,0.457-0.612,1.356-0.44,1.901
		c2.511,7.935,5.085,15.849,7.707,23.75c0.173,0.521,0.77,1.097,1.297,1.276c7.489,2.552,14.994,5.055,22.515,7.508
		c0.525,0.171,1.353,0.067,1.794-0.251c8.104-5.825,16.181-11.691,24.224-17.603c0.476-0.35,0.873-1.151,0.877-1.746
		c0.059-7.772,0.065-15.545-0.007-23.318c-0.007-0.674-0.486-1.573-1.035-1.979c-6.746-4.982-13.554-9.879-20.318-14.838
		c-0.749-0.548-1.382-0.725-2.225-0.308c-4.832,2.381-9.682,4.723-14.508,7.117c-1.566,0.777-2.794,0.636-3.524-0.555
		c-0.712-1.163-0.299-2.499,1.117-3.385c8.862-5.544,18.419-9.304,28.743-11.028c2.827-0.473,5.678-0.798,8.519-1.19
		c2.985,0,5.972,0,8.957,0c0.45,0.082,0.896,0.211,1.348,0.239c10.389,0.662,20.351,3.13,29.579,7.907
		c23.22,12.018,37.625,30.842,42.76,56.571c2.486,12.454,1.596,24.806-1.963,36.917c-5.013,17.059-14.932,30.781-29.196,41.322
		c-9.439,6.973-19.988,11.551-31.548,13.672C136.44,208.713,132.86,209.083,129.302,209.578z M100.84,124.097
		c0.714,2.204,1.382,4.253,2.042,6.304c0.677,2.104,0.262,3.412-1.215,3.851c-1.495,0.441-2.516-0.345-3.212-2.49
		c-0.555-1.712-1.01-3.462-1.688-5.12c-0.264-0.646-0.926-1.367-1.566-1.586c-7.483-2.559-15.005-5.005-22.494-7.55
		c-1.023-0.348-1.704-0.15-2.517,0.449c-5.055,3.718-10.147,7.388-15.219,11.083c-1.453,1.056-3.502,1.861-4.155,3.292
		c-0.684,1.499-0.016,3.612,0.063,5.459c0.004,0.104,0.01,0.206,0.021,0.307c1.505,13.413,6.096,25.633,14.158,36.496
		c0.334,0.45,1.052,0.867,1.594,0.87c8.13,0.057,16.261,0.055,24.391,0.002c0.546-0.003,1.293-0.399,1.605-0.849
		c4.305-6.213,8.563-12.46,12.779-18.735c0.313-0.465,0.41-1.271,0.255-1.819c-0.627-2.224-1.408-4.402-2.103-6.606
		c-0.574-1.819-0.057-3.095,1.384-3.522c1.312-0.389,2.425,0.394,3.01,2.148c0.633,1.9,1.294,3.794,1.84,5.721
		c0.292,1.032,0.728,1.47,1.896,1.461c9.263-0.052,18.525-0.052,27.788-0.002c1.15,0.008,1.571-0.409,1.902-1.446
		c2.765-8.662,5.557-17.313,8.429-25.939c0.464-1.389,0.149-2.118-0.993-2.937c-6.818-4.879-13.584-9.831-20.37-14.757
		c-0.947-0.689-1.902-1.369-2.877-2.07C117.315,112.122,109.125,118.075,100.84,124.097z M127.931,89.278
		c0,3.859-0.044,7.719,0.042,11.576c0.016,0.643,0.427,1.498,0.936,1.873c7.909,5.825,15.857,11.597,23.83,17.333
		c0.442,0.318,1.263,0.443,1.78,0.274c7.184-2.329,14.348-4.71,21.496-7.139c0.526-0.179,1.122-0.751,1.296-1.271
		c2.64-7.944,5.229-15.903,7.769-23.88c0.164-0.522,0.027-1.351-0.3-1.79c-8.777-11.75-19.984-20.313-33.739-25.467
		c-0.574-0.215-1.532-0.074-2.035,0.287c-6.735,4.815-13.433,9.684-20.092,14.602c-0.51,0.377-0.927,1.23-0.94,1.872
		C127.888,81.456,127.931,85.369,127.931,89.278z M171.726,175.5c3.651,0,7.306-0.043,10.957,0.023
		c1.142,0.02,1.843-0.305,2.535-1.267c8.779-12.186,13.412-25.79,14.161-40.762c0.048-0.945-0.246-1.484-0.991-2.02
		c-6.258-4.507-12.477-9.07-18.754-13.55c-0.51-0.365-1.45-0.505-2.05-0.312c-7.182,2.32-14.347,4.698-21.486,7.147
		c-0.636,0.218-1.327,0.959-1.543,1.606c-3.043,9.161-6.024,18.343-8.955,27.54c-0.194,0.616-0.082,1.557,0.273,2.088
		c4.141,6.198,8.337,12.36,12.589,18.483c0.358,0.517,1.209,0.962,1.843,0.977C164.109,175.543,167.917,175.5,171.726,175.5z
		 M125.612,157.842c-4.837,0-9.673,0.023-14.508-0.018c-0.968-0.01-1.591,0.245-2.159,1.088
		c-4.043,6.019-8.164,11.982-12.188,18.013c-0.38,0.569-0.53,1.559-0.326,2.21c2.265,7.199,4.632,14.369,6.941,21.555
		c0.277,0.863,0.701,1.294,1.635,1.546c13.848,3.768,27.639,3.557,41.408-0.401c0.885-0.256,1.339-0.692,1.621-1.578
		c2.25-7.044,4.576-14.063,6.804-21.116c0.193-0.61,0.065-1.542-0.29-2.072c-4.06-6.068-8.208-12.077-12.283-18.136
		c-0.561-0.832-1.169-1.118-2.146-1.109C135.285,157.867,130.448,157.842,125.612,157.842z M106.546,58.463
		c6.366,4.628,12.335,8.992,18.356,13.283c0.352,0.25,1.267,0.107,1.681-0.188c5.646-4.03,11.249-8.121,16.867-12.191
		c0.268-0.194,0.568-0.343,1.162-0.695C131.708,55.402,119.353,55.174,106.546,58.463z M50.638,126.456
		c5.92-4.295,11.502-8.318,17.03-12.413c0.303-0.225,0.356-1.099,0.21-1.574c-1.087-3.534-2.256-7.042-3.396-10.561
		c-1.042-3.208-2.083-6.417-3.204-9.875C54.809,102.665,51.494,113.96,50.638,126.456z M199.123,126.319
		c0.567-8.594-5.898-29.374-10.535-34.006c-2.24,6.875-4.479,13.705-6.66,20.553c-0.111,0.347,0.14,1.03,0.445,1.254
		C187.881,118.173,193.419,122.178,199.123,126.319z M98.106,199.873c-0.024-0.387-0.004-0.548-0.049-0.685
		c-1.948-6.005-3.925-12-5.832-18.017c-0.308-0.971-0.87-1.072-1.71-1.07c-6.478,0.021-12.956,0.011-19.435,0.019
		c-0.418,0-0.835,0.077-1.485,0.143C77.732,189.052,86.998,195.655,98.106,199.873z M153.146,199.403
		c10.673-4.379,19.492-10.733,27.054-19.051c-0.25-0.108-0.377-0.211-0.505-0.211c-6.481-0.015-12.963-0.032-19.441,0.017
		c-0.39,0.003-0.962,0.506-1.128,0.907c-0.508,1.231-0.861,2.524-1.271,3.795C156.324,189.591,154.792,194.322,153.146,199.403z"/>
	<path fill="#FFFFFF" stroke="#FFFFFF" stroke-width="2" stroke-miterlimit="10" d="M100.84,124.097
		c8.285-6.021,16.475-11.975,24.749-17.989c0.975,0.701,1.93,1.38,2.879,2.069c6.784,4.926,13.551,9.878,20.368,14.757
		c1.143,0.819,1.458,1.549,0.994,2.938c-2.872,8.625-5.664,17.277-8.429,25.938c-0.332,1.038-0.752,1.456-1.902,1.448
		c-9.264-0.05-18.525-0.052-27.789,0.002c-1.168,0.008-1.604-0.429-1.896-1.463c-0.545-1.925-1.207-3.818-1.84-5.719
		c-0.585-1.757-1.699-2.537-3.011-2.148c-1.44,0.426-1.958,1.703-1.384,3.522c0.695,2.204,1.475,4.383,2.103,6.604
		c0.155,0.549,0.057,1.354-0.255,1.819c-4.215,6.277-8.474,12.524-12.78,18.737c-0.312,0.449-1.058,0.846-1.604,0.847
		c-8.131,0.055-16.261,0.057-24.391,0c-0.542-0.003-1.26-0.421-1.594-0.872c-8.062-10.861-12.653-23.083-14.158-36.494
		c-0.01-0.103-0.018-0.205-0.021-0.307c-0.078-1.847-0.747-3.96-0.063-5.459c0.653-1.433,2.703-2.238,4.155-3.294
		c5.073-3.694,10.164-7.362,15.219-11.081c0.813-0.598,1.494-0.796,2.517-0.449c7.489,2.545,15.011,4.991,22.495,7.549
		c0.641,0.219,1.302,0.94,1.566,1.587c0.678,1.658,1.133,3.408,1.688,5.118c0.696,2.146,1.717,2.934,3.211,2.49
		c1.478-0.438,1.894-1.744,1.215-3.849C102.221,128.35,101.554,126.301,100.84,124.097z"/>
	<path fill="#FFFFFF" stroke="#FFFFFF" stroke-width="2" stroke-miterlimit="10" d="M127.931,89.278c0-3.91-0.043-7.822,0.042-11.73
		c0.016-0.641,0.431-1.495,0.94-1.872c6.659-4.919,13.357-9.787,20.094-14.603c0.503-0.36,1.46-0.501,2.035-0.287
		c13.754,5.154,24.96,13.718,33.737,25.468c0.329,0.438,0.464,1.267,0.301,1.789c-2.541,7.976-5.129,15.937-7.77,23.88
		c-0.173,0.52-0.769,1.092-1.295,1.271c-7.148,2.429-14.313,4.81-21.496,7.14c-0.519,0.168-1.338,0.043-1.779-0.275
		c-7.973-5.736-15.922-11.508-23.831-17.333c-0.51-0.375-0.921-1.231-0.935-1.873C127.887,96.997,127.931,93.137,127.931,89.278z"/>
	<path fill="#FFFFFF" stroke="#FFFFFF" stroke-width="2" stroke-miterlimit="10" d="M171.726,175.5
		c-3.809,0-7.616,0.043-11.421-0.045c-0.634-0.015-1.484-0.46-1.843-0.977c-4.252-6.123-8.448-12.285-12.589-18.483
		c-0.355-0.531-0.469-1.472-0.273-2.088c2.932-9.199,5.912-18.381,8.955-27.54c0.216-0.647,0.907-1.389,1.543-1.606
		c7.14-2.449,14.305-4.827,21.486-7.147c0.6-0.193,1.538-0.053,2.05,0.312c6.277,4.48,12.496,9.043,18.754,13.55
		c0.745,0.535,1.039,1.074,0.991,2.02c-0.75,14.972-5.382,28.577-14.161,40.762c-0.692,0.962-1.394,1.286-2.535,1.267
		C179.031,175.457,175.377,175.5,171.726,175.5z"/>
	<path fill="#FFFFFF" stroke="#FFFFFF" stroke-width="2" stroke-miterlimit="10" d="M125.612,157.842
		c4.836,0,9.673,0.025,14.509-0.02c0.977-0.009,1.585,0.277,2.146,1.109c4.075,6.059,8.224,12.067,12.283,18.136
		c0.355,0.53,0.482,1.462,0.29,2.072c-2.228,7.053-4.554,14.072-6.804,21.116c-0.282,0.886-0.736,1.322-1.621,1.578
		c-13.771,3.958-27.561,4.169-41.408,0.401c-0.935-0.252-1.358-0.683-1.635-1.546c-2.31-7.186-4.676-14.355-6.941-21.555
		c-0.205-0.651-0.054-1.641,0.326-2.21c4.024-6.03,8.146-11.994,12.188-18.013c0.568-0.843,1.192-1.098,2.159-1.088
		C115.939,157.865,120.775,157.842,125.612,157.842z"/>
	<path fill="#FFFFFF" stroke="#FFFFFF" stroke-width="2" stroke-miterlimit="10" d="M106.546,58.463
		c12.806-3.289,25.162-3.061,38.064,0.209c-0.592,0.353-0.894,0.5-1.162,0.695c-5.616,4.07-11.22,8.161-16.866,12.191
		c-0.413,0.295-1.329,0.438-1.68,0.188C118.881,67.455,112.912,63.091,106.546,58.463z"/>
	<path fill="#FFFFFF" stroke="#FFFFFF" stroke-width="2" stroke-miterlimit="10" d="M50.638,126.456
		c0.856-12.496,4.17-23.791,10.639-34.423c1.122,3.459,2.162,6.667,3.204,9.875c1.142,3.518,2.309,7.026,3.397,10.561
		c0.146,0.476,0.094,1.349-0.21,1.574C62.139,118.138,56.559,122.161,50.638,126.456z"/>
	<path fill="#FFFFFF" stroke="#FFFFFF" stroke-width="2" stroke-miterlimit="10" d="M199.123,126.319
		c-5.704-4.142-11.242-8.146-16.749-12.199c-0.306-0.225-0.557-0.907-0.445-1.254c2.18-6.848,4.419-13.679,6.659-20.553
		C193.225,96.946,199.69,117.725,199.123,126.319z"/>
	<path fill="#FFFFFF" stroke="#FFFFFF" stroke-width="2" stroke-miterlimit="10" d="M98.106,199.873
		c-11.108-4.218-20.375-10.821-28.511-19.609c0.651-0.064,1.068-0.142,1.485-0.142c6.479-0.01,12.956,0.003,19.435-0.019
		c0.841-0.002,1.403,0.098,1.71,1.068c1.905,6.017,3.884,12.013,5.832,18.017C98.103,199.325,98.082,199.486,98.106,199.873z"/>
	<path fill="#FFFFFF" stroke="#FFFFFF" stroke-width="2" stroke-miterlimit="10" d="M153.146,199.403
		c1.646-5.081,3.178-9.813,4.708-14.543c0.41-1.271,0.764-2.563,1.271-3.795c0.166-0.403,0.738-0.904,1.128-0.907
		c6.479-0.049,12.962-0.031,19.441-0.019c0.128,0,0.255,0.104,0.505,0.213C172.639,188.67,163.819,195.024,153.146,199.403z"/>
</g>
</svg>
