<?xml version="1.0" encoding="utf-8"?>
<!-- Generator: Adobe Illustrator 16.0.0, SVG Export Plug-In . SVG Version: 6.00 Build 0)  -->
<!DOCTYPE svg PUBLIC "-//W3C//DTD SVG 1.1//EN" "http://www.w3.org/Graphics/SVG/1.1/DTD/svg11.dtd">
<svg version="1.1" id="Layer_1" xmlns="http://www.w3.org/2000/svg" xmlns:xlink="http://www.w3.org/1999/xlink" x="0px" y="0px"
	 width="250px" height="250px" viewBox="0 0 250 250" enable-background="new 0 0 250 250" xml:space="preserve">
<path fill="#FFFFFF" stroke="#508991" stroke-miterlimit="10" d="M197.328,173.643c-0.139,0.289-0.295,0.569-0.413,0.867
	c-0.875,2.217-2.075,4.232-3.724,5.945c-5.113,5.322-11.291,7.119-18.377,5.504c-13.629-3.104-27.239-6.281-40.856-9.43
	c-0.394-0.09-0.788-0.182-1.224-0.281c-0.114,0.501-0.2,0.85-0.275,1.199c-0.998,4.578-1.975,9.164-2.996,13.74
	c-1.765,7.881-8.015,13.852-15.543,14.885c-11.443,1.57-21.082-6.775-21.323-18.465c-0.017-0.809,0.011-1.615,0.018-2.424
	c1.831-7.927,3.662-15.85,5.493-23.771c0.122-0.227,0.269-0.438,0.361-0.673c1.102-2.826,2.744-5.282,5.021-7.267
	c4.974-4.328,10.674-5.717,17.034-4.248c19.828,4.578,39.65,9.176,59.488,13.719c1.59,0.363,3.264,0.521,4.897,0.496
	c2.756-0.039,5.303-0.935,7.671-2.506c-1.455-1.511-3.205-2.213-5.089-2.647c-10.56-2.44-21.118-4.884-31.677-7.321
	c-0.396-0.092-0.785-0.182-1.17-0.271c1.672-7.238,3.309-14.315,4.967-21.493c0.387,0.09,0.725,0.169,1.063,0.246
	c6.432,1.483,12.859,2.972,19.29,4.456c4.319,0.998,8.646,1.972,12.953,3.003c5.417,1.296,9.151,5.569,9.676,11.02
	c0.08,0.837,0.066,1.681,0.097,2.521C200.9,158.178,199.113,165.91,197.328,173.643z M187.111,175.727
	c0.744-3.223,1.486-6.434,2.271-9.819c-1.081,0.202-2.021,0.347-2.933,0.582c-0.176,0.045-0.309,0.448-0.374,0.71
	c-0.384,1.591-0.745,3.188-1.128,4.848c-0.988-0.229-1.918-0.441-2.969-0.688c0.367-1.579,0.724-3.125,1.096-4.731
	c-1.114-0.163-2.096-0.31-3.209-0.472c-0.576,2.49-1.148,4.964-1.729,7.48c-1.036-0.24-1.94-0.449-2.94-0.681
	c0.566-2.448,1.132-4.892,1.716-7.421c-1.104-0.258-2.118-0.489-3.229-0.747c-0.34,1.465-0.676,2.92-1.021,4.419
	c-1.026-0.236-1.953-0.45-2.96-0.684c0.344-1.486,0.674-2.914,1.021-4.424c-0.998-0.23-1.922-0.442-2.974-0.688
	c-0.938,4.065-1.878,8.134-2.831,12.252c-1.034-0.239-1.939-0.451-2.958-0.685c0.938-4.071,1.881-8.145,2.837-12.272
	c-0.979-0.228-1.84-0.426-2.813-0.647c-0.344,1.482-0.678,2.937-1.026,4.447c-1.006-0.232-1.905-0.439-2.933-0.679
	c0.344-1.478,0.679-2.927,1.025-4.44c-1.236-0.285-2.349-0.543-3.568-0.822c-0.567,2.453-1.133,4.895-1.715,7.41
	c-1.026-0.238-1.955-0.453-2.971-0.688c0.561-2.434,1.125-4.878,1.709-7.398c-0.949-0.221-1.813-0.42-2.788-0.646
	c-0.331,1.43-0.666,2.877-1.019,4.406c-1.033-0.237-1.953-0.452-2.994-0.69c0.343-1.478,0.679-2.933,1.025-4.437
	c-1.147-0.266-2.18-0.502-3.336-0.771c-0.938,4.062-1.879,8.124-2.834,12.263c-1.056-0.244-1.98-0.459-3.017-0.697
	c0.942-4.078,1.883-8.148,2.832-12.256c-0.972-0.226-1.834-0.424-2.78-0.643c-0.345,1.48-0.675,2.907-1.023,4.422
	c-1-0.23-1.92-0.441-2.956-0.683c0.34-1.47,0.675-2.921,1.022-4.427c-1.02-0.234-1.924-0.442-2.953-0.683
	c-0.565,2.451-1.14,4.919-1.722,7.442c-1.052-0.242-1.979-0.458-3.004-0.695c0.572-2.472,1.138-4.915,1.717-7.429
	c-1.206-0.278-2.325-0.537-3.556-0.821c-0.336,1.45-0.67,2.898-1.023,4.426c-1.035-0.24-1.959-0.453-2.997-0.691
	c0.345-1.495,0.682-2.953,1.028-4.448c-0.956-0.224-1.798-0.416-2.753-0.638c-0.944,4.086-1.885,8.152-2.838,12.279
	c-1.041-0.24-1.968-0.455-2.988-0.689c0.923-3.992,1.834-7.938,2.791-12.074c-1.03,0.081-1.922,0.104-2.793,0.255
	c-0.229,0.041-0.494,0.459-0.568,0.749c-0.356,1.36-0.652,2.736-0.982,4.167c-1-0.229-1.927-0.444-2.961-0.685
	c0.23-0.999,0.454-1.969,0.71-3.067c-1.183,0.425-2.009,0.806-2.233,2.138c-0.378,2.254-0.993,4.467-1.525,6.764
	c-0.984-0.229-1.882-0.438-2.876-0.666c0.267-1.151,0.536-2.317,0.806-3.486c-0.073-0.042-0.146-0.084-0.22-0.127
	c-0.33,0.441-0.751,0.839-0.972,1.328c-0.722,1.604-1.542,3.193-2.011,4.874c-0.836,2.999-1.444,6.06-2.143,9.094
	c-0.035,0.149-0.044,0.306-0.092,0.651c0.756-0.596,1.358-1.112,2.003-1.564c4.756-3.342,9.953-4.234,15.545-2.941
	c19.866,4.597,39.729,9.191,59.596,13.771c5.941,1.371,11.088-0.177,15.354-4.613c1.744-1.816,2.967-3.988,3.566-6.453
	c0.825-3.398,1.585-6.813,2.393-10.308c-1.383,0.951-2.695,1.819-3.959,2.759c-0.238,0.178-0.326,0.623-0.403,0.959
	c-0.778,3.319-1.542,6.646-2.313,9.967c-0.078,0.346-0.158,0.688-0.259,1.125C188.96,176.154,188.083,175.953,187.111,175.727z
	 M96.056,183.951c-1.965,8.509,3.269,16.97,11.677,18.872c8.356,1.891,16.718-3.456,18.646-11.925
	c1.93-8.469-3.293-16.896-11.652-18.809C106.349,170.176,98.014,175.473,96.056,183.951z M187.814,138.979
	c-1.018-0.232-1.945-0.445-2.988-0.688c-0.344,1.482-0.686,2.966-1.04,4.499c-1.013-0.233-1.916-0.442-2.937-0.681
	c0.34-1.473,0.68-2.948,1.037-4.493c-1.105-0.257-2.098-0.484-3.181-0.734c-0.933,4.027-1.856,8.036-2.804,12.118
	c-1.016-0.234-1.939-0.447-2.982-0.688c0.93-4.017,1.859-8.052,2.805-12.133c-1.553-0.359-2.99-0.691-4.507-1.043
	c-1.175,5.075-2.351,10.168-3.563,15.415c0.341,0.079,0.703,0.162,1.064,0.247c5.549,1.281,11.094,2.58,16.646,3.842
	c3.506,0.795,7.064,1.438,9.613,4.327c4.854-4.804,6.506-12.149,1.633-16.565c-0.252,1.082-0.487,2.108-0.735,3.186
	c-1.012-0.232-1.915-0.441-2.985-0.689c0.258-1.125,0.459-2.272,0.801-3.383c0.281-0.897-0.023-1.264-0.854-1.414
	c-0.633-0.117-1.257-0.285-2.02-0.459c-0.596,2.578-1.188,5.14-1.793,7.756c-1.062-0.244-1.983-0.459-2.998-0.691
	C186.625,144.12,187.212,141.58,187.814,138.979z M160.001,148.725c0.163-0.574,0.313-1.101,0.479-1.687
	c0.957,0.222,1.884,0.437,2.894,0.669c-0.09,0.564-0.179,1.126-0.274,1.729c0.504,0.115,0.957,0.22,1.457,0.338
	c1.187-5.129,2.354-10.191,3.541-15.334c-0.453-0.104-0.906-0.209-1.447-0.334c-0.115,0.349-0.244,0.735-0.401,1.199
	c-0.944-0.219-1.897-0.438-2.901-0.671c0.067-0.405,0.135-0.784,0.213-1.241c-0.539-0.125-1.08-0.25-1.674-0.388
	c-1.182,5.104-2.357,10.19-3.546,15.334C158.914,148.473,159.434,148.593,160.001,148.725z M129.695,175.6
	c-1.6-0.371-3.129-0.725-3.934-0.91c0.871,1.481,2.008,3.408,2.977,5.053C128.975,178.719,129.328,177.184,129.695,175.6z"/>
<path fill="#FFFFFF" stroke="#508991" stroke-miterlimit="10" d="M100.482,185.031c-0.923-0.213-1.853-0.428-2.78-0.643
	c-2.002,6.898,2.692,15.26,10.292,16.743c0.217-0.938,0.435-1.879,0.655-2.833C102.379,196.137,99.609,191.766,100.482,185.031z"/>
<path fill="#FFFFFF" stroke="#508991" stroke-miterlimit="10" d="M113.783,176.629c6.479,1.889,9.198,7.589,8.117,13.23
	c0.926,0.214,1.855,0.43,2.785,0.644c1.978-6.228-2.071-14.987-10.234-16.765C114.234,174.682,114.017,175.621,113.783,176.629z"/>
<path fill="#FFFFFF" stroke="#508991" stroke-miterlimit="10" d="M115.728,188.482c-0.563,2.478-3.12,4.104-5.569,3.545
	c-2.45-0.562-4.035-3.127-3.465-5.613c0.568-2.484,3.107-4.102,5.562-3.541C114.704,183.432,116.292,185.996,115.728,188.482z
	 M111.597,185.926c-0.829-0.211-1.663,0.283-1.886,1.115c-0.232,0.865,0.296,1.76,1.152,1.95c0.804,0.18,1.669-0.367,1.864-1.179
	C112.926,186.986,112.414,186.134,111.597,185.926z"/>
<path fill="#FFFFFF" stroke="#508991" stroke-miterlimit="10" d="M105.117,186.098c-1.008-0.231-1.939-0.449-2.87-0.664
	c-1.387,4.582,2.015,10.226,6.816,11.096c0.217-0.938,0.436-1.885,0.669-2.896c-1.591-0.501-2.931-1.359-3.814-2.807
	C105.051,189.404,104.792,187.854,105.117,186.098z"/>
<path fill="#FFFFFF" stroke="#508991" stroke-miterlimit="10" d="M113.374,178.32c-0.234,1.017-0.453,1.961-0.684,2.962
	c1.636,0.479,2.948,1.378,3.831,2.821c0.868,1.42,1.09,2.979,0.791,4.688c0.974,0.227,1.928,0.443,2.881,0.666
	C121.43,185.051,118.533,179.534,113.374,178.32z"/>
<path fill="#FFFFFF" stroke="#508991" stroke-miterlimit="10" d="M162.559,137.998c-0.476,2.051-0.93,4.021-1.404,6.076
	c0.975,0.224,1.919,0.441,2.914,0.674c0.472-2.034,0.932-4.027,1.404-6.076C164.508,138.448,163.579,138.232,162.559,137.998z"/>
<path fill="#FFFFFF" stroke="#508991" stroke-miterlimit="10" d="M112.728,187.811c0.198-0.824-0.313-1.678-1.13-1.885
	c-0.829-0.211-1.663,0.283-1.886,1.115c-0.232,0.865,0.296,1.76,1.152,1.95C111.667,189.17,112.532,188.624,112.728,187.811z"/>
<path fill="#FFFFFF" stroke="#508991" stroke-width="3" stroke-miterlimit="10" d="M201.717,102.595
	c-0.598,0.711-1.145,1.473-1.796,2.129c-8.063,8.085-16.144,16.157-24.219,24.232c-2.054,2.052-2.997,2.054-5.036,0.015
	c-2.879-2.879-5.771-5.747-8.63-8.645c-1.404-1.423-1.394-2.597-0.06-4.03c3.973-4.271,3.818-8.772-0.502-12.806
	c-2.313-2.158-4.979-3.545-8.262-2.875c-0.916,0.186-1.814,0.709-2.592,1.262c-1.617,1.15-2.676,1.132-4.059-0.263
	c-0.821-0.831-1.649-1.657-2.48-2.48c-0.063-0.064-0.155-0.1-0.063-0.042c-7.56,7.559-15.084,15.084-22.989,22.989
	c0.213,0.129,0.819,0.35,1.228,0.764c1.322,1.347,1.304,2.558,0.051,3.929c-0.157,0.172-0.329,0.334-0.495,0.498
	c-13.203,13.207-26.4,26.416-39.613,39.611c-4.081,4.076-8.938,5.58-14.505,3.846c-5.396-1.68-8.522-5.494-9.563-11.037
	c-0.042-0.221-0.15-0.428-0.227-0.643c0-1.029,0-2.061,0-3.09c0.694-4.49,3.382-7.712,6.506-10.802
	c12.277-12.146,24.45-24.396,36.662-36.607c3.238-3.239,3.24-3.239,6.563-0.448c7.543-7.542,15.075-15.074,22.891-22.889
	c-0.578-0.482-1.369-1.058-2.063-1.736c-2.451-2.411-2.443-3.111-0.064-5.52c0.291-0.293,0.561-0.607,0.883-0.958
	c-2.969-5.2-6.666-9.751-11.03-13.764c-5.106-4.695-10.819-8.459-17.247-11.102c-1.154-0.474-2.09-1.093-2.093-2.496
	c-0.004-1.408,0.97-2.033,2.091-2.516c8.813-3.792,17.833-4.231,27.014-1.585c7.851,2.263,14.525,6.551,20.965,12.532
	c0.344-0.574,0.578-1.235,1.029-1.683c1.285-1.276,2.479-1.265,3.812-0.04c0.791,0.73,1.528,1.514,2.292,2.274
	c5.6,5.586,11.197,11.172,16.799,16.76c1.188,1.182,1.348,2.249,0.527,3.489c-2.355,3.576-2.385,6.284,0.005,9.807
	c1.569,2.319,3.684,3.948,6.437,4.672c2.672,0.702,4.945,0.113,6.934-1.867c2.386-2.379,3.099-2.325,5.504,0.082
	c2.418,2.416,4.842,4.823,7.244,7.253c0.75,0.758,1.437,1.58,2.149,2.372C201.717,101.659,201.717,102.126,201.717,102.595z
	 M104.512,111.986c-0.318,0.287-0.601,0.521-0.861,0.781c-12.582,12.575-25.162,25.15-37.736,37.733
	c-0.496,0.494-0.961,1.023-1.388,1.58c-3.247,4.225-1.94,10.652,2.69,13.279c3.979,2.257,8.185,1.558,11.729-1.984
	c12.582-12.574,25.155-25.156,37.73-37.736c0.252-0.251,0.487-0.521,0.717-0.771C113.083,120.556,108.852,116.325,104.512,111.986z
	 M151.982,61.45c-6.447,6.427-12.896,12.852-19.074,19.012c5.313,5.376,10.644,10.77,15.736,15.924
	c6.334-6.323,12.768-12.746,19.157-19.129C162.607,72.066,157.289,66.751,151.982,61.45z M144.918,61.007
	c-7.141-9.182-28.668-15.687-37.04-11.023c10.398,5.573,18.662,13.383,24.787,23.296C136.789,69.15,140.848,65.087,144.918,61.007z
	 M173.089,124.373c7.529-7.54,15.05-15.073,22.501-22.534c-1.963-1.968-4.04-4.048-5.891-5.9
	c-7.512,7.501-15.068,15.049-22.529,22.501C169.09,120.362,171.131,122.409,173.089,124.373z M133.895,89.263
	c-7.494,7.493-15.002,15.002-22.365,22.366c2.053,2.05,4.159,4.149,6.168,6.155c7.41-7.411,14.915-14.916,22.364-22.366
	C138.055,93.416,135.973,91.339,133.895,89.263z M179.766,98.219c-3.304-0.579-6.017-2.161-8.305-4.442
	c-2.279-2.275-3.779-5.021-4.368-8.079c-3.407,3.404-6.793,6.785-10.146,10.134c6.646,1.674,10.889,5.962,12.562,12.637
	C172.918,105.062,176.279,101.702,179.766,98.219z"/>
<path fill="#FFFFFF" stroke="#508991" stroke-width="3" stroke-miterlimit="10" d="M107.219,121.342
	c-0.5,0.876-0.746,1.611-1.232,2.109c-3.066,3.137-6.173,6.234-9.295,9.314c-1.236,1.221-2.561,1.285-3.601,0.285
	c-1.026-0.984-0.947-2.468,0.279-3.708c3.051-3.085,6.126-6.146,9.204-9.208c0.812-0.809,1.811-1.355,2.886-0.695
	C106.137,119.856,106.589,120.64,107.219,121.342z"/>
<path fill="#FFFFFF" stroke="#508991" stroke-width="3" stroke-miterlimit="10" d="M148.992,85.169
	c-1.492,0-2.985,0.031-4.477-0.009c-1.675-0.044-2.684-0.989-2.666-2.417c0.014-1.435,1.012-2.333,2.719-2.348
	c2.937-0.027,5.875-0.026,8.813-0.001c1.672,0.014,2.744,0.948,2.773,2.333c0.031,1.418-1.09,2.404-2.827,2.437
	C151.883,85.191,150.438,85.169,148.992,85.169z"/>
<path fill="#FFFFFF" stroke="#508991" stroke-width="3" stroke-miterlimit="10" d="M151.418,70.838c0.841,0,1.686-0.048,2.521,0.012
	c1.316,0.094,2.013,0.924,2.188,2.162c0.16,1.104-0.651,2.323-1.854,2.416c-1.942,0.15-3.918,0.155-5.855-0.023
	c-1.243-0.115-1.904-1.25-1.758-2.466c0.146-1.226,0.872-1.96,2.094-2.076c0.88-0.083,1.775-0.015,2.664-0.015
	C151.418,70.844,151.418,70.841,151.418,70.838z"/>
</svg>
