<?xml version="1.0" encoding="utf-8"?>
<!-- Generator: Adobe Illustrator 16.0.0, SVG Export Plug-In . SVG Version: 6.00 Build 0)  -->
<!DOCTYPE svg PUBLIC "-//W3C//DTD SVG 1.1//EN" "http://www.w3.org/Graphics/SVG/1.1/DTD/svg11.dtd">
<svg version="1.1" id="Layer_1" xmlns="http://www.w3.org/2000/svg" xmlns:xlink="http://www.w3.org/1999/xlink" x="0px" y="0px"
	 width="250px" height="250px" viewBox="0 0 250 250" enable-background="new 0 0 250 250" xml:space="preserve">
<g>
	<path stroke="#FFFFFF" stroke-width="2" stroke-miterlimit="10" d="M68.658,127.065c0.554-2.939,2.409-4.878,4.775-6.542
		c5.08-3.57,10.077-7.258,15.131-10.864c0.682-0.487,1.006-0.977,0.996-1.85c-0.046-4.268-0.019-8.536-0.023-12.805
		c0-0.374-0.033-0.749-0.055-1.217c-0.458-0.061-0.872-0.104-1.28-0.17c-2.258-0.362-3.604-2.112-3.652-4.738
		c-0.063-3.545,1.051-5.458,3.49-5.903c0.576-0.105,1.18-0.082,1.77-0.082c6.212-0.005,12.428,0.134,18.636-0.047
		c4.828-0.14,6.188,2.626,5.766,6.661c-0.06,0.577-0.218,1.145-0.361,1.866c0.474-0.322,0.851-0.566,1.214-0.828
		c5.553-4,11.104-8.002,16.654-12.002c1.664-1.198,2.057-1.2,3.705-0.011c19.565,14.102,39.122,28.217,58.706,42.292
		c2.222,1.598,3.834,3.516,4.368,6.241c0,0.76,0,1.521,0,2.282c-0.065,0.105-0.16,0.203-0.191,0.317
		c-1.598,5.924-7.629,8.164-12.634,4.632c-4.69-3.313-9.324-6.708-13.982-10.065c-12.366-8.914-24.737-17.819-37.084-26.762
		c-0.789-0.571-1.281-0.561-2.065,0.006c-16.904,12.224-33.828,24.417-50.752,36.612c-3.545,2.556-7.506,2.482-10.465-0.107
		c-1.43-1.252-2.103-2.902-2.665-4.634C68.658,128.587,68.658,127.825,68.658,127.065z M133.603,81.935
		c-0.26,0.173-0.438,0.283-0.606,0.404c-19.463,14.03-38.926,28.063-58.388,42.098c-0.342,0.246-0.678,0.51-0.969,0.813
		c-1.792,1.865-1.419,4.88,0.784,6.243c1.899,1.176,3.59,0.614,5.265-0.596c17.227-12.438,34.467-24.858,51.705-37.283
		c2.078-1.499,2.288-1.499,4.337-0.022c17.203,12.4,34.407,24.8,51.612,37.195c0.478,0.344,0.969,0.688,1.497,0.943
		c2.277,1.104,4.971-0.14,5.646-2.577c0.523-1.892-0.133-3.427-2.107-4.85c-9.935-7.167-19.873-14.33-29.812-21.494
		C152.938,95.87,143.31,88.93,133.603,81.935z M93.492,105.852c0.134,0.03,0.189,0.06,0.211,0.044
		c3.736-2.676,7.472-5.354,11.195-8.048c0.213-0.155,0.455-0.444,0.465-0.68c0.049-1.116,0.021-2.234,0.021-3.338
		c-4.103,0-7.998,0-11.893,0C93.492,97.921,93.492,101.897,93.492,105.852z M99.428,86.72c-3.248,0-6.497,0.043-9.744-0.024
		c-1.128-0.023-1.383,0.448-1.315,1.429c0.061,0.858-0.232,1.772,1.239,1.761c6.538-0.053,13.076-0.047,19.613-0.004
		c1.362,0.01,1.181-0.835,1.211-1.679c0.031-0.901-0.063-1.529-1.261-1.505C105.924,86.763,102.676,86.72,99.428,86.72z"/>
	<path stroke="#FFFFFF" stroke-width="2" stroke-miterlimit="10" d="M133.533,191.717c-12.468,0-24.933,0.002-37.4,0
		c-5.368-0.001-8.182-2.83-8.183-8.223c-0.001-15.891-0.001-31.78,0.005-47.671c0-0.543,0.012-1.109,0.16-1.625
		c0.267-0.929,0.968-1.377,1.926-1.293c0.955,0.086,1.542,0.657,1.681,1.607c0.072,0.499,0.045,1.012,0.045,1.519
		c0.001,15.848,0.001,31.696,0.001,47.543c0,3.095,1.206,4.318,4.261,4.318c25.018,0.001,50.037,0.001,75.054,0
		c3.083,0,4.301-1.211,4.301-4.277c0.002-15.933,0-31.865,0.002-47.797c0-2.037,0.615-2.965,1.938-2.929
		c1.29,0.034,1.879,0.936,1.88,2.896c0,15.975,0.002,31.948-0.001,47.923c-0.002,5.121-2.893,8.006-8.017,8.008
		C158.637,191.72,146.085,191.717,133.533,191.717z"/>
	<path stroke="#FFFFFF" stroke-width="2" stroke-miterlimit="10" d="M133.613,129.307c3.331-3.14,7.202-4.827,11.685-4.995
		c10.582-0.397,19.038,8.691,18.065,19.231c-0.645,6.977-3.995,12.528-8.742,17.377c-5.571,5.69-12.287,9.706-19.481,12.988
		c-0.971,0.442-1.893,0.549-2.91,0.085c-8.386-3.809-16.104-8.554-22.078-15.729c-3.859-4.635-6.188-9.896-6.471-16.006
		c-0.392-8.426,6.441-16.614,14.794-17.737c5.571-0.75,10.44,0.675,14.638,4.408C133.235,129.039,133.376,129.129,133.613,129.307z
		 M121.379,128.107c-7.767,0.007-14.294,6.807-13.88,14.157c0.3,5.327,2.385,9.868,5.808,13.855
		c5.362,6.251,12.175,10.487,19.544,13.924c0.394,0.182,1.014,0.206,1.398,0.027c7.49-3.487,14.411-7.793,19.81-14.191
		c3.511-4.159,5.665-8.91,5.572-14.439c-0.096-5.576-3.784-10.553-9.02-12.472c-5.279-1.935-11.122-0.472-14.918,3.734
		c-1.712,1.897-2.511,1.882-4.273-0.048C128.675,129.65,125.225,128.22,121.379,128.107z"/>
	<path fill="#FFFFFF" stroke="#FFFFFF" stroke-width="2" stroke-miterlimit="10" d="M133.603,81.935
		c9.707,6.996,19.336,13.935,28.966,20.875c9.938,7.164,19.876,14.327,29.81,21.495c1.975,1.423,2.632,2.958,2.108,4.85
		c-0.675,2.438-3.369,3.681-5.646,2.577c-0.527-0.256-1.019-0.599-1.496-0.944c-17.206-12.395-34.409-24.795-51.612-37.194
		c-2.048-1.475-2.259-1.475-4.337,0.022c-17.237,12.425-34.478,24.845-51.705,37.283c-1.676,1.21-3.366,1.771-5.266,0.596
		c-2.202-1.363-2.576-4.378-0.784-6.244c0.291-0.303,0.627-0.565,0.969-0.813c19.461-14.035,38.924-28.067,58.389-42.098
		C133.165,82.218,133.343,82.107,133.603,81.935z"/>
	<path fill="#FFFFFF" stroke="#FFFFFF" stroke-width="2" stroke-miterlimit="10" d="M93.492,105.852c0-3.954,0-7.931,0-12.021
		c3.896,0,7.79,0,11.893,0c0,1.104,0.027,2.223-0.021,3.338c-0.01,0.236-0.251,0.525-0.465,0.68
		c-3.723,2.694-7.459,5.372-11.195,8.048C93.682,105.912,93.625,105.881,93.492,105.852z"/>
	<path fill="#FFFFFF" stroke="#FFFFFF" stroke-width="2" stroke-miterlimit="10" d="M99.428,86.72c3.248,0,6.496,0.043,9.743-0.023
		c1.198-0.023,1.292,0.604,1.261,1.505c-0.029,0.844,0.15,1.688-1.211,1.679c-6.537-0.043-13.076-0.049-19.613,0.004
		c-1.471,0.012-1.179-0.902-1.239-1.761c-0.068-0.98,0.188-1.452,1.315-1.429C92.931,86.763,96.18,86.72,99.428,86.72z"/>
	<path fill="#FFFFFF" stroke="#FFFFFF" stroke-width="2" stroke-miterlimit="10" d="M121.379,128.107
		c3.846,0.112,7.296,1.542,10.04,4.547c1.763,1.93,2.562,1.945,4.274,0.048c3.796-4.206,9.638-5.668,14.918-3.733
		c5.235,1.918,8.924,6.895,9.018,12.472c0.095,5.529-2.061,10.279-5.571,14.439c-5.397,6.398-12.318,10.704-19.81,14.19
		c-0.385,0.178-1.005,0.154-1.398-0.026c-7.369-3.438-14.182-7.674-19.544-13.925c-3.421-3.988-5.507-8.527-5.807-13.856
		C107.083,134.914,113.612,128.114,121.379,128.107z"/>
</g>
</svg>
