<?xml version="1.0" encoding="utf-8"?>
<!-- Generator: Adobe Illustrator 16.0.0, SVG Export Plug-In . SVG Version: 6.00 Build 0)  -->
<!DOCTYPE svg PUBLIC "-//W3C//DTD SVG 1.1//EN" "http://www.w3.org/Graphics/SVG/1.1/DTD/svg11.dtd">
<svg version="1.1" id="Layer_1" xmlns="http://www.w3.org/2000/svg" xmlns:xlink="http://www.w3.org/1999/xlink" x="0px" y="0px"
	 width="250px" height="250px" viewBox="0 0 250 250" enable-background="new 0 0 250 250" xml:space="preserve">
<path fill="#FFFFFF" stroke="#508991" stroke-width="8" stroke-miterlimit="10" d="M123.77,190.064c-1.188,0-2.376,0-3.563,0
	c-0.234-0.063-0.467-0.145-0.704-0.18c-8.813-1.287-14.761-6.143-17.843-14.465c-0.572-1.547-0.779-3.229-1.154-4.848
	c0-1.328,0-2.656,0-3.982c0.075-0.336,0.174-0.666,0.223-1.004c1.968-13.582,15.798-21.82,28.698-17.082
	c1.097,0.404,2.155,0.914,3.318,1.41c0-8.029,0-15.953,0-23.877c-0.001-7.437-0.109-14.875,0.03-22.309
	c0.104-5.77,4.813-10.989,10.492-11.966c4.401-0.756,8.813-1.455,13.219-2.176c11.358-1.863,22.721-3.719,34.08-5.592
	c2.33-0.384,4.654-0.826,6.979-1.242c0.908,0,1.814,0,2.725,0c0.189,0.071,0.375,0.164,0.567,0.21
	c3.687,0.88,5.91,3.194,6.767,6.863c0.055,0.23,0.141,0.455,0.211,0.682c0,23.125,0,46.25,0,69.375
	c-0.369,1.591-0.598,3.229-1.133,4.765c-3.58,10.226-13.176,15.957-23.887,14.343c-11.822-1.787-20.052-13.82-17.453-25.525
	c2.889-13.002,16.112-20.233,28.614-15.637c1.028,0.379,2.021,0.862,3.092,1.325c0-7.592,0-15.083,0-22.684
	c-17.872,2.554-35.679,5.098-53.534,7.651c-0.021,0.406-0.05,0.747-0.05,1.087c-0.001,13.762,0.004,27.521-0.007,41.282
	c-0.001,1.325-0.003,2.661-0.155,3.975c-1.017,8.754-5.604,14.861-13.78,18.144C127.701,189.338,125.691,189.592,123.77,190.064z
	 M197.061,93.832c-0.426,0.061-0.731,0.101-1.037,0.151c-7.474,1.219-14.941,2.438-22.414,3.66
	c-9.397,1.537-18.797,3.075-28.193,4.618c-1.005,0.165-1.92,0.996-1.938,1.925c-0.047,2.997-0.018,5.995-0.018,9.107
	c17.943-2.563,35.775-5.11,53.602-7.656C197.061,101.642,197.061,97.808,197.061,93.832z M132.646,168.305
	c0.017-5.834-5.283-10.736-11.078-10.428c-6.026,0.322-10.685,5.414-10.329,11.215c0.363,5.926,5.513,10.615,11.223,10.223
	C128.38,178.904,133,173.91,132.646,168.305z M186.221,168.578c5.721,0.121,10.74-4.672,10.864-10.373
	c0.131-5.949-4.593-10.936-10.491-11.078c-5.878-0.143-10.828,4.639-10.971,10.596C175.484,163.518,180.305,168.453,186.221,168.578
	z"/>
<rect x="130.794" y="89.974" fill="#508991" stroke="#508991" stroke-width="3" stroke-miterlimit="10" width="10.106" height="30.805"/>
<rect x="146.275" y="79.851" transform="matrix(0.0148 0.9999 -0.9999 0.0148 244.3338 -57.4664)" fill="#508991" stroke="#508991" stroke-width="3" stroke-miterlimit="10" width="10.106" height="30.805"/>
<path fill="#FFFFFF" stroke="#508991" stroke-width="3" stroke-miterlimit="10" d="M168.532,91.868
	c-0.302,1.082-0.542,2.185-0.917,3.241c-0.863,2.439-2.281,4.515-4.233,6.229c-20.185,17.729-40.369,35.457-60.52,53.223
	c-0.485,0.429-0.843,1.291-0.833,1.94c0.097,5.334-0.232,10.604-1.866,15.729c-2.948,9.252-9.299,14.664-18.725,16.571
	c-7.159,1.449-14.277,0.806-21.344-0.651c-10.08-2.077-19.708-5.517-28.957-10.004c-0.797-0.388-1.382-1.217-2.065-1.842
	c0-0.453,0-0.908,0-1.361c0.592-1.219,1.58-1.864,2.866-2.28c2.758-0.892,5.474-1.908,8.206-2.883
	c4.766-1.697,7.914-5.064,9.625-9.722c1.328-3.608,2.39-7.315,3.545-10.985c2.257-7.166,7.822-11.603,15.336-12.328
	c5.703-0.554,11.222,0.291,16.627,2.021c1.032,0.33,1.617,0.137,2.334-0.635c18.019-19.322,36.07-38.612,54.091-57.93
	c2.665-2.856,5.78-4.757,9.696-5.289c7.9-1.075,15.422,4.378,16.867,12.254c0.055,0.301,0.176,0.591,0.268,0.886
	C168.532,89.326,168.532,90.597,168.532,91.868z M46.286,178.848c2.424,0.781,4.611,1.582,6.849,2.189
	c8.265,2.246,16.608,3.842,25.25,2.914c8.524-0.916,14.435-5.73,16.967-13.922c1.383-4.48,1.661-9.086,1.484-13.73
	c-0.024-0.639-0.344-1.41-0.787-1.867c-3.101-3.189-6.265-6.316-9.421-9.453c-0.313-0.311-0.678-0.639-1.082-0.779
	c-4.966-1.75-10.065-2.762-15.351-2.4c-6.264,0.428-10.151,3.563-11.981,9.521c-0.904,2.943-1.68,5.935-2.709,8.83
	c-1.648,4.646-4.037,8.826-8.207,11.729c-0.617,0.431-1.255,0.83-2.141,1.414c5.333-0.364,10.182-1.401,14.894-3.104
	c4.331-1.563,8.354-3.715,12.195-6.246c1.541-1.014,3.126-0.707,3.94,0.588c0.806,1.281,0.441,2.806-0.972,3.785
	c-5.676,3.94-11.828,6.894-18.551,8.522C53.349,177.643,49.96,178.148,46.286,178.848z M137.404,92.423
	c-11.785,12.646-23.653,25.379-35.271,37.843c3.218,3.264,6.318,6.408,9.456,9.592c12.971-11.4,26.039-22.89,38.978-34.263
	C146.122,101.145,141.802,96.822,137.404,92.423z M154.809,101.836c1.654-1.447,3.301-2.866,4.924-4.312
	c3.832-3.415,4.604-8.942,1.834-13.042c-2.789-4.13-8.354-5.526-12.912-3.177c-3.155,1.626-4.94,4.7-7.385,6.922
	C145.829,92.812,150.268,97.272,154.809,101.836z M98.072,134.602c-2.313,2.482-4.654,4.996-6.877,7.381
	c2.845,2.863,5.604,5.639,8.404,8.453c2.516-2.234,5.086-4.516,7.582-6.732C104.139,140.662,101.167,137.691,98.072,134.602z"/>
<rect x="138.121" y="88.127" transform="matrix(-0.6608 0.7506 -0.7506 -0.6608 307.9495 46.3809)" fill="#508991" stroke="#508991" stroke-width="3" stroke-miterlimit="10" width="10.746" height="9.308"/>
<rect x="97.751" y="130.953" transform="matrix(-0.6886 0.7252 -0.7252 -0.6886 271.9113 152.9069)" fill="#509881" stroke="#508991" stroke-width="3" stroke-miterlimit="10" width="10.744" height="7.774"/>
<rect x="101.635" y="134.915" transform="matrix(-0.7415 0.671 -0.671 -0.7415 279.4873 169.9247)" fill="#508991" stroke="#508991" stroke-width="3" stroke-miterlimit="10" width="10.747" height="7.778"/>
<rect x="144.476" y="95.207" transform="matrix(-0.7546 0.6562 -0.6562 -0.7546 328.4507 76.8755)" fill="#508991" stroke="#508991" stroke-width="3" stroke-miterlimit="10" width="10.746" height="9.307"/>
</svg>
