<?xml version="1.0" encoding="utf-8"?>
<!-- Generator: Adobe Illustrator 16.0.0, SVG Export Plug-In . SVG Version: 6.00 Build 0)  -->
<!DOCTYPE svg PUBLIC "-//W3C//DTD SVG 1.1//EN" "http://www.w3.org/Graphics/SVG/1.1/DTD/svg11.dtd">
<svg version="1.1" id="Layer_1" xmlns="http://www.w3.org/2000/svg" xmlns:xlink="http://www.w3.org/1999/xlink" x="0px" y="0px"
	 width="250px" height="250px" viewBox="0 0 250 250" enable-background="new 0 0 250 250" xml:space="preserve">
<path fill-rule="evenodd" clip-rule="evenodd" stroke="#FFFFFF" stroke-width="4" stroke-miterlimit="10" d="M52.855,185.865
	c0.677-1.701,1.925-2.418,3.751-2.324c1.535,0.076,3.077,0.016,4.813,0.016c0-2.383,0-4.621,0-6.859c0-4.365,0.6-4.969,4.945-4.969
	c3.1,0,6.2-0.018,9.3,0.006c2.373,0.018,3.445,1.072,3.473,3.436c0.034,2.715,0.008,5.434,0.008,8.371
	c1.968,0,3.825,0.041,5.676-0.047c0.247-0.012,0.584-0.637,0.676-1.023c2.039-8.637,7.353-14.1,15.961-16.146
	c2.477-0.588,5.117-0.484,7.875-0.713c0.021-0.303,0.079-0.748,0.079-1.193c0.008-3.711,0.051-7.424-0.036-11.131
	c-0.017-0.693-0.404-1.537-0.897-2.037c-4.774-4.857-9.663-9.602-14.401-14.492c-2.567-2.65-5.354-5.244-7.263-8.344
	c-5.678-9.223-0.395-21.743,10.048-24.615c1.021-0.281,2.076-0.887,2.83-1.63c6.523-6.428,13.022-12.883,19.442-19.415
	c3.771-3.836,8.097-5.444,13.402-4.024c0.532,0.143,1.119,0.105,1.681,0.106c7.562,0.006,15.124,0.003,22.686,0.004
	c3.632,0,4.439,0.815,4.458,4.496c0.001,0.412,0,0.824,0,1.413c1.228,0,2.338,0,3.449,0c1.076,0,2.152,0,3.468,0
	c0-0.914,0.012-1.735-0.002-2.556c-0.022-1.396,0.556-2.425,1.775-3.125c3.216-1.843,6.425-3.699,9.629-5.562
	c1.209-0.703,2.389-0.698,3.596,0.006c3.162,1.843,6.345,3.65,9.496,5.51c1.819,1.074,2.36,2.732,1.476,4.258
	c-0.88,1.519-2.589,1.869-4.433,0.834c-2.496-1.4-4.979-2.829-7.434-4.295c-0.64-0.381-1.107-0.442-1.773-0.029
	c-1.794,1.112-3.676,2.083-5.453,3.218c-0.452,0.289-0.896,0.965-0.92,1.483c-0.103,2.156-0.103,4.322,0,6.478
	c0.024,0.521,0.465,1.201,0.918,1.49c1.776,1.137,3.607,2.199,5.482,3.166c0.463,0.239,1.276,0.22,1.741-0.031
	c2.517-1.36,4.974-2.831,7.453-4.261c1.076-0.622,2.181-0.843,3.335-0.195c1.916,1.075,1.997,3.703,0.058,5.003
	c-1.595,1.07-3.308,1.961-4.972,2.927c-1.623,0.942-3.263,1.859-4.87,2.824c-1.3,0.78-2.538,0.753-3.843-0.015
	c-2.989-1.763-5.979-3.533-9.025-5.197c-1.588-0.866-2.371-2.046-2.244-3.851c0.046-0.646,0.007-1.298,0.007-2.055
	c-2.311,0-4.49,0-6.914,0c0,0.644,0.001,1.322-0.002,1.999c-0.013,2.796-1.013,3.796-3.842,3.8
	c-5.401,0.007-10.803,0.024-16.203-0.02c-0.906-0.007-1.429,0.262-1.927,1.031c-0.631,0.975-1.421,1.869-2.244,2.695
	c-5.9,5.921-11.826,11.816-18.178,18.151c0.528,0.293,1.066,0.459,1.422,0.811c4.67,4.628,9.296,9.302,13.972,13.925
	c3.491,3.453,5.187,7.541,5.085,12.504c-0.129,6.291-0.003,12.586,0.02,18.881c0.002,0.365,0.058,0.73,0.102,1.266
	c1.262,0,2.469,0.039,3.671-0.004c11.634-0.414,19.85,8.121,21.304,16.795c0.059,0.357,0.587,0.887,0.92,0.904
	c1.723,0.092,3.453,0.041,5.391,0.041c0-2.359,0-4.598,0-6.834c0-4.465,0.531-4.99,5.034-4.99c2.958,0,5.918-0.008,8.876,0.002
	c2.769,0.008,3.794,1.039,3.813,3.842c0.016,2.16-0.001,4.32,0.008,6.482c0.001,0.453,0.049,0.908,0.083,1.502
	c1.651,0,3.193,0.061,4.728-0.016c1.827-0.094,3.073,0.623,3.75,2.324c0,0.469,0,0.939,0,1.408
	c-0.839,1.752-2.306,2.215-4.142,2.215c-45.335-0.021-90.669-0.021-136.004,0c-1.835,0-3.303-0.463-4.142-2.215
	C52.855,186.805,52.855,186.334,52.855,185.865z M91.401,183.471c22.446,0,44.757,0,67.153,0c-0.052-0.363-0.063-0.639-0.132-0.9
	c-1.725-6.459-7.473-10.801-14.561-10.83c-12.58-0.049-25.16-0.008-37.741-0.016c-3.446-0.002-6.58,0.943-9.303,3.072
	C93.997,177,92.116,179.807,91.401,183.471z M102.999,137.076c0.069,0.215,0.071,0.328,0.128,0.385
	c4.927,4.9,9.746,9.92,14.834,14.646c2.906,2.699,6.56,2.971,10.129,1.256c6.167-2.967,7.3-10.666,2.361-15.711
	c-3.713-3.793-7.505-7.506-11.24-11.277c-0.424-0.426-0.709-0.994-1.239-1.756C115.224,132.059,110.293,136.061,102.999,137.076z
	 M116.728,112.375c2.12-2.125,4.173-4.184,6.229-6.24c3.452-3.455,6.906-6.91,10.361-10.362c1.951-1.949,2.737-4.25,1.939-6.934
	c-1.481-4.977-7.429-6.321-11.299-2.508c-5.654,5.57-11.233,11.217-16.842,16.835c-0.178,0.178-0.313,0.399-0.479,0.617
	C112.743,106.847,113.356,107.366,116.728,112.375z M101.537,131.188c6.017-0.027,11.021-5.029,11.049-11.045
	c0.028-6.037-5.109-11.182-11.117-11.13c-6.006,0.051-10.992,5.036-11.059,11.057C90.344,126.063,95.499,131.215,101.537,131.188z
	 M133.427,165.738c0-2.91,0-5.715,0-8.65c-5.938,3.975-11.894,4.166-18.009,0.68c0,2.775,0,5.334,0,7.971
	C121.437,165.738,127.371,165.738,133.427,165.738z M155.405,84.83c-5.141,0-10.134,0-15.128,0c0.486,1.96,0.953,3.841,1.418,5.721
	c4.543,0,9.112,0,13.71,0C155.405,88.61,155.405,86.785,155.405,84.83z M73.137,183.482c0-2.027,0-3.879,0-5.75
	c-1.96,0-3.813,0-5.678,0c0,1.977,0,3.863,0,5.75C69.413,183.482,71.23,183.482,73.137,183.482z M182.574,183.467
	c0-1.936,0-3.826,0-5.736c-1.963,0-3.819,0-5.738,0c0,1.941,0,3.795,0,5.736C178.767,183.467,180.619,183.467,182.574,183.467z"/>
</svg>
