<?xml version="1.0" encoding="utf-8"?>
<!-- Generator: Adobe Illustrator 16.0.0, SVG Export Plug-In . SVG Version: 6.00 Build 0)  -->
<!DOCTYPE svg PUBLIC "-//W3C//DTD SVG 1.1//EN" "http://www.w3.org/Graphics/SVG/1.1/DTD/svg11.dtd">
<svg version="1.1" id="Layer_1" xmlns="http://www.w3.org/2000/svg" xmlns:xlink="http://www.w3.org/1999/xlink" x="0px" y="0px"
	 width="250px" height="250px" viewBox="0 0 250 250" enable-background="new 0 0 250 250" xml:space="preserve">
<g>
	<path stroke="#FFFFFF" stroke-width="3" stroke-miterlimit="10" d="M55.829,111.699c0.775-2.414,2.489-4.134,4.239-5.856
		c3.86-3.801,7.691-7.633,11.475-11.51c0.566-0.581,0.991-1.438,1.17-2.236c1.012-4.534,3.706-7.567,8.005-9.195
		c1.792-0.679,3.068,0.003,3.587,1.9c0.561,2.05,1.067,4.117,1.539,6.189c0.178,0.786,0.492,1.162,1.367,1.186
		c7.437,0.203,13.531,3.321,18.628,8.619c1.956,2.033,1.992,2,4.407,0.392c6.433-4.281,12.845-8.597,19.319-12.813
		c0.909-0.592,2.116-0.923,3.209-0.992c2.353-0.147,4.722-0.013,7.082-0.052c4.961-0.081,7.593,2.904,8.43,7.1
		c1.527,7.659,2.583,15.412,3.809,23.131c0.15,0.944,0.136,1.915,0.206,3.014c2.641,0,5.224-0.056,7.803,0.015
		c2.86,0.077,5.745,0.073,8.568,0.469c2.744,0.386,5.088,1.859,7.229,3.637c0.425,0.353,1.153,0.575,1.7,0.509
		c3.496-0.43,5.902-2.896,6.247-6.554c0.226-2.406,0.692-4.643,2.307-6.54c2.652-3.117,6.141-3.728,9.94-3.329
		c1.197,0.125,1.987,0.965,1.989,2.157c0.001,4.765,0.313,9.578-0.243,14.283c-0.955,8.104-7.368,13.733-15.471,14.271
		c-0.18,0.01-0.355,0.043-0.848,0.108c0.294,2.947,0.43,5.896,0.918,8.782c0.609,3.596,1.27,7.216,2.346,10.69
		c1.462,4.715,1.231,9.345,0.474,14.112c-1.295,8.131-2.378,16.295-3.522,24.448c-0.204,1.456-0.39,2.869-1.95,3.561
		c-3.612,0-7.227,0-10.838,0c-1.149-0.705-1.772-1.65-1.635-3.079c0.7-7.277,1.297-14.565,2.087-21.832
		c0.211-1.934-0.171-3.364-1.393-4.908c-3.839-4.852-8.203-9.323-11.034-14.93c-0.183-0.363-0.77-0.621-1.218-0.736
		c-3.289-0.852-6.587-0.885-9.858,0.104c-4.333,1.308-3.407,0.408-3.199,4.66c0.102,2.061,0.32,4.217-0.141,6.182
		c-0.884,3.755-4.547,6.233-8.291,6.087c-3.965-0.152-7.15-2.799-8.081-6.788c-0.404-1.74-0.681-3.508-0.966-4.993
		c-4.478-0.517-8.729-1.008-13.123-1.514c-0.628,2.797-1.253,5.772-1.968,8.725c-1.343,5.536-2.45,11.074-2.133,16.847
		c0.231,4.246,0.015,8.516,0.062,12.774c0.017,1.453-0.368,2.62-1.645,3.402c-3.613,0-7.226,0-10.839,0
		c-1.538-0.645-1.793-1.909-1.789-3.409c0.026-10.79,0.032-21.58-0.013-32.368c-0.004-0.976-0.244-2.02-0.641-2.914
		c-1.604-3.611-3.068-7.299-3.428-11.231c-0.437-4.782-0.441-9.603-0.705-14.402c-0.042-0.774-0.286-1.657-0.736-2.272
		c-3.476-4.739-7.024-9.426-10.553-14.127c-0.271-0.36-0.566-0.702-0.662-0.82c-1.688,0.338-3.119,0.815-4.566,0.877
		c-3.051,0.13-6.111,0.085-9.166,0.027c-2.558-0.045-4.693-1.068-6.135-3.225c-0.579-0.864-0.908-1.896-1.352-2.85
		C55.829,113.553,55.829,112.626,55.829,111.699z M124.233,155.877c-0.063-0.504-0.096-0.906-0.166-1.303
		c-0.518-2.914-1.097-5.818-1.538-8.744c-0.159-1.065-0.139-2.208,0.052-3.271c0.406-2.273,0.981-4.517,1.483-6.772
		c0.767-3.452,1.529-6.906,2.321-10.479c-4.379,0-8.589-0.025-12.797,0.015c-1.247,0.013-2.228-0.373-3.083-1.278
		c-1.24-1.313-2.57-2.539-3.808-3.853c-0.546-0.579-1.022-0.759-1.798-0.423c-1.141,0.497-2.319,0.944-3.522,1.251
		c-5.221,1.328-10.029-3.222-8.847-8.476c0.339-1.505,1.297-2.872,2.045-4.459c-2.173-2.17-4.523-4.527-6.887-6.872
		c-1.444-1.433-2.68-3.405-4.423-4.114c-1.796-0.731-4.096-0.221-6.176-0.254c-0.231-0.003-0.479-0.052-0.69,0.015
		c-0.379,0.119-0.823,0.221-1.087,0.484c-4.632,4.6-9.25,9.213-13.849,13.847c-0.803,0.808-1.122,1.8-0.659,2.928
		c0.456,1.114,1.363,1.579,2.494,1.699c0.322,0.035,0.647,0.019,0.972,0.019c2.13,0,4.259,0,6.39,0c4.37,0,5.239-0.603,6.698-4.636
		c1.508,0,3.008,0,4.786,0c-0.438,1.448-0.705,2.768-1.244,3.967c-0.363,0.807-0.293,1.302,0.218,1.976
		c3.887,5.126,7.774,10.253,11.557,15.455c0.629,0.866,0.991,2.086,1.06,3.167c0.155,2.445,0.071,4.905,0.044,7.358
		c-0.068,6.354,1.285,12.378,3.99,18.132c0.472,1.006,0.728,2.208,0.734,3.32c0.055,10.048,0.032,20.095,0.032,30.144
		c0,0.539,0,1.076,0,1.625c1.674,0,3.166,0,4.75,0c0-0.616,0-1.119,0-1.624c0-5.416-0.005-10.833,0.007-16.251
		c0-0.691,0.01-1.401,0.156-2.07c1.386-6.321,2.79-12.64,4.211-18.953c0.862-3.831,1.424-4.13,5.256-3.048
		C116.579,155.434,120.307,155.989,124.233,155.877z M136.86,92.088c-0.557,0-1.119,0.057-1.667-0.011
		c-1.894-0.232-3.442,0.392-5.012,1.477c-5.175,3.578-10.414,7.067-15.7,10.48c-2.045,1.32-4.234,2.444-6.442,3.476
		c-3.014,1.408-6.117,2.621-9.162,3.963c-1.552,0.683-2.156,1.989-1.664,3.353c0.507,1.404,1.903,1.988,3.555,1.478
		c0.264-0.081,0.516-0.205,0.779-0.289c8.31-2.695,16.171-6.323,23.414-11.24c0.076-0.051,0.16-0.092,0.241-0.138
		c2.248-1.297,3.871-0.51,4.24,2.07c0.737,5.127,1.479,10.254,2.182,15.388c0.087,0.625,0.032,1.299-0.103,1.919
		c-0.897,4.157-1.86,8.301-2.749,12.458c-0.871,4.074-2.395,8.099-0.956,12.368c0.307,0.91,0.375,1.901,0.553,2.857
		c0.815,4.409,1.56,8.834,2.476,13.223c0.463,2.222,2.225,3.3,4.315,2.974c1.923-0.301,3.209-1.992,3.025-4.155
		c-0.509-6.041-1.111-12.074-1.563-18.118c-0.081-1.078,0.135-2.329,0.637-3.275c2.493-4.696,5.139-9.312,7.706-13.97
		c1.281-2.324,2.387-4.758,2.352-7.459c-0.034-2.388-0.242-4.79-0.6-7.152c-0.886-5.852-1.882-11.688-2.871-17.524
		c-0.555-3.281-1.626-4.151-4.903-4.152C138.248,92.088,137.554,92.088,136.86,92.088z M172.28,196.461
		c1.345,0,2.499-0.057,3.646,0.018c0.945,0.063,1.248-0.281,1.377-1.215c1.141-8.246,2.292-16.493,3.542-24.727
		c0.473-3.109,0.514-6.101-0.402-9.171c-0.976-3.272-1.816-6.62-2.285-9.993c-0.68-4.895-1.044-9.838-1.411-14.77
		c-0.437-5.848-4.516-10.591-10.327-11.081c-4.782-0.404-9.62-0.181-14.434-0.173c-0.29,0-0.68,0.495-0.853,0.844
		c-0.899,1.82-1.661,3.712-2.621,5.497c-2.172,4.032-4.433,8.014-6.651,12.019c-0.2,0.362-0.537,0.757-0.516,1.116
		c0.142,2.375,0.363,4.747,0.571,7.26c4.312-1.667,8.532-2.109,12.983-1.486c-1.237-5.69-1.136-11.099,0.704-16.547
		c1.578,0.529,2.998,1.004,4.326,1.448c0.038,0.243,0.06,0.292,0.05,0.333c-0.086,0.359-0.172,0.719-0.266,1.077
		c-1.988,7.669-0.808,14.818,3.853,21.222c3.102,4.263,6.548,8.274,9.764,12.458c0.552,0.719,1.043,1.746,1.006,2.606
		c-0.137,3.142-0.511,6.271-0.796,9.404C173.124,187.159,172.71,191.717,172.28,196.461z M181.419,134.648
		c4.565,0.421,9.671-3.061,11.193-7.663c1.461-4.421,0.497-8.96,0.813-13.46c-2.911,0.183-4.572,1.831-4.758,4.607
		c-0.369,5.54-3.026,9.378-8.313,11.294c-0.195,0.071-0.375,0.19-0.507,0.259C180.396,131.417,180.907,133.034,181.419,134.648z
		 M126.644,120.806c-0.533-3.733-1.01-7.078-1.515-10.599c-2.171,1.305-4.119,2.479-6.186,3.723
		c2.181,2.172,4.166,4.177,6.191,6.138C125.44,120.364,125.933,120.469,126.644,120.806z M90.884,97.689
		c2.671,2.677,5.335,5.363,8.034,8.014c0.191,0.188,0.678,0.247,0.948,0.149c0.974-0.355,1.915-0.803,3.003-1.274
		C99.498,100.99,95.773,98.387,90.884,97.689z M118.86,120.396c-0.814-0.762-1.464-1.336-2.078-1.946
		c-2.465-2.451-2.46-2.456-5.7-0.898c-0.04,0.019-0.072,0.058-0.033,0.026C112.629,120.772,115.417,120.948,118.86,120.396z
		 M77.393,91.968c1.565,0,2.626,0,3.829,0c-0.322-1.226-0.604-2.299-0.887-3.374c-0.13-0.04-0.261-0.081-0.391-0.121
		C79.167,89.539,78.389,90.604,77.393,91.968z"/>
	<path stroke="#FFFFFF" stroke-width="3" stroke-miterlimit="10" d="M136.707,58.893c2.625,0.604,5.138,1.429,7.183,3.315
		c3.629,3.349,5.081,7.514,4.126,12.285c-0.956,4.774-3.877,8.107-8.554,9.725c-8.27,2.859-16.986-3.108-17.19-12.12
		c-0.079-3.516,0.001-7.036-0.032-10.552c-0.012-1.284,0.708-2.032,1.685-2.653C128.184,58.893,132.446,58.893,136.707,58.893z
		 M127.052,70.804c-0.255,4.319,1.812,7.612,5.446,8.927c3.353,1.214,7.034,0.129,9.17-2.749
		C137.604,73.081,132.783,71.027,127.052,70.804z M143.529,72.226c-0.23-4.55-2.73-7.871-6.648-8.319
		c-3.219-0.369-6.516-0.075-9.786-0.075c0,0.692,0,1.438,0,2.215C133.255,66.247,138.625,68.321,143.529,72.226z"/>
	<path fill="#FFFFFF" stroke="#FFFFFF" stroke-width="3" stroke-miterlimit="10" d="M124.233,155.877
		c-3.928,0.112-7.655-0.443-11.319-1.477c-3.832-1.082-4.393-0.783-5.256,3.048c-1.421,6.313-2.826,12.632-4.21,18.953
		c-0.147,0.669-0.156,1.379-0.157,2.07c-0.012,5.418-0.007,10.835-0.007,16.251c0,0.505,0,1.008,0,1.624c-1.583,0-3.076,0-4.749,0
		c0-0.551,0-1.086,0-1.625c0-10.049,0.022-20.095-0.033-30.144c-0.006-1.112-0.263-2.314-0.734-3.32
		c-2.705-5.752-4.058-11.778-3.989-18.132c0.026-2.453,0.109-4.913-0.045-7.358c-0.068-1.081-0.43-2.301-1.059-3.167
		c-3.784-5.202-7.671-10.329-11.558-15.455c-0.511-0.674-0.581-1.169-0.218-1.976c0.539-1.199,0.806-2.519,1.244-3.967
		c-1.778,0-3.278,0-4.787,0c-1.458,4.033-2.328,4.636-6.698,4.636c-2.129,0-4.259,0-6.389,0c-0.324,0-0.65,0.016-0.972-0.019
		c-1.13-0.119-2.037-0.584-2.494-1.699c-0.463-1.128-0.144-2.121,0.659-2.928c4.599-4.632,9.217-9.247,13.849-13.847
		c0.265-0.263,0.708-0.364,1.087-0.484c0.211-0.066,0.459-0.018,0.69-0.015c2.08,0.033,4.379-0.477,6.175,0.254
		c1.744,0.708,2.979,2.681,4.424,4.114c2.363,2.345,4.713,4.701,6.887,6.872c-0.748,1.587-1.706,2.954-2.045,4.459
		c-1.183,5.253,3.627,9.805,8.847,8.476c1.204-0.307,2.382-0.754,3.522-1.251c0.776-0.336,1.252-0.156,1.798,0.423
		c1.238,1.313,2.568,2.54,3.808,3.853c0.855,0.905,1.836,1.291,3.084,1.278c4.208-0.04,8.417-0.015,12.796-0.015
		c-0.791,3.572-1.554,7.026-2.32,10.479c-0.502,2.256-1.077,4.499-1.484,6.772c-0.19,1.063-0.211,2.205-0.051,3.271
		c0.44,2.926,1.021,5.83,1.537,8.744C124.139,154.971,124.17,155.373,124.233,155.877z"/>
	<path fill="#FFFFFF" stroke="#FFFFFF" stroke-width="3" stroke-miterlimit="10" d="M136.86,92.088c0.693,0,1.388,0,2.082,0
		c3.277,0,4.349,0.871,4.903,4.152c0.989,5.836,1.985,11.671,2.871,17.523c0.357,2.363,0.566,4.765,0.599,7.152
		c0.035,2.701-1.07,5.135-2.351,7.459c-2.568,4.658-5.213,9.273-7.706,13.972c-0.503,0.944-0.718,2.195-0.637,3.273
		c0.451,6.046,1.054,12.079,1.563,18.12c0.182,2.163-1.104,3.853-3.026,4.153c-2.091,0.328-3.853-0.752-4.315-2.974
		c-0.916-4.389-1.66-8.813-2.476-13.223c-0.178-0.956-0.246-1.947-0.553-2.857c-1.438-4.27,0.084-8.294,0.956-12.366
		c0.889-4.159,1.852-8.303,2.75-12.459c0.135-0.621,0.188-1.295,0.102-1.92c-0.703-5.132-1.444-10.26-2.182-15.388
		c-0.37-2.579-1.993-3.366-4.241-2.069c-0.08,0.045-0.163,0.087-0.24,0.138c-7.243,4.917-15.104,8.545-23.413,11.239
		c-0.264,0.085-0.515,0.209-0.779,0.29c-1.652,0.509-3.048-0.074-3.556-1.478c-0.492-1.363,0.112-2.668,1.664-3.353
		c3.046-1.342,6.149-2.556,9.163-3.964c2.208-1.032,4.397-2.156,6.443-3.475c5.287-3.414,10.525-6.903,15.7-10.48
		c1.569-1.084,3.117-1.709,5.012-1.477C135.741,92.145,136.304,92.088,136.86,92.088z"/>
	<path fill="#FFFFFF" stroke="#FFFFFF" stroke-width="3" stroke-miterlimit="10" d="M172.28,196.461
		c0.431-4.744,0.844-9.302,1.258-13.861c0.284-3.135,0.659-6.264,0.796-9.404c0.038-0.86-0.454-1.889-1.005-2.607
		c-3.217-4.184-6.663-8.193-9.765-12.457c-4.659-6.405-5.841-13.553-3.852-21.223c0.092-0.357,0.18-0.717,0.264-1.078
		c0.011-0.04-0.01-0.087-0.047-0.332c-1.33-0.444-2.748-0.919-4.328-1.446c-1.84,5.446-1.94,10.854-0.703,16.546
		c-4.453-0.624-8.673-0.182-12.984,1.485c-0.207-2.512-0.43-4.883-0.571-7.26c-0.021-0.359,0.315-0.754,0.517-1.116
		c2.219-4.005,4.479-7.986,6.65-12.019c0.96-1.785,1.724-3.677,2.622-5.496c0.172-0.35,0.562-0.845,0.853-0.845
		c4.813-0.008,9.649-0.231,14.433,0.173c5.812,0.489,9.891,5.231,10.327,11.082c0.367,4.931,0.731,9.874,1.411,14.767
		c0.47,3.377,1.31,6.724,2.285,9.996c0.916,3.07,0.874,6.063,0.401,9.171c-1.25,8.23-2.4,16.478-3.541,24.726
		c-0.129,0.934-0.432,1.277-1.377,1.215C174.779,196.404,173.625,196.461,172.28,196.461z"/>
	<path fill="#FFFFFF" stroke="#FFFFFF" stroke-width="3" stroke-miterlimit="10" d="M181.419,134.649
		c-0.511-1.615-1.023-3.232-1.57-4.964c0.132-0.068,0.31-0.188,0.507-0.259c5.286-1.916,7.943-5.754,8.313-11.294
		c0.186-2.776,1.847-4.426,4.758-4.607c-0.316,4.5,0.647,9.039-0.813,13.46C191.09,131.588,185.984,135.069,181.419,134.649z"/>
	<path fill="#FFFFFF" stroke="#FFFFFF" stroke-width="3" stroke-miterlimit="10" d="M126.644,120.806
		c-0.711-0.337-1.203-0.441-1.509-0.738c-2.025-1.961-4.01-3.966-6.192-6.138c2.067-1.244,4.016-2.417,6.187-3.723
		C125.634,113.728,126.11,117.073,126.644,120.806z"/>
	<path fill="#FFFFFF" stroke="#FFFFFF" stroke-width="3" stroke-miterlimit="10" d="M90.884,97.689
		c4.889,0.696,8.612,3.3,11.986,6.889c-1.089,0.472-2.03,0.919-3.004,1.274c-0.27,0.098-0.756,0.038-0.947-0.149
		C96.22,103.053,93.556,100.367,90.884,97.689z"/>
	<path fill="#FFFFFF" stroke="#FFFFFF" stroke-width="3" stroke-miterlimit="10" d="M118.86,120.396
		c-3.442,0.554-6.231,0.378-7.811-2.818c-0.039,0.032-0.007-0.006,0.033-0.025c3.239-1.558,3.235-1.552,5.7,0.897
		C117.396,119.059,118.045,119.634,118.86,120.396z"/>
	<path fill="#FFFFFF" stroke="#FFFFFF" stroke-width="3" stroke-miterlimit="10" d="M77.393,91.968
		c0.996-1.364,1.774-2.429,2.551-3.495c0.13,0.041,0.26,0.081,0.391,0.121c0.283,1.075,0.564,2.148,0.887,3.374
		C80.02,91.968,78.958,91.968,77.393,91.968z"/>
	<path fill="#FFFFFF" stroke="#FFFFFF" stroke-width="3" stroke-miterlimit="10" d="M127.052,70.804
		c5.731,0.223,10.553,2.277,14.616,6.178c-2.136,2.878-5.817,3.963-9.17,2.749C128.863,78.415,126.797,75.123,127.052,70.804z"/>
	<path fill="#FFFFFF" stroke="#FFFFFF" stroke-width="3" stroke-miterlimit="10" d="M143.529,72.226
		c-4.904-3.904-10.274-5.979-16.435-6.179c0-0.778,0-1.524,0-2.216c3.271,0,6.565-0.294,9.786,0.075
		C140.799,64.355,143.299,67.675,143.529,72.226z"/>
</g>
</svg>
