<?xml version="1.0" encoding="utf-8"?>
<!-- Generator: Adobe Illustrator 16.0.0, SVG Export Plug-In . SVG Version: 6.00 Build 0)  -->
<!DOCTYPE svg PUBLIC "-//W3C//DTD SVG 1.1//EN" "http://www.w3.org/Graphics/SVG/1.1/DTD/svg11.dtd">
<svg version="1.1" id="Layer_1" xmlns="http://www.w3.org/2000/svg" xmlns:xlink="http://www.w3.org/1999/xlink" x="0px" y="0px"
	 width="250px" height="250px" viewBox="0 0 250 250" enable-background="new 0 0 250 250" xml:space="preserve">
<g>
	<path stroke="#FFFFFF" stroke-width="6" stroke-miterlimit="10" d="M218.99,137.592c-1.749,3.994-3.831,7.723-7.197,10.667
		c-8.626,7.541-22.018,6.625-28.585-1.689c-0.182-0.23-0.428-0.406-0.65-0.614c-7.463,9.718-23.174,10.405-32.418-0.761
		c-4.329,5.063-9.674,8.191-16.478,8.189c-6.807-0.002-12.158-3.124-16.487-8.201c-9.164,10.937-23.976,10.924-32.834,0.385
		c-2.723,1.96-5.215,4.31-8.152,5.769c-9.298,4.62-20.575,1.177-26.155-7.727c-0.968-1.546-1.781-3.203-2.505-4.878
		c-1.169-2.704-0.372-5.02,1.934-6.028c2.251-0.985,4.562,0.068,5.694,2.793c1.103,2.649,2.56,5.008,4.817,6.804
		c6.284,4.999,14.892,3.021,18.834-4.621c1.522-2.95,3.603-5.191,6.074-7.188c5.752-4.655,11.554-9.249,17.335-13.869
		c0.423-0.338,0.837-0.689,1.469-1.21c-2.804-1.517-5.429-2.998-8.125-4.335c-0.45-0.224-1.273,0.053-1.82,0.317
		c-10.4,5.01-20.76,10.11-31.204,15.027c-1.49,0.702-3.446,0.966-5.066,0.702c-2.077-0.335-3.228-2.124-3.573-4.206
		c-0.487-2.954-0.906-5.921-1.275-8.892c-0.428-3.437,1.023-5.898,4.059-7.502c11.614-6.139,23.228-12.279,34.827-18.443
		c2.74-1.456,5.43-1.512,8.256-0.215c8.494,3.898,17.066,7.627,25.492,11.665c2.121,1.018,4.181,2.654,5.629,4.506
		c7.383,9.441,14.577,19.033,21.776,28.614c0.904,1.2,1.546,2.623,2.166,4.006c2.845,6.34,9.078,9.591,15.368,7.949
		c3.925-1.024,6.087-3.844,7.54-7.396c1.213-2.961,2.246-3.668,4.967-3.7c2.107-0.025,3.427,0.985,4.301,2.812
		c0.708,1.482,1.313,3.06,2.27,4.371c4.294,5.886,13.214,5.868,18.335-0.052c1.141-1.319,2.04-2.9,2.792-4.483
		c0.875-1.842,1.732-3.541,4.049-3.747c2.296-0.203,3.529,1.226,4.542,2.982C218.99,136.124,218.99,136.857,218.99,137.592z
		 M89.052,137.271c4.979,9.446,15.924,10.423,21.878,2.048c0.979-1.378,1.594-3.015,2.361-4.54c0.79-1.569,2.05-2.389,3.804-2.403
		c1.756-0.015,3.046,0.783,3.836,2.349c0.331,0.651,0.562,1.354,0.888,2.009c2.26,4.538,5.582,7.757,10.867,8.21
		c5.334,0.454,9.065-2.217,11.909-6.477c0.704-1.055,0.707-1.83-0.118-2.905c-6.672-8.681-13.239-17.442-19.921-26.116
		c-0.817-1.061-2.004-2-3.22-2.566c-7.977-3.709-16.021-7.272-24.005-10.964c-1.148-0.531-1.981-0.426-3.042,0.14
		c-10.134,5.412-20.296,10.774-30.448,16.15c-2.971,1.574-2.973,1.575-2.342,4.82c0.027,0.148,0.156,0.276,0.286,0.491
		c0.603-0.277,1.155-0.521,1.698-0.782c9.128-4.417,18.272-8.808,27.376-13.275c3-1.472,5.822-1.439,8.731,0.215
		c3.399,1.933,6.769,3.972,10.334,5.549c5.904,2.612,6.362,7.539,0.956,11.385C103.459,125.884,96.381,131.64,89.052,137.271z"/>
	<path stroke="#FFFFFF" stroke-width="6" stroke-miterlimit="10" d="M31.009,162.559c1.087-0.971,2.025-2.346,3.298-2.821
		c2.078-0.777,3.762,0.528,5.015,2.918c1.013,1.932,1.995,3.993,3.466,5.547c6.4,6.762,16.568,4.657,20.621-4.139
		c0.333-0.72,0.626-1.46,0.983-2.169c0.788-1.565,2.077-2.362,3.834-2.348c1.759,0.016,2.959,0.879,3.808,2.409
		c1.149,2.071,2.095,4.362,3.653,6.082c6.296,6.943,16.658,4.911,20.767-3.928c0.282-0.608,0.523-1.237,0.803-1.85
		c0.781-1.701,2.043-2.719,3.982-2.715c1.927,0.004,3.186,0.979,3.989,2.697c0.671,1.436,1.292,2.929,2.195,4.214
		c6.003,8.549,17.542,7.324,22.067-2.304c0.364-0.774,0.668-1.577,1.062-2.335c0.771-1.484,2.009-2.256,3.694-2.274
		c1.762-0.019,3.015,0.783,3.858,2.318c1.058,1.918,1.908,4.016,3.279,5.68c3.319,4.025,7.675,5.477,12.811,4.249
		c3.563-0.85,5.771-3.262,7.244-6.47c0.305-0.666,0.542-1.364,0.872-2.018c1.153-2.278,3.402-3.202,5.462-2.271
		c2.158,0.976,2.982,3.112,2.155,5.542c-5.571,16.389-24.435,17.925-34.278,7.186c-0.413-0.448-0.826-0.894-1.343-1.452
		c-4.38,5.098-9.703,8.255-16.528,8.249c-6.764-0.006-12.065-3.074-16.509-8.251c-4.375,5.044-9.673,8.231-16.477,8.254
		c-6.835,0.023-12.164-3.109-16.287-7.894c-2.75,2-5.199,4.306-8.074,5.775c-9.259,4.728-20.653,1.299-26.306-7.704
		c-1.191-1.896-2.086-3.98-3.118-5.979C31.009,164.027,31.009,163.293,31.009,162.559z"/>
	<path stroke="#FFFFFF" stroke-width="6" stroke-miterlimit="10" d="M164.756,125.293c-11.869,0.344-23.526-9.243-24.215-22.901
		c-0.627-12.461,9.471-23.81,22.055-24.597c13.18-0.824,24.625,9.064,25.523,22.002
		C189.018,112.702,179.175,124.957,164.756,125.293z M164.427,86.101c-8.24-0.083-15.377,6.783-15.504,14.92
		c-0.137,8.734,6.8,15.888,15.466,15.953c8.088,0.061,15.274-6.909,15.362-14.899C179.849,93.132,173.188,86.191,164.427,86.101z"/>
	<path fill="#FFFFFF" stroke="#FFFFFF" stroke-width="6" stroke-miterlimit="10" d="M89.052,137.271
		c7.33-5.631,14.408-11.387,21.827-16.664c5.407-3.847,4.948-8.772-0.956-11.385c-3.564-1.577-6.934-3.616-10.334-5.549
		c-2.909-1.654-5.731-1.687-8.731-0.215c-9.103,4.468-18.247,8.857-27.376,13.276c-0.542,0.262-1.095,0.504-1.697,0.781
		c-0.129-0.214-0.259-0.343-0.286-0.49c-0.629-3.246-0.627-3.247,2.343-4.82c10.152-5.377,20.314-10.739,30.448-16.15
		c1.06-0.566,1.893-0.671,3.042-0.141c7.984,3.692,16.029,7.255,24.005,10.964c1.216,0.565,2.402,1.505,3.22,2.566
		c6.681,8.674,13.25,17.435,19.92,26.115c0.827,1.076,0.824,1.851,0.12,2.905c-2.845,4.259-6.576,6.932-11.909,6.477
		c-5.287-0.453-8.608-3.673-10.868-8.209c-0.326-0.656-0.557-1.356-0.887-2.01c-0.79-1.564-2.08-2.363-3.836-2.349
		c-1.754,0.015-3.014,0.835-3.805,2.403c-0.768,1.525-1.383,3.163-2.36,4.54C104.977,147.693,94.03,146.719,89.052,137.271z"/>
	<path fill="#FFFFFF" stroke="#FFFFFF" stroke-width="6" stroke-miterlimit="10" d="M164.427,86.101
		c8.762,0.089,15.422,7.031,15.324,15.973c-0.086,7.99-7.274,14.96-15.362,14.899c-8.667-0.065-15.603-7.219-15.466-15.954
		C149.05,92.884,156.187,86.018,164.427,86.101z"/>
</g>
</svg>
