<?xml version="1.0" encoding="utf-8"?>
<!-- Generator: Adobe Illustrator 16.0.0, SVG Export Plug-In . SVG Version: 6.00 Build 0)  -->
<!DOCTYPE svg PUBLIC "-//W3C//DTD SVG 1.1//EN" "http://www.w3.org/Graphics/SVG/1.1/DTD/svg11.dtd">
<svg version="1.1" id="Layer_1" xmlns="http://www.w3.org/2000/svg" xmlns:xlink="http://www.w3.org/1999/xlink" x="0px" y="0px"
	 width="250px" height="250px" viewBox="0 0 250 250" enable-background="new 0 0 250 250" xml:space="preserve">
<g>
	<path stroke="#FFFFFF" stroke-width="2" stroke-miterlimit="10" d="M150.564,71.256c0.98,0.308,1.979,0.565,2.938,0.931
		c5.961,2.275,9.063,9.281,6.549,15.138c-6.969,16.241-14.016,32.448-21.061,48.656c-0.338,0.779-0.32,1.382,0.014,2.148
		c4.848,11.199,9.676,22.404,14.475,33.623c1.572,3.679,1.863,7.337-0.094,11.059c-3.52,6.69-12.684,8.296-18.076,2.971
		c-1.275-1.259-2.342-2.856-3.096-4.487c-2.213-4.789-4.219-9.673-6.398-14.733c-0.246,0.514-0.425,0.859-0.58,1.218
		c-2.059,4.735-4.08,9.488-6.178,14.206c-2.936,6.601-10.895,9.011-17.022,5.198c-4.777-2.973-6.884-8.964-4.691-14.142
		c4.669-11.024,9.422-22.016,14.294-32.952c0.971-2.178,0.962-3.911-0.004-6.078c-4.705-10.549-9.244-21.172-13.824-31.777
		c-2.018-4.669-4.016-9.348-5.986-14.037c-2.505-5.963-0.707-12.22,4.483-15.146c1.396-0.787,3.079-1.064,4.633-1.567
		c0.285-0.093,0.581-0.153,0.872-0.228c0.613,0,1.227,0,1.84,0c0.217,0.067,0.429,0.158,0.649,0.198
		c3.416,0.614,6.267,2.236,7.962,5.277c1.501,2.693,2.638,5.593,3.878,8.426c3.069,7.01,6.104,14.034,9.159,21.051
		c0.13,0.299,0.3,0.581,0.511,0.984c0.252-0.567,0.441-0.984,0.623-1.404c3.902-9.064,7.822-18.122,11.697-27.198
		c0.934-2.189,2.295-4.025,4.338-5.196c1.531-0.877,3.244-1.436,4.877-2.137C148.418,71.256,149.492,71.256,150.564,71.256z
		 M133.197,100.002c-0.252,0.535-0.422,0.871-0.572,1.216c-5.443,12.561-10.887,25.121-16.331,37.682
		c-3.041,7.019-6.094,14.03-9.123,21.053c-2.136,4.95-4.302,9.889-6.33,14.883c-0.979,2.412-0.443,4.782,1.068,6.849
		c3.638,4.979,11.218,4.008,13.767-1.832c8.517-19.522,16.962-39.074,25.417-58.625c0.16-0.371,0.199-0.913,0.055-1.28
		C138.551,113.368,135.916,106.804,133.197,100.002z M136.432,142.108c-0.17,0.318-0.293,0.509-0.383,0.714
		c-2.602,6-5.217,11.995-7.775,18.012c-0.191,0.451-0.143,1.132,0.055,1.598c1.563,3.739,3.172,7.461,4.797,11.175
		c1.105,2.52,2.078,5.12,3.426,7.508c2.656,4.704,9.402,5.107,12.758,0.878c2.15-2.71,2.262-5.645,0.891-8.734
		c-2.947-6.643-5.877-13.292-8.813-19.938C139.752,149.618,138.115,145.919,136.432,142.108z M118.239,99.857
		c-0.184,0.377-0.295,0.571-0.377,0.776c-2.57,6.339-5.147,12.674-7.683,19.025c-0.159,0.398-0.13,0.981,0.038,1.383
		c1.399,3.35,2.852,6.677,4.293,10.008c0.125,0.29,0.295,0.562,0.509,0.962c2.835-6.502,5.603-12.839,8.343-19.187
		c0.132-0.305,0.119-0.764-0.012-1.072C121.697,107.849,120.008,103.96,118.239,99.857z M98.895,94.924
		c0.099-0.002,0.197-0.004,0.295-0.006c2.476-6.143,4.95-12.285,7.416-18.408c-3.085-1.791-6.574-1.609-9.037,0.393
		c-2.701,2.194-3.77,5.475-2.562,8.739C96.171,88.784,97.589,91.834,98.895,94.924z M145.197,76.376
		c2.438,6.113,4.852,12.168,7.387,18.53c1.479-3.592,3.006-6.853,4.154-10.242c0.967-2.852-0.451-6.158-2.977-7.994
		C151.41,74.958,147.656,74.794,145.197,76.376z M103.434,105.35c2.762-6.831,5.396-13.342,8.017-19.858
		c0.091-0.227,0.123-0.544,0.037-0.762c-0.608-1.538-1.255-3.061-1.939-4.709c-0.174,0.29-0.271,0.412-0.327,0.549
		c-2.571,6.374-5.144,12.748-7.698,19.127c-0.119,0.296-0.212,0.705-0.104,0.976C102.01,102.146,102.668,103.594,103.434,105.35z
		 M142.072,79.458c-0.674,1.537-1.174,2.771-1.754,3.967c-0.342,0.707-0.352,1.322-0.053,2.062
		c2.418,5.984,4.793,11.986,7.186,17.98c0.129,0.322,0.291,0.632,0.506,1.096c0.656-1.535,1.281-2.887,1.795-4.279
		c0.164-0.444,0.174-1.055,0.006-1.493c-1.416-3.67-2.887-7.318-4.344-10.972C144.344,85.133,143.27,82.451,142.072,79.458z
		 M137.543,89.786c-0.602,1.536-1.166,2.755-1.543,4.029c-0.188,0.629-0.23,1.434-0.006,2.032c1.51,4.006,3.109,7.978,4.68,11.96
		c0.943,2.395,1.893,4.788,2.93,7.417c0.684-1.595,1.313-2.939,1.828-4.326c0.166-0.444,0.178-1.051,0.018-1.495
		c-0.625-1.724-1.348-3.412-2.035-5.113C141.494,99.546,139.572,94.801,137.543,89.786z M107.669,115.188
		c0.168-0.209,0.264-0.285,0.304-0.384c2.589-6.462,5.176-12.926,7.751-19.393c0.095-0.237,0.19-0.556,0.107-0.768
		c-0.576-1.464-1.198-2.91-1.896-4.58c-2.773,6.755-5.438,13.226-8.071,19.71c-0.14,0.344-0.13,0.838,0.006,1.187
		C106.411,112.349,107.03,113.706,107.669,115.188z"/>
	<path stroke="#FFFFFF" stroke-width="2" stroke-miterlimit="10" d="M79.504,71.256c0.817,0.304,1.692,0.505,2.438,0.932
		c1.936,1.106,2.813,2.904,2.818,5.072c0.026,12.303,0.021,24.606,0.006,36.91c-0.002,1.575-0.667,2.178-2.275,2.232
		c-0.491,0.017-0.984,0.002-1.553,0.002c0,6.565,0,13.023,0,19.576c1.007,0.244,1.839,0.748,1.825,2.023
		c-0.013,1.213-0.724,1.784-1.853,1.982c0,5.229,0,10.392,0,15.608c1.094,0.255,1.888,0.795,1.853,2.082
		c-0.034,1.217-0.794,1.738-1.868,1.941c0,5.201,0,10.329,0,15.625c1.893-0.033,3.814-0.098,5.079,1.673
		c1.006,1.408,0.781,3.007,0.682,4.556c-0.158,2.49-1.589,3.386-5.805,3.675c0,0.574,0.031,1.17-0.006,1.761
		c-0.083,1.327-0.825,2.088-1.98,2.077c-1.179-0.013-1.868-0.763-1.915-2.111c-0.019-0.532-0.003-1.067-0.003-1.779
		c-1.944,0.016-3.925,0.135-5.194-1.704c-0.923-1.337-0.794-2.857-0.698-4.338c0.168-2.562,1.488-3.424,5.803-3.893
		c0-5.145,0-10.3,0-15.524c-1.078-0.203-1.888-0.799-1.873-2.027c0.014-1.159,0.709-1.818,1.9-1.973c0-5.206,0-10.366,0-15.602
		c-1.131-0.245-1.969-0.853-1.892-2.158c0.066-1.115,0.763-1.705,1.895-1.854c0-6.492,0-12.96,0-19.546
		c-0.688-0.033-1.366-0.043-2.039-0.104c-1.151-0.103-1.718-0.682-1.805-1.827c-0.032-0.42-0.022-0.842-0.022-1.265
		c0-11.574,0-23.15,0-34.725c0-4.568,1.061-6.019,5.333-7.301C78.737,71.256,79.121,71.256,79.504,71.256z M76.941,93.68
		c0.094,0.051,0.189,0.101,0.283,0.151c1.116-1.144,2.246-2.275,3.337-3.442c0.183-0.195,0.283-0.544,0.283-0.822
		c0.017-4.058,0.032-8.115-0.003-12.173c-0.012-1.405-0.812-2.179-2.019-2.14c-1.173,0.039-1.855,0.784-1.873,2.143
		c-0.026,1.952-0.009,3.905-0.009,5.857C76.941,86.729,76.941,90.205,76.941,93.68z M77.055,112.403c1.28,0,2.487,0,3.738,0
		c0-2.268,0-4.457,0-6.646c-0.084-0.064-0.167-0.129-0.251-0.192c-0.687,0.747-1.279,1.626-2.083,2.214
		C76.804,108.988,76.725,110.574,77.055,112.403z M76.942,103.69c2.538-2.117,5.007-4.052,3.67-7.841
		c-1.161,1.168-2.321,2.314-3.449,3.493c-0.157,0.165-0.207,0.484-0.211,0.734C76.93,101.22,76.942,102.363,76.942,103.69z
		 M82.729,179.245c-2.59,0-5.125,0-7.71,0c0,0.653,0,1.237,0,1.843c2.615,0,5.151,0,7.71,0
		C82.729,180.445,82.729,179.882,82.729,179.245z"/>
	<path stroke="#FFFFFF" stroke-width="2" stroke-miterlimit="10" d="M173.563,71.256c0.654,0.2,1.344,0.325,1.955,0.616
		c2.318,1.1,3.377,3.002,3.377,5.534c0,12.226,0.004,24.452-0.006,36.678c-0.002,1.688-0.598,2.269-2.275,2.32
		c-0.49,0.015-0.982,0.001-1.557,0.001c0,6.571,0,13.027,0,19.58c1.068,0.187,1.859,0.776,1.875,1.999
		c0.016,1.254-0.828,1.803-1.928,2.067c0,5.185,0,10.314,0,15.513c1.119,0.27,1.986,0.844,1.922,2.147
		c-0.057,1.171-0.809,1.755-1.908,1.9c0,5.209,0,10.335,0,15.597c1.887,0.039,3.828-0.084,5.102,1.688
		c0.928,1.291,0.799,2.762,0.76,4.211c-0.041,1.43-0.572,2.743-1.896,3.316c-1.186,0.514-2.545,0.623-3.98,0.943
		c-0.23,1.294,0.586,3.635-2.053,3.558c-2.41-0.069-1.734-2.233-1.971-3.843c-1.793,0.038-3.627,0.13-4.922-1.488
		c-1.041-1.298-0.879-2.813-0.836-4.292c0.08-2.792,1.328-3.678,5.756-4.141c0-5.147,0-10.304,0-15.539
		c-1.068-0.226-1.844-0.779-1.826-2.054c0.016-1.235,0.816-1.72,1.869-1.979c0-5.178,0-10.308,0-15.518
		c-1.102-0.343-1.996-0.897-1.855-2.298c0.111-1.112,0.83-1.557,1.842-1.771c0-6.483,0-12.952,0-19.618
		c-0.66,0-1.297,0.036-1.93-0.008c-1.215-0.084-1.789-0.655-1.916-1.869c-0.039-0.38-0.02-0.766-0.02-1.148
		c-0.002-11.574-0.002-23.148-0.002-34.723c0-4.552,1.057-6.031,5.273-7.383C172.795,71.256,173.178,71.256,173.563,71.256z
		 M171.057,93.736c0.104,0.056,0.203,0.112,0.307,0.169c1.109-1.152,2.234-2.289,3.313-3.47c0.199-0.219,0.283-0.617,0.285-0.934
		c0.018-4.019,0.023-8.036,0.006-12.055c-0.008-1.422-0.727-2.2-1.938-2.2c-1.195,0.001-1.922,0.788-1.963,2.208
		c-0.037,1.262-0.01,2.525-0.01,3.789C171.057,85.409,171.057,89.572,171.057,93.736z M174.938,105.477
		c-0.951,0.958-1.611,1.827-2.459,2.435c-1.66,1.189-1.559,2.774-1.326,4.479c1.285,0,2.518,0,3.783,0
		C174.938,110.132,174.938,107.964,174.938,105.477z M171.059,103.654c3.428-2.324,4.414-4.386,3.719-7.947
		c-1.227,1.281-2.365,2.443-3.461,3.642c-0.18,0.194-0.24,0.552-0.248,0.836C171.041,101.29,171.059,102.396,171.059,103.654z
		 M169.184,181.105c2.648,0,5.154,0,7.715,0c0-0.646,0-1.229,0-1.847c-2.609,0-5.141,0-7.715,0
		C169.184,179.905,169.184,180.467,169.184,181.105z"/>
	<path fill="#FFFFFF" stroke="#FFFFFF" stroke-width="2" stroke-miterlimit="10" d="M147.346,71.256
		c-1.633,0.701-3.348,1.26-4.877,2.137c-2.045,1.171-3.406,3.007-4.34,5.196c-3.875,9.076-7.793,18.133-11.695,27.198
		c-0.182,0.42-0.371,0.837-0.623,1.404c-0.211-0.403-0.382-0.686-0.512-0.984c-3.054-7.017-6.089-14.041-9.158-21.051
		c-1.24-2.833-2.377-5.733-3.878-8.426c-1.695-3.041-4.547-4.663-7.963-5.277c-0.221-0.04-0.433-0.13-0.648-0.198
		C118.215,71.256,132.779,71.256,147.346,71.256z"/>
	<path fill="#FFFFFF" stroke="#FFFFFF" stroke-width="2" stroke-miterlimit="10" d="M133.197,100.002
		c2.719,6.803,5.354,13.366,7.951,19.944c0.145,0.368,0.105,0.91-0.055,1.28c-8.453,19.551-16.901,39.103-25.417,58.625
		c-2.549,5.84-10.129,6.811-13.767,1.832c-1.511-2.068-2.048-4.437-1.068-6.849c2.028-4.994,4.194-9.933,6.33-14.883
		c3.029-7.023,6.082-14.036,9.123-21.053c5.443-12.561,10.887-25.121,16.331-37.682
		C132.775,100.873,132.945,100.537,133.197,100.002z M126.852,127.795c-1.817,0.051-3.63,1.114-4.609,3.227
		c-1.975,4.265-3.856,8.573-5.68,12.904c-0.82,1.947,0.052,3.996,1.942,4.942c1.229,0.615,2.49,1.174,3.765,1.689
		c1.874,0.759,3.818,0.06,4.812-1.713c0.354-0.631,0.623-1.311,0.916-1.975c1.578-3.606,3.201-7.194,4.711-10.829
		C134.406,131.955,131.67,127.771,126.852,127.795z M108.22,183.132c2.487,0,4.476-1.274,5.507-3.64
		c1.985-4.557,3.948-9.122,5.914-13.687c0.135-0.313,0.27-0.643,0.315-0.978c0.137-0.982-0.208-1.745-1.18-2.101
		c-0.953-0.349-1.739-0.066-2.282,0.783c-0.245,0.384-0.42,0.814-0.602,1.235c-1.868,4.315-3.726,8.635-5.6,12.947
		c-0.647,1.491-1.223,1.779-2.774,1.488c-0.226-0.042-0.454-0.084-0.683-0.091c-1.037-0.033-1.78,0.559-1.965,1.547
		c-0.173,0.931,0.373,1.868,1.323,2.13C106.854,182.948,107.544,183.015,108.22,183.132z"/>
	<path fill="#FFFFFF" stroke="#FFFFFF" stroke-width="2" stroke-miterlimit="10" d="M136.432,142.108
		c1.684,3.81,3.318,7.51,4.955,11.211c2.936,6.646,5.865,13.296,8.813,19.938c1.371,3.09,1.258,6.024-0.891,8.734
		c-3.355,4.229-10.102,3.826-12.758-0.878c-1.348-2.387-2.32-4.988-3.426-7.508c-1.625-3.714-3.234-7.436-4.797-11.175
		c-0.195-0.466-0.246-1.147-0.055-1.598c2.561-6.018,5.174-12.012,7.775-18.012C136.139,142.618,136.262,142.427,136.432,142.108z
		 M143.461,183.114c0.4-0.127,1.191-0.284,1.9-0.619c0.992-0.47,1.346-1.446,1.014-2.41c-0.297-0.857-1.199-1.325-2.246-1.163
		c-2.107,0.324-2.406,0.164-3.238-1.761c-1.914-4.422-3.818-8.85-5.742-13.267c-0.57-1.309-1.537-1.785-2.629-1.366
		c-1.029,0.394-1.502,1.483-0.992,2.678c2.086,4.89,4.168,9.782,6.371,14.619C138.863,181.947,140.725,182.969,143.461,183.114z"/>
	<path fill="#FFFFFF" stroke="#FFFFFF" stroke-width="2" stroke-miterlimit="10" d="M118.239,99.857
		c1.77,4.102,3.458,7.991,5.111,11.896c0.131,0.309,0.143,0.768,0.012,1.072c-2.74,6.348-5.508,12.685-8.343,19.187
		c-0.214-0.4-0.384-0.672-0.509-0.962c-1.442-3.331-2.894-6.659-4.293-10.008c-0.168-0.401-0.197-0.985-0.038-1.383
		c2.535-6.352,5.112-12.687,7.683-19.025C117.944,100.43,118.055,100.234,118.239,99.857z"/>
	<path fill="#FFFFFF" stroke="#FFFFFF" stroke-width="2" stroke-miterlimit="10" d="M98.895,94.924
		c-1.306-3.09-2.724-6.14-3.888-9.283c-1.208-3.264-0.14-6.544,2.562-8.739c2.463-2,5.952-2.183,9.037-0.393
		c-2.467,6.123-4.94,12.266-7.416,18.408C99.092,94.92,98.994,94.922,98.895,94.924z"/>
	<path fill="#FFFFFF" stroke="#FFFFFF" stroke-width="2" stroke-miterlimit="10" d="M145.197,76.376
		c2.459-1.582,6.213-1.418,8.566,0.293c2.523,1.836,3.941,5.142,2.977,7.994c-1.15,3.39-2.678,6.65-4.156,10.243
		C150.049,88.545,147.635,82.489,145.197,76.376z"/>
	<path fill="#FFFFFF" stroke="#FFFFFF" stroke-width="2" stroke-miterlimit="10" d="M103.434,105.35
		c-0.766-1.756-1.424-3.203-2.016-4.678c-0.107-0.271-0.015-0.679,0.104-0.976c2.556-6.381,5.127-12.754,7.699-19.127
		c0.056-0.138,0.152-0.259,0.326-0.549c0.686,1.649,1.332,3.171,1.939,4.709c0.087,0.218,0.054,0.536-0.037,0.762
		C108.831,92.008,106.196,98.519,103.434,105.35z"/>
	<path fill="#FFFFFF" stroke="#FFFFFF" stroke-width="2" stroke-miterlimit="10" d="M142.072,79.458
		c1.197,2.992,2.273,5.675,3.342,8.36c1.457,3.654,2.928,7.302,4.344,10.972c0.17,0.438,0.158,1.049-0.006,1.493
		c-0.514,1.393-1.139,2.743-1.793,4.279c-0.217-0.464-0.379-0.773-0.508-1.096c-2.393-5.994-4.768-11.995-7.186-17.98
		c-0.297-0.74-0.289-1.354,0.053-2.062C140.896,82.23,141.398,80.995,142.072,79.458z"/>
	<path fill="#FFFFFF" stroke="#FFFFFF" stroke-width="2" stroke-miterlimit="10" d="M137.543,89.786
		c2.029,5.015,3.951,9.76,5.871,14.505c0.688,1.7,1.41,3.389,2.035,5.112c0.16,0.444,0.148,1.051-0.018,1.496
		c-0.516,1.387-1.145,2.731-1.828,4.326c-1.039-2.63-1.986-5.023-2.93-7.418c-1.57-3.982-3.168-7.954-4.68-11.959
		c-0.225-0.6-0.182-1.403,0.006-2.032C136.377,92.542,136.941,91.322,137.543,89.786z"/>
	<path fill="#FFFFFF" stroke="#FFFFFF" stroke-width="2" stroke-miterlimit="10" d="M107.669,115.188
		c-0.64-1.482-1.259-2.84-1.801-4.228c-0.136-0.349-0.145-0.843-0.006-1.186c2.634-6.483,5.299-12.956,8.071-19.71
		c0.698,1.67,1.321,3.116,1.896,4.579c0.083,0.212-0.013,0.53-0.107,0.769c-2.575,6.467-5.161,12.93-7.751,19.392
		C107.933,114.903,107.837,114.979,107.669,115.188z"/>
	<path fill="#FFFFFF" stroke="#FFFFFF" stroke-width="2" stroke-miterlimit="10" d="M76.941,93.68c0-3.475,0-6.951,0-10.426
		c0-1.953-0.017-3.905,0.009-5.857c0.018-1.359,0.699-2.104,1.873-2.143c1.208-0.039,2.007,0.735,2.019,2.14
		c0.035,4.058,0.02,8.115,0.003,12.173c-0.001,0.278-0.101,0.627-0.284,0.822c-1.091,1.167-2.22,2.299-3.337,3.442
		C77.13,93.78,77.035,93.729,76.941,93.68z"/>
	<path fill="#FFFFFF" stroke="#FFFFFF" stroke-width="2" stroke-miterlimit="10" d="M77.055,112.403
		c-0.331-1.83-0.251-3.416,1.403-4.624c0.804-0.588,1.396-1.468,2.083-2.214c0.083,0.063,0.167,0.128,0.251,0.191
		c0,2.189,0,4.38,0,6.647C79.542,112.403,78.335,112.403,77.055,112.403z"/>
	<path fill="#FFFFFF" stroke="#FFFFFF" stroke-width="2" stroke-miterlimit="10" d="M76.942,103.69c0-1.327-0.012-2.471,0.009-3.614
		c0.005-0.249,0.055-0.568,0.211-0.733c1.127-1.179,2.289-2.326,3.449-3.494C81.949,99.639,79.479,101.573,76.942,103.69z"/>
	<path fill="#FFFFFF" stroke="#FFFFFF" stroke-width="2" stroke-miterlimit="10" d="M82.729,179.245c0,0.637,0,1.2,0,1.843
		c-2.559,0-5.096,0-7.71,0c0-0.605,0-1.189,0-1.843C77.605,179.245,80.14,179.245,82.729,179.245z"/>
	<path fill="#FFFFFF" stroke="#FFFFFF" stroke-width="2" stroke-miterlimit="10" d="M171.057,93.736c0-4.163,0-8.327,0-12.491
		c0.002-1.263-0.025-2.527,0.01-3.789c0.041-1.421,0.768-2.207,1.963-2.208c1.211,0,1.932,0.777,1.938,2.2
		c0.018,4.019,0.014,8.037-0.006,12.055c0,0.316-0.086,0.714-0.285,0.933c-1.078,1.182-2.203,2.318-3.313,3.47
		C171.26,93.849,171.16,93.792,171.057,93.736z"/>
	<path fill="#FFFFFF" stroke="#FFFFFF" stroke-width="2" stroke-miterlimit="10" d="M174.938,105.477c0,2.488,0,4.655,0,6.914
		c-1.268,0-2.5,0-3.785,0c-0.23-1.705-0.334-3.29,1.326-4.479C173.326,107.304,173.986,106.435,174.938,105.477z"/>
	<path fill="#FFFFFF" stroke="#FFFFFF" stroke-width="2" stroke-miterlimit="10" d="M171.059,103.654c0-1.259-0.018-2.364,0.01-3.47
		c0.008-0.284,0.068-0.642,0.248-0.836c1.096-1.198,2.234-2.36,3.461-3.642C175.473,99.269,174.486,101.33,171.059,103.654z"/>
	<path fill="#FFFFFF" stroke="#FFFFFF" stroke-width="2" stroke-miterlimit="10" d="M169.184,181.105c0-0.639,0-1.199,0-1.847
		c2.574,0,5.105,0,7.715,0c0,0.618,0,1.201,0,1.847C174.338,181.105,171.832,181.105,169.184,181.105z"/>
	<path stroke="#FFFFFF" stroke-width="2" stroke-miterlimit="10" d="M126.852,127.795c4.818-0.024,7.555,4.16,5.859,8.247
		c-1.51,3.635-3.135,7.222-4.713,10.829c-0.291,0.664-0.561,1.344-0.916,1.974c-0.994,1.772-2.937,2.472-4.811,1.713
		c-1.274-0.516-2.536-1.074-3.765-1.689c-1.89-0.945-2.763-2.995-1.942-4.941c1.823-4.332,3.706-8.641,5.681-12.905
		C123.222,128.908,125.035,127.846,126.852,127.795z M123.816,146.825c1.864-4.293,3.713-8.475,5.483-12.689
		c0.434-1.031-0.139-2.035-1.135-2.421c-1.105-0.426-1.926-0.063-2.463,1.151c-1.667,3.77-3.319,7.545-4.972,11.319
		c-0.146,0.335-0.255,0.688-0.404,1.097C121.506,145.805,122.611,146.293,123.816,146.825z"/>
	<path stroke="#FFFFFF" stroke-width="2" stroke-miterlimit="10" d="M108.22,183.132c-0.676-0.117-1.366-0.184-2.025-0.364
		c-0.95-0.263-1.496-1.199-1.323-2.13c0.184-0.988,0.928-1.58,1.965-1.547c0.229,0.008,0.457,0.049,0.683,0.091
		c1.552,0.291,2.127,0.003,2.774-1.488c1.874-4.313,3.731-8.632,5.6-12.947c0.182-0.421,0.356-0.852,0.602-1.235
		c0.543-0.85,1.33-1.132,2.282-0.783c0.972,0.355,1.316,1.118,1.18,2.101c-0.046,0.335-0.181,0.664-0.315,0.978
		c-1.966,4.564-3.929,9.13-5.914,13.687C112.697,181.857,110.708,183.132,108.22,183.132z"/>
	<path stroke="#FFFFFF" stroke-width="2" stroke-miterlimit="10" d="M143.461,183.114c-2.736-0.146-4.598-1.167-5.563-3.29
		c-2.203-4.836-4.285-9.729-6.371-14.618c-0.51-1.194-0.037-2.284,0.992-2.678c1.092-0.419,2.059,0.058,2.629,1.366
		c1.924,4.418,3.828,8.845,5.74,13.267c0.834,1.924,1.131,2.085,3.238,1.761c1.049-0.162,1.951,0.306,2.246,1.163
		c0.334,0.965-0.02,1.94-1.014,2.41C144.652,182.83,143.861,182.987,143.461,183.114z"/>
	<path fill="#FFFFFF" stroke="#FFFFFF" stroke-width="2" stroke-miterlimit="10" d="M123.816,146.825
		c-1.205-0.532-2.31-1.021-3.491-1.543c0.149-0.408,0.258-0.761,0.405-1.095c1.652-3.776,3.305-7.551,4.973-11.32
		c0.535-1.214,1.355-1.578,2.461-1.151c0.996,0.386,1.568,1.39,1.137,2.42C127.529,138.351,125.678,142.533,123.816,146.825z"/>
</g>
</svg>
