<?xml version="1.0" encoding="utf-8"?>
<!-- Generator: Adobe Illustrator 16.0.0, SVG Export Plug-In . SVG Version: 6.00 Build 0)  -->
<!DOCTYPE svg PUBLIC "-//W3C//DTD SVG 1.1//EN" "http://www.w3.org/Graphics/SVG/1.1/DTD/svg11.dtd">
<svg version="1.1" id="Layer_1" xmlns="http://www.w3.org/2000/svg" xmlns:xlink="http://www.w3.org/1999/xlink" x="0px" y="0px"
	 width="250px" height="250px" viewBox="0 0 250 250" enable-background="new 0 0 250 250" xml:space="preserve">
<g>
	<path stroke="#FFFFFF" stroke-width="3" stroke-miterlimit="10" d="M60.921,78.346c0.528-1.205,1.492-1.581,2.747-1.55
		c1.811,0.044,3.623,0.011,5.464,0.011c0.063-1.439,0.021-2.741,0.196-4.011c0.64-4.651,4.901-7.329,9.372-5.955
		c0.264,0.081,0.539,0.122,0.813,0.183c0.096-1.502,0.024-2.983,0.313-4.391c0.825-4.028,4.627-6.903,8.446-6.544
		c4.553,0.428,7.736,3.604,7.862,8.039c0.106,3.723,0.029,7.45,0.034,11.176c0,0.442,0,0.884,0,1.415c2.764,0,5.453,0,8.274,0
		c-0.123-2.828,0.229-5.476,2.835-7.18c2.285-1.494,4.842-1.329,7.543,0.519c2.723-2.044,5.522-2.096,8.319,0
		c2.76-2.058,5.521-2.064,8.289,0.003c2.419-1.799,4.972-2.155,7.564-0.515c2.618,1.655,2.996,4.331,2.817,7.197
		c2.81,0,5.465,0,8.238,0c0.02-0.463,0.056-0.89,0.056-1.317c0.005-3.644-0.034-7.289,0.015-10.932
		c0.058-4.539,3.037-7.804,7.525-8.347c4.417-0.535,8.637,2.947,8.966,7.442c0.082,1.122,0.011,2.254,0.011,3.547
		c3.139-1.202,5.894-0.833,8.252,1.386c2.374,2.234,2.282,5.209,2.19,8.287c1.922,0,3.735,0.033,5.545-0.011
		c1.254-0.031,2.218,0.346,2.746,1.55c0,4.537,0,9.073,0,13.61c-0.675,1.123-1.676,1.503-2.961,1.456
		c-1.728-0.063-3.463-0.015-5.386-0.015c0,1.317,0.119,2.533-0.021,3.719c-0.575,4.914-4.861,7.625-9.62,6.153
		c-0.186-0.057-0.381-0.077-0.717-0.143c0,1.041,0.035,2.004-0.007,2.964c-0.195,4.55-3.778,8.006-8.267,7.998
		c-4.477-0.009-8.1-3.467-8.233-8.035c-0.109-3.723-0.03-7.452-0.036-11.176c0-0.438,0-0.878,0-1.398c-2.085,0-4.086,0-6.249,0
		c0,1.701-0.115,3.399,0.022,5.076c0.336,4.067-0.759,7.644-3.563,10.591c-2.181,2.293-2.773,4.888-2.712,8.02
		c0.185,9.514,0.066,19.032,0.066,28.549c0,0.478,0,0.957,0,1.519c-1.386,0-2.658,0-4.072,0c-0.022-0.416-0.069-0.841-0.069-1.267
		c-0.005-11.015,0.006-22.029-0.019-33.044c-0.002-1.113,0.279-2.028,0.979-2.898c1.192-1.48,2.26-3.063,3.449-4.546
		c1.277-1.59,1.863-3.347,1.789-5.392c-0.076-2.177-0.017-4.358-0.017-6.69c-0.527,0-0.959,0-1.39,0
		c-5.224,0-10.447-0.024-15.671,0.03c-0.653,0.007-1.394,0.3-1.933,0.686c-1.35,0.966-2.82,1.356-4.446,1.332
		c-1.151-0.017-2.301-0.004-3.457,0.249c2.128,1.097,4.357,2.037,6.354,3.334c2.077,1.35,3.33,3.5,4.339,5.738
		c1.021,2.263,1.686,4.614,1.615,7.287c-1.229,0-2.396,0.053-3.551-0.045c-0.225-0.019-0.54-0.607-0.579-0.958
		c-0.309-2.812-1.34-5.31-3.083-7.528c-1.033-1.313-2.351-2.197-3.934-2.712c-1.229-0.401-2.448-0.836-3.679-1.231
		c-1.106-0.355-1.661-1.115-1.685-2.252c-0.025-1.215-0.046-2.432,0.002-3.645c0.063-1.586,0.832-2.339,2.459-2.377
		c1.862-0.045,3.726,0.006,5.588-0.021c1.375-0.021,2.268-0.819,2.309-1.986c0.036-1.051-0.841-2.076-2.106-2.097
		c-4.081-0.069-8.163-0.025-12.416-0.025c0,0.507,0,0.936,0,1.364c0,3.645,0.033,7.29-0.012,10.934
		c-0.029,2.326,0.736,4.245,2.441,5.848c1.681,1.58,3.334,3.2,4.88,4.91c0.519,0.573,0.944,1.476,0.948,2.231
		c0.06,11.338,0.042,22.679,0.037,34.018c0,0.233-0.052,0.467-0.089,0.768c-1.317,0-2.592,0-4.051,0c0-0.5,0-0.969,0-1.438
		c0-10.569-0.011-21.139,0.019-31.708c0.002-0.887-0.238-1.514-0.884-2.116c-1.362-1.271-2.636-2.633-3.972-3.932
		c-2.367-2.3-3.48-5.104-3.459-8.386c0.013-2.024,0.003-4.047,0.003-6.171c-1.352,0-2.661,0-4.143,0c0,0.402,0,0.83,0,1.258
		c-0.002,3.726,0.08,7.454-0.028,11.177c-0.187,6.483-6.957,10.238-12.505,6.962c-2.426-1.431-3.76-3.626-3.976-6.441
		c-0.083-1.077-0.014-2.165-0.014-3.268c-7.729,1.162-10.001-0.95-10.499-9.789c-1.742,0-3.506-0.047-5.265,0.016
		c-1.285,0.045-2.287-0.334-2.962-1.457C60.921,87.419,60.921,82.883,60.921,78.346z M83.748,85.024c0,1.66,0,3.32,0,4.979
		c0,5.222-0.018,10.445,0.01,15.667c0.014,2.6,1.915,4.406,4.395,4.271c2.301-0.126,3.872-1.955,3.874-4.569
		c0.008-11.579,0.004-23.157,0.003-34.736c0-2.105,0.03-4.211-0.015-6.315c-0.043-1.975-1.322-3.543-3.14-3.975
		c-2.696-0.641-5.105,1.273-5.117,4.151C83.73,71.34,83.75,78.182,83.748,85.024z M162.527,85.161c0-1.376,0-2.753,0-4.129
		c-0.001-5.507,0.012-11.012-0.009-16.518c-0.007-2.133-1.276-3.752-3.183-4.177c-2.795-0.623-5.084,1.361-5.088,4.457
		c-0.009,11.134-0.003,22.266-0.003,33.4c0,2.51-0.015,5.02,0.009,7.53c0.016,1.838,0.88,3.19,2.564,3.914
		c2.754,1.183,5.682-0.834,5.696-3.95C162.547,98.844,162.524,92.003,162.527,85.161z M73.344,85.134
		c0,3.68-0.023,7.361,0.007,11.041c0.02,2.269,1.728,3.74,3.777,3.333c1.51-0.298,2.474-1.656,2.476-3.554
		c0.009-6.351,0.004-12.699,0.003-19.05c0-1.092,0.041-2.186-0.025-3.275c-0.082-1.375-0.818-2.339-2.094-2.858
		c-1.137-0.463-2.161-0.148-3.04,0.609c-0.85,0.733-1.12,1.723-1.113,2.833C73.355,77.854,73.343,81.493,73.344,85.134z
		 M172.932,85.132c0-3.721,0.005-7.442-0.001-11.163c-0.003-1.479-0.671-2.561-2.026-3.163c-1.167-0.52-2.366-0.304-3.106,0.62
		c-0.604,0.755-1.056,1.853-1.08,2.812c-0.116,4.122-0.051,8.249-0.049,12.375c0,3.195-0.024,6.39,0.009,9.585
		c0.021,2.118,1.506,3.527,3.438,3.354c1.629-0.145,2.796-1.506,2.81-3.379C172.949,92.493,172.932,88.813,172.932,85.132z
		 M123.275,89.156c8.927,0,17.85,0,26.764,0c0-2.761,0-5.42,0-8.2c-1.393,0-2.721,0-4.047,0c-1.367,0-2.736,0-4.148,0
		c-0.264,2.64-1.392,4.609-3.771,5.648c-2.411,1.054-4.653,0.513-6.656-0.98c-2.593,1.854-5.139,2.055-7.776,0.341
		c-0.226-0.147-0.67-0.143-0.912-0.016c-0.148,0.078-0.192,0.542-0.132,0.797C122.776,87.529,123.027,88.297,123.275,89.156z
		 M96.215,89.155c1.434,0,2.737,0,4.097,0c0-1.31-0.028-2.52,0.006-3.728c0.045-1.588,0.817-2.357,2.404-2.428
		c0.637-0.029,1.276-0.005,2.028-0.005c-0.129-0.746-0.235-1.356-0.337-1.951c-2.792,0-5.472,0-8.197,0
		C96.215,83.781,96.215,86.431,96.215,89.155z M112.735,77.882c0.003,0,0.005,0,0.008,0c0-1.012,0.034-2.026-0.008-3.036
		c-0.056-1.33-0.819-2.123-1.989-2.149c-1.117-0.026-2.025,0.689-2.079,1.925c-0.096,2.141-0.096,4.291,0.003,6.431
		c0.057,1.235,0.979,1.955,2.092,1.919c1.122-0.037,1.897-0.806,1.962-2.053C112.777,79.91,112.735,78.894,112.735,77.882z
		 M133.537,77.811c0.002,0,0.006,0,0.007,0c0,1.052-0.045,2.108,0.011,3.156c0.065,1.185,0.818,1.933,1.886,2.002
		c1.116,0.072,2.086-0.627,2.147-1.847c0.109-2.179,0.11-4.37,0.011-6.55c-0.055-1.227-0.992-1.923-2.118-1.874
		c-1.123,0.049-1.873,0.815-1.933,2.075C133.499,75.784,133.537,76.799,133.537,77.811z M121.024,77.841c0.001,0,0.003,0,0.004,0
		c0-1.053,0.057-2.109-0.014-3.156c-0.084-1.244-0.89-1.985-2.015-1.99c-1.082-0.003-1.957,0.669-2.01,1.849
		c-0.098,2.179-0.1,4.369-0.004,6.547c0.054,1.217,1.002,1.935,2.112,1.88c1.068-0.053,1.829-0.777,1.911-1.975
		C121.081,79.949,121.024,78.893,121.024,77.841z M125.244,77.868c-0.007,0-0.015,0-0.021,0c0,0.932,0,1.863,0,2.793
		c0,0.081,0.008,0.162,0.017,0.242c0.13,1.267,0.853,2.027,1.965,2.067c1.144,0.042,2.072-0.736,2.12-2.025
		c0.08-2.1,0.077-4.209-0.018-6.31c-0.058-1.25-0.932-1.958-2.059-1.94c-1.12,0.018-1.909,0.765-1.99,2.017
		C125.19,75.761,125.244,76.816,125.244,77.868z M69.125,89.222c0-2.799,0-5.483,0-8.168c-1.382,0-2.687,0-3.963,0
		c0,2.78,0,5.46,0,8.168C66.508,89.222,67.754,89.222,69.125,89.222z M177.143,81.016c0,2.743,0,5.426,0,8.159
		c1.367,0,2.672,0,3.989,0c0-2.768,0-5.454,0-8.159C179.769,81.016,178.49,81.016,177.143,81.016z"/>
	
		<rect x="133.52" y="117.328" fill="#FFFFFF" stroke="#FFFFFF" stroke-width="3" stroke-miterlimit="10" width="5.771" height="28.523"/>
</g>
<path stroke="#FFFFFF" stroke-miterlimit="10" d="M107.846,157.423c0-1.677,0-3.354,0-5.031c0.052-0.289,0.114-0.578,0.152-0.869
	c0.196-1.445,0.319-2.904,0.591-4.335c1.425-7.506,4.75-14.085,9.782-19.812c0.784-0.893,1.632-1.734,2.494-2.552
	c0.524-0.498,1.237-0.462,1.672,0.026c0.461,0.514,0.465,1.077,0.038,1.617c-0.216,0.273-0.493,0.498-0.725,0.763
	c-1.28,1.466-2.571,2.922-3.813,4.417c-0.199,0.239-0.322,0.713-0.23,1c1.318,4.168,2.672,8.327,4.049,12.479
	c0.09,0.273,0.405,0.577,0.682,0.67c3.936,1.34,7.878,2.656,11.829,3.946c0.277,0.09,0.711,0.035,0.943-0.133
	c4.258-3.061,8.502-6.143,12.729-9.248c0.251-0.185,0.459-0.606,0.46-0.918c0.032-4.085,0.035-8.168-0.003-12.252
	c-0.004-0.354-0.256-0.827-0.545-1.04c-3.545-2.618-7.121-5.191-10.676-7.797c-0.393-0.287-0.726-0.38-1.17-0.161
	c-2.538,1.25-5.087,2.48-7.622,3.739c-0.822,0.408-1.468,0.335-1.852-0.291c-0.374-0.611-0.157-1.313,0.587-1.779
	c4.656-2.912,9.677-4.888,15.103-5.794c1.485-0.248,2.983-0.42,4.475-0.626c1.569,0,3.139,0,4.707,0
	c0.263,0.045,0.524,0.113,0.789,0.13c4.673,0.32,9.168,1.384,13.475,3.231c7.048,3.026,12.801,7.689,17.302,13.871
	c3.578,4.912,5.966,10.373,7.064,16.364c0.326,1.774,0.542,3.568,0.807,5.354c0,1.461,0,2.922,0,4.381
	c-0.051,0.344-0.124,0.686-0.147,1.03c-0.216,3.053-0.685,6.064-1.57,8.996c-2.701,8.967-7.867,16.215-15.384,21.765
	c-4.958,3.66-10.498,6.064-16.57,7.177c-1.854,0.342-3.734,0.534-5.604,0.795c-1.568,0-3.137,0-4.706,0
	c-0.346-0.053-0.69-0.098-1.033-0.161c-2.782-0.516-5.623-0.828-8.334-1.593c-7.404-2.089-13.674-6.108-18.859-11.779
	c-5.439-5.949-8.887-12.904-10.246-20.865C108.218,160.575,108.057,158.995,107.846,157.423z M149.723,142.163
	c-4.245,3.084-8.424,6.113-12.583,9.168c-0.182,0.134-0.308,0.546-0.247,0.769c0.29,1.066,0.671,2.108,0.988,3.168
	c0.245,0.815-0.032,1.445-0.682,1.672c-0.706,0.244-1.319-0.094-1.61-0.936c-0.346-0.995-0.677-1.995-0.969-3.007
	c-0.141-0.488-0.392-0.754-0.885-0.915c-3.952-1.29-7.896-2.599-11.832-3.931c-0.5-0.169-0.842-0.098-1.254,0.206
	c-2.83,2.082-5.625,4.22-8.546,6.167c-1.394,0.929-2.163,1.891-1.682,3.587c0.079,0.279,0.019,0.594,0.052,0.888
	c0.79,7.019,3.186,13.418,7.405,19.103c0.199,0.27,0.643,0.502,0.974,0.504c4.191,0.034,8.381,0.012,12.572,0.035
	c0.535,0.003,0.827-0.195,1.11-0.617c2.162-3.201,4.356-6.383,6.503-9.596c0.199-0.301,0.265-0.81,0.171-1.163
	c-0.301-1.147-0.712-2.264-1.067-3.396c-0.288-0.925-0.039-1.559,0.684-1.809c0.703-0.244,1.313,0.142,1.618,1.056
	c0.353,1.049,0.701,2.1,1.01,3.161c0.145,0.495,0.388,0.665,0.914,0.663c4.893-0.02,9.787-0.021,14.681,0.002
	c0.56,0.002,0.792-0.176,0.961-0.706c1.362-4.268,2.77-8.521,4.137-12.787c0.7-2.188,0.854-1.627-0.97-2.963
	C157.383,147.709,153.572,144.959,149.723,142.163z M150.943,133.308c0,2,0.021,4.001-0.013,6.001
	c-0.01,0.553,0.182,0.882,0.62,1.197c4.122,2.971,8.221,5.972,12.35,8.933c0.27,0.194,0.762,0.286,1.073,0.186
	c3.749-1.212,7.487-2.456,11.217-3.729c0.294-0.101,0.623-0.434,0.721-0.729c1.379-4.149,2.73-8.306,4.051-12.473
	c0.093-0.291,0-0.755-0.188-1.005c-4.581-6.127-10.431-10.584-17.582-13.328c-0.482-0.185-0.818-0.161-1.245,0.153
	c-3.462,2.545-6.938,5.07-10.424,7.581c-0.418,0.3-0.6,0.608-0.592,1.129C150.962,129.251,150.943,131.279,150.943,133.308z
	 M173.897,178.628c2,0,4-0.014,6,0.011c0.486,0.007,0.775-0.158,1.061-0.553c4.676-6.431,7.138-13.624,7.527-21.55
	c0.022-0.453-0.097-0.732-0.473-1.004c-3.312-2.383-6.601-4.796-9.919-7.169c-0.252-0.181-0.71-0.26-1.003-0.167
	c-3.799,1.23-7.589,2.488-11.368,3.78c-0.315,0.105-0.663,0.464-0.769,0.781c-1.608,4.839-3.185,9.688-4.733,14.547
	c-0.102,0.319-0.025,0.813,0.164,1.095c2.161,3.234,4.37,6.437,6.541,9.664c0.296,0.438,0.618,0.583,1.132,0.576
	C170.004,178.612,171.951,178.628,173.897,178.628z M149.733,169.352c-2.541,0-5.082,0.016-7.622-0.013
	c-0.556-0.007-0.877,0.185-1.182,0.636c-2.112,3.14-4.262,6.251-6.36,9.397c-0.2,0.3-0.285,0.82-0.179,1.16
	c1.19,3.783,2.436,7.55,3.65,11.325c0.144,0.451,0.359,0.684,0.853,0.818c7.276,1.979,14.523,1.871,21.758-0.209
	c0.462-0.134,0.707-0.354,0.856-0.826c1.183-3.701,2.387-7.395,3.604-11.083c0.152-0.462,0.075-0.792-0.196-1.185
	c-2.16-3.136-4.307-6.283-6.433-9.445c-0.292-0.435-0.607-0.594-1.126-0.589C154.816,169.365,152.274,169.352,149.733,169.352z
	 M159.6,117.221c-6.656-1.699-13.159-1.815-19.732-0.014c0.053,0.143,0.166,0.166,0.25,0.228c3.062,2.22,6.123,4.435,9.167,6.676
	c0.412,0.305,0.66,0.148,0.984-0.091c2.508-1.832,5.023-3.651,7.534-5.478C158.365,118.135,158.923,117.718,159.6,117.221z
	 M110.345,152.735c0.186-0.07,0.266-0.082,0.324-0.126c2.844-2.059,5.681-4.132,8.538-6.176c0.429-0.309,0.312-0.598,0.19-0.973
	c-1.084-3.309-2.155-6.621-3.233-9.933c-0.068-0.206-0.16-0.406-0.277-0.702C112.52,140.39,110.772,146.312,110.345,152.735z
	 M188.442,152.849c-0.397-6.564-2.221-12.475-5.527-18.011c-0.093,0.163-0.146,0.227-0.17,0.302
	c-1.137,3.489-2.261,6.985-3.417,10.47c-0.163,0.49,0.058,0.677,0.385,0.913c2.432,1.758,4.858,3.522,7.286,5.283
	C187.429,152.118,187.859,152.427,188.442,152.849z M120.225,181.054c4.338,4.698,9.212,8.167,15,10.361
	c0.025-0.13,0.056-0.187,0.043-0.23c-1.044-3.231-2.081-6.467-3.161-9.688c-0.068-0.205-0.463-0.417-0.711-0.423
	c-1.565-0.038-3.134-0.021-4.7-0.021C124.618,181.054,122.541,181.054,120.225,181.054z M164.213,191.187
	c5.587-2.309,10.238-5.633,14.238-10.063c-0.232-0.035-0.335-0.064-0.438-0.064c-3.324-0.003-6.649,0.011-9.974-0.019
	c-0.558-0.004-0.66,0.308-0.79,0.707c-0.875,2.723-1.758,5.443-2.637,8.163C164.491,190.286,164.376,190.664,164.213,191.187z"/>
</svg>
