<?xml version="1.0" encoding="utf-8"?>
<!-- Generator: Adobe Illustrator 16.0.0, SVG Export Plug-In . SVG Version: 6.00 Build 0)  -->
<!DOCTYPE svg PUBLIC "-//W3C//DTD SVG 1.1//EN" "http://www.w3.org/Graphics/SVG/1.1/DTD/svg11.dtd">
<svg version="1.1" id="Layer_1" xmlns="http://www.w3.org/2000/svg" xmlns:xlink="http://www.w3.org/1999/xlink" x="0px" y="0px"
	 width="250px" height="250px" viewBox="0 0 250 250" enable-background="new 0 0 250 250" xml:space="preserve">
<g>
	<path fill-rule="evenodd" clip-rule="evenodd" stroke="#FFFFFF" stroke-width="2" stroke-miterlimit="10" d="M142.145,78.033
		c1.268,0.5,1.59,1.496,1.586,2.769c-0.025,7.275-0.013,14.55-0.012,21.825c0,0.415,0,0.829,0,1.396c0.473,0,0.844,0,1.215,0
		c1.923,0.001,3.848-0.018,5.771,0.01c1.281,0.019,2.152,0.677,2.139,1.826c-0.073,6.181,0.605,12.399-0.399,18.536
		c-1.684,10.275-10.22,18.477-20.529,19.999c-0.414,0.062-0.823,0.147-1.233,0.222c0.209,1.958,2.446,3.909,4.771,4.152
		c0.59,0.062,1.187,0.07,1.78,0.07c7.555,0.005,15.109,0.012,22.665,0c3.54-0.005,6.518,1.219,8.653,4.091
		c2.311,3.105,2.776,6.559,1.215,10.1c-1.607,3.646-4.53,5.666-8.51,6.09c-0.624,0.066-1.259,0.037-1.888,0.037
		c-18.467,0.002-36.934,0.006-55.401-0.003c-2.555-0.001-4.686,0.803-6.004,3.107c-2.434,4.255,0.585,9.128,5.699,9.184
		c3.917,0.043,7.834,0.009,11.751,0.009c7.31,0.001,14.62-0.002,21.93,0.003c1.479,0.001,2.293,0.524,2.494,1.563
		c0.221,1.141-0.379,2.1-1.529,2.356c-0.437,0.099-0.901,0.097-1.353,0.097c-11.192,0.006-22.385,0.004-33.577,0.006
		c-5.606,0.001-10.19-4.459-10.297-10.023c-0.104-5.438,4.38-10.141,9.932-10.277c3.88-0.096,7.764-0.026,11.646-0.027
		c15.075-0.001,30.149,0.002,45.223-0.002c3.311-0.001,5.596-1.606,6.426-4.479c1.063-3.681-1.592-7.56-5.412-7.69
		c-3.738-0.127-7.483-0.052-11.226-0.056c-4.302-0.006-8.604,0.024-12.905-0.009c-4.54-0.036-8.105-1.922-9.75-6.229
		c-0.709-1.854-1.737-2.071-3.332-2.41c-10.325-2.194-16.939-8.437-19.665-18.645c-0.507-1.899-0.643-3.935-0.688-5.913
		c-0.099-4.37-0.036-8.743-0.029-13.115c0.003-1.898,0.686-2.571,2.604-2.578c2.131-0.007,4.263-0.001,6.567-0.001
		c0-0.47,0-0.875,0-1.281c0-7.31,0.014-14.62-0.014-21.93c-0.005-1.271,0.299-2.27,1.563-2.78c0.35,0,0.7,0,1.05,0
		c1.16,0.621,1.458,1.629,1.453,2.881c-0.028,7.272-0.014,14.545-0.014,21.817c0,0.404,0,0.807,0,1.22c7.796,0,15.433,0,23.158,0
		c0-0.487,0-0.901,0-1.315c0-7.237,0.014-14.475-0.014-21.712c-0.005-1.249,0.3-2.255,1.44-2.89
		C141.445,78.033,141.795,78.033,142.145,78.033z M107.382,108.094c-0.037,0.145-0.083,0.242-0.083,0.338
		c0.011,4.336-0.069,8.676,0.072,13.008c0.102,3.111,1.086,6.032,2.632,8.748c4.112,7.227,12.409,11.622,21.52,10.218
		c8.247-1.271,15.926-8.488,16.849-16.747c0.568-5.082,0.317-10.255,0.43-15.388c0.001-0.054-0.075-0.11-0.124-0.177
		C134.921,108.094,121.157,108.094,107.382,108.094z"/>
	<path fill-rule="evenodd" clip-rule="evenodd" stroke="#FFFFFF" stroke-width="2" stroke-miterlimit="10" d="M127.978,116.441
		c-4.371,0-8.741,0.007-13.111-0.004c-1.429-0.004-2.274-0.696-2.35-1.859c-0.069-1.054,0.593-1.925,1.634-2.098
		c0.376-0.063,0.767-0.05,1.15-0.05c8.531-0.002,17.062-0.002,25.593,0c0.35,0,0.702-0.01,1.047,0.037
		c0.985,0.134,1.66,0.858,1.723,1.813c0.067,1.013-0.528,1.848-1.534,2.075c-0.369,0.083-0.763,0.083-1.145,0.083
		C136.648,116.443,132.313,116.441,127.978,116.441z"/>
	<path fill-rule="evenodd" clip-rule="evenodd" stroke="#FFFFFF" stroke-width="2" stroke-miterlimit="10" d="M128.089,126.374
		c-4.231,0-8.462,0.002-12.693-0.004c-0.453,0-0.92,0.012-1.356-0.087c-0.913-0.208-1.45-0.807-1.519-1.757
		c-0.068-0.945,0.343-1.655,1.228-1.975c0.478-0.173,1.027-0.202,1.544-0.203c8.532-0.012,17.064-0.011,25.595-0.002
		c0.45,0,0.914,0.032,1.346,0.145c0.97,0.254,1.513,1.048,1.425,2.036c-0.089,0.992-0.646,1.6-1.623,1.775
		c-0.409,0.073-0.835,0.068-1.254,0.069C136.551,126.376,132.32,126.374,128.089,126.374z"/>
</g>
</svg>
