<?xml version="1.0" encoding="utf-8"?>
<!-- Generator: Adobe Illustrator 16.0.0, SVG Export Plug-In . SVG Version: 6.00 Build 0)  -->
<!DOCTYPE svg PUBLIC "-//W3C//DTD SVG 1.1//EN" "http://www.w3.org/Graphics/SVG/1.1/DTD/svg11.dtd">
<svg version="1.1" id="Layer_1" xmlns="http://www.w3.org/2000/svg" xmlns:xlink="http://www.w3.org/1999/xlink" x="0px" y="0px"
	 width="250px" height="250px" viewBox="0 0 250 250" enable-background="new 0 0 250 250" xml:space="preserve">
<g>
	<path stroke="#FFFFFF" stroke-width="2" stroke-miterlimit="10" d="M71.635,186.45c1.156-1.431,2.251-2.915,3.489-4.271
		c0.735-0.804,1.897-0.724,2.545,0.014c0.704,0.801,0.69,1.678,0.004,2.474c-0.595,0.69-1.261,1.319-1.913,1.959
		c-0.536,0.525-0.518,1.004,0.013,1.529c1.553,1.534,3.101,3.074,4.63,4.632c0.584,0.597,1.062,0.504,1.612-0.049
		c6.927-6.94,13.858-13.876,20.804-20.798c0.639-0.638,0.531-1.116-0.063-1.694c-1.423-1.384-2.811-2.804-4.216-4.206
		c-1.083-1.08-1.105-1.083-2.167-0.023c-3.988,3.984-7.972,7.973-11.961,11.956c-0.308,0.308-0.62,0.618-0.967,0.878
		c-0.825,0.62-1.663,0.544-2.358-0.176c-0.699-0.726-0.678-1.569-0.091-2.379c0.185-0.255,0.423-0.472,0.646-0.697
		c4.097-4.1,8.208-8.185,12.286-12.303c1.159-1.17,2.44-1.84,4.138-1.656c0.353,0.037,0.833-0.21,1.105-0.478
		c2.661-2.616,5.326-5.229,7.918-7.913c2.365-2.449,3.263-5.646,3.783-8.843c0.745-4.569,1.149-9.196,1.604-13.808
		c0.099-1.001-0.208-2.042-0.328-3.065c-0.488-4.177-0.13-8.313,0.662-12.592c-6.085,0.833-11.292-0.76-15.424-5.322
		c-2.366-2.613-3.699-5.724-4.038-9.213c-0.721-7.439,3.627-14.398,10.48-16.941c4.052-1.503,8.094-1.463,12.076,0.165
		c3.941,1.61,6.796,4.439,8.602,8.175c2.485-2.198,4.819-4.473,7.367-6.476c7.506-5.899,15.981-9.469,25.564-10.224
		c0.232-0.018,0.458-0.108,0.688-0.164c1.588,0,3.177,0,4.765,0c2.831,0.553,5.747,0.84,8.479,1.706
		c9.076,2.877,15.653,8.704,19.426,17.486c3.811,8.873,3.567,17.934,0.711,26.991c-3.413,10.814-10.02,19.345-19.024,26.104
		c-1.119,0.841-2.144,0.82-2.847-0.036c-0.722-0.881-0.517-1.98,0.653-2.856c4.062-3.042,7.67-6.536,10.688-10.622
		c5.544-7.507,8.879-15.857,8.961-25.247c0.081-9.257-3.009-17.278-10.299-23.341c-4.094-3.405-8.845-5.394-14.107-6.124
		c-9.824-1.362-18.8,1.118-27.154,6.183c-4.514,2.736-8.457,6.175-11.836,10.234c-0.356,0.428-0.602,1.122-0.569,1.674
		c0.406,6.992-2.307,12.322-8.315,15.966c-0.371,0.226-0.79,0.622-0.886,1.012c-1.904,7.815-1.795,15.521,1.718,22.903
		c4.031,8.473,10.852,13.487,19.964,15.366c7.541,1.557,14.833,0.396,21.91-2.439c0.699-0.279,1.376-0.617,2.084-0.87
		c1.062-0.379,1.976-0.002,2.378,0.924c0.397,0.915,0.063,1.909-0.967,2.373c-1.588,0.715-3.2,1.395-4.85,1.95
		c-6.333,2.137-12.781,2.792-19.472,2.019c-3.144-0.364-6.431-0.026-9.591,0.429c-3.552,0.512-7.095,1.315-10.517,2.392
		c-1.732,0.545-3.347,1.794-4.734,3.036c-2.48,2.222-4.771,4.658-7.084,7.06c-0.378,0.393-0.647,1.07-0.644,1.613
		c0.011,1.408-0.462,2.561-1.431,3.53c-7.071,7.078-14.137,14.163-21.239,21.211c-0.594,0.588-1.446,0.917-2.179,1.366
		c-0.636,0-1.271,0-1.905,0c-3.509-2.21-6.368-5.069-8.578-8.578C71.635,187.721,71.635,187.085,71.635,186.45z M122.124,100.96
		c-8.33-1.509-13.152-6.42-14.668-14.628c-4.935,0.476-9.771,5.313-10.236,10.265c8.272,1.474,13.14,6.391,14.627,14.635
		C116.94,110.588,121.393,106.141,122.124,100.96z M104.514,166.744c6.035-6.034,12.082-12.08,17.969-17.967
		c-0.852-0.906-1.788-1.904-2.685-2.859c-6.001,6.013-12.021,12.044-18.048,18.085C102.668,164.913,103.647,165.886,104.514,166.744
		z M107.994,111.359c-0.456-6.051-6.396-10.891-10.818-10.818C97.333,105.05,101.755,110.677,107.994,111.359z M111.312,86.197
		c0.518,6.396,6.898,11.069,10.861,10.76C121.729,91.618,117.186,87.083,111.312,86.197z M114.465,145.523
		c0.978-0.937,1.983-1.899,3.003-2.877c-0.606-0.999-1.223-2.014-1.931-3.179C115.148,141.662,114.799,143.636,114.465,145.523z
		 M126.021,151.182c-1.109,1.045-2.1,1.978-3.142,2.959c2.038-0.366,4.027-0.725,6.218-1.119
		C127.889,152.299,126.877,151.692,126.021,151.182z"/>
	<path stroke="#FFFFFF" stroke-width="2" stroke-miterlimit="10" d="M120.794,123.31c0.135-8.166,2.882-15.456,7.674-21.979
		c4.844-6.594,10.979-11.649,18.6-14.749c6.903-2.809,13.975-3.693,21.292-1.66c8.144,2.262,14.792,9.885,15.99,18.227
		c1.457,10.14-1.467,19.079-7.335,27.176c-4.804,6.627-10.98,11.653-18.61,14.73c-7.351,2.965-14.894,3.952-22.518,1.167
		c-8.375-3.061-13.11-9.252-14.693-17.938c-0.212-1.167-0.284-2.361-0.393-3.546C120.758,124.265,120.794,123.786,120.794,123.31z
		 M152.813,99.044c-2.326,2.34-4.692,4.719-6.985,7.025c2.265,2.265,4.615,4.617,6.888,6.892c2.315-2.319,4.685-4.69,6.994-7.005
		C157.456,103.698,155.108,101.344,152.813,99.044z M143.037,108.889c-2.351,2.341-4.723,4.702-6.886,6.856
		c2.271,2.298,4.626,4.678,6.857,6.934c2.272-2.266,4.624-4.612,6.923-6.905C147.647,113.493,145.295,111.144,143.037,108.889z
		 M162.585,108.813c-2.355,2.354-4.706,4.703-6.956,6.951c2.313,2.31,4.684,4.679,6.927,6.92c2.306-2.264,4.696-4.611,7.016-6.89
		C167.252,113.476,164.9,111.127,162.585,108.813z M145.77,125.58c2.326,2.328,4.702,4.707,6.989,6.995
		c2.296-2.302,4.671-4.684,6.896-6.914c-2.3-2.302-4.668-4.672-6.983-6.987C150.408,120.938,148.058,123.289,145.77,125.58z
		 M169.464,96.306c-2.28-2.337-4.641-4.756-6.88-7.052c-2.321,2.317-4.672,4.663-6.915,6.902c2.296,2.302,4.657,4.669,6.963,6.982
		C164.9,100.87,167.25,98.52,169.464,96.306z M179.27,106.04c-2.303-2.306-4.674-4.679-6.846-6.854
		c-2.276,2.282-4.637,4.65-6.885,6.903c2.226,2.219,4.574,4.56,6.854,6.833C174.658,110.657,177.004,108.309,179.27,106.04z
		 M133.135,118.603c-2.358,2.354-4.708,4.7-6.996,6.983c2.34,2.325,4.724,4.692,6.986,6.94c2.3-2.307,4.665-4.679,6.968-6.988
		C137.829,123.281,135.477,120.937,133.135,118.603z M143.063,128.421c-2.378,2.389-4.737,4.759-6.963,6.994
		c2.279,2.28,4.647,4.648,6.781,6.781c2.279-2.273,4.647-4.636,6.994-6.977C147.671,133.019,145.345,130.697,143.063,128.421z
		 M162.637,128.554c-2.295,2.292-4.662,4.656-6.986,6.978c1.464,1.455,3.031,3.013,4.814,4.785c2.663-1.886,5.446-3.856,8.147-5.769
		C166.423,132.351,164.447,130.37,162.637,128.554z M145.044,91.296c-2.688,1.908-5.44,3.864-8.144,5.784
		c2.177,2.183,4.15,4.163,6.013,6.03c2.299-2.306,4.659-4.673,6.964-6.985C148.409,94.659,146.846,93.099,145.044,91.296z
		 M171.505,131.686c1.96-2.786,3.905-5.55,5.668-8.055c-1.824-1.825-3.405-3.407-4.89-4.892c-2.245,2.238-4.595,4.58-6.876,6.854
		C167.328,127.514,169.307,129.49,171.505,131.686z M133.149,113.013c2.354-2.354,4.701-4.701,6.905-6.905
		c-1.951-1.933-3.955-3.918-6.113-6.057c-1.872,2.656-3.82,5.421-5.675,8.053C130.04,109.887,131.598,111.453,133.149,113.013z
		 M152.884,138.349c-1.869,1.892-3.791,3.835-5.671,5.736c3.089-0.265,6.24-0.914,9.281-2.205
		C155.168,140.582,153.932,139.373,152.884,138.349z M181.017,110.16c-1.937,1.938-3.87,3.873-5.737,5.741
		c1.082,1.091,2.3,2.319,3.583,3.614C180.085,116.479,180.836,113.351,181.017,110.16z M124.25,121.454
		c0.121,0.015,0.243,0.029,0.365,0.045c1.917-1.92,3.834-3.84,5.619-5.628c-1.142-1.154-2.368-2.396-3.822-3.868
		C125.678,115.211,124.964,118.333,124.25,121.454z M158.438,87.608c-0.018-0.106-0.035-0.214-0.053-0.321
		c-3.121,0.723-6.243,1.444-9.408,2.176c1.452,1.463,2.684,2.703,3.772,3.801C154.6,91.426,156.52,89.518,158.438,87.608z
		 M167.668,88.318c-0.004,0.051-0.008,0.101-0.011,0.151c1.627,1.635,3.252,3.271,4.886,4.912c0.418-0.39,0.931-0.869,1.708-1.596
		C171.928,90.563,169.799,89.44,167.668,88.318z M175.128,96.112c1.66,1.654,3.277,3.268,4.896,4.879
		c0.076-0.029,0.153-0.059,0.23-0.089c-1.121-2.13-2.242-4.259-3.467-6.586C176.063,95.1,175.586,95.616,175.128,96.112z
		 M130.376,135.625c-1.729-1.724-3.329-3.319-4.929-4.916c-0.057,0.015-0.112,0.03-0.169,0.045c1.129,2.119,2.259,4.237,3.423,6.422
		C129.475,136.46,129.991,135.981,130.376,135.625z M131.24,139.813c2.356,1.24,4.487,2.362,6.618,3.483
		c0.003-0.051,0.005-0.101,0.008-0.15c-1.631-1.633-3.263-3.266-4.83-4.833C132.609,138.668,132.068,139.119,131.24,139.813z"/>
	<path fill="#FFFFFF" stroke="#FFFFFF" stroke-width="2" stroke-miterlimit="10" d="M152.813,99.044
		c2.294,2.3,4.643,4.653,6.896,6.912c-2.31,2.314-4.679,4.686-6.994,7.005c-2.272-2.274-4.623-4.626-6.888-6.892
		C148.121,103.764,150.487,101.384,152.813,99.044z"/>
	<path fill="#FFFFFF" stroke="#FFFFFF" stroke-width="2" stroke-miterlimit="10" d="M162.585,108.813
		c2.315,2.314,4.667,4.664,6.986,6.981c-2.319,2.278-4.71,4.626-7.016,6.891c-2.243-2.242-4.614-4.61-6.927-6.921
		C157.879,113.515,160.229,111.166,162.585,108.813z"/>
</g>
</svg>
