<?xml version="1.0" encoding="utf-8"?>
<!-- Generator: Adobe Illustrator 16.0.0, SVG Export Plug-In . SVG Version: 6.00 Build 0)  -->
<!DOCTYPE svg PUBLIC "-//W3C//DTD SVG 1.1//EN" "http://www.w3.org/Graphics/SVG/1.1/DTD/svg11.dtd">
<svg version="1.1" id="Layer_1" xmlns="http://www.w3.org/2000/svg" xmlns:xlink="http://www.w3.org/1999/xlink" x="0px" y="0px"
	 width="250px" height="250px" viewBox="0 0 250 250" enable-background="new 0 0 250 250" xml:space="preserve">
<g>
	<path fill="#FFFFFF" stroke="#508991" stroke-width="6" stroke-miterlimit="10" d="M192.837,162.764
		c-0.923,2.486-2.771,3.37-5.338,3.295c-3.263-0.097-6.528,0.002-9.792-0.041c-0.822-0.014-1.165,0.248-1.45,1.043
		c-2.452,6.877-8.532,11.222-15.661,11.26c-7.139,0.039-13.285-4.334-15.764-11.281c-0.282-0.794-0.648-1.025-1.462-1.021
		c-7.431,0.029-14.861,0.041-22.292-0.01c-0.984-0.006-1.392,0.297-1.716,1.211c-2.328,6.575-8.128,10.795-15.123,11.081
		c-6.652,0.273-13.009-3.485-15.571-9.778c-0.913-2.242-2.043-2.651-4.114-2.521c-2.438,0.15-4.895,0.068-7.343,0.023
		c-2.546-0.045-4.303-1.535-4.489-3.715c-0.209-2.453,1.31-4.412,3.843-4.551c3.041-0.167,6.099-0.15,9.143-0.043
		c1.365,0.047,1.969-0.313,2.437-1.656c2.297-6.604,8.665-11.013,15.602-10.973c7.007,0.041,13.271,4.422,15.57,11.031
		c0.422,1.216,0.914,1.611,2.221,1.597c7.217-0.078,14.433-0.041,21.647-0.03c0.719,0.002,1.213-0.004,1.519-0.923
		c2.375-7.134,8.694-11.733,15.889-11.675c7.315,0.063,13.425,4.604,15.839,11.77c0.077,0.24,0.17,0.479,0.266,0.746
		c2.578,0,5.14,0,7.785,0c0.021-0.49,0.057-0.908,0.057-1.326c0.005-6.314,0.021-12.629-0.023-18.94
		c-0.005-0.628-0.257-1.351-0.63-1.856c-1.497-2.041-3.12-3.992-4.625-6.031c-0.54-0.73-1.108-1.002-2.024-1
		c-10.051,0.035-20.104,0.023-30.151,0.021c-3.586-0.001-5.09-1.503-5.092-5.088c-0.005-8.848-0.001-17.697-0.001-26.545
		c0-0.503,0-1.007,0-1.631c-0.713,0-1.262,0-1.811,0c-20.748,0-41.494,0.002-62.241-0.008c-0.725,0-1.47-0.027-2.169-0.194
		c-1.989-0.476-3.192-2.235-3.053-4.334c0.128-1.951,1.633-3.5,3.633-3.723c0.425-0.046,0.856-0.061,1.286-0.061
		c22.551-0.004,45.102-0.005,67.653,0c3.482,0,5.004,1.549,5.009,5.046c0.003,1.028,0,2.056,0,3.275c0.53,0,0.984,0,1.438,0
		c5.111,0,10.224,0.069,15.335-0.029c2.521-0.049,4.071,1.004,5.165,3.227c3.33,6.774,6.699,13.532,10.187,20.226
		c1.281,2.455,2.868,4.761,4.444,7.045c1.316,1.904,2.861,3.649,4.227,5.521c0.672,0.923,1.17,1.973,1.745,2.963
		C192.837,143.689,192.837,153.227,192.837,162.764z M173.643,120.073c-0.039-0.201-0.031-0.331-0.084-0.433
		c-2.592-5.176-5.174-10.356-7.813-15.507c-0.17-0.332-0.786-0.604-1.199-0.613c-2.876-0.053-5.754-0.028-8.632-0.028
		c-1.834,0-3.667,0-5.521,0c0,5.611,0,11.078,0,16.582C158.184,120.073,165.889,120.073,173.643,120.073z M103.866,153.443
		c-4.578-0.082-8.352,3.533-8.446,8.086c-0.096,4.558,3.527,8.356,8.074,8.467c4.628,0.111,8.408-3.516,8.502-8.156
		C112.088,157.296,108.437,153.525,103.866,153.443z M160.521,170.003c4.541,0.009,8.293-3.698,8.332-8.235
		c0.041-4.576-3.754-8.353-8.36-8.328c-4.56,0.023-8.271,3.752-8.261,8.291C152.247,166.271,155.979,169.994,160.521,170.003z"/>
	<path fill="#FFFFFF" stroke="#508991" stroke-width="6" stroke-miterlimit="10" d="M60.881,123.33
		c1.098-2.42,3.021-3.128,5.595-3.11c11.152,0.085,22.307,0.034,33.46,0.04c2.355,0.001,3.897,1.007,4.514,2.891
		c0.816,2.501-0.836,5.08-3.451,5.363c-0.51,0.055-1.028,0.057-1.543,0.057c-11.11,0.004-22.221-0.043-33.331,0.037
		c-2.542,0.018-4.295-0.838-5.245-3.212C60.881,124.705,60.881,124.018,60.881,123.33z"/>
	<path fill="#FFFFFF" stroke="#508991" stroke-width="6" stroke-miterlimit="10" d="M89.542,112.237
		c-5.797,0-11.593,0.018-17.389-0.007c-2.974-0.013-4.932-2.321-4.351-5.043c0.386-1.806,1.837-3.11,3.704-3.202
		c1.542-0.075,3.09-0.041,4.636-0.041c10.219-0.003,20.438-0.007,30.657,0.003c2.702,0.002,4.481,1.494,4.623,3.807
		c0.157,2.563-1.648,4.462-4.361,4.475C101.222,112.257,95.382,112.237,89.542,112.237z"/>
	<path fill="#FFFFFF" stroke="#508991" stroke-width="6" stroke-miterlimit="10" d="M81.42,136.678c3.263,0,6.528-0.039,9.79,0.016
		c1.71,0.027,2.916,0.97,3.57,2.521c0.661,1.568,0.468,3.169-0.777,4.278c-0.83,0.738-2.083,1.377-3.161,1.396
		c-6.31,0.131-12.624,0.098-18.936,0.049c-2.423-0.021-4.216-1.873-4.229-4.146c-0.012-2.293,1.739-4.077,4.21-4.128
		c3.177-0.063,6.356-0.014,9.533-0.014C81.42,136.661,81.42,136.67,81.42,136.678z"/>
</g>
</svg>
