<?xml version="1.0" encoding="iso-8859-1"?>
<!-- Generator: Adobe Illustrator 19.0.0, SVG Export Plug-In . SVG Version: 6.00 Build 0)  -->
<svg version="1.1" id="Layer_1" xmlns="http://www.w3.org/2000/svg" xmlns:xlink="http://www.w3.org/1999/xlink" x="0px" y="0px"
	 viewBox="0 0 512 512" style="enable-background:new 0 0 512 512;" xml:space="preserve">
<g>
	<g>
		<path d="M440.114,16H75.554c-18.94,0-35.556,15.776-35.556,33.764V508c0,2.212,1.792,4,4,4h424c2.208,0,4-1.788,4.004-4V49.764
			C472.002,30.832,457.994,16,440.114,16z M463.998,504h-416V49.764C47.998,36.04,60.874,24,75.55,24h364.56
			c13.62,0,23.888,11.08,23.888,25.764V504z"/>
	</g>
</g>
<g>
	<g>
		<path d="M209.95,40.04c-13.136,0-23.82,10.688-23.82,23.82s10.684,23.82,23.82,23.82c13.136,0,23.82-10.688,23.82-23.82
			C233.77,50.728,223.086,40.04,209.95,40.04z M209.95,79.68c-8.724,0-15.82-7.096-15.82-15.82s7.096-15.82,15.82-15.82
			s15.82,7.096,15.82,15.82S218.674,79.68,209.95,79.68z"/>
	</g>
</g>
<g>
	<g>
		<path d="M306.074,40.04c-13.136,0-23.82,10.688-23.82,23.82s10.684,23.82,23.82,23.82c13.132,0,23.82-10.688,23.82-23.82
			C329.894,50.728,319.21,40.04,306.074,40.04z M306.074,79.68c-8.724,0-15.82-7.096-15.82-15.82s7.096-15.82,15.82-15.82
			c8.72,0,15.82,7.096,15.82,15.82S314.798,79.68,306.074,79.68z"/>
	</g>
</g>
<g>
	<g>
		<path d="M113.83,40.04c-13.136,0-23.82,10.688-23.82,23.82s10.684,23.82,23.82,23.82c13.136,0,23.82-10.688,23.82-23.82
			C137.65,50.728,126.966,40.04,113.83,40.04z M113.83,79.68c-8.724,0-15.82-7.096-15.82-15.82s7.096-15.82,15.82-15.82
			s15.82,7.096,15.82,15.82S122.554,79.68,113.83,79.68z"/>
	</g>
</g>
<g>
	<g>
		<path d="M402.194,40.04c-13.132,0-23.816,10.688-23.816,23.82s10.684,23.82,23.816,23.82c13.136,0,23.82-10.688,23.82-23.82
			C426.014,50.728,415.33,40.04,402.194,40.04z M402.194,79.68c-8.72,0-15.816-7.096-15.816-15.82s7.096-15.82,15.816-15.82
			c8.72,0,15.82,7.096,15.82,15.82S410.918,79.68,402.194,79.68z"/>
	</g>
</g>
<g>
	<g>
		<path d="M383.998,200h-260c-11.028,0-20,8.972-20,20v160c0,11.028,8.972,20,20,20h260c11.028,0,20-8.972,20-20V220
			C403.998,208.972,395.026,200,383.998,200z M395.998,380c0,6.616-5.384,12-12,12h-260c-6.616,0-12-5.384-12-12V220
			c0-6.616,5.384-12,12-12h260c6.616,0,12,5.384,12,12V380z"/>
	</g>
</g>
<g>
	<g>
		<path d="M394.05,140H121.87c-17.504,0-31.748,14.248-31.748,31.764c0,6.628,5.384,12.024,12,12.024c6.616,0,12-5.392,12-12.016
			c0-4.284,3.476-7.772,7.748-7.772h272.176c4.272,0,7.744,3.488,7.744,7.772c0,6.632,5.384,12.032,12,12.032
			c6.62,0,12-5.396,12.004-12.032C425.794,154.252,411.55,140,394.05,140z M413.794,175.804c-2.204,0-4-1.808-4-4.032
			c0-8.696-7.064-15.772-15.744-15.772H121.87c-8.684,0-15.748,7.076-15.748,15.772c0,2.216-1.796,4.016-4,4.016
			c-2.204,0-4-1.804-4-4.024c0-13.104,10.656-23.764,23.748-23.764h272.18c13.092,0,23.744,10.664,23.744,23.772
			C417.794,173.996,415.998,175.804,413.794,175.804z"/>
	</g>
</g>
<g>
	<g>
		<path d="M407.998,104h-364c-2.208,0-4,1.788-4,4s1.792,4,4,4h364c2.208,0,4-1.788,4-4S410.206,104,407.998,104z"/>
	</g>
</g>
<g>
	<g>
		<path d="M467.998,104h-32c-2.208,0-4,1.788-4,4s1.792,4,4,4h32c2.208,0,4-1.788,4-4S470.206,104,467.998,104z"/>
	</g>
</g>
<g>
	<g>
		<path d="M407.998,448h-364c-2.208,0-4,1.788-4,4c0,2.212,1.792,4,4,4h364c2.208,0,4-1.788,4-4
			C411.998,449.788,410.206,448,407.998,448z"/>
	</g>
</g>
<g>
	<g>
		<path d="M467.998,448h-32c-2.208,0-4,1.788-4,4c0,2.212,1.792,4,4,4h32c2.208,0,4-1.788,4-4
			C471.998,449.788,470.206,448,467.998,448z"/>
	</g>
</g>
<g>
	<g>
		<path d="M132.698,77.068l-32.08-32.076c-1.564-1.564-4.092-1.564-5.656,0s-1.564,4.092,0,5.656l32.08,32.076
			c0.78,0.78,1.804,1.172,2.828,1.172s2.044-0.392,2.828-1.172C134.262,81.16,134.262,78.632,132.698,77.068z"/>
	</g>
</g>
<g>
	<g>
		<path d="M228.818,77.068l-32.08-32.076c-1.564-1.564-4.092-1.564-5.656,0c-1.564,1.564-1.564,4.092,0,5.656l32.08,32.076
			c0.78,0.78,1.804,1.172,2.828,1.172s2.048-0.392,2.828-1.172C230.382,81.16,230.382,78.632,228.818,77.068z"/>
	</g>
</g>
<g>
	<g>
		<path d="M324.938,77.068l-32.08-32.076c-1.564-1.564-4.092-1.564-5.656,0c-1.564,1.564-1.564,4.092,0,5.656l32.08,32.076
			c0.78,0.78,1.804,1.172,2.828,1.172s2.048-0.392,2.828-1.172C326.502,81.16,326.502,78.632,324.938,77.068z"/>
	</g>
</g>
<g>
	<g>
		<path d="M421.062,77.068l-32.08-32.076c-1.564-1.564-4.092-1.564-5.656,0c-1.564,1.564-1.564,4.092,0,5.656l32.08,32.076
			c0.78,0.78,1.804,1.172,2.828,1.172c1.02,0,2.044-0.392,2.828-1.172C422.626,81.16,422.626,78.632,421.062,77.068z"/>
	</g>
</g>
<g>
	<g>
		<path d="M435.998,0h-360c-2.208,0-4,1.788-4,4v16c0,2.212,1.792,4,4,4s4-1.788,4-4V8h352v12c0,2.212,1.792,4,4,4s4-1.788,4-4V4
			C439.998,1.788,438.206,0,435.998,0z"/>
	</g>
</g>
<g>
	<g>
		<path d="M236.522,245.324l-43.564-43.56c-1.564-1.564-4.092-1.564-5.656,0c-1.564,1.564-1.564,4.092,0,5.656l43.564,43.56
			c0.78,0.78,1.804,1.172,2.828,1.172c1.024,0,2.048-0.392,2.828-1.172C238.086,249.416,238.086,246.888,236.522,245.324z"/>
	</g>
</g>
<g>
	<g>
		<path d="M296.53,305.336l-40.008-40.012c-1.564-1.564-4.092-1.564-5.656,0c-1.564,1.564-1.564,4.092,0,5.656l40.008,40.012
			c0.78,0.78,1.804,1.172,2.828,1.172s2.048-0.392,2.828-1.172C298.094,309.428,298.094,306.9,296.53,305.336z"/>
	</g>
</g>
<g>
	<g>
		<path d="M341.81,394.424L216.45,269.056c-1.564-1.564-4.092-1.564-5.656,0c-1.564,1.564-1.564,4.092,0,5.656l125.36,125.368
			c0.78,0.78,1.804,1.172,2.828,1.172s2.048-0.388,2.828-1.172C343.374,398.516,343.374,395.988,341.81,394.424z"/>
	</g>
</g>
<g>
</g>
<g>
</g>
<g>
</g>
<g>
</g>
<g>
</g>
<g>
</g>
<g>
</g>
<g>
</g>
<g>
</g>
<g>
</g>
<g>
</g>
<g>
</g>
<g>
</g>
<g>
</g>
<g>
</g>
</svg>
