<?xml version="1.0" encoding="utf-8"?>
<!-- Generator: Adobe Illustrator 16.0.0, SVG Export Plug-In . SVG Version: 6.00 Build 0)  -->
<!DOCTYPE svg PUBLIC "-//W3C//DTD SVG 1.1//EN" "http://www.w3.org/Graphics/SVG/1.1/DTD/svg11.dtd">
<svg version="1.1" id="Layer_1" xmlns="http://www.w3.org/2000/svg" xmlns:xlink="http://www.w3.org/1999/xlink" x="0px" y="0px"
	 width="250px" height="250px" viewBox="0 0 250 250" enable-background="new 0 0 250 250" xml:space="preserve">
<g>
	<path fill-rule="evenodd" clip-rule="evenodd" stroke="#FFFFFF" stroke-width="3" stroke-miterlimit="10" d="M49.011,186.916
		c1.713-5.842,4.654-11.018,8.651-15.574c7.333-8.36,16.483-13.479,27.528-15.049c1.528-0.218,2.415-0.813,3.259-2.148
		c7.805-12.371,18.981-19.494,33.553-21.198c0.301-0.035,0.602-0.063,0.901-0.115c0.145-0.025,0.282-0.099,0.52-0.185
		c0-5.551,0-11.124,0-16.909c-0.613,0-1.199,0.01-1.784-0.001c-5.196-0.104-10.433,0.158-15.583-0.386
		c-19.915-2.102-36.222-17.842-38.808-37.656c-0.799-6.119-0.477-12.387-0.655-18.587c-0.032-1.11-0.054-2.225,0.021-3.331
		c0.116-1.728,1.163-3.047,2.811-3.029c8.462,0.092,17.001-0.941,25.354,1.047c14.422,3.433,24.737,12.003,31.032,25.419
		c0.171,0.364,0.327,0.737,0.501,1.102c0.04,0.082,0.128,0.14,0.309,0.329c0.22-0.414,0.431-0.775,0.608-1.154
		c6.994-14.918,18.588-23.867,34.888-26.318c4.605-0.693,9.365-0.384,14.055-0.492c2.322-0.052,4.646-0.041,6.968,0.003
		c2.168,0.042,3.437,1.24,3.428,3.392c-0.029,6.359,0.217,12.747-0.292,19.072c-1.017,12.665-6.79,22.992-16.682,30.921
		c-8.39,6.724-18.084,9.785-28.813,9.678c-3.628-0.038-7.259-0.007-11.009-0.007c0,5.675,0,11.251,0,16.9
		c2.278,0.4,4.624,0.688,6.908,1.232c12.245,2.915,21.644,9.807,28.206,20.523c0.706,1.151,1.498,1.643,2.793,1.849
		c16.473,2.621,28.146,11.589,35.09,26.728c0.58,1.263,0.936,2.629,1.395,3.946c0,1.414,0,2.829,0,4.243
		c-0.329,1.043-0.6,2.107-0.998,3.124c-2.313,5.894-7.594,9.301-14.405,9.302c-41.448,0.004-82.896,0.002-124.346,0
		c-0.505,0-1.011,0.007-1.514-0.025c-3.665-0.23-6.825-1.593-9.494-4.14c-2.387-2.277-3.563-5.171-4.395-8.261
		C49.011,189.745,49.011,188.33,49.011,186.916z M158.295,155.729c-0.042-0.122-0.057-0.278-0.136-0.386
		c-9.115-12.357-21.409-17.885-36.579-16.083c-13.112,1.558-22.79,8.657-29.107,20.252c-0.887,1.628-2.038,2.396-3.903,2.593
		c-15.36,1.627-26.259,9.521-32.602,23.597c-1.481,3.285-0.868,6.416,1.607,9.104c1.973,2.144,4.542,2.631,7.3,2.631
		c41.146-0.005,82.293-0.003,123.438-0.004c0.303,0,0.606,0.009,0.908-0.005c6.559-0.306,10.563-5.997,7.969-11.737
		c-6.565-14.527-17.873-22.473-33.811-23.655c-4.209-0.313-8.358,0.261-12.426,1.399c-1.354,0.379-2.514,0.004-3.38-1.095
		c-0.795-1.01-0.974-2.262-0.225-3.239c0.59-0.77,1.588-1.452,2.525-1.688C152.606,156.729,155.397,156.289,158.295,155.729z
		 M119.004,109.075c-0.452-0.324-0.959-0.592-1.348-0.979C107.22,97.679,96.794,87.252,86.374,76.817
		c-0.495-0.496-1.002-1.015-1.358-1.611c-1.053-1.769-0.15-3.87,1.832-4.426c1.619-0.454,2.68,0.446,3.707,1.474
		c10.532,10.537,21.066,21.07,31.601,31.603c0.366,0.366,0.754,0.71,1.342,1.262c0.042-6.312,0.339-12.284-1.449-18.068
		c-4.585-14.828-14.475-24.024-29.613-27.418c-6.161-1.38-12.474-0.68-18.723-0.814c-1.021-0.022-0.972,0.617-0.964,1.299
		c0.056,4.443-0.042,8.893,0.19,13.325c0.525,10.029,4.588,18.504,11.785,25.451C94.255,108.094,105.954,110.466,119.004,109.075z
		 M133.948,108.926c0.177,0.226,0.353,0.451,0.53,0.677c2.201,0,4.403,0.005,6.604-0.002c7.802-0.019,15.123-1.835,21.647-6.2
		c10.652-7.127,16.646-17.085,17.494-29.932c0.297-4.476,0.148-8.982,0.193-13.475c0.003-0.337-0.08-0.675-0.143-1.17
		c-3.892,0-7.716-0.021-11.541,0.004c-8.351,0.055-16.071,2.229-22.851,7.189c-10.468,7.66-15.79,18.077-16.208,31.011
		c-0.083,2.591-0.012,5.187-0.012,8.113c0.661-0.628,1.06-0.992,1.441-1.372c10.464-10.461,20.926-20.924,31.39-31.385
		c2.031-2.032,3.786-2.305,5.242-0.823c1.437,1.465,1.139,3.189-0.911,5.24c-10.462,10.463-20.922,20.93-31.404,31.372
		C135.051,108.545,134.445,108.681,133.948,108.926z"/>
	<path fill-rule="evenodd" clip-rule="evenodd" fill="#FFFFFF" stroke="#FFFFFF" stroke-width="3" stroke-miterlimit="10" d="
		M49.011,191.159c0.832,3.09,2.008,5.983,4.395,8.261c2.669,2.547,5.829,3.909,9.494,4.14c0.503,0.032,1.009,0.025,1.514,0.025
		c41.449,0.002,82.897,0.004,124.346,0c6.812-0.001,12.092-3.408,14.405-9.302c0.398-1.017,0.669-2.081,0.998-3.124
		c0,4.849,0,9.696,0,14.545c-51.717,0-103.435,0-155.152,0C49.011,200.855,49.011,196.008,49.011,191.159z"/>
	<path fill-rule="evenodd" clip-rule="evenodd" fill="#FFFFFF" stroke="#FFFFFF" stroke-width="3" stroke-miterlimit="10" d="
		M119.004,109.075c-13.05,1.391-24.749-0.981-34.28-10.183c-7.197-6.947-11.259-15.422-11.785-25.451
		c-0.232-4.433-0.135-8.882-0.19-13.325c-0.008-0.682-0.057-1.321,0.964-1.299c6.249,0.135,12.563-0.565,18.723,0.814
		c15.138,3.394,25.027,12.59,29.613,27.418c1.789,5.784,1.491,11.757,1.449,18.068c-0.588-0.552-0.976-0.896-1.342-1.262
		c-10.535-10.532-21.069-21.065-31.601-31.603c-1.027-1.027-2.087-1.928-3.707-1.474c-1.982,0.556-2.885,2.657-1.832,4.426
		c0.355,0.597,0.863,1.115,1.358,1.611c10.42,10.435,20.846,20.861,31.282,31.278C118.045,108.483,118.552,108.751,119.004,109.075z
		"/>
	<path fill-rule="evenodd" clip-rule="evenodd" fill="#FFFFFF" stroke="#FFFFFF" stroke-width="3" stroke-miterlimit="10" d="
		M133.948,108.926c0.497-0.245,1.103-0.381,1.474-0.752c10.482-10.442,20.942-20.909,31.404-31.372
		c2.05-2.051,2.348-3.775,0.911-5.24c-1.456-1.481-3.211-1.209-5.242,0.823c-10.464,10.461-20.926,20.924-31.39,31.385
		c-0.382,0.38-0.78,0.744-1.441,1.372c0-2.927-0.071-5.522,0.012-8.113c0.418-12.934,5.74-23.351,16.208-31.011
		c6.779-4.961,14.5-7.135,22.851-7.189c3.825-0.024,7.649-0.004,11.541-0.004c0.063,0.495,0.146,0.833,0.143,1.17
		c-0.045,4.492,0.104,8.999-0.193,13.475c-0.848,12.847-6.842,22.805-17.494,29.932c-6.524,4.365-13.846,6.182-21.647,6.2
		c-2.201,0.007-4.403,0.002-6.604,0.002C134.301,109.377,134.125,109.151,133.948,108.926z"/>
	<path fill-rule="evenodd" clip-rule="evenodd" stroke="#FFFFFF" stroke-width="3" stroke-miterlimit="10" d="M139.061,162.397
		c1.641-0.04,3.017,1.246,3.09,2.886c0.084,1.898-2.317,4.15-4.439,4.16c-1.668,0.011-2.945-1.253-2.992-2.957
		C134.668,164.646,137.003,162.446,139.061,162.397z"/>
</g>
</svg>
