<?xml version="1.0" encoding="utf-8"?>
<!-- Generator: Adobe Illustrator 16.0.0, SVG Export Plug-In . SVG Version: 6.00 Build 0)  -->
<!DOCTYPE svg PUBLIC "-//W3C//DTD SVG 1.1//EN" "http://www.w3.org/Graphics/SVG/1.1/DTD/svg11.dtd">
<svg version="1.1" id="Layer_1" xmlns="http://www.w3.org/2000/svg" xmlns:xlink="http://www.w3.org/1999/xlink" x="0px" y="0px"
	 width="250px" height="250px" viewBox="0 0 250 250" enable-background="new 0 0 250 250" xml:space="preserve">
<g>
	<path fill-rule="evenodd" clip-rule="evenodd" stroke="#FFFFFF" stroke-width="10" stroke-miterlimit="10" d="M32.659,170.158
		c1.434-3.557,4.091-4.923,7.892-5.039c5.815-0.179,10.818-2.574,15.027-6.594c0.506-0.483,0.972-1.01,1.471-1.5
		c3.058-3.01,6.784-3.07,9.743,0.052c3.889,4.104,8.437,6.915,14.075,7.79c8.276,1.284,15.319-1.167,21.164-7.11
		c1.406-1.431,2.822-2.729,4.964-2.916c2.614-0.229,4.474,1.019,6.155,2.825c3.674,3.954,8.181,6.408,13.535,7.218
		c8.123,1.229,15.01-1.208,20.906-6.891c1.357-1.308,3.096-2.508,4.871-3.023c2.559-0.743,4.592,0.773,6.334,2.646
		c3.671,3.946,8.164,6.427,13.518,7.255c8.121,1.258,15.064-1.121,20.898-6.854c0.408-0.401,0.795-0.825,1.207-1.222
		c2.779-2.661,6.564-2.806,9.184-0.008c5.047,5.392,11.082,8.35,18.518,8.491c3.182,0.06,4.994,2.141,6.176,4.88
		c0,1.02,0,2.038,0,3.057c-2.631,4.808-4.949,5.764-11.918,4.382c-3.098-0.614-6.201-1.48-9.105-2.699
		c-2.9-1.219-5.557-3.021-8.348-4.584c-15.119,10.428-30.355,10.437-45.594-0.082c-15.235,10.513-30.47,10.513-45.705,0
		c-15.24,10.519-30.476,10.51-45.842-0.088c-4.412,3.406-9.377,5.92-14.957,7.023c-2.361,0.467-4.78,0.721-7.185,0.871
		c-3.526,0.221-5.625-1.809-6.982-4.823C32.659,172.196,32.659,171.178,32.659,170.158z"/>
	<path fill-rule="evenodd" clip-rule="evenodd" stroke="#FFFFFF" stroke-width="10" stroke-miterlimit="10" d="M228.295,104.819
		c-1.381,3.849-4.125,5.28-8.156,5.025c-7.111-0.45-13.555-2.653-19.385-6.713c-0.52-0.363-1.029-0.738-1.656-1.188
		c-1.141,0.76-2.271,1.55-3.438,2.285c-12.672,7.98-28.807,7.467-40.92-1.357c-1.051-0.767-1.691-0.819-2.783-0.026
		c-12.891,9.372-30.056,9.366-42.965,0.009c-0.957-0.693-1.578-0.855-2.628-0.102c-13.31,9.55-30.01,9.516-43.281-0.02
		c-0.358-0.258-0.734-0.493-0.767-0.515c-3.833,1.928-7.319,4.097-11.096,5.456c-3.298,1.186-6.907,1.578-10.412,2.103
		c-3.998,0.599-6.769-1.107-8.15-4.956c0-0.891,0-1.784,0-2.675c1.285-3.552,3.822-5.012,7.586-5.151
		c6.379-0.236,11.772-2.873,16.196-7.505c3.714-3.891,7.231-3.865,10.97,0.004c9.778,10.121,24.867,10.133,34.681,0.029
		c3.777-3.891,7.226-3.914,10.971-0.075c9.954,10.201,24.874,10.2,34.83-0.002c3.745-3.836,7.192-3.812,10.972,0.079
		c9.812,10.103,24.908,10.088,34.682-0.033c3.73-3.867,7.256-3.891,10.967-0.002c4.422,4.634,9.816,7.269,16.195,7.505
		c3.764,0.14,6.303,1.599,7.586,5.151C228.295,103.036,228.295,103.928,228.295,104.819z"/>
	<path fill-rule="evenodd" clip-rule="evenodd" stroke="#FFFFFF" stroke-width="10" stroke-miterlimit="10" d="M228.295,139.209
		c-1.689,3.866-4.689,5.035-8.764,4.691c-7.027-0.591-13.412-2.793-19.086-6.961c-1.049-0.771-1.693-0.81-2.777-0.026
		c-12.988,9.401-30,9.407-42.939,0.022c-1.055-0.766-1.697-0.8-2.781-0.01c-12.855,9.377-30.084,9.377-42.94,0
		c-1.084-0.79-1.726-0.756-2.781,0.01c-12.938,9.385-29.951,9.379-42.939-0.022c-1.083-0.783-1.728-0.745-2.778,0.026
		c-5.672,4.168-12.056,6.37-19.085,6.961c-4.075,0.344-7.074-0.825-8.764-4.691c0-1.021,0-2.039,0-3.058
		c1.351-3.489,3.869-4.953,7.634-5.076c6.235-0.204,11.483-2.838,15.943-7.216c1.264-1.24,2.857-2.421,4.513-2.922
		c2.712-0.82,4.838,0.665,6.69,2.656c4.308,4.633,9.695,7.17,15.992,7.506c7.183,0.386,13.284-2.146,18.445-7.18
		c1.309-1.275,2.966-2.479,4.679-2.992c2.72-0.813,4.819,0.759,6.666,2.73c4.476,4.779,10.063,7.293,16.588,7.471
		c6.818,0.187,12.686-2.225,17.539-7.044c0.271-0.27,0.529-0.551,0.798-0.822c3.446-3.489,7.019-3.509,10.427,0.079
		c3.143,3.307,6.797,5.761,11.217,6.908c9.012,2.343,16.828,0.103,23.475-6.366c0.639-0.621,1.229-1.303,1.924-1.851
		c2.457-1.938,6.086-1.815,8.326,0.597c5.121,5.515,11.297,8.455,18.859,8.614c3.117,0.066,4.801,2.236,5.92,4.907
		C228.295,137.17,228.295,138.188,228.295,139.209z"/>
</g>
</svg>
