<?xml version="1.0" encoding="utf-8"?>
<!-- Generator: Adobe Illustrator 16.0.0, SVG Export Plug-In . SVG Version: 6.00 Build 0)  -->
<!DOCTYPE svg PUBLIC "-//W3C//DTD SVG 1.1//EN" "http://www.w3.org/Graphics/SVG/1.1/DTD/svg11.dtd">
<svg version="1.1" id="Layer_1" xmlns="http://www.w3.org/2000/svg" xmlns:xlink="http://www.w3.org/1999/xlink" x="0px" y="0px"
	 width="250px" height="250px" viewBox="0 0 250 250" enable-background="new 0 0 250 250" xml:space="preserve">
<g>
	<path fill-rule="evenodd" clip-rule="evenodd" stroke="#FFFFFF" stroke-width="4" stroke-miterlimit="10" d="M143.262,103.085
		c1.801-3.178,3.652-6.331,5.355-9.562c0.283-0.536,0.123-1.507-0.174-2.109c-1.045-2.124-2.271-4.156-3.365-6.257
		c-1.119-2.145-0.738-3.937,0.949-4.888c1.662-0.937,3.48-0.295,4.686,1.703c0.703,1.166,1.334,2.375,2.18,3.888
		c0.809-1.375,1.496-2.556,2.193-3.729c1.273-2.139,3.1-2.837,4.801-1.846c1.629,0.951,2.004,2.83,0.906,4.917
		c-1.002,1.906-1.984,3.833-3.139,5.645c-0.846,1.324-0.756,2.352,0.004,3.72c13.963,25.174,27.869,50.379,41.789,75.578
		c4.441,8.044,8.908,16.075,13.299,24.147c0.668,1.227,1.408,1.727,2.84,1.701c5.102-0.092,10.205-0.004,15.309-0.051
		c2.021-0.018,3.682,0.48,4.619,2.437c0,0.575,0,1.151,0,1.728c-1.061,2.338-3.117,2.409-5.279,2.408
		c-70.211-0.013-140.422-0.016-210.634,0.016c-2.033,0-3.818-0.273-5.114-1.993c0-0.72,0-1.438,0-2.158
		c1-2.065,2.787-2.396,4.867-2.394c20.431,0.033,40.862,0.02,61.293,0.02c0.859,0,1.718,0,2.721,0c0-6.782,0-13.424,0-20.41
		c-0.965,0-1.794,0-2.623,0c-13.884,0-27.769-0.007-41.654,0.008c-1.609,0.002-3.068-0.266-3.773-1.898
		c-0.686-1.586-0.069-2.938,1.018-4.133c0.145-0.159,0.272-0.334,0.41-0.501c9.122-11.03,18.244-22.061,27.362-33.094
		c0.5-0.604,0.971-1.231,1.805-2.294c-1.068,0-1.72,0-2.373,0c-3.597,0-7.195-0.025-10.792,0.012
		c-1.599,0.016-3.044-0.207-3.839-1.802c-0.849-1.702-0.031-3.017,1.031-4.298c5.875-7.088,11.734-14.191,17.595-21.291
		c0.448-0.542,0.874-1.103,1.629-2.059c-3.582,0-6.769,0.067-9.949-0.038c-1.024-0.034-2.19-0.291-3.017-0.851
		c-1.615-1.097-1.537-3.126,0.081-5.098c4.929-6.004,9.891-11.981,14.843-17.966c8.163-9.863,16.331-19.723,24.493-29.587
		c2.861-3.456,4.445-3.444,7.32,0.032c12.883,15.574,25.767,31.147,38.669,46.705c1.339,1.614,2.551,3.186,1.406,5.41
		c-1.309,0.459-2.598,1.229-3.93,1.313c-3.098,0.196-6.216,0.063-9.786,0.063c2.887,3.481,5.413,6.529,8.147,9.826
		C139.504,110.169,141.383,106.627,143.262,103.085z M125.508,135.482c-0.829-1.01-1.75-1.748-2.129-2.701
		c-0.465-1.164-0.961-2.717-0.536-3.716c0.382-0.899,2.09-1.923,3.039-1.773c3.555,0.558,5.279-1.181,6.386-4.149
		c0.2-0.532,0.503-1.041,0.837-1.504c0.744-1.034,0.631-1.842-0.228-2.843c-2.716-3.164-5.317-6.427-7.957-9.656
		c-1.684-2.06-3.459-4.054-5.008-6.211c-1.726-2.404-0.401-5.021,2.544-5.212c1.361-0.089,2.732-0.03,4.099-0.032
		c2.089-0.003,4.179-0.001,6.811-0.001c-11.657-14.039-22.879-27.555-34.227-41.222c-11.429,13.821-22.63,27.365-34.157,41.305
		c3.562,0,6.619,0.023,9.676-0.01c1.719-0.018,3.354,0.07,4.224,1.887c0.882,1.837-0.156,3.149-1.234,4.459
		c-5.118,6.219-10.229,12.443-15.338,18.669c-1.115,1.358-2.208,2.735-3.591,4.451c4.483,0,8.487,0.011,12.49-0.004
		c1.77-0.007,3.543,0.02,4.48,1.873c0.956,1.891-0.158,3.271-1.292,4.637c-6.711,8.073-13.414,16.154-20.116,24.236
		c-2.964,3.574-5.92,7.152-9.206,11.121c3.122,0,5.748,0,8.375,0c17.19,0,34.38,0.016,51.57-0.045
		c0.843-0.003,2.109-0.42,2.462-1.047C113.538,157.23,119.481,146.401,125.508,135.482z M149.908,105.781
		c-0.139-0.037-0.275-0.075-0.412-0.112c-16.602,30.02-33.206,60.042-49.987,90.386c1.123,0,1.76,0,2.397,0
		c10.574,0,21.15-0.048,31.724,0.047c1.766,0.016,2.486-0.526,2.979-2.194c4.12-13.982,8.34-27.934,12.492-41.906
		c0.322-1.083,0.502-2.249,0.514-3.378c0.123-13.523,0.201-27.047,0.291-40.571C149.912,107.296,149.908,106.539,149.908,105.781z
		 M206.223,195.818c-16.531-29.917-32.924-59.584-49.598-89.757c-0.139,0.92-0.211,1.186-0.213,1.451
		c-0.096,13.307-0.211,26.613-0.215,39.919c0,0.771,0.736,1.834,1.434,2.27c6.705,4.187,13.479,8.262,20.225,12.381
		c2.758,1.683,3.074,2.535,2.156,5.699c-1.719,5.931-3.453,11.857-5.172,17.787c-0.975,3.355-1.936,6.715-2.953,10.25
		C183.41,195.818,194.648,195.818,206.223,195.818z M142.782,195.767c6.872,0,13.478,0,20.269,0
		c-3.363-11.185-6.66-22.142-9.957-33.097c-0.133,0-0.264,0.002-0.396,0.002C149.402,173.666,146.109,184.66,142.782,195.767z
		 M173.408,166.985c-4.92-3.008-9.686-5.921-14.969-9.149c3.016,10.15,5.836,19.639,8.656,29.127
		c0.16-0.012,0.322-0.025,0.484-0.037C169.502,180.352,171.424,173.777,173.408,166.985z M89.943,175.812
		c0,6.231-0.036,12.249,0.055,18.265c0.01,0.594,0.791,1.176,1.214,1.765c0.556-0.413,1.326-0.706,1.636-1.257
		c3.271-5.805,6.471-11.65,9.683-17.489c0.189-0.345,0.303-0.731,0.528-1.283C98.634,175.812,94.44,175.812,89.943,175.812z"/>
	<path fill-rule="evenodd" clip-rule="evenodd" fill="#FFFFFF" stroke="#FFFFFF" stroke-width="4" stroke-miterlimit="10" d="
		M14.486,200.538c1.296,1.72,3.082,1.993,5.114,1.993c70.212-0.031,140.423-0.028,210.634-0.016c2.162,0.001,4.219-0.07,5.279-2.408
		c0,8.633,0,17.268,0,25.9c-73.676,0-147.351,0-221.028,0C14.486,217.519,14.486,209.028,14.486,200.538z"/>
	<path fill-rule="evenodd" clip-rule="evenodd" stroke="#FFFFFF" stroke-width="4" stroke-miterlimit="10" d="M196.77,66.728
		c-5.533,0-11.068,0.098-16.6-0.027c-5.93-0.132-10.871-3.893-12.65-9.363c-1.832-5.635-0.115-11.633,4.797-15.123
		c1.902-1.352,4.369-2.012,6.672-2.661c1.17-0.33,1.994-0.546,2.633-1.745c3.215-6.041,8.391-9.251,15.172-9.264
		c6.777-0.013,11.975,3.158,15.219,9.188c0.623,1.159,1.295,1.662,2.6,1.775c6.969,0.603,12.363,6.694,12.258,13.73
		c-0.105,7.028-5.656,13.104-12.643,13.397c-5.809,0.246-11.637,0.051-17.457,0.051C196.77,66.7,196.77,66.714,196.77,66.728z
		 M196.725,60.341c0,0.037,0,0.073,0,0.109c5.25,0,10.5,0.039,15.75-0.013c3.805-0.038,6.389-1.737,7.465-4.74
		c1.869-5.208-2.055-9.996-7.955-9.71c-3.287,0.159-3.957-0.281-4.906-3.222c-1.535-4.757-5.277-7.625-10.031-7.689
		c-4.949-0.066-8.748,2.676-10.385,7.493c-1.113,3.281-1.516,3.524-4.965,3.426c-1.063-0.03-2.174,0.026-3.191,0.308
		c-3.473,0.963-5.498,4.07-5.158,7.716c0.305,3.284,2.93,6.148,6.34,6.268C185.359,60.485,191.045,60.341,196.725,60.341z"/>
	<path fill-rule="evenodd" clip-rule="evenodd" stroke="#FFFFFF" stroke-width="4" stroke-miterlimit="10" d="M44.613,69.878
		c-3.304,0-6.609,0.038-9.912-0.008c-5.866-0.083-10.171-3.661-10.698-8.829c-0.562-5.521,2.617-9.738,8.391-11.257
		c0.602-0.158,1.227-0.689,1.592-1.218c5.526-7.996,15.685-8.004,21.22-0.035c0.424,0.61,1.27,1.122,2.007,1.289
		c5.046,1.136,8.541,5.625,8.169,10.641c-0.377,5.114-4.332,9.085-9.567,9.326c-3.726,0.171-7.467,0.034-11.201,0.034
		C44.613,69.84,44.613,69.859,44.613,69.878z M44.621,63.447c0-0.002,0-0.005,0-0.008c3.447,0,6.896,0.061,10.341-0.02
		c2.496-0.059,3.977-1.486,3.99-3.597c0.014-2.08-1.517-3.544-4.071-3.43c-2.601,0.116-3.934-1.004-4.741-3.379
		c-0.883-2.6-3.074-4.013-5.557-3.969c-2.491,0.043-4.639,1.549-5.461,4.122c-0.688,2.156-1.921,3.171-4.242,3.108
		c-2.818-0.078-4.424,1.334-4.406,3.574c0.018,2.21,1.632,3.553,4.451,3.59C38.157,63.48,41.389,63.447,44.621,63.447z"/>
	<path fill-rule="evenodd" clip-rule="evenodd" fill="#FFFFFF" stroke="#FFFFFF" stroke-width="4" stroke-miterlimit="10" d="
		M89.943,175.812c4.497,0,8.691,0,13.116,0c-0.225,0.552-0.338,0.938-0.528,1.283c-3.212,5.839-6.412,11.685-9.683,17.489
		c-0.311,0.551-1.08,0.844-1.636,1.257c-0.423-0.589-1.205-1.171-1.214-1.765C89.907,188.061,89.943,182.043,89.943,175.812z"/>
	<path fill-rule="evenodd" clip-rule="evenodd" fill="#FFFFFF" stroke="#FFFFFF" stroke-width="4" stroke-miterlimit="10" d="
		M143.262,103.085c-1.879,3.542-3.758,7.084-5.818,10.97c-2.734-3.297-5.261-6.344-8.147-9.826c3.57,0,6.688,0.134,9.786-0.063
		c1.332-0.084,2.621-0.854,3.93-1.313C143.096,102.931,143.178,103.008,143.262,103.085z"/>
</g>
</svg>
