<?xml version="1.0" encoding="utf-8"?>
<!-- Generator: Adobe Illustrator 16.0.0, SVG Export Plug-In . SVG Version: 6.00 Build 0)  -->
<!DOCTYPE svg PUBLIC "-//W3C//DTD SVG 1.1//EN" "http://www.w3.org/Graphics/SVG/1.1/DTD/svg11.dtd">
<svg version="1.1" id="Layer_1" xmlns="http://www.w3.org/2000/svg" xmlns:xlink="http://www.w3.org/1999/xlink" x="0px" y="0px"
	 width="250px" height="250px" viewBox="0 0 250 250" enable-background="new 0 0 250 250" xml:space="preserve">
<path fill="#FFFFFF" stroke="#508991" stroke-width="2" stroke-miterlimit="10" d="M101.52,64.33
	c2.665,0.935,3.739,2.843,3.594,5.617c-0.1,1.912-0.015,3.833-0.021,5.75c-0.006,1.572-0.509,2.92-1.799,3.905
	c-0.135,0.103-0.375,0.219-0.374,0.326c0.034,1.825-0.005,3.661,0.196,5.469c0.115,1.039,0.916,2.031,0.923,3.049
	c0.077,9.115,0.045,18.231,0.045,27.347c0,0.46,0,0.921,0,1.344c2.354-0.417,4.595-0.913,6.863-1.195
	c6.081-0.757,11.976,0.092,17.619,2.449c1.915,0.801,3.723,1.86,5.547,2.864c0.575,0.317,0.918,0.337,1.412-0.156
	c5.391-5.392,10.814-10.75,16.195-16.153c0.271-0.274,0.396-0.908,0.302-1.304c-0.414-1.724-0.078-3.222,1.171-4.466
	C161.403,91,169.62,82.832,177.85,74.674c1.08-1.071,2.187-1.105,3.024-0.204c0.773,0.838,0.638,1.956-0.441,3.029
	c-7.881,7.842-15.771,15.673-23.659,23.509c-1.337,1.327-1.336,1.328-0.009,2.65c2.113,2.104,4.245,4.189,6.33,6.32
	c0.641,0.655,1.102,0.721,1.786,0.038c10.954-10.913,21.924-21.811,32.907-32.694c0.68-0.674,0.656-1.123-0.017-1.772
	c-2.293-2.224-4.558-4.479-6.796-6.758c-0.65-0.664-1.132-0.707-1.787-0.011c-1.167,1.24-2.391,2.428-3.613,3.614
	c-1.096,1.062-2.17,1.151-3.025,0.301c-0.832-0.825-0.725-1.943,0.336-3.02c1.283-1.305,2.563-2.621,3.91-3.858
	c0.64-0.585,1.437-0.999,2.162-1.49c0.683,0,1.363,0,2.045,0c1.055,0.756,2.195,1.418,3.146,2.287
	c1.695,1.546,3.32,3.175,4.891,4.85c1.143,1.218,2.146,2.567,3.213,3.857c0,0.682,0,1.364,0,2.045
	c-0.76,1.056-1.392,2.241-2.299,3.147c-10.701,10.688-21.445,21.335-32.179,31.992c-2.172,2.157-3.471,2.414-6.385,1.212
	c-5.603,5.723-11.229,11.475-16.918,17.286c0.853,1.565,1.967,3.327,2.817,5.21c6.802,15.056,2.967,31.949-9.821,42.345
	c-8.146,6.619-17.606,9.252-27.989,7.513c-14.281-2.391-23.814-10.675-28.593-24.297c-1.815-5.175-2.067-10.582-1.257-16.022
	c0.112-0.755,0.168-1.524,0.168-2.287c0.011-11.716,0-23.435,0.011-35.147c0.004-4.107,2.116-7.301,5.556-8.479
	c5.687-1.948,11.14,1.969,11.252,8.138c0.066,3.662,0.013,7.328,0.013,10.992c0,0.466,0,0.933,0,1.633
	c1.182-0.603,2.237-1.102,3.242-1.685c0.216-0.126,0.36-0.559,0.36-0.848c0.011-9.801,0-19.6-0.011-29.398
	c0-0.074-0.061-0.149-0.155-0.369c-0.479,0-1.02,0-1.56,0c-5.198,0-10.396,0-15.594-0.001c-0.383,0-0.77,0.019-1.149-0.027
	c-1.18-0.143-1.979-0.981-1.928-1.989c0.053-1.038,0.858-1.792,2.089-1.8c4.09-0.028,8.181-0.014,12.271-0.016
	c1.488,0,2.978,0,4.587,0c0-1.273,0-2.482,0-3.82c-6.988,0-14.025,0-21.257,0c0,1.676-0.015,3.36,0.005,5.044
	c0.011,0.931-0.083,1.777-0.968,2.35c-0.196,0.127-0.292,0.464-0.357,0.724c-0.059,0.241-0.014,0.509-0.014,0.764
	c0,29.696,0.006,59.392-0.006,89.087c-0.002,5.025,1.964,8.897,6.448,11.338c4.711,2.563,10.608,1.604,14.307-2.293
	c0.294-0.307,0.559-0.645,0.867-0.937c0.876-0.823,1.834-0.897,2.634-0.225c0.813,0.684,0.933,1.811,0.185,2.75
	c-1.619,2.032-3.605,3.637-6.021,4.608c-1.403,0.565-2.891,0.92-4.339,1.369c-1.363,0-2.727,0-4.091,0
	c-0.188-0.08-0.368-0.199-0.564-0.234c-7.705-1.334-13.229-7.703-13.238-15.521c-0.034-30.439-0.021-60.88,0.026-91.319
	c0-0.896,0.762-1.773,0.861-2.691c0.197-1.842,0.184-3.707,0.245-5.562c0.001-0.056-0.127-0.108-0.174-0.177
	c-0.663-0.955-1.323-1.913-1.982-2.87c0-3.068,0-6.136,0-9.204c0.698-1.518,1.806-2.626,3.324-3.324
	C83.623,64.33,92.572,64.33,101.52,64.33z M92.799,173.693c0-0.67,0-1.136,0-1.604c0-12.781-0.001-25.561,0.001-38.344
	c0-1.729,0.672-2.646,1.904-2.643s1.91,0.938,1.927,2.654c0.003,0.256,0,0.512,0,0.768c0,7.797,0,15.594,0,23.391
	c0,6.007-0.009,12.013,0.017,18.021c0.002,0.458,0.11,1.104,0.417,1.339c0.93,0.705,1.982,1.254,3.185,1.982
	c0-0.756,0-1.251,0-1.746c0-16.104,0-32.208,0-48.313c0-0.471-0.018-0.938,0.006-1.406c0.067-1.313,0.8-2.12,1.905-2.124
	c1.116-0.007,1.856,0.8,1.917,2.101c0.019,0.383,0.004,0.77,0.004,1.149c0.001,16.786,0.001,33.573,0.001,50.358
	c0,0.51,0,1.019,0,1.498c13.406,5.119,30.999,0.273,39.032-14.976c8.02-15.224,2.607-33.36-12.3-42.087
	c-14.3-8.373-33.318-3.928-42.49,9.939C79.119,147.574,82.904,164.826,92.799,173.693z M83.647,133.488
	c0.232-0.121,0.334-0.14,0.368-0.197c2.186-3.711,4.996-6.881,8.296-9.635c0.253-0.213,0.463-0.637,0.465-0.961
	c0.023-5.07,0.08-10.145-0.026-15.211c-0.055-2.568-2.119-4.348-4.624-4.311c-2.463,0.033-4.443,1.911-4.459,4.496
	C83.615,116.229,83.647,124.791,83.647,133.488z M154.85,107.199c-5.612,5.715-11.125,11.328-16.387,16.687
	c1.079,1.199,2.233,2.483,3.448,3.837c5.525-5.643,11.026-11.26,16.447-16.796C157.3,109.802,156.138,108.568,154.85,107.199z
	 M90.194,76.578c1.279,0,2.394,0,3.523,0c0-2.847,0-5.581,0-8.347c-1.208,0-2.333,0-3.523,0
	C90.194,71.037,90.194,73.776,90.194,76.578z M86.185,76.618c0-2.9,0-5.64,0-8.35c-1.233,0-2.353,0-3.437,0c0,2.846,0,5.586,0,8.35
	C83.947,76.618,85.037,76.618,86.185,76.618z M78.745,68.165c-0.854,0-1.65,0.019-2.445-0.005c-0.825-0.025-1.135,0.368-1.121,1.164
	c0.025,1.444,0.006,2.888,0.006,4.332c0,3.237,0,3.237,3.306,2.984c0.071-0.005,0.138-0.08,0.254-0.152
	C78.745,73.775,78.745,71.035,78.745,68.165z M97.71,68.305c0,2.77,0,5.511,0,8.385c0.74,0,1.412-0.043,2.077,0.01
	c1.082,0.087,1.558-0.304,1.491-1.447c-0.076-1.311,0.002-2.631-0.021-3.947c-0.062-3.424,0.693-3.199-3.334-3.11
	C97.886,68.198,97.851,68.232,97.71,68.305z"/>
</svg>
