<?xml version="1.0" encoding="utf-8"?>
<!-- Generator: Adobe Illustrator 16.0.0, SVG Export Plug-In . SVG Version: 6.00 Build 0)  -->
<!DOCTYPE svg PUBLIC "-//W3C//DTD SVG 1.1//EN" "http://www.w3.org/Graphics/SVG/1.1/DTD/svg11.dtd">
<svg version="1.1" id="Layer_1" xmlns="http://www.w3.org/2000/svg" xmlns:xlink="http://www.w3.org/1999/xlink" x="0px" y="0px"
	 width="250px" height="250px" viewBox="0 0 250 250" enable-background="new 0 0 250 250" xml:space="preserve">
<path fill="#FFFFFF" stroke="#508991" stroke-width="2" stroke-miterlimit="10" d="M68.658,127.064
	c0.554-2.938,2.409-4.877,4.775-6.542c5.08-3.57,10.077-7.258,15.131-10.864c0.682-0.487,1.006-0.977,0.996-1.85
	c-0.046-4.268-0.019-8.536-0.023-12.805c0-0.374-0.033-0.749-0.055-1.217c-0.458-0.061-0.872-0.104-1.28-0.17
	c-2.258-0.362-3.604-2.112-3.652-4.738c-0.063-3.545,1.051-5.458,3.49-5.903c0.576-0.105,1.18-0.082,1.77-0.082
	c6.212-0.005,12.428,0.134,18.636-0.047c4.828-0.14,6.188,2.626,5.766,6.661c-0.06,0.577-0.218,1.145-0.361,1.866
	c0.474-0.322,0.851-0.566,1.214-0.828c5.553-4,11.104-8.002,16.654-12.002c1.664-1.198,2.057-1.2,3.705-0.011
	c19.564,14.102,39.122,28.217,58.706,42.292c2.222,1.598,3.834,3.516,4.368,6.24c0,0.761,0,1.521,0,2.281
	c-0.064,0.105-0.16,0.203-0.191,0.317c-1.598,5.924-7.629,8.164-12.634,4.632c-4.69-3.313-9.323-6.708-13.981-10.065
	c-12.365-8.914-24.736-17.819-37.084-26.762c-0.789-0.571-1.28-0.561-2.064,0.006c-16.904,12.224-33.828,24.417-50.752,36.612
	c-3.545,2.557-7.506,2.482-10.465-0.107c-1.43-1.252-2.103-2.9-2.665-4.633C68.658,128.587,68.658,127.825,68.658,127.064z
	 M133.604,81.935c-0.261,0.173-0.438,0.283-0.605,0.404c-19.463,14.03-38.926,28.063-58.388,42.098
	c-0.342,0.246-0.678,0.51-0.969,0.813c-1.792,1.865-1.419,4.88,0.784,6.243c1.899,1.176,3.59,0.614,5.265-0.597
	c17.227-12.438,34.467-24.857,51.707-37.282c2.078-1.499,2.287-1.499,4.336-0.022c17.203,12.4,34.408,24.8,51.611,37.195
	c0.479,0.344,0.971,0.688,1.497,0.943c2.277,1.104,4.972-0.142,5.646-2.578c0.522-1.893-0.133-3.426-2.106-4.851
	c-9.937-7.167-19.873-14.33-29.813-21.494C152.938,95.87,143.311,88.93,133.604,81.935z M93.492,105.852
	c0.134,0.03,0.189,0.06,0.211,0.044c3.736-2.676,7.472-5.354,11.195-8.048c0.213-0.155,0.455-0.444,0.465-0.68
	c0.049-1.116,0.021-2.234,0.021-3.338c-4.103,0-7.998,0-11.893,0C93.492,97.921,93.492,101.897,93.492,105.852z M99.428,86.72
	c-3.248,0-6.497,0.043-9.744-0.024c-1.128-0.023-1.383,0.448-1.315,1.429c0.061,0.858-0.232,1.772,1.239,1.761
	c6.538-0.053,13.076-0.047,19.613-0.004c1.362,0.01,1.181-0.835,1.211-1.679c0.031-0.901-0.063-1.529-1.261-1.505
	C105.924,86.763,102.676,86.72,99.428,86.72z"/>
<path fill="#FFFFFF" stroke="#508991" stroke-width="2" stroke-miterlimit="10" d="M133.533,191.717c-12.468,0-24.933,0.002-37.4,0
	c-5.368-0.001-8.182-2.83-8.183-8.223c-0.001-15.891-0.001-31.78,0.005-47.671c0-0.544,0.012-1.109,0.16-1.625
	c0.267-0.929,0.968-1.378,1.926-1.294c0.955,0.087,1.542,0.658,1.681,1.606c0.072,0.499,0.045,1.013,0.045,1.521
	c0.001,15.848,0.001,31.695,0.001,47.543c0,3.095,1.206,4.318,4.261,4.318c25.018,0,50.038,0,75.054,0
	c3.083,0,4.301-1.211,4.301-4.277c0.003-15.934,0-31.865,0.003-47.797c0-2.037,0.614-2.965,1.938-2.93
	c1.289,0.033,1.879,0.937,1.88,2.896c0,15.975,0.002,31.946-0.001,47.923c-0.002,5.121-2.894,8.006-8.019,8.008
	C158.637,191.721,146.085,191.717,133.533,191.717z"/>
<path fill="#FFFFFF" stroke="#508991" stroke-width="2" stroke-miterlimit="10" d="M133.613,129.307
	c3.33-3.14,7.201-4.827,11.685-4.995c10.582-0.397,19.038,8.691,18.065,19.231c-0.646,6.977-3.995,12.527-8.742,17.377
	c-5.571,5.689-12.287,9.706-19.48,12.988c-0.972,0.441-1.894,0.549-2.91,0.085c-8.386-3.81-16.104-8.554-22.079-15.729
	c-3.859-4.635-6.188-9.896-6.471-16.006c-0.392-8.426,6.441-16.613,14.794-17.737c5.571-0.75,10.44,0.675,14.638,4.409
	C133.234,129.039,133.376,129.129,133.613,129.307z M121.379,128.107c-7.767,0.007-14.294,6.807-13.88,14.156
	c0.3,5.326,2.385,9.867,5.808,13.854c5.362,6.251,12.175,10.485,19.544,13.924c0.394,0.183,1.014,0.206,1.396,0.026
	c7.488-3.486,14.411-7.793,19.811-14.19c3.512-4.159,5.666-8.91,5.571-14.438c-0.096-5.576-3.782-10.554-9.021-12.473
	c-5.278-1.935-11.123-0.472-14.918,3.734c-1.713,1.896-2.512,1.882-4.272-0.049C128.675,129.65,125.225,128.221,121.379,128.107z"/>
</svg>
