<?xml version="1.0" encoding="iso-8859-1"?>
<!-- Generator: Adobe Illustrator 17.1.0, SVG Export Plug-In . SVG Version: 6.00 Build 0)  -->
<!DOCTYPE svg PUBLIC "-//W3C//DTD SVG 1.1//EN" "http://www.w3.org/Graphics/SVG/1.1/DTD/svg11.dtd">
<svg version="1.1" id="Capa_1" xmlns="http://www.w3.org/2000/svg" xmlns:xlink="http://www.w3.org/1999/xlink" x="0px" y="0px"
	 viewBox="0 0 512 512" style="enable-background:new 0 0 512 512;" xml:space="preserve">
<g>
	<path d="M192.093,241.885c-7.385-6.419-16.972-10.074-27.03-10.074c-22.509,0-40.822,18.003-40.822,40.131
		c0,42.972,61.371,77.382,63.983,78.826c1.204,0.666,2.537,0.998,3.87,0.998c1.333,0,2.666-0.333,3.87-0.998
		c2.612-1.443,63.982-35.854,63.982-78.826c0-22.128-18.313-40.131-40.822-40.131C209.064,231.811,199.477,235.466,192.093,241.885z
		 M243.945,271.942c0,25.76-34.435,51.991-51.857,62.571c-17.428-10.561-51.848-36.749-51.848-62.571
		c0-13.306,11.135-24.131,24.822-24.131c8.187,0,15.846,3.936,20.49,10.528c1.499,2.128,3.938,3.394,6.541,3.394
		s5.042-1.266,6.541-3.394c4.644-6.593,12.303-10.528,20.489-10.528C232.809,247.811,243.945,258.636,243.945,271.942z"/>
	<path d="M419.886,0H220.025c-22.043,0-39.978,17.934-39.978,39.978v23.978H92.115c-22.044,0-39.978,17.934-39.978,39.978v368.089
		c0,22.044,17.934,39.978,39.978,39.978h199.86c22.044,0,39.978-17.934,39.978-39.978v-23.978h87.933
		c22.043,0,39.978-17.934,39.978-39.978V39.978C459.864,17.934,441.929,0,419.886,0z M315.953,119.791
		c-0.001,0.083-0.001,0.167,0,0.25v47.845c0,0.001,0,0.003,0,0.005v47.961c0,0.002,0,0.003,0,0.005v47.961c0,0.001,0,0.003,0,0.005
		v47.961c0,0.001,0,0.003,0,0.005v47.961c0,0.001,0,0.003,0,0.005v112.265c0,13.221-10.756,23.978-23.978,23.978H92.115
		c-13.222,0-23.978-10.756-23.978-23.978V103.933c0-13.221,10.756-23.978,23.978-23.978h95.856c0.026,0,0.051,0.004,0.077,0.004
		s0.051-0.003,0.077-0.004h39.813c0.028,0,0.054,0.004,0.082,0.004s0.054-0.004,0.082-0.004h63.873
		c13.222,0,23.978,10.757,23.978,23.978V119.791z M236.02,63.955v-7.983h12.669l7.983,7.983H236.02z M271.317,55.972h25.339
		l11.348,11.349c-4.911-2.159-10.33-3.366-16.029-3.366H279.3L271.317,55.972z M319.283,55.972h25.339l59.269,59.269v25.339
		L319.283,55.972z M367.25,55.972h36.642v36.642L367.25,55.972z M328.588,87.904l75.304,75.304v25.339l-71.938-71.938v-12.675
		C331.953,98.234,330.746,92.814,328.588,87.904z M331.953,356.441v-25.339l60.625,60.625h-25.339L331.953,356.441z
		 M344.611,391.727h-12.658v-12.659L344.611,391.727z M331.953,308.475v-25.339l71.938,71.939v25.339L331.953,308.475z
		 M331.953,260.508v-25.339l71.938,71.938v25.339L331.953,260.508z M331.953,212.542v-25.339l71.938,71.938v25.34L331.953,212.542z
		 M331.953,164.575v-25.339l71.938,71.938v25.339L331.953,164.575z M443.864,408.067c0,13.221-10.756,23.978-23.978,23.978h-87.933
		v-24.318h79.938c0.263,0,0.527-0.014,0.789-0.04c0.119-0.011,0.234-0.034,0.351-0.05c0.141-0.021,0.283-0.037,0.423-0.065
		c0.134-0.026,0.265-0.063,0.397-0.097c0.121-0.03,0.242-0.057,0.362-0.093c0.13-0.04,0.257-0.088,0.384-0.134
		c0.118-0.042,0.238-0.082,0.354-0.129c0.119-0.05,0.234-0.107,0.35-0.163c0.12-0.057,0.242-0.11,0.36-0.173
		c0.112-0.06,0.219-0.129,0.328-0.194c0.115-0.069,0.231-0.133,0.343-0.208c0.122-0.082,0.238-0.173,0.355-0.261
		c0.091-0.068,0.185-0.132,0.274-0.205c0.408-0.335,0.783-0.709,1.118-1.118c0.073-0.089,0.136-0.183,0.205-0.274
		c0.088-0.117,0.179-0.232,0.261-0.354c0.075-0.112,0.14-0.229,0.209-0.343c0.065-0.109,0.133-0.215,0.193-0.327
		c0.064-0.119,0.118-0.242,0.175-0.364c0.054-0.115,0.111-0.228,0.16-0.345c0.05-0.12,0.09-0.242,0.133-0.363
		c0.045-0.125,0.093-0.248,0.131-0.376c0.037-0.122,0.064-0.246,0.095-0.37c0.033-0.129,0.069-0.257,0.095-0.389
		c0.029-0.145,0.046-0.291,0.067-0.437c0.016-0.112,0.037-0.223,0.049-0.337c0.026-0.264,0.04-0.528,0.04-0.793v-47.961
		c0-0.002,0-0.003,0-0.005v-47.961c0-0.001,0-0.003,0-0.005V255.83c0-0.001,0-0.003,0-0.005v-47.961c0-0.002,0-0.003,0-0.005
		v-47.961c0-0.001,0-0.003,0-0.005V111.93c0-0.002,0-0.003,0-0.005V47.972c0-4.418-3.582-8-8-8h-63.954c0,0-0.002,0-0.002,0h-95.931
		c0,0-0.002,0-0.002,0H228.02c-4.418,0-8,3.582-8,8v15.983h-23.972V39.978c0-13.221,10.756-23.978,23.978-23.978h199.861
		c13.221,0,23.978,10.756,23.978,23.978V408.067z"/>
	<path d="M99.605,170.697l4.049-10.798h24.886l4.049,10.798c1.205,3.211,4.252,5.193,7.492,5.193c0.933,0,1.883-0.164,2.808-0.511
		c4.137-1.551,6.233-6.163,4.682-10.3l-23.983-63.956c-0.03-0.079-0.068-0.152-0.1-0.229c-0.054-0.132-0.109-0.264-0.171-0.394
		c-0.056-0.119-0.117-0.234-0.179-0.349c-0.061-0.113-0.122-0.225-0.187-0.334c-0.071-0.119-0.147-0.234-0.223-0.349
		c-0.068-0.101-0.136-0.2-0.208-0.297c-0.082-0.111-0.167-0.219-0.255-0.324c-0.079-0.097-0.16-0.191-0.244-0.284
		c-0.087-0.097-0.177-0.19-0.269-0.281c-0.095-0.095-0.191-0.188-0.291-0.278c-0.089-0.081-0.181-0.159-0.274-0.235
		c-0.109-0.09-0.22-0.178-0.334-0.263c-0.094-0.069-0.19-0.136-0.287-0.201c-0.118-0.08-0.236-0.157-0.359-0.23
		c-0.106-0.063-0.215-0.123-0.324-0.182c-0.118-0.063-0.235-0.125-0.357-0.183c-0.126-0.06-0.255-0.114-0.385-0.167
		c-0.079-0.033-0.154-0.072-0.235-0.102c-0.035-0.013-0.07-0.021-0.105-0.033c-0.14-0.051-0.282-0.093-0.425-0.135
		c-0.111-0.033-0.222-0.069-0.334-0.097c-0.141-0.036-0.284-0.062-0.427-0.09c-0.115-0.022-0.23-0.048-0.345-0.065
		c-0.142-0.021-0.285-0.032-0.427-0.046c-0.117-0.011-0.233-0.026-0.349-0.032c-0.144-0.007-0.289-0.004-0.434-0.003
		c-0.115,0.001-0.23-0.002-0.345,0.003c-0.143,0.007-0.286,0.024-0.429,0.039c-0.117,0.012-0.234,0.02-0.349,0.037
		c-0.134,0.02-0.268,0.049-0.402,0.076c-0.125,0.025-0.25,0.048-0.373,0.079c-0.124,0.031-0.247,0.07-0.37,0.108
		c-0.131,0.04-0.262,0.078-0.391,0.125c-0.037,0.013-0.075,0.021-0.112,0.036c-0.086,0.032-0.166,0.073-0.25,0.108
		c-0.122,0.051-0.245,0.101-0.365,0.158c-0.127,0.06-0.25,0.125-0.373,0.191c-0.104,0.056-0.208,0.112-0.31,0.173
		c-0.126,0.075-0.249,0.155-0.37,0.237c-0.094,0.063-0.187,0.127-0.278,0.194c-0.117,0.086-0.229,0.176-0.341,0.268
		c-0.091,0.075-0.181,0.151-0.269,0.231c-0.101,0.091-0.199,0.186-0.294,0.281c-0.09,0.091-0.179,0.183-0.265,0.278
		c-0.085,0.094-0.166,0.189-0.246,0.287c-0.087,0.105-0.171,0.211-0.253,0.322c-0.073,0.098-0.141,0.198-0.209,0.299
		c-0.077,0.114-0.152,0.229-0.223,0.348c-0.066,0.11-0.127,0.222-0.187,0.335c-0.062,0.115-0.123,0.229-0.179,0.348
		c-0.062,0.129-0.117,0.262-0.171,0.395c-0.032,0.077-0.07,0.15-0.099,0.229L84.624,165.08c-1.551,4.137,0.545,8.748,4.682,10.299
		c0.926,0.347,1.875,0.511,2.808,0.511C95.352,175.891,98.401,173.909,99.605,170.697z M116.097,126.717l6.443,17.182h-12.886
		L116.097,126.717z"/>
	<path d="M294.784,400.576c-4.134-1.551-8.748,0.544-10.3,4.682l-4.049,10.798h-24.886l-4.049-10.798
		c-1.552-4.137-6.163-6.232-10.3-4.682c-4.137,1.552-6.233,6.163-4.682,10.3l23.983,63.955c0.016,0.042,0.04,0.078,0.056,0.119
		c0.128,0.325,0.274,0.643,0.443,0.949c0.018,0.032,0.033,0.067,0.051,0.099c0.176,0.307,0.378,0.599,0.594,0.881
		c0.055,0.072,0.109,0.142,0.166,0.211c0.222,0.271,0.458,0.531,0.715,0.773c0.03,0.028,0.062,0.052,0.091,0.078
		c0.24,0.218,0.496,0.419,0.764,0.608c0.061,0.043,0.121,0.087,0.184,0.128c0.293,0.195,0.599,0.375,0.922,0.532
		c0.043,0.021,0.089,0.037,0.133,0.058c0.184,0.086,0.369,0.171,0.562,0.244c0.107,0.04,0.216,0.07,0.324,0.105
		c0.069,0.023,0.137,0.046,0.207,0.067c0.335,0.1,0.672,0.178,1.01,0.233c0.06,0.01,0.12,0.016,0.18,0.024
		c0.364,0.05,0.727,0.083,1.088,0.083h0.001h0.001c0.361,0,0.725-0.033,1.088-0.083c0.06-0.008,0.12-0.014,0.18-0.024
		c0.338-0.055,0.675-0.133,1.01-0.233c0.069-0.021,0.137-0.044,0.205-0.067c0.108-0.035,0.217-0.065,0.325-0.105
		c0.195-0.073,0.38-0.159,0.566-0.245c0.042-0.02,0.086-0.035,0.128-0.056c0.325-0.158,0.631-0.338,0.925-0.534
		c0.061-0.041,0.12-0.084,0.18-0.126c0.271-0.191,0.529-0.394,0.771-0.614c0.028-0.025,0.057-0.047,0.084-0.073
		c0.259-0.242,0.496-0.503,0.718-0.775c0.056-0.069,0.11-0.138,0.164-0.209c0.216-0.283,0.419-0.575,0.596-0.884
		c0.018-0.031,0.032-0.064,0.049-0.095c0.17-0.307,0.316-0.626,0.445-0.953c0.016-0.041,0.04-0.077,0.055-0.118l23.983-63.955
		C301.017,406.739,298.921,402.128,294.784,400.576z M267.991,449.238l-6.443-17.182h12.886L267.991,449.238z"/>
	<path d="M228.02,456.028H108.109V199.866c0-4.418-3.582-8-8-8s-8,3.582-8,8v264.162c0,4.418,3.582,8,8,8H228.02
		c4.418,0,8-3.582,8-8S232.438,456.028,228.02,456.028z"/>
	<path d="M156.07,119.928h119.911v256.161c0,4.418,3.582,8,8,8s8-3.582,8-8V111.928c0-4.418-3.582-8-8-8H156.07
		c-4.418,0-8,3.582-8,8C148.07,116.346,151.651,119.928,156.07,119.928z"/>
</g>
<g>
</g>
<g>
</g>
<g>
</g>
<g>
</g>
<g>
</g>
<g>
</g>
<g>
</g>
<g>
</g>
<g>
</g>
<g>
</g>
<g>
</g>
<g>
</g>
<g>
</g>
<g>
</g>
<g>
</g>
</svg>
