<?xml version="1.0" encoding="utf-8"?>
<!-- Generator: Adobe Illustrator 19.2.1, SVG Export Plug-In . SVG Version: 6.00 Build 0)  -->
<svg version="1.1" id="Ebene_1" xmlns="http://www.w3.org/2000/svg" xmlns:xlink="http://www.w3.org/1999/xlink" x="0px" y="0px"
	 viewBox="0 0 1327.9 655.4" style="enable-background:new 0 0 1327.9 655.4;" xml:space="preserve">
<style type="text/css">
	.st0{fill:#0091EA;}
</style>
<path class="st0" d="M1211.6,655.2l36.6-6.1c8.2-1.4,13.7-9.1,12.4-17.3l-21.4-129.2c-1.4-8.2-9.1-13.7-17.3-12.4l-36.6,6.1
	c-8.2,1.4-13.7,9.1-12.4,17.3l4,24.2L975,571.2l1.5,8.9l13.8-2.3l11.2,67.5l-13.8,2.3l1.4,7.8l202-32.3l3.3,19.7
	C1195.6,650.9,1203.4,656.5,1211.6,655.2z M1199.9,621.6l-14.1-85.2l-4-24.2c-0.5-3.3,1.7-6.4,5-7l36.6-6.1c3.3-0.5,6.4,1.7,7,5
	l21.4,129.2c0.5,3.3-1.7,6.4-5,7l-36.6,6.1c-3.3,0.5-6.4-1.7-7-5L1199.9,621.6z M1029.1,640.8L1010,644l-11.2-67.5l19.1-3.2
	L1029.1,640.8z M1056.7,636.2l-19.1,3.2l-11.2-67.5l19.1-3.2L1056.7,636.2z M1084.3,631.6l-19.1,3.2l-11.2-67.5l19.1-3.2
	L1084.3,631.6z M1111.9,627l-19.1,3.2l-11.2-67.5l19.1-3.2L1111.9,627z M1139.6,622.5l-19.1,3.2l-11.2-67.5l19.1-3.2L1139.6,622.5z
	 M1167.2,617.9l-19.1,3.2l-11.2-67.5l19.1-3.2L1167.2,617.9z M1175.7,616.5l-11.2-67.5l13.9-2.3l11.2,67.5L1175.7,616.5z"/>
<path class="st0" d="M315.6,69.1l-36.7,5.1c-8.2,1.1-14,8.8-12.8,17l18,129.7c1.1,8.2,8.8,14,17,12.8l36.7-5.1
	c8.2-1.1,14-8.8,12.8-17l-3.4-24.3l202.6-28.1l-1.2-8.9l-13.8,1.9l-9.4-67.7l13.8-1.9l-1.2-7.8l-202.7,27L332.6,82
	C331.4,73.7,323.8,67.9,315.6,69.1z M326.4,103l11.9,85.6l3.4,24.3c0.5,3.3-1.9,6.4-5.2,6.8l-36.7,5.1c-3.3,0.5-6.4-1.9-6.8-5.2
	L275,89.9c-0.5-3.3,1.9-6.4,5.2-6.8l36.7-5.1c3.3-0.5,6.4,1.9,6.8,5.2L326.4,103z M497.6,88.3l19.2-2.7l9.4,67.7L507,156L497.6,88.3
	z M469.9,92.1l19.2-2.7l9.4,67.7l-19.2,2.7L469.9,92.1z M442.2,96l19.2-2.7l9.4,67.7l-19.2,2.7L442.2,96z M414.4,99.8l19.2-2.7
	l9.4,67.7l-19.2,2.7L414.4,99.8z M386.7,103.7l19.2-2.7l9.4,67.7l-19.2,2.7L386.7,103.7z M359,107.5l19.2-2.7l9.4,67.7l-19.2,2.7
	L359,107.5z M350.5,108.7l9.4,67.7l-13.9,1.9l-9.4-67.7L350.5,108.7z"/>
<g>
	<g>
		<path class="st0" d="M708.9,519.3c0,14-11.4,25.4-25.4,25.4s-25.4-11.4-25.4-25.4c0-14,11.4-25.4,25.4-25.4
			C697.5,493.9,708.9,505.3,708.9,519.3z M667.1,519.3c0,9,7.4,16.4,16.4,16.4s16.4-7.4,16.4-16.4c0-9-7.4-16.4-16.4-16.4
			S667.1,510.2,667.1,519.3z"/>
	</g>
	<g>
		<path class="st0" d="M707.2,399.7c0,14-11.4,25.4-25.4,25.4s-25.4-11.4-25.4-25.4s11.4-25.4,25.4-25.4S707.2,385.7,707.2,399.7z
			 M665.4,399.7c0,9,7.4,16.4,16.4,16.4s16.4-7.4,16.4-16.4s-7.4-16.4-16.4-16.4S665.4,390.6,665.4,399.7z"/>
	</g>
	<g>
		<path class="st0" d="M707.2,279.5c0,14-11.4,25.4-25.4,25.4s-25.4-11.4-25.4-25.4s11.4-25.4,25.4-25.4
			C695.8,254.1,707.2,265.5,707.2,279.5z M665.4,279.5c0,9,7.4,16.4,16.4,16.4s16.4-7.4,16.4-16.4s-7.4-16.4-16.4-16.4
			S665.4,270.4,665.4,279.5z"/>
	</g>
	<path class="st0" d="M555.7,254.8c0-4.5,3.6-8.1,8.1-8.1h50.5c4.5,0,8.1,3.6,8.1,8.1v289.6c0,4.5-3.6,8.1-8.1,8.1h-50.5
		c-4.5,0-8.1-3.6-8.1-8.1V254.8 M546.7,254.8v289.6c0,9.4,7.7,17.1,17.1,17.1h50.5c9.4,0,17.1-7.7,17.1-17.1V254.8
		c0-9.4-7.7-17.1-17.1-17.1h-50.5C554.4,237.7,546.7,245.4,546.7,254.8L546.7,254.8z"/>
	<path class="st0" d="M914,655.4c19.3,0,35-15.7,35-35V196.1c0-19.3-15.7-35-35-35H527.1c-19.3,0-35,15.7-35,35v424.2
		c0,19.3,15.7,35,35,35 M940,620.4c0,14.4-11.6,26-26,26H527.1c-14.4,0-26-11.6-26-26V483.7V196.1c0-14.4,11.6-26,26-26h386.8
		c14.4,0,26,11.6,26,26L940,620.4L940,620.4z"/>
</g>
<g>
	<path class="st0" d="M131.2,371.2c-29.8,11-45.1,44.1-34.1,74c11,29.8,44.1,45.1,74,34.1s45.1-44.1,34.1-74
		C194.2,375.5,161.1,360.3,131.2,371.2z M168.1,471.2c-25.3,9.3-53.5-3.6-62.8-29c-9.3-25.3,3.6-53.5,29-62.8
		c25.3-9.3,53.5,3.6,62.8,29C206.4,433.7,193.4,461.9,168.1,471.2z"/>
	<path class="st0" d="M144,405.7c-10.8,4-16.4,16-12.4,26.8c4,10.8,16,16.4,26.8,12.4s16.4-16,12.4-26.8
		C166.8,407.3,154.7,401.7,144,405.7z"/>
	<path class="st0" d="M320.1,301.6c-29.8,11-45.1,44.1-34.1,74c11,29.8,44.1,45.1,74,34.1s45.1-44.1,34.1-74
		C383.1,305.9,350,290.7,320.1,301.6z M357,401.6c-25.3,9.3-53.5-3.6-62.8-29c-9.3-25.3,3.6-53.5,29-62.8s53.5,3.6,62.8,29
		C395.3,364.1,382.3,392.3,357,401.6z"/>
	<path class="st0" d="M332.8,336.1c-10.8,4-16.4,16-12.4,26.8s16,16.4,26.8,12.4c10.8-4,16.4-16,12.4-26.8
		C355.7,337.7,343.6,332.1,332.8,336.1z"/>
	<g>
		<path class="st0" d="M357.3,446.7l-162.9,60c-21,7.7-31.8,31.1-24.1,52s31.1,31.7,52.1,24l162.9-60c21-7.7,31.8-31.1,24.1-52
			C401.7,449.7,378.2,439,357.3,446.7z M399.8,470.6l-15.8,5.8l-8.6-23.3C385.8,454.6,395,460.9,399.8,470.6z M366.2,453.3l9.6,26.2
			l-18.1,6.7l-9.9-26.7l12.3-4.5C362.3,454.1,364.2,453.6,366.2,453.3z M295.4,478.7l18.1-6.7l9.9,26.7l-18.1,6.7L295.4,478.7z
			 M269.3,488.4l18-6.6l9.9,26.7l-18.1,6.7L269.3,488.4L269.3,488.4z M243,498l18.1-6.7L271,518l-18.1,6.7L243,498z M216.7,507.7
			l18.1-6.7l9.9,26.7l-18.1,6.7L216.7,507.7z M247.7,536l9.2,24.9l-18.1,6.7l-9.2-24.9L247.7,536z M255.9,533l18.1-6.7l9.2,24.9
			l-18.1,6.7L255.9,533z M282.1,523.3l18-6.6l9.2,24.9l-18.1,6.7L282.1,523.3L282.1,523.3z M308.3,513.6l18.1-6.7l9.2,24.9
			l-18.1,6.7L308.3,513.6z M334.6,503.9l18.1-6.7l9.2,24.9l-18.1,6.7L334.6,503.9z M331.6,495.8l-9.9-26.7l18.1-6.7l9.9,26.7
			L331.6,495.8z M208.6,510.7l9.9,26.7l-18.1,6.7l-9.6-26c2-1.4,4.2-2.5,6.5-3.4L208.6,510.7L208.6,510.7z M183.9,524.4l8.4,22.7
			l-14.7,5.4C175,542.5,177.5,532.1,183.9,524.4z M180.8,560.6l14.5-5.3l7.7,20.8C193.8,574.5,185.6,569,180.8,560.6z M212.3,576.4
			l-8.9-24.1l18.1-6.7l9.2,24.9l-11.3,4.1C217,575.5,214.6,576.1,212.3,576.4z M370,519.1l-9.2-24.9l18.1-6.7l9,24.3
			c-1.7,1.1-3.6,2-5.6,2.7L370,519.1z M394.9,506l-7.9-21.4l15.5-5.7C404.4,488.8,401.4,498.8,394.9,506z"/>
	</g>
	<path class="st0" d="M252.9,635.6l123.4-45.5l1.8,4.9l8.4-3.1l-7.7-21.2l82.7-30.5c24.2-8.9,36.7-35.9,27.7-60.1l-31.8-86.4
		l17.5-6.5c4.3-1.6,6.6-6.5,5-10.8l-6.6-17.8l6.8-2.5c3.3-1.2,4.9-4.8,3.7-8.1l-14.7-40c-1.2-3.4-4.7-5.1-8-3.9l-6.8,2.5l-5.1-13.9
		c-1.6-4.3-6.5-6.6-10.8-5l-17.5,6.5l-15.8-43c-8.9-24.2-35.9-36.7-60.1-27.7l-80.8,29.8c-24.1-20.6-58.1-27.1-87.3-16.3
		c-29.3,10.8-50.9,37.7-55.9,69l-80.8,29.8c-24.2,8.9-36.7,35.9-27.7,60.1l15.8,43l-17.5,6.5c-4.3,1.6-6.6,6.5-5,10.8l5.1,13.9
		l-6.8,2.5c-3.3,1.2-4.9,4.8-3.7,8.1l14.7,40c1.2,3.3,4.8,4.9,8.1,3.7l6.8-2.5l6.6,17.8c1.6,4.3,6.5,6.6,10.8,5l17.5-6.5l31.9,86.6
		c8.9,24.2,35.9,36.7,60.1,27.7l81.7-30.1l7.8,21.3l8.4-3.1L252.9,635.6z M130.9,302.1c5.8-25.8,24.5-47.6,49-56.6
		s52.8-4.5,74.1,11.3L130.9,302.1z M461.9,313.2l13.1,35.6l-4.6,1.7l-13.1-35.6L461.9,313.2z M441.1,296l7.2,19.6l14.7,40l8.7,23.6
		l-17.3,6.4l-30.6-83.1L441.1,296z M22.4,515.5L9.3,479.9l4.6-1.7L27,513.8L22.4,515.5z M44.6,536.5L36,513.1c0-0.1,0-0.1-0.1-0.2
		l-14.7-40c0-0.1,0-0.1-0.1-0.2l-7.2-19.4l17.3-6.4L61.8,530L44.6,536.5z M153.9,644.5c-19.7,7.3-41.7-2.9-48.9-22.6l-84.4-229
		c-7.3-19.7,2.9-41.7,22.6-48.9L348,231.7c19.7-7.3,41.7,2.9,48.9,22.6l18.7,50.8l30.8,83.6l34.9,94.6c7.3,19.7-2.9,41.7-22.6,48.9
		L153.9,644.5z M249.8,627.1l-2.7-7.4l123.4-45.5l2.7,7.4L249.8,627.1z"/>
</g>
<g>
	<path class="st0" d="M943.3,522.4l56.3,46.2l76.4-91.2c8.2-0.6,16-3.3,22.6-7.9l133.5,25.4l1.7-8.7c3.5,11.9,10.7,22.6,20.6,30.3
		c12.2,9.5,26.7,12.1,40.7,14.6c2.3,0.4,4.5,0.8,6.8,1.2l3.7,0.7l7.9-41.5l-21.4-4.1c-5.8-1.1-10.4-2.6-14.2-6.4
		c-3.7-3.7-5.3-9-4.4-14.1c1.5-7.6,8.6-13.4,16.2-13.1c5.4,0.2,11.2,1.3,16.2,2.3l13.8,2.6l8.2-43.3l-3.7-0.7
		c-2.6-0.5-5.3-1.1-7.9-1.6c-6.9-1.5-14.1-3-21.3-3.5c-14.4-0.9-28.8,3.5-40.4,12.6c-4,3.1-7.6,6.7-10.7,10.7l1.7-9.1l-141.6-27
		c-0.4-0.4-0.8-0.7-1.2-1c-9.4-8.1-21.4-12.1-33.8-11.2c-12.4,0.9-23.7,6.6-31.8,16c-5.4,6.3-9,13.7-10.5,21.6L943.3,522.4z
		 M1239.8,459.6c4.9-25.5,28.9-44.2,54.8-42.5c6.7,0.4,13.6,1.9,20.2,3.3c1.4,0.3,2.9,0.6,4.3,0.9l-5.4,28.6l-6.4-1.2
		c-5.1-1-11.4-2.2-17.4-2.4c-11.5-0.4-21.7,7.9-23.9,19.2c-1.4,7.5,1,15.3,6.4,20.8s11.9,7.4,18.2,8.6l14,2.7l-5.1,26.8
		c-1.1-0.2-2.1-0.4-3.2-0.6c-13.7-2.4-26.7-4.7-37.4-13.1c-9.7-7.6-16.4-18.4-19-30.4C1238.5,473.6,1238.5,466.4,1239.8,459.6z
		 M1224.2,427.3l12.7,2.4l-10.8,56.5l-12.7-2.4L1224.2,427.3z M1201.2,422.9l15.9,3l-10.8,56.5l-15.9-3L1201.2,422.9z M1178.2,418.5
		l15.9,3l-10.8,56.5l-15.9-3L1178.2,418.5z M1155.3,414.2l15.9,3l-10.8,56.5l-15.9-3L1155.3,414.2z M1132.3,409.8l15.9,3l-10.8,56.5
		l-15.9-3L1132.3,409.8z M1106,463.3c0.6-0.6,1.2-1.3,1.7-1.9c8.1-9.4,12.1-21.4,11.2-33.8c-0.6-7.8-3.1-15.2-7.2-21.7l13.5,2.6
		l-10.8,56.5L1106,463.3z M1075.3,469.9c-10.4,0.8-20.5-2.6-28.4-9.4c-7.9-6.8-12.7-16.3-13.4-26.7c-0.8-10.4,2.6-20.5,9.4-28.4
		s16.3-12.7,26.7-13.4c10.4-0.8,20.5,2.6,28.4,9.4c7.9,6.8,12.7,16.3,13.4,26.7c0.3,3.5,0.1,6.9-0.6,10.2
		c-1.3,6.7-4.3,12.9-8.8,18.1C1095.2,464.4,1085.7,469.2,1075.3,469.9z M1058.3,486.7l-44.2-36.8l12-14.9c1,12.2,6.7,23.3,16,31.3
		c7,6,15.4,9.7,24.3,10.9L1058.3,486.7z M1043.3,504.6l-44.2-36.8l10.4-12.4l44.2,36.8L1043.3,504.6z M1028.2,522.5L984,485.7
		l10.4-12.4l44.2,36.8L1028.2,522.5z M1013.2,540.4L969,503.7l10.4-12.4l44.2,36.7L1013.2,540.4z M998.4,558l-44.5-36.4l10.4-12.4
		l44.2,36.7L998.4,558z"/>
	<path class="st0" d="M1076.6,409.1c-11.5-2.2-22.6,5.4-24.8,16.9c-2.2,11.5,5.4,22.6,16.9,24.8s22.6-5.4,24.8-16.9
		C1095.7,422.5,1088.1,411.3,1076.6,409.1z M1075.2,416.5c7.4,1.4,12.3,8.6,10.9,16s-8.6,12.3-16,10.9s-12.3-8.6-10.9-16
		S1067.8,415.1,1075.2,416.5z"/>
</g>
<g>
	<path class="st0" d="M615.9,111.9l46.5,56l92.3-75c8.2,1,16.3-0.2,23.7-3.4l126.3,50.3l3.3-8.2c1.2,12.4,6.2,24.2,14.4,33.7
		c10.1,11.7,23.9,16.9,37.2,22c2.2,0.8,4.3,1.7,6.4,2.5l3.5,1.4l15.7-39.3l-20.3-8.1c-5.5-2.2-9.8-4.6-12.7-9
		c-2.9-4.4-3.5-9.9-1.6-14.7c2.9-7.2,11-11.5,18.4-9.8c5.3,1.2,10.7,3.4,15.5,5.3l13,5.2l16.3-41l-3.5-1.4c-2.5-1-5-2-7.4-3.1
		c-6.5-2.8-13.3-5.6-20.3-7.5c-14-3.6-28.9-2-42.1,4.7c-4.6,2.3-8.8,5.2-12.5,8.4l3.4-8.6L797.5,18.9c-0.3-0.4-0.6-0.8-0.9-1.2
		c-7.7-9.8-18.7-16-31.1-17.4c-12.4-1.5-24.5,2-34.3,9.7c-6.5,5.1-11.4,11.8-14.4,19.3L615.9,111.9z M918.9,106.5
		c9.6-24.1,36.8-37.9,61.9-31.3c6.5,1.7,13,4.4,19.2,7.1c1.3,0.6,2.7,1.1,4.1,1.7l-10.8,27l-6.1-2.4c-4.8-1.9-10.8-4.3-16.6-5.6
		c-11.2-2.6-22.8,3.6-27.1,14.4c-2.8,7.1-2,15.2,2.3,21.7c4.3,6.4,10.3,9.5,16.2,11.8l13.3,5.3l-10.1,25.3c-1-0.4-2-0.8-3-1.2
		c-13-5-25.3-9.7-34.2-20c-8.1-9.3-12.6-21.2-12.9-33.4C915,120,916.3,113,918.9,106.5z M909.7,71.8l12,4.8L900.4,130l-12-4.8
		L909.7,71.8z M888,63.2l15.1,6l-21.3,53.4l-15.1-6L888,63.2z M866.3,54.5l15.1,6l-21.3,53.4l-15.1-6L866.3,54.5z M844.5,45.9
		l15.1,6l-21.3,53.4l-15.1-6L844.5,45.9z M822.8,37.2l15.1,6l-21.3,53.4l-15.1-6L822.8,37.2z M786.8,84.8c0.7-0.5,1.4-1,2.1-1.5
		c9.8-7.7,16-18.7,17.4-31.1c0.9-7.8-0.1-15.5-2.9-22.7l12.7,5.1l-21.3,53.3L786.8,84.8z M755.5,85.4c-10.4-1.2-19.6-6.4-26.1-14.6
		c-6.5-8.2-9.3-18.4-8.1-28.8c1.2-10.4,6.4-19.6,14.6-26.1c8.2-6.5,18.4-9.3,28.8-8.1c10.4,1.2,19.6,6.4,26.1,14.6
		c6.5,8.2,9.3,18.4,8.1,28.8c-0.4,3.5-1.3,6.8-2.5,9.9c-2.5,6.3-6.6,11.8-12.1,16.1C776.1,83.8,765.8,86.6,755.5,85.4z M735.6,98.6
		l-36.5-44.5l14.7-12.4c-1.3,12.2,2.1,24.1,9.7,33.7c5.7,7.2,13.2,12.5,21.8,15.3L735.6,98.6z M717.4,113.3L681,68.8l12.6-10.2
		l36.5,44.5L717.4,113.3z M699.2,128.1l-36.4-44.5l12.6-10.2l36.4,44.5L699.2,128.1z M681,142.8l-36.4-44.5l12.6-10.2l36.4,44.5
		L681,142.8z M663.2,157.3l-36.8-44.2l12.6-10.2l36.4,44.5L663.2,157.3z"/>
	<path class="st0" d="M768.3,26c-10.9-4.3-23.2,1-27.6,11.9c-4.3,10.9,1,23.2,11.9,27.6c10.9,4.3,23.2-1,27.6-11.9
		C784.5,42.7,779.2,30.3,768.3,26z M765.5,33c7,2.8,10.5,10.8,7.7,17.8s-10.8,10.5-17.8,7.7s-10.5-10.8-7.7-17.8
		C750.5,33.6,758.5,30.2,765.5,33z"/>
</g>
</svg>
