<?xml version="1.0" encoding="utf-8"?>
<!-- Generator: Adobe Illustrator 16.0.0, SVG Export Plug-In . SVG Version: 6.00 Build 0)  -->
<!DOCTYPE svg PUBLIC "-//W3C//DTD SVG 1.1//EN" "http://www.w3.org/Graphics/SVG/1.1/DTD/svg11.dtd">
<svg version="1.1" id="Layer_1" xmlns="http://www.w3.org/2000/svg" xmlns:xlink="http://www.w3.org/1999/xlink" x="0px" y="0px"
	 width="250px" height="250px" viewBox="0 0 250 250" enable-background="new 0 0 250 250" xml:space="preserve">
<path fill-rule="evenodd" clip-rule="evenodd" stroke="#FFFFFF" stroke-width="6" stroke-miterlimit="10" d="M10.421,82.077
	C27.167,68.67,45.294,59.257,67.206,60.52c18.98,1.094,34.827,8.754,45.739,24.852c5.276,7.782,7.498,16.425,4.872,25.805
	c-0.506,1.808-1.518,3.469-2.138,5.251c-0.229,0.659-0.271,1.631,0.058,2.195c2.482,4.251,5.078,8.437,7.66,12.68
	c0.112-0.162,0.436-0.542,0.654-0.977c2.292-4.542,4.613-9.07,6.796-13.664c0.324-0.681,0.324-2.02-0.119-2.489
	c-9.823-10.354-11.066-22.473-6.996-35.429c4.978-15.844,15.5-27.405,29.556-35.725c21.166-12.527,43.729-13.774,66.9-6.956
	c7.891,2.323,15.467,5.73,23.186,8.642c-0.027,0.241-0.055,0.483-0.08,0.724c-0.465,0.29-0.904,0.642-1.4,0.86
	c-16.742,7.347-28.871,19.899-39.162,34.565c-6.418,9.147-12.797,18.331-19.49,27.273c-4.396,5.87-9.637,11.012-16.393,14.227
	c-8.123,3.863-16.227,3.079-24.244-0.438c-1.029-0.452-2.033-0.961-3.285-1.555c-5.789,11.422-12.332,22.246-12.057,35.697
	c0.359,17.642,0.088,35.297,0.088,52.946c0,0.895,0,1.789,0,2.798c-3.151,0-6.073,0-9.24,0c0-1.004,0-1.896,0-2.786
	c0-18.105-0.029-36.211,0.01-54.316c0.023-10.891-2.856-20.843-9.369-29.916c-1.694,1.166-3.297,2.403-5.021,3.434
	c-8.793,5.262-17.606,4.711-26.043-0.609c-4.409-2.781-8.527-6.111-12.445-9.568c-7.298-6.438-14.234-13.287-21.543-19.713
	c-8.592-7.557-18.526-12.662-29.752-15.14c-0.888-0.196-1.758-0.475-2.633-0.729C11.099,82.398,10.897,82.284,10.421,82.077z
	 M222.629,46.47c-13.018-4.411-25.891-6.344-39.197-4.405c-17.801,2.593-32.535,10.61-43.461,25.03
	c-6.119,8.076-9.955,17.078-8.893,27.526c0.471,4.602,2.186,8.711,5.406,12.008c6.711-9.562,13.287-18.931,19.969-28.449
	c2.699,2.158,4.99,3.989,7.193,5.751c-6.629,9.495-13.129,18.809-19.635,28.127c7.07,4.712,15.447,4.976,21.676,0.156
	c4.16-3.221,8.1-6.966,11.316-11.116c6-7.742,11.398-15.95,17.051-23.963c6.59-9.345,13.658-18.277,22.41-25.736
	C218.359,49.784,220.354,48.284,222.629,46.47z M102.674,117.571c-7.717-8.406-17.247-14.139-26.682-20.278
	c1.836-2.583,3.534-4.97,5.298-7.452c9.744,5.943,19.007,12.198,27.14,20.284c1.64-4.321,1.49-8.305,0.279-12.232
	c-2.842-9.215-9.124-15.717-17.146-20.535c-15.851-9.521-32.514-9.897-49.548-3.616c-3.705,1.366-7.215,3.26-10.809,4.907
	c5.167,3.367,10.344,6.077,14.725,9.737c8.277,6.917,16.048,14.437,24.125,21.597c3.52,3.122,7.107,6.221,10.965,8.895
	C88.859,124.306,95.301,123.808,102.674,117.571z"/>
</svg>
