<?xml version="1.0" encoding="utf-8"?>
<!-- Generator: Adobe Illustrator 16.0.0, SVG Export Plug-In . SVG Version: 6.00 Build 0)  -->
<!DOCTYPE svg PUBLIC "-//W3C//DTD SVG 1.1//EN" "http://www.w3.org/Graphics/SVG/1.1/DTD/svg11.dtd">
<svg version="1.1" id="Layer_1" xmlns="http://www.w3.org/2000/svg" xmlns:xlink="http://www.w3.org/1999/xlink" x="0px" y="0px"
	 width="250px" height="250px" viewBox="0 0 250 250" enable-background="new 0 0 250 250" xml:space="preserve">
<g>
	<path fill-rule="evenodd" clip-rule="evenodd" stroke="#FFFFFF" stroke-width="3" stroke-miterlimit="10" d="M227.711,167.784
		c-1.365,3.681-4.1,4.987-7.899,4.875c-4.825-0.142-9.659,0.004-14.488-0.061c-1.217-0.017-1.725,0.37-2.144,1.542
		c-3.628,10.179-12.625,16.605-23.172,16.663c-10.562,0.059-19.659-6.414-23.324-16.693c-0.419-1.174-0.962-1.517-2.164-1.512
		c-10.994,0.045-21.989,0.06-32.984-0.013c-1.456-0.009-2.059,0.438-2.538,1.792c-3.445,9.729-12.026,15.97-22.376,16.395
		c-9.842,0.404-19.248-5.158-23.039-14.467c-1.351-3.32-3.024-3.924-6.087-3.733c-3.608,0.224-7.242,0.101-10.864,0.036
		c-3.767-0.067-6.367-2.272-6.642-5.498c-0.309-3.627,1.938-6.528,5.686-6.733c4.499-0.246,9.024-0.222,13.528-0.063
		c2.019,0.07,2.913-0.461,3.606-2.451c3.398-9.771,12.82-16.295,23.083-16.234c10.368,0.061,19.637,6.542,23.038,16.321
		c0.625,1.799,1.352,2.385,3.286,2.363c10.677-0.116,21.354-0.061,32.03-0.046c1.061,0.002,1.794-0.005,2.246-1.364
		c3.515-10.556,12.864-17.362,23.509-17.274c10.822,0.091,19.861,6.81,23.431,17.413c0.118,0.356,0.254,0.707,0.397,1.103
		c3.814,0,7.601,0,11.518,0c0.032-0.724,0.082-1.342,0.082-1.962c0.008-9.343,0.031-18.685-0.035-28.026
		c-0.007-0.927-0.38-1.997-0.931-2.747c-2.216-3.021-4.616-5.908-6.843-8.922c-0.799-1.083-1.641-1.485-2.996-1.48
		c-14.872,0.051-29.745,0.035-44.614,0.032c-5.304-0.002-7.53-2.223-7.533-7.528c-0.006-13.092-0.001-26.185-0.001-39.276
		c0-0.745,0-1.491,0-2.414c-1.052,0-1.865,0-2.678,0c-30.697,0-61.393,0.003-92.09-0.011c-1.072,0-2.175-0.041-3.209-0.288
		c-2.943-0.704-4.723-3.306-4.518-6.413c0.19-2.887,2.417-5.179,5.376-5.508c0.629-0.069,1.268-0.09,1.902-0.09
		c33.366-0.005,66.732-0.007,100.098,0c5.152,0.001,7.403,2.292,7.412,7.467c0.003,1.521,0,3.042,0,4.845c0.783,0,1.454,0,2.126,0
		c7.563,0,15.127,0.103,22.688-0.043c3.73-0.072,6.025,1.486,7.643,4.775c4.928,10.023,9.911,20.021,15.072,29.925
		c1.894,3.632,4.243,7.044,6.575,10.424c1.947,2.819,4.233,5.4,6.254,8.171c0.994,1.363,1.729,2.916,2.582,4.381
		C227.711,139.564,227.711,153.674,227.711,167.784z M199.309,104.621c-0.055-0.297-0.045-0.489-0.121-0.641
		c-3.836-7.658-7.657-15.322-11.564-22.944c-0.252-0.49-1.163-0.894-1.777-0.906c-4.254-0.078-8.511-0.042-12.77-0.042
		c-2.713,0-5.424,0-8.171,0c0,8.302,0,16.39,0,24.533C176.438,104.621,187.836,104.621,199.309,104.621z M96.071,153.996
		c-6.774-0.121-12.358,5.226-12.498,11.965c-0.141,6.742,5.219,12.364,11.946,12.526c6.847,0.166,12.44-5.2,12.58-12.069
		C108.236,159.696,102.834,154.116,96.071,153.996z M179.899,178.497c6.719,0.013,12.268-5.474,12.327-12.187
		c0.061-6.767-5.552-12.357-12.37-12.321c-6.744,0.035-12.239,5.55-12.221,12.268C167.655,172.975,173.177,178.485,179.899,178.497z
		"/>
	<path fill-rule="evenodd" clip-rule="evenodd" stroke="#FFFFFF" stroke-width="3" stroke-miterlimit="10" d="M32.471,109.44
		c1.625-3.581,4.47-4.629,8.278-4.602c16.501,0.125,33.005,0.049,49.508,0.059c3.485,0.002,5.766,1.49,6.678,4.277
		c1.209,3.7-1.236,7.514-5.105,7.934c-0.755,0.081-1.521,0.084-2.282,0.084c-16.439,0.004-32.878-0.063-49.317,0.054
		c-3.762,0.026-6.355-1.239-7.76-4.754C32.471,111.474,32.471,110.457,32.471,109.44z"/>
	<path fill-rule="evenodd" clip-rule="evenodd" stroke="#FFFFFF" stroke-width="3" stroke-miterlimit="10" d="M74.878,93.028
		c-8.577,0-17.153,0.026-25.729-0.011c-4.4-0.019-7.297-3.434-6.437-7.462c0.571-2.671,2.718-4.602,5.48-4.737
		c2.282-0.111,4.572-0.061,6.859-0.061c15.12-0.004,30.24-0.011,45.359,0.005c3.998,0.003,6.63,2.21,6.84,5.632
		c0.233,3.792-2.439,6.602-6.453,6.621C92.158,93.057,83.517,93.028,74.878,93.028z"/>
	<path fill-rule="evenodd" clip-rule="evenodd" stroke="#FFFFFF" stroke-width="3" stroke-miterlimit="10" d="M62.86,129.19
		c4.828,0,9.658-0.058,14.484,0.022c2.53,0.041,4.315,1.434,5.282,3.732c0.977,2.319,0.692,4.689-1.149,6.329
		c-1.228,1.093-3.083,2.037-4.677,2.069c-9.336,0.191-18.679,0.142-28.018,0.069c-3.585-0.029-6.238-2.769-6.256-6.131
		c-0.018-3.391,2.572-6.032,6.229-6.107c4.7-0.094,9.403-0.021,14.105-0.021C62.86,129.165,62.86,129.178,62.86,129.19z"/>
</g>
</svg>
